<svg xmlns="http://www.w3.org/2000/svg" fill="none" viewBox="-15.75 -15.75 300 300" id="Bring-Solutions-To-Problems--Streamline-Bangalore" height="300" width="300" style="background-color: #091e43">
  <desc>
    Bring Solutions To Problems Streamline Illustration: https://streamlinehq.com
  </desc>
  <g id="Product-Bring-solutions-to-problems-01">
    <g id="color 2">
      <path id="Vector" fill="#1b2194" d="m207.09019575 164.392308 -45.88676325 6.839829c-2.213676 -9.913185 -3.3903630000000002 -14.8536585 -4.164075 -18.402525 -3.2372325 -14.743512000000003 -16.04780775 -19.802191500000003 -19.595330999999998 -20.922462000000003 -0.44595900000000005 2.6730675 -16.016913 11.93208975 -23.08375125 7.699509000000001C88.4906235 173.38268025 72.5355 195.4563075 38.347101 227.8152c-5.257480500000001 4.87465425 10.0555695 21.615579 15.338571750000002 16.81749 32.901565500000004 -29.481651000000003 50.393367 -45.61677 75.2085675 -75.8210895l-4.79674575 -15.925572 20.5705305 35.34225075c1.461456 2.5065045 3.65766975 4.503917250000001 6.29043975 5.723588250000001 2.6341132500000004 1.21832775 5.577174 1.5984675 8.43426675 1.0907190000000002l51.55259175 -9.289917c4.62078 -0.7535632500000001 0.8771422500000001 -22.214668500000002 -3.8551275000000005 -21.3603615Z" stroke-width="1.5"></path>
      <path id="Vector_2" fill="#1b2194" d="m92.04351975 52.789725 -7.707568500000001 -35.80432875 -11.867613750000002 2.552175c-0.61547715 0.14332477500000002 -1.177627275 0.45858555 -1.6208997750000003 0.90884295 -0.443406825 0.450391725 -0.7498021500000001 1.01737755 -0.883455525 1.6350039 -0.13365337500000002 0.61762635 -0.0891918 1.2605058 0.128280375 1.8539536500000002 0.21733785 0.593313525 0.59882085 1.1127483 1.099987425 1.49772375 1.1425684500000002 0.88036605 2.00977065 2.069007975 2.4993852750000003 3.425690475 0.489614625 1.3568168250000001 0.5813586000000001 2.825257725 0.2643516 4.232446425 -0.317007 1.4070543750000002 -1.029601125 2.69429085 -2.053694925 3.7100565000000003 -1.024228125 1.015631325 -2.317240575 1.71747945 -3.7269814500000003 2.0229345000000003 -1.4097408750000002 0.305320725 -2.877375825 0.2014875 -4.2300285749999995 -0.299410425 -1.3526527499999998 -0.5008979250000001 -2.5340411250000003 -1.37790585 -3.4048701000000006 -2.5277278499999998 -0.8709633 -1.1498220000000001 -1.39509945 -2.52450405 -1.5107532750000001 -3.9623188500000004 -0.115653825 -1.437680475 0.18187605 -2.87858475 0.8577994499999999 -4.152926025 0.29524635 -0.5569114500000001 0.42634755 -1.18608975 0.37799055 -1.814596425 -0.048222675000000007 -0.628506675 -0.274023 -1.2302826750000002 -0.651073275 -1.7354790000000002 -0.37691595000000006 -0.505196325 -0.889634475 -0.892858275 -1.47838095 -1.1181213 -0.58861215 -0.22512870000000001 -1.229208075 -0.27859005000000003 -1.8471030750000001 -0.154070775l-11.076439500000001 2.37352275L52.92405 61.237424250000004c0.182816325 0.846113175 0.6941916000000001 1.584900675 1.4216958000000002 2.053963575 0.7275042 0.46892857500000007 1.611497025 0.629849925 2.4576102 0.44716792499999997l18.1956645 -3.9048277500000004c0.17059275000000002 -1.8456255000000001 0.5023755 -5.620158000000001 1.3781745 -6.7887855 0.99534825 -1.32578775 1.70995725 3.0894749999999997 2.1948705 5.99761125l10.9743525 -2.37352275c0.8451729 -0.18402525000000003 1.582751475 -0.695937825 2.0508741 -1.4231733750000002 0.468122625 -0.7272355500000001 0.6286410000000001 -1.6105567500000002 0.44622765000000003 -2.456132625Z" stroke-width="1.5"></path>
    </g>
    <g id="color 1">
      <path id="Vector_3" fill="#00dcb7" d="M124.27614675000001 88.67196225 121.83277500000001 91.453833c-0.09201262500000001 -0.639252675 -0.26166510000000004 -1.264938525 -0.505062 -1.86308775 1.009183725 -0.213979725 1.9963381500000001 -0.521583975 2.94843375 -0.9187830000000001Z" stroke-width="1.5"></path>
      <path id="Vector_4" fill="#00dcb7" d="M142.03794150000002 112.9431465c-0.768339 2.0745153000000003 -1.3996665000000001 4.1973876 -1.8886095 6.35491575 3.164697 0.1262655 3.368871 0.20283075 6.3804375 0.20283075l-4.491828 -6.5577464999999995Z" stroke-width="1.5"></path>
      <path id="Vector_5" fill="#00dcb7" d="M131.504175 165.5663085c-0.8677395000000001 1.09743525 -1.76100075 2.16934875 -2.6032185 3.2412622499999997l-4.79674575 -15.925572 7.399964250000001 12.68430975Z" stroke-width="1.5"></path>
      <path id="Vector_6" fill="#00dcb7" d="M133.9730685 73.07951625c-8.1105435 -9.289917 -13.065792750000002 -5.002263 -15.7670685 0.306261 2.858436 -5.410610999999999 7.374442500000001 -3.777219 8.395312500000001 2.1948705 0.102087 0.68908725 0.48491325 0.63804375 0.5614785 0.58700025 0.408750975 -0.10840027499999999 0.791039925 -0.299410425 1.122957 -0.5614785 2.37352275 -1.6589137500000002 4.00691475 2.5011315 0.45939150000000006 3.70065375 -0.4610034 2.57904 -0.7254893250000001 5.1892434000000005 -0.79117425 7.80831225 0 0 14.722020000000002 -4.1022855 6.01910325 -14.03561925Z" stroke-width="1.5"></path>
      <path id="Vector_7" fill="#00dcb7" d="M143.36507250000003 70.8080805c-3.0115665000000003 3.1391752500000005 -7.726374 3.5152852500000003 -10.54048275 0.816696 -2.8141087500000004 -2.69858925 -2.654262 -7.42682925 0.3573045 -10.5660045 3.0115665000000003 -3.1391752500000005 7.726374 -3.5152852500000003 10.54048275 -0.816696 2.8141087500000004 2.69858925 2.654262 7.42682925 -0.3573045 10.5660045Z" stroke-width="1.5"></path>
      <path id="Vector_8" fill="#00dcb7" d="M37.611000000000004 232.6858245C22.101835500000004 244.87447500000002 12.626550000000002 249.9224085 12.87773775 251.9534025c0.5373 4.3642192500000005 16.56361575 -2.7818707500000004 24.60162375 -2.11830525 1.903788225 0.20014425 3.8285311500000003 0.026865 5.6658285 -0.510435 2.06726175 -0.63804375 3.6267750000000003 -2.37352275 5.6147849999999995 -4.389741 -5.104215675 -2.562921 -9.076743225 -6.92714025 -11.148975000000002 -12.24909675Z" stroke-width="1.5"></path>
      <path id="Vector_9" fill="#00dcb7" d="M223.24814999999998 167.83774425000001c-5.65373925 -3.9196035000000005 -8.0595 -2.552175 -13.244444999999999 -1.19952225 2.42725275 5.01703875 3.4252875 10.606302 2.88395775 16.1539245 6.5577464999999995 -0.9174397500000001 14.3163585 -1.86308775 19.1144475 -2.1492 6.967437750000001 -0.402975 13.065792750000002 -1.01952675 13.552049250000001 -2.16934875 1.7381655 -4.02572025 -15.7240845 -5.992238250000001 -22.306009500000002 -10.635853500000001Z" stroke-width="1.5"></path>
      <path id="Vector_10" fill="#00dcb7" d="m200.22350175 95.86640925 -5.409267750000001 0.5373c1.225044 -3.5206582500000003 3.54618 -3.7785622500000002 5.409267750000001 -0.5373Z" stroke-width="1.5"></path>
      <path id="Vector_11" fill="#00dcb7" d="M201.245715 111.38631975000001c-1.19952225 2.654262 -3.1136535000000003 2.756349 -4.7470455 0.38282625l4.7470455 -0.38282625Z" stroke-width="1.5"></path>
      <path id="Vector_12" fill="#00dcb7" d="M166.23121725000001 46.0278045c-0.11417625 0.02444715 -0.23238224999999998 0.02605905 -0.34655850000000005 0.00456705 -0.11417625 -0.021492 -0.22432275000000002 -0.065684925 -0.32103675 -0.12975795 -0.09805725 -0.06420735000000001 -0.18133875000000002 -0.147085875 -0.24581475 -0.243799875 -0.06581925000000001 -0.096848325 -0.11014650000000001 -0.20565157500000003 -0.13298175 -0.32009647500000005l-2.16934875 -10.611675000000002c-0.04701375000000001 -0.22674060000000001 -0.0026865 -0.46301827500000003 0.12357900000000001 -0.65684925 0.12760875 -0.19383097500000002 0.32640975 -0.3293649 0.55207575 -0.37678162500000006 0.22700925000000002 -0.047416725 0.46342125 -0.0026865 0.6581925000000001 0.1241163 0.193428 0.1268028 0.32909625000000003 0.325469475 0.37611000000000006 0.5522100750000001l2.16934875 10.611675000000002c0.029551499999999998 0.112430025 0.03626775 0.22996439999999999 0.018805500000000003 0.3449466 -0.01746225 0.11498219999999999 -0.059102999999999996 0.22512870000000001 -0.12223575 0.3234546 -0.061789500000000004 0.098191575 -0.14372775000000002 0.182547675 -0.24044175 0.247560975 -0.096714 0.065147625 -0.20551725 0.10947487500000001 -0.3196935 0.13042957500000002Z" stroke-width="1.5"></path>
      <path id="Vector_13" fill="#00dcb7" d="m107.78909625000001 109.21697100000002 -4.02975 9.8245305c0.9187830000000001 0.07656525 1.86308775 0.12760875 2.7818707500000004 0.17865225 -0.51124095 -3.38579595 -0.0795204 -6.8468139 1.2478792500000002 -10.00318275Z" stroke-width="1.5"></path>
      <path id="Vector_14" fill="#00dcb7" d="M8.768736 146.1697785c-0.22252279500000002 0.21357675 -0.51951537 0.33312600000000003 -0.8283419775 0.33312600000000003 -0.30884004000000004 -0.00134325 -0.6053893425 -0.1208925 -0.827146485 -0.3358125 -0.22174371 -0.21492 -0.351367335 -0.5077485 -0.361522305 -0.816696 -0.010168402500000001 -0.30894750000000004 0.0999243675 -0.6084922500000001 0.3070535175 -0.838188 0.22252279500000002 -0.21357675 0.5195019375 -0.33312600000000003 0.8283419775 -0.33312600000000003 0.30884004000000004 0.00134325 0.6053893425 0.1208925 0.8271330525000001 0.3358125 0.2217571425 0.21492 0.351367335 0.5077485 0.3615357375 0.816696 0.010168402500000001 0.30894750000000004 -0.0999243675 0.6084922500000001 -0.3070535175 0.838188Z" stroke-width="1.5"></path>
      <path id="Vector_15" fill="#00dcb7" d="M124.19958150000001 105.15901275000002c0.025118775000000003 0.272545425 -0.0311634 0.546299775 -0.161592975 0.786741525 -0.13042957500000002 0.24057607500000003 -0.329230575 0.436959225 -0.5712842250000001 0.56443365 -0.24205365 0.127474425 -0.516479625 0.180398475 -0.7886220749999999 0.151921575 -0.27214245000000004 -0.028342575000000002 -0.529643475 -0.13687717500000002 -0.7401307500000001 -0.311634 -0.21048727500000003 -0.17489115000000002 -0.364423725 -0.40807935000000006 -0.44233222499999997 -0.670416075 -0.0779085 -0.2622024 -0.0762966 -0.541732725 0.00456705 -0.80299485 0.08086365 -0.26139645 0.23748660000000002 -0.49297275 0.44998875000000005 -0.665311725 0.21236782499999998 -0.172338975 0.4712121 -0.277918425 0.7436232 -0.30330585 0.1810701 -0.01746225 0.36388642499999996 0.0009402750000000001 0.5378373 0.054401625 0.173950875 0.053595675 0.335678175 0.140906925 0.47564482500000005 0.257232375 0.13996665 0.11619112499999999 0.25548615 0.259112925 0.3401109 0.42016860000000006 0.084490425 0.16119 0.13620555 0.33755872500000006 0.152190225 0.51876315Z" stroke-width="1.5"></path>
      <path id="Vector_16" fill="#00dcb7" d="M121.95366750000001 114.4744515c0.025118775000000003 0.2724111 -0.0311634 0.54616545 -0.161592975 0.786741525 -0.13042957500000002 0.24044175 -0.329230575 0.4368249 -0.5712842250000001 0.56443365 -0.24205365 0.127474425 -0.516479625 0.180398475 -0.7886220749999999 0.151921575 -0.27214245000000004 -0.028476900000000003 -0.529643475 -0.13687717500000002 -0.7401307500000001 -0.311634 -0.21048727500000003 -0.17489115000000002 -0.364423725 -0.40807935000000006 -0.44233222499999997 -0.670416075 -0.0779085 -0.2622024 -0.0762966 -0.541732725 0.00456705 -0.803129175 0.08086365 -0.261262125 0.23748660000000002 -0.492838425 0.44998875000000005 -0.6651774 0.21236782499999998 -0.1724733 0.4712121 -0.277918425 0.7436232 -0.30330585 0.181204425 -0.0177309 0.36402075000000006 0.000671625 0.53810595 0.05399865 0.173950875 0.053461350000000005 0.335678175 0.1407726 0.47564482500000005 0.25709804999999997 0.14010097500000002 0.11632545 0.255620475 0.25924725000000004 0.3401109 0.42043725000000004 0.084490425 0.161324325 0.13607122500000002 0.33769305000000005 0.151921575 0.5190318Z" stroke-width="1.5"></path>
      <path id="Vector_17" fill="#00dcb7" d="M121.95366750000001 124.88598225c0.025118775000000003 0.2724111 -0.0311634 0.54616545 -0.161592975 0.786741525 -0.13042957500000002 0.24044175 -0.329230575 0.436959225 -0.5712842250000001 0.56443365 -0.24205365 0.127474425 -0.516479625 0.180398475 -0.7886220749999999 0.151921575 -0.27214245000000004 -0.028342575000000002 -0.529643475 -0.13687717500000002 -0.7401307500000001 -0.311634 -0.21048727500000003 -0.17489115000000002 -0.364423725 -0.40807935000000006 -0.44233222499999997 -0.670416075 -0.0779085 -0.2622024 -0.0762966 -0.541732725 0.00456705 -0.803129175 0.08086365 -0.261262125 0.23748660000000002 -0.492838425 0.44998875000000005 -0.6651774 0.21236782499999998 -0.1724733 0.4712121 -0.277918425 0.7436232 -0.30330585 0.1810701 -0.017596575 0.36388642499999996 0.0009402750000000001 0.5378373 0.054401625s0.335678175 0.140906925 0.47564482500000005 0.25709804999999997c0.13996665 0.11632545 0.25548615 0.259112925 0.3401109 0.42030292500000005 0.084490425 0.16119 0.13620555 0.33755872500000006 0.152190225 0.51876315Z" stroke-width="1.5"></path>
    </g>
    <g id="outlines">
      <path id="Vector_18" stroke="#fcfcfc" stroke-linecap="round" stroke-linejoin="round" d="M56.01352500000001 242.56139850000002 89.99775000000001 255.781665l9.365139000000001 -24.116710500000003c0.545225175 -1.32847425 1.455142725 -2.4742665 2.624844825 -3.3070815000000002 1.1695677750000002 -0.8328150000000001 2.5509660750000003 -1.3163850000000001 3.9842138250000003 -1.39698 1.433382075 -0.080595 2.8601822250000004 0.24715800000000002 4.115180700000001 0.94430475 1.2551328000000002 0.69714675 2.2871517750000003 1.7354790000000002 2.97691065 2.9941042500000004 1.573348725 2.88933075 3.939349275 5.268226500000001 6.8194116000000005 6.8586345 2.8801966500000002 1.5890647500000001 6.154502850000001 2.3238225 9.4376745 2.11561875 3.28317165 -0.209547 6.4384659 -1.3513095000000002 9.09407115 -3.29230575 2.6569485 -1.9409962500000002 4.70271825 -4.60063125 5.8982107500000005 -7.664584500000001 1.1954925 -3.0652965 1.4910075000000003 -6.40864575 0.8502772500000001 -9.63513225 -0.64073025 -3.2264865000000005 -2.1894975 -6.203128500000001 -4.46361975 -8.57933775 -2.2754655 -2.3775525 -5.1822585000000005 -4.0539285 -8.3775816 -4.83435675 -3.1958604 -0.7804282499999999 -6.5482094250000005 -0.6313275 -9.662265900000001 0.42984 -1.3605779249999999 0.46879424999999997 -2.826332325 0.54132975 -4.226536125 0.209547 -1.400338125 -0.33178275 -2.67763455 -1.05445125 -3.683057175 -2.08338075 -1.0055569500000001 -1.03027275 -1.6978680000000002 -2.3238225 -1.996472475 -3.7315485 -0.29860447500000004 -1.407726 -0.191144475 -2.8718685 0.309887775 -4.2204915l6.329394 -16.253325" stroke-width="1.5"></path>
      <path id="Vector_19" stroke="#fcfcfc" stroke-linecap="round" stroke-linejoin="round" d="m35.284491 234.49786874999998 -23.8104495 -9.268425c-0.9111130424999999 -0.35461800000000004 -1.7434713375 -0.8852017500000001 -2.4495104025 -1.5608564999999999 -0.7060524975000001 -0.676998 -1.27195029 -1.4856345000000002 -1.6653747825000003 -2.380239 -0.3934244925 -0.8946045000000001 -0.6066788625 -1.8590579999999999 -0.6275529675 -2.8369440000000004 -0.0208875375 -0.97654275 0.1509947325 -1.94905575 0.5058276525000001 -2.8597792500000003l27.71527725 -71.23254750000001c0.35448367500000005 -0.9120667500000001 0.8853360750000001 -1.7462250000000001 1.5621997500000002 -2.4527745000000003 0.676998 -0.7065495 1.4867091000000001 -1.273401 2.382791175 -1.6669732500000003 0.896082075 -0.39357225 1.86093855 -0.60580575 2.83936185 -0.6259545000000001 0.9785576250000001 -0.02014875 1.9513392750000003 0.1531305 2.8628687250000002 0.5090917500000001l53.461349999999996 20.77336125" stroke-width="1.5"></path>
      <path id="Vector_20" stroke="#fcfcfc" stroke-linecap="round" stroke-linejoin="round" d="M224.290512 98.62544475c0.1585035 0.6082236 0.39894525 1.192134375 0.714609 1.7354790000000002" stroke-width="1.5"></path>
      <path id="Vector_21" stroke="#fcfcfc" stroke-linecap="round" stroke-linejoin="round" d="M224.21931975 95.07926475000001c0.22566600000000003 -1.075002975 0.6823710000000001 -2.08821645 1.337877 -2.969522775 0.655506 -0.8813063250000001 1.49503725 -1.6097508 2.45949075 -2.134827225 2.8879875 -1.57348305 5.268226500000001 -3.9394836 6.857291250000001 -6.8194116000000005 1.5890647500000001 -2.880062325 2.32247925 -6.154099875 2.1142755 -9.436868550000002 -0.209547 -3.2827686750000002 -1.3513095000000002 -6.4376599500000005 -3.29230575 -9.093130875 -1.9409962500000002 -2.6556052500000003 -4.60063125 -4.701509325000001 -7.664584500000001 -5.8967331750000005 -3.0652965 -1.19522385 -6.4073025 -1.490067225 -9.633789 -0.8498742750000001 -3.2264865000000005 0.6401929500000001 -6.203128500000001 2.188825875 -8.57933775 4.463485425 -2.37620925 2.2747938750000003 -4.05258525 5.180915250000001 -4.8330135 8.376507 -0.779085 3.19559175 -0.6313275 6.547403475 0.42984 9.6611913 0.4701375 1.3605779249999999 0.5426730000000001 2.826600975 0.21223350000000002 4.22720775 -0.33178275 1.400606775 -1.05445125 2.67817185 -2.084724 3.6838631250000002 -1.03027275 1.0055569500000001 -2.3238225 1.697733675 -3.73289175 1.995935175 -1.407726 0.298067175 -2.8718685 0.18980122500000002 -4.2204915 -0.3121713l-25.826667750000002 -10.0287045 -6.7162500000000005 17.276881500000002" stroke-width="1.5"></path>
      <path id="Vector_22" stroke="#fcfcfc" stroke-linecap="round" stroke-linejoin="round" d="m195.19706025000002 188.59230000000002 17.327925 6.7162500000000005c0.9120667500000001 0.35596125 1.88457975 0.5292405 2.8624657499999997 0.5090917500000001 0.977886 -0.02014875 1.9436827500000002 -0.2337255 2.8396305 -0.6272977500000001 0.89594775 -0.39357225 1.70458425 -0.9590805 2.38158225 -1.6656300000000002 0.676998 -0.7078927500000001 1.2075817500000001 -1.5407077500000002 1.5621997500000002 -2.4527745000000003l3.911544 -10.063629m0.80997975 -78.41624850000001c0.5829705000000001 0.45469012500000006 1.2277305 0.8240838750000001 1.91413125 1.09743525l16.81883325 6.50804625c0.9120667500000001 0.35434935 1.74488175 0.8852017500000001 2.45143125 1.5620654250000001s1.273401 1.4864404500000001 1.6669732500000003 2.3823882000000003c0.39357225 0.89594775 0.60580575 1.860804225 0.6259545000000001 2.8390932 0.02014875 0.978288975 -0.1531305 1.9509363 -0.5090917500000001 2.8623314250000003l-19.86532425 51.101259750000004" stroke-width="1.5"></path>
      <path id="Vector_23" stroke="#fcfcfc" stroke-linecap="round" stroke-linejoin="round" d="M138.08610000000002 128.994984c1.7220465 0.13163850000000002 3.3514087500000005 0.8326806750000001 4.63018275 1.9925770500000002s2.1357675 2.7126933749999997 2.43531225 4.4133822" stroke-width="1.5"></path>
      <path id="Vector_24" stroke="#fcfcfc" stroke-linecap="round" stroke-linejoin="round" d="M109.57561875 97.29831375c3.22138215 -3.2505306750000003 7.5976906500000005 -5.0945442750000005 12.173874750000001 -5.12987175" stroke-width="1.5"></path>
      <path id="Vector_25" stroke="#fcfcfc" stroke-linecap="round" stroke-linejoin="round" d="M131.03806725 64.9891215 91.35443250000002 49.57532775" stroke-width="1.5"></path>
      <path id="Vector_26" stroke="#fcfcfc" stroke-linecap="round" stroke-linejoin="round" d="m151.71068475 97.63009650000001 8.344269 -21.33483975 -15.924228750000001 -6.20178525" stroke-width="1.5"></path>
      <path id="Vector_27" stroke="#fcfcfc" stroke-linecap="round" stroke-linejoin="round" d="M104.3947035 152.65230300000002 48.4026705 130.88359350000002c-1.8389092500000002 -0.72025065 -3.3174245250000003 -2.1400659 -4.111553925000001 -3.94834905 -0.7941294 -1.8081488250000002 -0.8389939500000001 -3.85754535 -0.125056575 -5.6988724500000005l7.452351 -19.3186215c0.4808835 -1.3501005750000001 0.57410505 -2.8079297999999997 0.2691873 -4.20840225 -0.30491775000000004 -1.400338125 -0.99588555 -2.687440275 -1.9945919250000002 -3.7154295000000004 -0.9987063750000001 -1.0278549000000001 -2.2653911250000003 -1.75562775 -3.6563265 -2.1008430000000002 -1.3910697 -0.34521525000000003 -2.851048125 -0.294037425 -4.214446875 0.1477575 -3.1063999500000006 1.049212575 -6.447734325 1.1901195 -9.631371150000001 0.406333125 -3.18377115 -0.7839207 -6.0776689500000005 -2.459893725 -8.341985475000001 -4.831267275 -2.264316525 -2.3713735500000004 -3.8048899499999997 -5.339687400000001 -4.4407845 -8.55623385 -0.636028875 -3.21654645 -0.34091685000000005 -6.547672125000001 0.850680225 -9.60235695 1.1914627500000001 -3.0545505 3.229844625 -5.70585735 5.875778475 -7.642152225 2.64593385 -1.9364292 5.789407499999999 -3.0776544 9.06129585 -3.2894849250000004 3.2720226750000005 -0.21196485 6.536523150000001 0.5141960999999999 9.41000355 2.09305215 2.873614725 1.578990375 5.236928775 3.94512525 6.812561025 6.8204862 2.9672392500000004 5.449565250000001 11.342403000000001 5.373 13.70115 -0.7401307500000001l1.02087 -2.6287402500000003" stroke-width="1.5"></path>
      <path id="Vector_28" stroke="#fcfcfc" stroke-linecap="round" stroke-linejoin="round" d="M121.32099675 89.59477500000001c1.0164372750000001 -0.20444265 2.0073528 -0.51983775 2.95515 -0.940275L121.83277500000001 91.42831125000001" stroke-width="1.5"></path>
      <path id="Vector_29" stroke="#fcfcfc" stroke-linecap="round" stroke-linejoin="round" d="M139.53681 97.4259225c-2.853063 -0.060983550000000004 -5.6690523 -0.6673266000000001 -8.29456875 -1.7865225000000002 -1.7059275 -0.92549925 -3.3675277500000003 -2.6032185 -3.29230575 -8.524264500000001 0.0676998 -2.6189345250000002 0.332185725 -5.229137925 0.79117425 -7.80831225 3.5475232500000002 -1.1740005 1.9463692500000003 -5.313897 -0.45939150000000006 -3.70065375 -0.8852017500000001 0.5937165 -1.52727525 0.96311025 -1.6844355 0 -0.972513 -6.00567075 -5.5368765 -7.6054815 -8.395312500000001 -2.1948705l-0.8932612500000001 2.06726175c-2.0686050000000002 5.8216455 -2.3775525 15.118278750000002 4.0122877500000005 14.112184500000001 0.24957585 0.5872689 0.41936265 1.2051639 0.505062 1.8375660000000003 0.03358125 0.63804375 -0.66490875 4.056615 -1.429218 4.491828 -1.5595132500000002 0.8892315000000001 -4.2621322500000005 1.7354790000000002 -9.11126475 1.5057832500000001" stroke-width="1.5"></path>
      <path id="Vector_30" stroke="#fcfcfc" stroke-linecap="round" stroke-linejoin="round" d="M196.458372 111.83227875c13.95502425 -1.22101425 16.66570275 -2.063232 25.656075 -3.406482 0.9187830000000001 -0.12760875 1.9920397500000002 -0.32909625000000003 3.2157405000000003 -0.58700025 4.52003625 -0.956394 4.8491325 -2.41785 -0.43386975000000005 -2.348001 -2.68247025 0.0354618 -5.355537750000001 -0.317007 -7.93726425 -1.0463917500000002" stroke-width="1.5"></path>
      <path id="Vector_31" stroke="#fcfcfc" stroke-linecap="round" stroke-linejoin="round" d="M218.87990100000002 104.907825c0.02552175 0.12760875 3.37021425 -0.8919180000000001 7.42682925 -2.1492 4.5428715 -1.4023530000000002 4.8222675 -3.24932175 -0.68908725 -2.4756097500000003 -2.777841 0.528300225 -5.62687425 0.580149675 -8.4221775 0.1531305" stroke-width="1.5"></path>
      <path id="Vector_32" stroke="#fcfcfc" stroke-linecap="round" stroke-linejoin="round" d="M216.22698225000002 97.29831375s9.97631775 -2.7617220000000002 10.590183000000001 -2.95515c4.7013750000000005 -1.5219022500000001 5.410610999999999 0.17999550000000003 1.4036962499999999 2.32247925 -3.6751320000000005 1.96517475 -8.575308000000001 4.02975 -8.575308000000001 4.02975" stroke-width="1.5"></path>
      <path id="Vector_33" fill="#fcfcfc" d="M194.68393875 95.91194542500001c-0.2767095 0.0279396 -0.478197 0.2750976 -0.44998875000000005 0.5518071 0.028208250000000004 0.27684382500000004 0.27536625 0.47846565 0.55207575 0.45052605l-0.102087 -1.0023331500000001Zm6.4852110000000005 -0.144936675v0.50371875c0.01208925 0 0.02283525 -0.00040297499999999997 0.0349245 -0.001208925l-0.0349245 -0.502509825Zm4.51734975 -3.19021875 0.4970025 0.08328150000000001 -0.4970025 -0.08328150000000001Zm2.06726175 -6.737742 0.07925175 -0.49753980000000003 -0.00134325 0 -0.0779085 0.49753980000000003Zm2.73082725 8.39665575 0.4110345 -0.2917539 0 -0.000134325 -0.4110345 0.291888225Zm3.80274075 -0.38282625 0.193428 0.46489882500000007 0.00134325 -0.00040297499999999997 -0.19477125 -0.46449585Zm7.04265975 -3.0370882500000005 -0.21089025 -0.45737662500000004 -0.00134325 0.00040297499999999997 0.21223350000000002 0.45697365Zm1.531305 2.06726175 0.2605905 0.4309146 0.010746 -0.0064475999999999995 -0.27133650000000004 -0.42446700000000004Zm-5.18360175 3.5676720000000004c-0.18939825 0.20336805000000002 -0.17865225 0.522121275 0.0241785 0.7119225 0.20283075 0.18993555 0.52252425 0.179055225 0.7119225 -0.0241785l-0.7361010000000001 -0.687744Zm-22.942709999999998 -0.037611000000000006 0.0510435 0.5011665750000001c0 -0.000134325 0 -0.000134325 0.00134325 -0.000134325 0 -0.000134325 0.00134325 -0.00026865 0.0026865 -0.00040297499999999997 0.00402975 -0.00026865 0.0080595 -0.000671625 0.0134325 -0.00134325l0.05373 -0.005373c0.04701375000000001 -0.004701375000000001 0.1155195 -0.011686275 0.20283075 -0.020551725 0.1746225 -0.017596575 0.42446700000000004 -0.042849675 0.7240117500000001 -0.073207125 0.5990895 -0.060580575000000005 1.39832325 -0.14130990000000002 2.19890025 -0.222039225 0.80192025 -0.080729325 1.6038405 -0.16145865 2.20964625 -0.222039225 0.30223125 -0.030357449999999998 0.5561055 -0.055476225000000004 0.7347577500000001 -0.073207125 0.08999775000000002 -0.008731125 0.15984675 -0.0155817 0.209547 -0.020283075 0.0241785 -0.00241785 0.041640750000000004 -0.00402975 0.055073250000000004 -0.005238675 0.030894750000000002 -0.002820825 0.005373 0.00026865 -0.02283525 0.00026865v-1.0074375c-0.0134325 0 -0.0241785 0.0005373 -0.02552175 0.000671625 -0.005373 0.000134325 -0.0080595 0.00040297499999999997 -0.010746 0.0005373 -0.00402975 0.00026865 -0.0080595 0.000671625 -0.010746 0.0008059499999999999 -0.00671625 0.0005373 -0.0134325 0.001208925 -0.021492 0.0018805500000000001 -0.014775749999999999 0.00134325 -0.0349245 0.0032237999999999998 -0.06044625 0.00564165 -0.04970025 0.0048357 -0.12223575 0.0118206 -0.21089025 0.02068605 -0.17999550000000003 0.017596575 -0.43386975000000005 0.042849675 -0.7374442500000001 0.073207125 -0.60580575 0.060580575000000005 -1.407726 0.14130990000000002 -2.20964625 0.22217355 -0.800577 0.080729325 -1.59981075 0.16145865 -2.2002435 0.222039225 -0.29954475 0.030357449999999998 -0.548046 0.05561055 -0.7226685 0.073207125 -0.08731125 0.00886545 -0.15716025000000003 0.01585035 -0.20283075 0.020551725 -0.0241785 0.002283525 -0.041640750000000004 0.004164075 -0.05373 0.005373l-0.0134325 0.00134325c-0.00134325 0.00026865 -0.0026865 0.00026865 -0.00402975 0.00040297499999999997 0 0 0 0.000134325 -0.00134325 0.000134325l0.0510435 0.5011665750000001Zm6.469092 -0.143593425c1.031616 -0.07065495000000001 2.1760650000000004 -0.494987625 3.100221 -1.113957225 0.9107235000000001 -0.6099698250000001 1.708614 -1.4786496 1.87920675 -2.49548985l-0.994005 -0.16656300000000002c-0.10343025 0.617760675 -0.63267075 1.2803859000000002 -1.445337 1.82493945 -0.800577 0.5356881 -1.7784630000000001 0.8890971750000001 -2.6099347500000003 0.9460509750000001l0.069849 1.00501965Zm4.97942775 -3.6094470750000003c0.11954925 -0.711250875 0.22029300000000002 -1.508872725 0.32640975 -2.282584725 0.10611675000000001 -0.7806969000000001 0.21626325000000002 -1.5404391000000002 0.35327475 -2.20212405 0.13835475 -0.672027975 0.29685825 -1.19522385 0.4808835 -1.52727525 0.18805500000000003 -0.3390363 0.29954475 -0.3164697 0.33178275 -0.31149967500000003l0.155817 -0.9950796000000001c-0.67028175 -0.1058481 -1.1095245 0.352871775 -1.3674285000000002 0.818173575 -0.26193375 0.47228670000000006 -0.44461575000000003 1.1213451 -0.5883435 1.81096965 -0.145071 0.6998332500000001 -0.25924725000000004 1.4908731750000002 -0.365364 2.2711671 -0.10611675000000001 0.787010175 -0.20551725 1.5605878499999999 -0.32103675 2.251689975l0.994005 0.16656300000000002Zm1.4910075000000003 -6.323618025c0.26730675000000004 0.042581025 0.52252425 0.2627397 0.7495335000000001 0.8580681000000001 0.22297950000000002 0.5851197 0.35864775000000004 1.382069925 0.4755105 2.28755475 0.11417625 0.880500375 0.21223350000000002 1.8665802 0.36805050000000006 2.7363345750000003 0.15447375000000002 0.861157575 0.38148299999999996 1.711703475 0.80595 2.3090467500000003l0.822069 -0.583642125c-0.28611225 -0.40122877500000004 -0.48357 -1.056734775 -0.6367005 -1.9033852500000001 -0.15044400000000002 -0.838188 -0.24044175 -1.7619410250000003 -0.35999100000000006 -2.687977575 -0.11686275 -0.900917775 -0.26327700000000004 -1.80720855 -0.5332702500000001 -2.516578875 -0.2659635 -0.699161625 -0.7172955000000001 -1.364876325 -1.53264825 -1.4943656250000001l-0.1585035 0.9949452750000001Zm2.3990445 8.191004175c0.25656075 0.36133425 0.69714675 0.464630175 1.03833225 0.4937787 0.36939375 0.03143205 0.79117425 -0.009537075 1.198179 -0.079654725 0.81535275 -0.140638275 1.68040575 -0.41949697500000005 2.1706920000000003 -0.6238053l-0.386856 -0.929931975c-0.42849675000000004 0.17865225 -1.22101425 0.4344070500000001 -1.955772 0.5609412 -0.36805050000000006 0.06367005 -0.69446025 0.089594775 -0.940275 0.06864007500000001 -0.27267975000000005 -0.023238225 -0.31566375 -0.09160965 -0.30223125 -0.07347577500000001l-0.822069 0.5835078Zm4.4085465 -0.21008430000000003c1.5057832500000001 -0.6322677750000001 6.56446275 -2.814511725 7.060122000000001 -3.0447447750000003l-0.42446700000000004 -0.913812975c-0.47685375 0.22123327500000003 -5.51672775 2.396492325 -7.025197500000001 3.02956605l0.3895425 0.9289917Zm7.05877875 -3.0442074750000003c1.10818125 -0.511106625 1.9409962500000002 -0.7631003250000001 2.50516125 -0.836441775 0.28342575 -0.036805050000000006 0.4701375 -0.024581475000000002 0.57894075 0.0025521750000000003 0.10611675000000001 0.0263277 0.08865450000000001 0.051849450000000005 0.06581925000000001 0.009402750000000001 -0.021492 -0.040028850000000005 0.0080595 -0.037342349999999996 -0.026865 0.0676998 -0.0349245 0.105445125 -0.11954925 0.26300835 -0.28611225 0.46785397500000003 -0.33178275 0.40727340000000006 -0.9187830000000001 0.9190516500000001 -1.78786575 1.474216875l0.5426730000000001 0.8490683250000001c0.9201262500000001 -0.5878062000000001 1.60249725 -1.1668812750000002 2.02696425 -1.68739065 0.21089025 -0.259112925 0.37476675000000004 -0.524807775 0.4607347500000001 -0.7880847750000001 0.08731125 -0.263679975 0.11148975000000001 -0.57517965 -0.042984 -0.861157575 -0.155817 -0.288395775 -0.43118325 -0.44045167500000004 -0.7105792500000001 -0.509494725 -0.27536625 -0.068371425 -0.5990895 -0.06944602500000001 -0.951021 -0.0236412 -0.7065495 0.091743975 -1.6427947500000002 0.38873655 -2.7966465 0.92066355l0.4217805 0.9147532500000001Zm1.0598242500000001 1.17910485c-1.81741725 1.100793375 -3.4736445 2.4463269 -4.92301125 3.9984522750000004l0.7361010000000001 0.687744c1.3862340000000002 -1.484694225 2.9712690000000004 -2.77166205 4.70809125 -3.8246357250000003l-0.521181 -0.86156055Z" stroke-width="1.5"></path>
      <path id="Vector_34" stroke="#fcfcfc" stroke-linecap="round" stroke-linejoin="round" d="M215.35924275 95.30761725c1.6817490000000002 3.205934775 2.17740825 6.9022901249999995 1.4023530000000002 10.43839575" stroke-width="1.5"></path>
      <path id="Vector_35" stroke="#fcfcfc" stroke-linecap="round" stroke-linejoin="round" d="M212.9346765 97.3238355c-0.33178275 4.1345235 -2.1492 6.9929595 -6.0231330000000005 7.758612" stroke-width="1.5"></path>
      <path id="Vector_36" stroke="#fcfcfc" stroke-linecap="round" stroke-linejoin="round" d="M140.14933200000002 119.29806225000002c0.488943 -2.15752815 1.1202705 -4.28040045 1.8886095 -6.35491575l4.4569035 6.50804625" stroke-width="1.5"></path>
      <path id="Vector_37" stroke="#fcfcfc" stroke-linecap="round" stroke-linejoin="round" d="m128.8848375 168.7739895 -4.787343 -15.89199075 7.399964250000001 12.68430975" stroke-width="1.5"></path>
      <path id="Vector_38" stroke="#fcfcfc" stroke-linecap="round" stroke-linejoin="round" d="M114.37370775000001 139.58651025c-26.33710275 34.35093225 -41.237775 55.812037499999995 -76.02795 88.22466000000001 -5.238675 4.88540025 10.01392875 21.600803250000002 15.31305 16.81749l9.1341 -8.242182C87.57990000000001 213.97972500000003 103.5780075 199.1260665 123.17602500000001 175.723965c0 0 7.45100775 -9.06022125 8.31874725 -10.157656500000002l13.194744750000002 22.636449000000002c1.45742625 2.51053425 3.65229675 4.5119767500000005 6.28641 5.7316477500000005 2.6354565 1.21832775 5.58120375 1.5971242500000002 8.4382965 1.0826595l51.5808 -9.268425c4.61943675 -0.76968225 0.79386075 -22.1824305 -3.9048277500000004 -21.357675l-45.88676325 6.839829s-3.56901525 -15.716025 -4.164075 -18.426703500000002c-1.0611675 -4.9324140000000005 -3.44006325 -9.486031500000001 -6.881469750000001 -13.175939249999999 -3.4427497500000004 -3.68990775 -7.81905825 -6.377616675 -12.6668475 -7.778760750000001" stroke-width="1.5"></path>
      <path id="Vector_39" stroke="#fcfcfc" stroke-linecap="round" stroke-linejoin="round" d="M118.206 73.38577725c2.7053054999999997 -5.308524 7.656525 -9.59483475 15.77109825 -0.306261 8.67605175 9.92796075 -6.0231330000000005 14.061141000000001 -6.0231330000000005 14.061141000000001" stroke-width="1.5"></path>
      <path id="Vector_40" stroke="#fcfcfc" stroke-linecap="round" stroke-linejoin="round" d="M143.36507250000003 70.8080805c-3.0115665000000003 3.1391752500000005 -7.726374 3.5152852500000003 -10.54048275 0.816696 -2.8141087500000004 -2.69858925 -2.654262 -7.42682925 0.3573045 -10.5660045 3.0115665000000003 -3.1391752500000005 7.726374 -3.5152852500000003 10.54048275 -0.816696 2.8141087500000004 2.69858925 2.654262 7.42682925 -0.3573045 10.5660045Z" stroke-width="1.5"></path>
      <path id="Vector_41" stroke="#fcfcfc" stroke-linecap="round" stroke-linejoin="round" d="M48.759975 244.93492125c-1.9906965 2.014875 -3.551553 3.739608 -5.6147849999999995 4.389741 -1.8375660000000003 0.5359567500000001 -3.762040275 0.7092360000000001 -5.6658285 0.510435 -8.0406945 -0.64073025 -24.060294 6.481181250000001 -24.60162375 2.11830525 -0.15178725 -1.225044 4.77256725 -4.8491325 10.59152625 -8.731125 3.6751320000000005 -2.450088 9.2388735 -6.685355250000001 14.13770625 -10.539139500000001" stroke-width="1.5"></path>
      <path id="Vector_42" stroke="#fcfcfc" stroke-linecap="round" stroke-linejoin="round" d="M209.99967525 166.638222c3.2412622499999997 -0.84221775 5.7410505 -1.78249275 8.114573250000001 -1.225044 1.84965525 0.4701375 3.5905072500000004 1.29086325 5.12987175 2.41785 6.603417000000001 4.6180935000000005 24.02671275 6.603417000000001 22.306009500000002 10.6412265 -0.488943 1.1471355 -6.581925000000001 1.7623440000000001 -13.552049250000001 2.16934875 -4.798089 0.2820825 -12.556701000000002 1.225044 -19.1144475 2.1492" stroke-width="1.5"></path>
      <path id="Vector_43" stroke="#fcfcfc" stroke-linecap="round" stroke-linejoin="round" d="M197.3099925 93.59900325c0.956394 -0.07925175 1.9933830000000001 0.671625 2.91350925 2.267406" stroke-width="1.5"></path>
      <path id="Vector_44" stroke="#fcfcfc" stroke-linecap="round" stroke-linejoin="round" d="M201.245715 111.38631975000001c-0.5614785 1.225044 -1.327131 1.9906965 -2.1948705 2.06726175" stroke-width="1.5"></path>
      <path id="Vector_45" stroke="#fcfcfc" stroke-linecap="round" stroke-linejoin="round" d="M166.92030450000001 44.981412750000004c0.037611000000000006 0.2262033 -0.0134325 0.458451225 -0.1423845 0.64771515 -0.13029525 0.189263925 -0.32909625000000003 0.320902425 -0.553419 0.367110225 -0.22432275000000002 0.0462078 -0.45804825000000005 0.0036267750000000005 -0.6528195 -0.11901195 -0.193428 -0.12263872500000002 -0.33178275 -0.31566375 -0.386856 -0.538508925l-2.16934875 -10.611675000000002c-0.04701375000000001 -0.226874925 -0.0026865 -0.4631526 0.12357900000000001 -0.656983575 0.12760875 -0.19383097500000002 0.32640975 -0.3293649 0.553419 -0.3766473 0.22566600000000003 -0.047416725 0.462078 -0.002820825 0.65684925 0.123981975 0.193428 0.126937125 0.32909625000000003 0.325469475 0.37611000000000006 0.5523444000000001l2.1948705 10.611675000000002Z" stroke-width="1.5"></path>
      <path id="Vector_46" stroke="#fcfcfc" stroke-linecap="round" stroke-linejoin="round" d="m162.60712875000002 28.366753499999998 1.2760875 6.1762635" stroke-width="1.5"></path>
      <path id="Vector_47" stroke="#fcfcfc" stroke-linecap="round" stroke-linejoin="round" d="M159.46795350000002 13.029498135c-1.51652925 0.31058626500000003 -2.9067930000000004 1.063880865 -3.9948255000000006 2.164539915 -1.08937575 1.100793375 -1.82682 2.4995196 -2.1196485000000003 4.019406975000001 -0.29417175 1.519887375 -0.13029525 3.0926988 0.4701375 4.51949895 0.6004327500000001 1.42680015 1.6105567500000002 2.643516 2.90276325 3.49647975 1.29086325 0.852829425 2.8073924999999997 1.3034898000000001 4.3548165 1.295027325 1.54876725 -0.008462475 3.0585802500000003 -0.47577915000000004 4.341384000000001 -1.3428470250000002 1.28280375 -0.86693355 2.278152 -2.09466405 2.8638090000000003 -3.5280461250000004 0.5843137500000001 -1.43324775 0.730728 -3.0078054 0.42043725000000004 -4.52433465 -0.20551725 -1.007303175 -0.6084922500000001 -1.964234475 -1.18340325 -2.8159893 -0.57625425 -0.851754825 -1.3136985 -1.581676875 -2.17203525 -2.1481254 -0.8583367500000001 -0.5664485250000001 -1.8187605000000002 -0.9583685775000002 -2.8288845 -1.15320699 -1.0087807500000001 -0.19483841250000003 -2.047113 -0.18886095 -3.0545505 0.017596575Z" stroke-width="1.5"></path>
      <path id="Vector_48" stroke="#fcfcfc" stroke-linecap="round" stroke-linejoin="round" d="m253.35844200000003 156.25086975 -2.98604475 -0.8932612500000001" stroke-width="1.5"></path>
      <path id="Vector_49" stroke="#fcfcfc" stroke-linecap="round" stroke-linejoin="round" d="m256.9825305 154.26017325 0.8677395000000001 -2.98604475" stroke-width="1.5"></path>
      <path id="Vector_50" stroke="#fcfcfc" stroke-linecap="round" stroke-linejoin="round" d="m254.45587725000001 162.83548125 0.8932612500000001 -2.9605230000000002" stroke-width="1.5"></path>
      <path id="Vector_51" stroke="#fcfcfc" stroke-linecap="round" stroke-linejoin="round" d="m258.973227 157.88426175 2.9605230000000002 0.8677395000000001" stroke-width="1.5"></path>
      <path id="Vector_52" stroke="#fcfcfc" stroke-linecap="round" stroke-linejoin="round" d="M258.97860000000003 157.88426175c-0.7441605000000001 -0.21894975000000003 -1.370115 -0.7226685 -1.7435385 -1.4023530000000002s-0.462078 -1.47891825 -0.24715800000000002 -2.224422c-0.21894975000000003 0.7441605000000001 -0.7226685 1.370115 -1.4023530000000002 1.7435385s-1.47891825 0.462078 -2.224422 0.24715800000000002c0.7441605000000001 0.21894975000000003 1.370115 0.7226685 1.7435385 1.4023530000000002s0.462078 1.47891825 0.24715800000000002 2.224422c0.21894975000000003 -0.7441605000000001 0.7226685 -1.370115 1.4023530000000002 -1.7435385s1.47891825 -0.462078 2.224422 -0.24715800000000002v0Z" stroke-width="1.5"></path>
      <path id="Vector_53" stroke="#fcfcfc" stroke-linecap="round" stroke-linejoin="round" d="M69.27811875 73.207125c-1.5327825750000001 -3.6783558000000003 -2.6623215 -7.5119913 -3.368871 -11.433744" stroke-width="1.5"></path>
      <path id="Vector_54" stroke="#fcfcfc" stroke-linecap="round" stroke-linejoin="round" d="m74.94394725000001 59.80820625 -18.17014275 3.9048277500000004c-0.846113175 0.182682 -1.7301060000000001 0.02176065 -2.4576102 -0.44730225000000007 -0.7275042 -0.46906290000000006 -1.238879475 -1.2078504 -1.4216958000000002 -2.05382925l-7.6820467500000005 -35.805672 11.076439500000001 -2.37352275c0.6180293250000001 -0.127474425 1.2594312 -0.07549065 1.8488493000000001 0.14963805 0.5894181000000001 0.225263025 1.102136625 0.614268225 1.4777093250000002 1.1213451 0.37557270000000004 0.50694255 0.598417875 1.11086775 0.6420735 1.7403147 0.043655625 0.6294469500000001 -0.093624525 1.258222275 -0.395587125 1.8123129 -0.6760577249999999 1.2727293750000002 -0.9746622 2.711887425 -0.860620275 4.1484933 0.11390760000000001 1.436605875 0.6357602250000001 2.81088495 1.504037025 3.961109925 0.8682768 1.15009065 2.04684435 2.02857615 3.3972135750000003 2.5317576 1.3503692250000001 0.503315775 2.8163922749999997 0.610507125 4.22559585 0.30921615 1.4093379 -0.3014253 2.7031563 -0.9989750250000001 3.7296679500000005 -2.0105766 1.0263773250000001 -1.011601575 1.7425982249999998 -2.295211275 2.064440925 -3.6999821250000005 0.32184270000000004 -1.4046365250000001 0.23587470000000002 -2.87213715 -0.247829625 -4.2296256 -0.48357 -1.357622775 -1.3447275750000003 -2.548816875 -2.482191675 -3.43361565 -0.49901737500000004 -0.383766525 -0.878888475 -0.9013207500000001 -1.095151725 -1.492485075 -0.21626325000000002 -0.591164325 -0.2600532 -1.2316259250000001 -0.1262655 -1.8468344250000002 0.13365337500000002 -0.615074175 0.4395114 -1.17964215 0.881574975 -1.627616025 0.44219790000000003 -0.4481082 1.0026017999999999 -0.761219775 1.61592975 -0.903066975l11.867613750000002 -2.5776967500000003L92.04351975 52.789725c0.182682 0.8459788500000001 0.02176065 1.729971675 -0.44730225000000007 2.457475875 -0.46892857500000007 0.7275042 -1.207716075 1.238879475 -2.05382925 1.421830125l-10.999874250000001 2.37352275" stroke-width="1.5"></path>
      <path id="Vector_55" stroke="#fcfcfc" stroke-linecap="round" stroke-linejoin="round" d="M74.17829475 69.940341c-1.45473975 -1.7865225000000002 -1.939653 -6.09969825 0.612522 -8.0595 0 0 0.33984225 -7.2159390000000005 1.5823485 -8.854704 1.2425062500000001 -1.638765 1.9383097500000002 5.1500205 2.4756097500000003 7.726374 0.35327475 1.6857787499999999 1.2760875 5.589263249999999 2.1948705 8.80500375" stroke-width="1.5"></path>
      <path id="Vector_56" stroke="#fcfcfc" stroke-linecap="round" stroke-linejoin="round" d="m103.76740575000001 119.01195 4.04721225 -9.805725c-1.325922075 3.1566375000000004 -1.767045375 6.614700300000001 -1.2760875 10.00318275" stroke-width="1.5"></path>
      <path id="Vector_57" stroke="#fcfcfc" stroke-linecap="round" stroke-linejoin="round" d="M197.3099925 93.59900325c-22.3543665 2.90813625 -45.192303 4.8222675 -57.7731825 3.8269192500000004 -10.106613000000001 2.5011315 -19.59936075 2.7818707500000004 -28.251234 0 -4.466306250000001 -0.204174 -10.719135000000001 -1.3781745 -19.5227955 -4.31317575l-7.22265525 -23.019275250000003c-0.7656525 -2.5011315 -18.477747 2.9094795 -17.7120945 5.410610999999999l11.71448325 36.29058525c8.693916975 4.447903725000001 18.24052905 6.979929975 27.9960165 7.425485999999999 0.612522 4.389741 2.73082725 10.59152625 7.835177250000001 20.366356500000002 5.48717625 3.266784 17.327925 -1.4036962499999999 22.969575000000003 -7.27369875 0.99534825 -4.593915 1.8886095 -9.16230825 2.8073924999999997 -13.014749250000001 19.798161750000002 0.6705504 39.596323500000004 -1.294893 58.87599075000001 -5.84448075 -5.260167 0.45401850000000005 -7.0762410000000004 -19.401903 -1.7166735000000002 -19.854578250000003Z" stroke-width="1.5"></path>
      <path id="Vector_58" stroke="#fcfcfc" stroke-linecap="round" stroke-linejoin="round" d="M44.59590000000001 221.83908075000002c-4.00691475 3.4924500000000003 11.148975000000002 20.820375000000002 15.13439775 17.35344675" stroke-width="1.5"></path>
      <path id="Vector_59" stroke="#fcfcfc" stroke-linecap="round" stroke-linejoin="round" d="M197.74923525000003 165.79600425c3.5220015 -0.63804375 7.452351 21.003057 3.9303495 21.641100750000003" stroke-width="1.5"></path>
      <path id="Vector_60" stroke="#fcfcfc" stroke-linecap="round" stroke-linejoin="round" d="M182.20783275 226.35643050000002 172.56061125000002 251.18775000000002" stroke-width="1.5"></path>
      <path id="Vector_61" stroke="#fcfcfc" stroke-linecap="round" stroke-linejoin="round" d="m189.811971 243.5822685 -24.85684125 -9.6203565" stroke-width="1.5"></path>
      <path id="Vector_62" stroke="#fcfcfc" stroke-linecap="round" stroke-linejoin="round" d="M9.5599236825 140.4797715c0.510435 -1.45473975 1.429218 -2.32247925 4.0834665675 -4.1345235 5.61881475 -3.836322 4.56705 -8.235465750000001 1.25056575 -9.5451345 -0.5861943000000001 -0.22633762500000001 -1.214969625 -0.321439725 -1.8419584275 -0.27859005000000003 -0.62697537 0.042984 -1.2369048975 0.222845175 -1.7868314475 0.5270913 -0.54992655 0.3041118 -1.0264713525 0.72508635 -1.3960531575 1.2333721500000001 -0.3695952375 0.5082858 -0.6232277025 1.091390625 -0.743059035 1.70834535" stroke-width="1.5"></path>
      <path id="Vector_63" stroke="#fcfcfc" stroke-linecap="round" stroke-linejoin="round" d="M51.822585 235.8747c26.00532 -24.36252525 50.7415374 -50.044122 74.11113225000001 -76.94538975" stroke-width="1.5"></path>
      <path id="Vector_64" stroke="#fcfcfc" stroke-linecap="round" stroke-linejoin="round" d="M131.504175 136.77911775s13.650106500000001 6.0231330000000005 14.930223750000001 16.970620500000003c0.7119225 6.09969825 4.7470455 18.707442750000002 6.8908725 25.1375805 0.37073700000000004 1.1148975 1.11892725 2.06726175 2.11561875 2.69052975 0.9966915000000001 0.6246112500000001 2.1787515 0.8825152500000001 3.3446925000000003 0.72938475l43.666371000000005 -5.716872" stroke-width="1.5"></path>
    </g>
  </g>
</svg>