<svg xmlns="http://www.w3.org/2000/svg" fill="none" viewBox="-0.75 -0.75 300 300" id="Modular-Coding-Application--Streamline-Bangalore" height="300" width="300">
  <desc>
    Modular Coding Application Streamline Illustration: https://streamlinehq.com
  </desc>
  <g id="Development-Modular-coding-of-application-01">
    <g id="color 2">
      <path id="Vector" fill="#1b2194" d="m107.28089999999999 238.10747999999998 -23.593439999999998 10.8609225c0.623865 -0.3119325 25.918754999999997 -16.247355 25.918754999999997 -16.247355 0 -5.8729875 -4.00587 -14.307105 -10.605704999999999 -15.4548375l3.3178274999999995 -4.5371999999999995c-3.5882685 -5.0759925 -8.89962825 -8.67441 -14.944402499999999 -10.125119999999999l-14.122034999999999 17.8667175c-1.8309989999999998 -6.246112499999999 -5.52030975 -11.78478 -10.577347499999998 -15.8816925 -3.4212577499999997 -0.892515 -6.7314735 -2.1671099999999996 -9.868409999999999 -3.7984124999999995 -1.34325 5.346134999999999 -2.9476875 9.354989999999999 -3.2835 13.611599999999997 -0.597 7.405784999999999 -0.46715249999999997 23.282999999999998 2.04174 29.5515 -0.5671499999999999 2.2969575 -6.975945 29.6903025 15.936915 29.718659999999996h40.4601825c2.8984349999999997 -11.665379999999999 2.068605 -23.91582 -0.68058 -35.5647825Z" stroke-width="1.5"></path>
      <path id="Vector_2" fill="#1b2194" d="M185.4058125 97.3990575H120.2402775V63.141704999999995h65.16553499999999v34.257352499999996Z" stroke-width="1.5"></path>
      <path id="Vector_3" fill="#1b2194" d="M172.0210725 128.73245325H133.4295c-1.045347 0 -2.0480085 0.41536274999999995 -2.7872437499999996 1.1545979999999998 -0.73923525 0.7390859999999999 -1.1544487499999998 1.7417475 -1.1544487499999998 2.7870945 0 1.04549625 0.4152135 2.0480085 1.1544487499999998 2.7872437499999996 0.73923525 0.73923525 1.74189675 1.1544487499999998 2.7872437499999996 1.1544487499999998h38.5945575c1.0447499999999998 0 2.04771 -0.4152135 2.7864975 -1.1544487499999998 0.7402799999999999 -0.73923525 1.155195 -1.7417475 1.155195 -2.7872437499999996 0 -1.045347 -0.41491500000000003 -2.0480085 -1.155195 -2.7870945 -0.7387874999999999 -0.73923525 -1.7417475 -1.1545979999999998 -2.7864975 -1.1545979999999998h-0.002985Z" stroke-width="1.5"></path>
      <path id="Vector_4" fill="#1b2194" d="M67.92069000000001 150.685785h-23.253149999999998c-1.045347 0 -2.0480085 -0.41491500000000003 -2.7872437499999996 -1.155195 -0.73923525 -0.7386382499999999 -1.1544487499999998 -1.7411505 -1.1544487499999998 -2.78664675 0 -1.045347 0.4152135 -2.0480085 1.1544487499999998 -2.7870945 0.73923525 -0.73923525 1.74189675 -1.1545979999999998 2.7872437499999996 -1.1545979999999998h23.253149999999998c1.045347 0 2.0480085 0.41536274999999995 2.7872437499999996 1.1545979999999998 0.73923525 0.7390859999999999 1.1544487499999998 1.7417475 1.1544487499999998 2.7870945 0 1.04549625 -0.4152135 2.0480085 -1.1544487499999998 2.78664675 -0.73923525 0.7402799999999999 -1.74189675 1.155195 -2.7872437499999996 1.155195Z" stroke-width="1.5"></path>
      <path id="Vector_5" fill="#1b2194" d="M245.92071749999997 126.06849h-22.6009275c-0.5238674999999999 -0.010148999999999998 -1.0447499999999998 0.08417699999999999 -1.531305 0.27775425 -0.4880475 0.193428 -0.9313199999999999 0.4820775 -1.3059375 0.84908325 -0.373125 0.36700575 -0.6701325 0.804756 -0.8731125 1.2880274999999999 -0.20298 0.48327149999999996 -0.307455 1.0020645 -0.307455 1.5260812499999998 0 0.524166 0.10447500000000001 1.042959 0.307455 1.5262304999999998 0.20298 0.48312225 0.49998750000000003 0.92102175 0.8731125 1.2880274999999999 0.3746175 0.3668565 0.81789 0.65565525 1.3059375 0.84908325 0.486555 0.193428 1.0074375 0.28790324999999994 1.531305 0.277605h22.6009275c0.5238674999999999 0.01029825 1.0447499999999998 -0.08417699999999999 1.531305 -0.277605 0.4880475 -0.193428 0.9313199999999999 -0.48222675 1.3059375 -0.84908325 0.373125 -0.36700575 0.6701325 -0.80490525 0.8731125 -1.2880274999999999 0.20298 -0.48327149999999996 0.307455 -1.0020645 0.307455 -1.5262304999999998 0 -0.52401675 -0.10447500000000001 -1.04280975 -0.307455 -1.5260812499999998 -0.20298 -0.48327149999999996 -0.49998750000000003 -0.92102175 -0.8731125 -1.2880274999999999 -0.3746175 -0.36700575 -0.81789 -0.65565525 -1.3059375 -0.84908325 -0.486555 -0.19357725 -1.0074375 -0.28790324999999994 -1.531305 -0.27775425Z" stroke-width="1.5"></path>
    </g>
    <g id="color 1">
      <path id="Vector_6" fill="#00dcb7" d="m55.6418925 194.89065000000002 3.9984074999999994 3.17604c0 -0.68058 0.056714999999999995 -1.36116 0.0850725 -2.0969625 -1.4092185 -0.14328 -2.7872437499999996 -0.5074500000000001 -4.08348 -1.0790775Z" stroke-width="1.5"></path>
      <path id="Vector_7" fill="#00dcb7" d="M37.29459 184.1745c-0.510435 1.7566725 -2.985 11.825077499999999 5.33121 17.09808 -0.79401 0.34029 -4.7357024999999995 3.1208175000000002 -5.0745 3.376035 -3.561702 2.63277 -6.667445249999999 5.8311975 -9.1938 9.46842 -5.189422499999999 7.798312499999999 -5.8132874999999995 19.4816025 2.15517 25.6933875 5.274495 4.081987499999999 14.859329999999998 4.42377 19.8786075 -0.44775 -1.18071675 -8.253525 -1.4659334999999998 -16.6100325 -0.8507249999999998 -24.92475 0.34029 -4.3685475 1.92831 -8.110244999999999 2.8924649999999996 -12.138502499999998 2.1835275 -9.0251475 0.7387874999999999 -11.381805 -1.2760874999999998 -16.4175 -3.8282624999999997 -0.9343049999999999 -2.4671024999999998 -5.471505 0.170145 -3.9416925 0.3698415 0.241785 0.7844579999999999 0.40596 1.2193725 0.48357 1.4462324999999998 -7.37295 4.2536249999999995 -7.91025 6.805799999999999 -5.531205 -3.6476699999999997 -4.7894325 -18.532372499999997 -4.762567499999999 -22.057657499999998 7.281907499999999Z" stroke-width="1.5"></path>
      <path id="Vector_8" fill="#00dcb7" d="M106.2883875 234.76129500000002c-19.793535 12.5981925 -21.384539999999998 13.5713025 -22.657642499999998 14.2071075l23.593439999999998 -10.8609225 -0.9357975 -3.3461849999999997Z" stroke-width="1.5"></path>
      <path id="Vector_9" fill="#00dcb7" d="M190.0848 271.2573975c-5.019277499999999 -4.2536249999999995 -12.38775 -9.41469 -18.9711675 -11.342999999999998 -5.967015 1.7163749999999998 -12.295214999999999 1.7163749999999998 -18.26223 0 -1.167135 3.3252900000000003 -1.9103999999999999 6.7863975 -2.211885 10.29825 -0.03582 0.4193925 0.01791 0.8402774999999999 0.1537275 1.238775 0.13731 0.397005 0.35521499999999995 0.7626674999999999 0.6402825 1.071615 0.2850675 0.3089475 0.6313274999999999 0.55521 1.017885 0.72237 0.385065 0.16716 0.8014725 0.2522325 1.2223575 0.25074 11.428072499999999 0.028357499999999997 21.3531975 0.14925 35.531947499999994 0.1716375 0.28059 0.0014925 0.55521 -0.08358 0.7865475 -0.2432775 0.229845 -0.16119 0.40596 -0.38805 0.50148 -0.6522224999999999s0.1089525 -0.5507325 0.03582 -0.8223675c-0.0731325 -0.27163499999999996 -0.22835249999999999 -0.51342 -0.44476499999999997 -0.69252Z" stroke-width="1.5"></path>
      <path id="Vector_10" fill="#00dcb7" d="M224.3123025 237.02989499999998c-0.020895 -0.2701425 -0.12537 -0.528345 -0.2999925 -0.7358024999999999 -0.1746225 -0.20895000000000002 -0.408945 -0.35819999999999996 -0.671625 -0.42685499999999993 -0.26267999999999997 -0.068655 -0.540285 -0.05372999999999999 -0.79401 0.0432825 -0.25372500000000003 0.0970125 -0.47163 0.2701425 -0.6223725 0.49551 -4.2536249999999995 5.02077 -9.41469 16.930919999999997 -11.342999999999998 23.5083675 1.64175 6.2968575 1.7581649999999998 7.855027499999999 0.028357499999999997 13.754879999999998h13.58175c1.17609 0.1119375 2.22084 -24.9262425 0.1208925 -36.639382499999996Z" stroke-width="1.5"></path>
      <path id="Vector_11" fill="#00dcb7" d="M75.6055725 69.5221425c0 0.7571452499999999 -0.224472 1.497276 -0.64520775 2.1268124999999998 -0.4205865 0.6295364999999999 -1.0184819999999999 1.1202705 -1.7180167499999999 1.4099647499999999 -0.69953475 0.28984350000000003 -1.469217 0.3656625 -2.211885 0.217905 -0.742668 -0.1477575 -1.4247405 -0.51237525 -1.9601002499999998 -1.0477349999999999 -0.53535975 -0.53535975 -0.8999775 -1.2174322499999999 -1.0477349999999999 -1.9601002499999998 -0.1477575 -0.742668 -0.0719385 -1.5123502500000001 0.21775575 -2.211885 0.28984350000000003 -0.69953475 0.7805775 -1.29743025 1.4101139999999999 -1.7180167499999999 0.6295364999999999 -0.42073574999999996 1.3696672499999998 -0.64520775 2.1268124999999998 -0.64520775 1.0151985 0.00044774999999999996 1.98875625 0.4038705 2.7064994999999996 1.121763 0.7178924999999999 0.7177432499999999 1.1213152499999999 1.691301 1.121763 2.7064994999999996Z" stroke-width="1.5"></path>
      <path id="Vector_12" fill="#00dcb7" d="m120.9208575 251.238495 -10.463917499999999 7.061017499999999c2.1483045 -2.3118825 4.13885175 -4.7655525 5.95806 -7.3445925 -0.0313425 0.026864999999999997 1.698465 0.08358 4.5058575 0.28357499999999997Z" stroke-width="1.5"></path>
    </g>
    <g id="outlines">
      <path id="Vector_13" stroke="#fcfcfc" stroke-linecap="round" stroke-linejoin="round" d="M63.27006 194.46528749999996c4.20661125 3.0193275 9.25633575 4.6371975 14.433967499999998 4.62675h17.6115" stroke-width="1.5"></path>
      <path id="Vector_14" stroke="#fcfcfc" stroke-linecap="round" stroke-linejoin="round" d="M108.86892 199.08756h-5.6431425" stroke-width="1.5"></path>
      <path id="Vector_15" stroke="#fcfcfc" stroke-linecap="round" stroke-linejoin="round" d="M109.9181475 199.08905249999998h118.023915c3.2551425 0.0014925 6.4789425 -0.63879 9.486329999999999 -1.883535 3.0073875 -1.2462374999999999 5.740155 -3.0715649999999997 8.04159 -5.373 2.301435 -2.301435 4.1267625 -5.0342025 5.373 -8.04159 1.244745 -3.0073875 1.8850274999999999 -6.2311875 1.883535 -9.486329999999999v-7.0341525" stroke-width="1.5"></path>
      <path id="Vector_16" stroke="#fcfcfc" stroke-linecap="round" stroke-linejoin="round" d="M252.72651749999997 119.62999425v-41.713882500000004c0.0014925 -3.2549932499999996 -0.63879 -6.478196249999999 -1.8850274999999999 -9.48558375 -1.244745 -3.00723825 -3.0700724999999998 -5.7398565 -5.3715075 -8.0412915 -2.3029275 -2.30158425 -5.0342025 -4.127061 -8.04159 -5.37195525 -3.0073875 -1.2450435 -6.2311875 -1.885326 -9.486329999999999 -1.884132H77.7040275c-3.2549932499999996 -0.001194 -6.478196249999999 0.6390885000000001 -9.48558375 1.884132 -3.00753675 1.24489425 -5.740155 3.0703709999999997 -8.04173925 5.37195525 -2.3017335 2.301435 -4.1273595 5.0340532499999995 -5.37255225 8.0412915 -1.24519275 3.0073875 -1.8856245 6.2305905 -1.8845797499999999 9.48558375v41.713882500000004" stroke-width="1.5"></path>
      <path id="Vector_17" stroke="#fcfcfc" stroke-linecap="round" stroke-linejoin="round" d="M52.9195725 174.04788749999997v-6.7774425" stroke-width="1.5"></path>
      <path id="Vector_18" stroke="#fcfcfc" stroke-linecap="round" stroke-linejoin="round" d="M51.5584125 243.9506175c-0.53715075 -1.5119024999999997 -0.936693 -3.06858 -1.194 -4.6521225" stroke-width="1.5"></path>
      <path id="Vector_19" stroke="#fcfcfc" stroke-linecap="round" stroke-linejoin="round" d="M54.6255 204.24862499999998c2.124723 0.6552074999999999 4.2000442499999995 1.4611574999999999 6.2102924999999995 2.4103874999999997 2.21800425 1.1328075 4.03974975 2.91336 5.22375 5.104349999999999 3.7003552499999994 6.843112499999999 7.7415975 13.496677499999999 12.108652499999998 19.935322499999998l20.7860475 -14.462324999999998c3.9416925 0.6820725 6.874454999999999 3.8655749999999998 8.5356075 7.3460849999999995 1.2720577499999999 2.5208325 1.97860725 5.2879275 2.0700975 8.1087525 -1.5477225 0.9984825 -21.1382775 13.444439999999998 -24.0188025 15.2011125 -9.7355775 5.937165 -17.321955 3.8954249999999995 -22.856144999999998 -6.096862499999999 -0.8790824999999999 -1.58802 -9.1594725 -14.944402499999999 -9.1594725 -14.944402499999999" stroke-width="1.5"></path>
      <path id="Vector_20" stroke="#fcfcfc" stroke-linecap="round" stroke-linejoin="round" d="m59.640299999999996 198.06669 -3.9984074999999994 -3.17604c1.30578825 0.5716275 2.69321625 0.9357975 4.1118375 1.077585" stroke-width="1.5"></path>
      <path id="Vector_21" stroke="#fcfcfc" stroke-linecap="round" stroke-linejoin="round" d="M75.1518525 227.13461999999998c-0.918783 -3.8909475000000002 -2.17113975 -7.695329999999999 -3.74319 -11.371357499999998 -3.8058749999999995 -8.2221825 -9.316184999999999 -11.21763 -10.719135 -13.0160925 -0.90818625 -1.3805625 -1.27981875 -3.0446999999999997 -1.0447499999999998 -4.68048l0.11342999999999999 -2.098455c0.66849075 0.056714999999999995 1.340862 -0.050745 1.9586077499999999 -0.3119325 0.61774575 -0.26267999999999997 1.16220975 -0.671625 1.58607975 -1.191015 3.0238049999999994 -3.8416949999999996 -0.14178749999999998 -14.008604999999998 -3.9416925 -17.58165" stroke-width="1.5"></path>
      <path id="Vector_22" stroke="#fcfcfc" stroke-linecap="round" stroke-linejoin="round" d="M59.356725000000004 176.8836375c-2.5521749999999996 -2.388 -5.3595675 -1.841745 -6.805799999999999 5.531205 -0.43506374999999997 -0.07761 -0.8498295 -0.241785 -1.2193725 -0.48357 -2.63874 -1.52832 -3.9984074999999994 3.0058949999999998 -0.170145 3.9416925 0.8378895 1.6402575 1.475784 3.3745425 1.8999524999999997 5.167035 0.771324 3.74319 0.556404 7.6221975 -0.623865 11.256435 -0.9686325 4.02975 -2.53725 7.7714475 -2.8924649999999996 12.138502499999998 -0.60998475 8.314717499999999 -0.32476799999999995 16.671225 0.8507249999999998 24.92475 -5.019277499999999 4.87749 -14.610082499999999 4.546155 -19.8786075 0.44775 -7.9803975000000005 -6.1953675 -7.35504 -17.89806 -2.1596475 -25.6904025 2.5141162500000003 -3.6461775 5.619411749999999 -6.846097499999999 9.18783 -9.4699125 0.3387975 -0.25820249999999995 4.2819825 -3.0357449999999995 5.0745 -3.376035 -8.308747499999999 -5.274495 -5.8431375 -15.341407499999999 -5.33121 -17.09808 2.373075 -8.1415875 9.8669175 -10.7265975 15.624982499999998 -10.181835 2.4450135 0.07761 4.76062725 1.11639 6.4431225 2.8924649999999996v0Z" stroke-width="1.5"></path>
      <path id="Vector_23" stroke="#fcfcfc" stroke-linecap="round" stroke-linejoin="round" d="M109.7957625 258.9263625c3.596925 -3.190965 10.7057025 -13.701149999999998 13.308622499999998 -17.760749999999998 5.28942 7.12221 16.701075 11.82657 29.6903025 18.742815" stroke-width="1.5"></path>
      <path id="Vector_24" stroke="#fcfcfc" stroke-linecap="round" stroke-linejoin="round" d="M171.1136325 259.942755c-9.8161725 -4.346159999999999 -32.1439725 -30.372375 -37.6871175 -36.5796825 -2.56277175 -2.8641075 -6.041043 -4.749135 -9.840052499999999 -5.3327025" stroke-width="1.5"></path>
      <path id="Vector_25" stroke="#fcfcfc" stroke-linecap="round" stroke-linejoin="round" d="m107.1988125 238.11942000000002 -23.568067499999998 10.8489825" stroke-width="1.5"></path>
      <path id="Vector_26" stroke="#fcfcfc" stroke-linecap="round" stroke-linejoin="round" d="M106.31674499999998 234.76129500000002c3.582 12.8041575 4.85361 26.008304999999996 1.64175 38.907982499999996H67.4953275c-23.93373 0 -15.9085575 -29.861939999999997 -15.9085575 -29.861939999999997 4.034227499999999 0.33432 8.0920365 0.247755 12.108652499999998 -0.2552175" stroke-width="1.5"></path>
      <path id="Vector_27" stroke="#fcfcfc" stroke-linecap="round" stroke-linejoin="round" d="M171.1136325 259.91439749999995c6.57894 1.92831 13.92801 7.1177325 18.9711675 11.342999999999998 0.21641249999999998 0.17909999999999998 0.3716325 0.42088499999999995 0.4462575 0.69252 0.0731325 0.27163499999999996 0.0611925 0.5596875 -0.03582 0.82386 -0.09552 0.2641725 -0.27163499999999996 0.4910325 -0.5029725 0.6522224999999999 -0.229845 0.1596975 -0.5059575000000001 0.24477 -0.7865475 0.2432775 -14.178749999999999 -0.014924999999999999 -24.103875 -0.14925 -35.531947499999994 -0.1716375 -0.4193925 0.0014925 -0.8358000000000001 -0.0850725 -1.2208649999999999 -0.25372500000000003 -0.385065 -0.16716 -0.731325 -0.4134225 -1.0163925 -0.72237 -0.2850675 -0.3089475 -0.5029725 -0.6731175 -0.6402825 -1.0701224999999999 -0.13731 -0.397005 -0.19104 -0.81789 -0.15671249999999998 -1.2372824999999998 0.3119325 -3.5103599999999995 1.0551974999999998 -6.9684824999999995 2.211885 -10.29825 5.967015 1.7163749999999998 12.295214999999999 1.7148824999999999 18.26223 -0.0014925v0Z" stroke-width="1.5"></path>
      <path id="Vector_28" stroke="#fcfcfc" stroke-linecap="round" stroke-linejoin="round" d="M210.59175 259.91439749999995c1.92831 -6.57894 7.1177325 -18.46521 11.342999999999998 -23.5083675 0.1507425 -0.22536749999999997 0.36864749999999996 -0.397005 0.6223725 -0.492525 0.25372500000000003 -0.0970125 0.53133 -0.1119375 0.7925175 -0.0432825 0.26267999999999997 0.068655 0.4970025 0.217905 0.671625 0.4253624999999999 0.1746225 0.20745750000000002 0.2790975 0.46416749999999996 0.301485 0.7343099999999999 2.11338 11.710155 1.0447499999999998 36.7528125 -0.11342999999999999 36.639382499999996h-13.58175c1.7178674999999999 -5.898359999999999 1.60593 -7.459515 -0.03582 -13.754879999999998Z" stroke-width="1.5"></path>
      <path id="Vector_29" stroke="#fcfcfc" stroke-linecap="round" stroke-linejoin="round" d="M210.59175 259.91439749999995c-16.8727125 0.9925125 -33.263347499999995 -1.3328025 -44.6063475 -3.2835" stroke-width="1.5"></path>
      <path id="Vector_30" stroke="#fcfcfc" stroke-linecap="round" stroke-linejoin="round" d="M116.4970875 215.3931225c4.0551224999999995 -1.0193775 7.413247499999999 0.7358024999999999 7.1744475 2.2969575 -0.050894249999999995 0.31640999999999997 -0.17089125 0.617895 -0.35148375 0.8820674999999999 -0.1805925 0.265665 -0.417303 0.486555 -0.69326625 0.6492375" stroke-width="1.5"></path>
      <path id="Vector_31" stroke="#fcfcfc" stroke-linecap="round" stroke-linejoin="round" d="M116.07172499999999 212.92601999999997c4.2536249999999995 -1.077585 8.563965 0.9925125 6.749085 3.2611125" stroke-width="1.5"></path>
      <path id="Vector_32" stroke="#fcfcfc" stroke-linecap="round" stroke-linejoin="round" d="M109.1808525 229.5151575c2.66724675 -3.6118499999999996 6.318797249999999 -6.3774524999999995 10.517647499999999 -7.9684575" stroke-width="1.5"></path>
      <path id="Vector_33" stroke="#fcfcfc" stroke-linecap="round" stroke-linejoin="round" d="M116.3836575 218.313945c3.9416925 -0.8507249999999998 6.57894 0.623865 6.437152499999999 2.1835275 -0.170145 1.871595 -3.8805 4.79391 -7.0893749999999995 3.0342524999999996" stroke-width="1.5"></path>
      <path id="Vector_34" stroke="#fcfcfc" stroke-linecap="round" stroke-linejoin="round" d="M101.552685 218.03037c1.8148799999999998 -1.871595 11.662395 -10.2430275 12.3355125 -9.584835 0.74625 0.7298325 -0.9357975 3.09246 -0.9357975 3.09246" stroke-width="1.5"></path>
      <path id="Vector_35" stroke="#fcfcfc" stroke-linecap="round" stroke-linejoin="round" d="M101.552685 218.03037c3.1375334999999995 -2.5715775 6.658788749999999 -4.6371975 10.435559999999999 -6.119249999999999 4.66033125 -1.8208499999999999 9.222605249999999 -3.883485 13.668314999999998 -6.1804425 1.34325 -0.791025 -0.510435 3.3745425 -7.543095 6.889379999999999" stroke-width="1.5"></path>
      <path id="Vector_36" stroke="#fcfcfc" stroke-linecap="round" stroke-linejoin="round" d="M185.4058125 83.24732175h67.320705" stroke-width="1.5"></path>
      <path id="Vector_37" stroke="#fcfcfc" stroke-linecap="round" stroke-linejoin="round" d="M52.9195725 83.24732175h67.320705" stroke-width="1.5"></path>
      <path id="Vector_38" stroke="#fcfcfc" stroke-linecap="round" stroke-linejoin="round" d="M75.6055725 69.5221425c0 0.7571452499999999 -0.224472 1.497276 -0.64520775 2.1268124999999998 -0.4205865 0.6295364999999999 -1.0184819999999999 1.1202705 -1.7180167499999999 1.4099647499999999 -0.69953475 0.28984350000000003 -1.469217 0.3656625 -2.211885 0.217905 -0.742668 -0.1477575 -1.4247405 -0.51237525 -1.9601002499999998 -1.0477349999999999 -0.53535975 -0.53535975 -0.8999775 -1.2174322499999999 -1.0477349999999999 -1.9601002499999998 -0.1477575 -0.742668 -0.0719385 -1.5123502500000001 0.21775575 -2.211885 0.28984350000000003 -0.69953475 0.7805775 -1.29743025 1.4101139999999999 -1.7180167499999999 0.6295364999999999 -0.42073574999999996 1.3696672499999998 -0.64520775 2.1268124999999998 -0.64520775 1.0151985 0.00044774999999999996 1.98875625 0.4038705 2.7064994999999996 1.121763 0.7178924999999999 0.7177432499999999 1.1213152499999999 1.691301 1.121763 2.7064994999999996Z" stroke-width="1.5"></path>
      <path id="Vector_39" stroke="#fcfcfc" stroke-linecap="round" stroke-linejoin="round" d="M87.20379 69.5221425c0 0.7571452499999999 -0.224472 1.497276 -0.64520775 2.1268124999999998 -0.4205865 0.6295364999999999 -1.0184819999999999 1.1202705 -1.7180167499999999 1.4099647499999999 -0.69953475 0.28984350000000003 -1.469217 0.3656625 -2.211885 0.217905 -0.742668 -0.1477575 -1.4247405 -0.51237525 -1.9601002499999998 -1.0477349999999999 -0.53535975 -0.53535975 -0.8999775 -1.2174322499999999 -1.0477349999999999 -1.9601002499999998 -0.1477575 -0.742668 -0.0719385 -1.5123502500000001 0.21775575 -2.211885 0.28984350000000003 -0.69953475 0.7805775 -1.29743025 1.4101139999999999 -1.7180167499999999 0.6295364999999999 -0.42073574999999996 1.3696672499999998 -0.64520775 2.1268124999999998 -0.64520775 1.0151985 0.00044774999999999996 1.98875625 0.4038705 2.7064994999999996 1.121763 0.7178924999999999 0.7177432499999999 1.1213152499999999 1.691301 1.121763 2.7064994999999996Z" stroke-width="1.5"></path>
      <path id="Vector_40" stroke="#fcfcfc" stroke-linecap="round" stroke-linejoin="round" d="M98.85872249999998 69.5221425c0 0.7571452499999999 -0.224472 1.497276 -0.64520775 2.1268124999999998 -0.4205865 0.6295364999999999 -1.0184819999999999 1.1202705 -1.7180167499999999 1.4099647499999999 -0.69953475 0.28984350000000003 -1.469217 0.3656625 -2.211885 0.217905 -0.742668 -0.1477575 -1.4247405 -0.51237525 -1.9601002499999998 -1.0477349999999999 -0.535509 -0.53535975 -0.8999775 -1.2174322499999999 -1.0477349999999999 -1.9601002499999998 -0.1477575 -0.742668 -0.0719385 -1.5123502500000001 0.21775575 -2.211885 0.28984350000000003 -0.69953475 0.78042825 -1.29743025 1.4101139999999999 -1.7180167499999999 0.6295364999999999 -0.42073574999999996 1.3696672499999998 -0.64520775 2.1268124999999998 -0.64520775 1.0151985 0.00044774999999999996 1.98875625 0.4038705 2.7064994999999996 1.121763 0.7178924999999999 0.7177432499999999 1.1213152499999999 1.691301 1.121763 2.7064994999999996Z" stroke-width="1.5"></path>
      <path id="Vector_41" stroke="#fcfcfc" stroke-linecap="round" stroke-linejoin="round" d="m73.195185 220.44224999999997 14.122034999999999 -17.865225c6.052684499999999 1.4492174999999998 11.373446999999999 5.046142499999999 14.97276 10.1236275l-3.3461849999999997 4.5371999999999995" stroke-width="1.5"></path>
      <path id="Vector_42" stroke="#fcfcfc" stroke-linecap="round" stroke-linejoin="round" d="M102.346695 202.85910750000002c1.8432375 -7.883385 3.3984225 -14.178749999999999 3.74319 -16.10706 0.9507225 -5.304345 -0.44775 -5.184945 -2.5521749999999996 -0.7089374999999999 -2.91589725 6.702817499999999 -7.2162375 12.7146075 -12.6190875 17.638365" stroke-width="1.5"></path>
      <path id="Vector_43" stroke="#fcfcfc" stroke-linecap="round" stroke-linejoin="round" d="M105.749595 188.34156c1.45145625 -1.376085 3.08275875 -2.54919 4.8491325 -3.4879725 0.5119275 -0.22536749999999997 1.3925025 0.0880575 -0.8223675 2.6865 -1.4716049999999998 1.7312999999999998 -4.1685525 5.22375 -5.4162824999999994 6.91923" stroke-width="1.5"></path>
      <path id="Vector_44" stroke="#fcfcfc" stroke-linecap="round" stroke-linejoin="round" d="M102.7437 201.03974999999997c1.6838385 -0.44327249999999996 3.3408119999999997 -0.9835575 4.9625625 -1.6178700000000001 2.0103975 -0.659685 3.9073649999999995 -1.36713 -0.28357499999999997 2.72232 -2.562921 2.54919 -4.906146 5.3088225 -7.004302499999999 8.2520325" stroke-width="1.5"></path>
      <path id="Vector_45" stroke="#fcfcfc" stroke-linecap="round" stroke-linejoin="round" d="M170.59275 153.40512c-0.068655 -0.7268475 -0.38208 -1.4104124999999998 -0.8895299999999999 -1.9357725 -0.5074500000000001 -0.5253599999999999 -1.179075 -0.8641574999999999 -1.9029374999999997 -0.958185l-29.2694175 -4.5088425c-1.5029474999999999 -0.22685999999999998 -2.6865 0.597 -2.665605 1.8730874999999998l0.28357499999999997 23.536724999999997 -19.0845975 12.6131175c-1.1342999999999999 0.7089374999999999 -0.4820775 2.438745 1.1059425 2.8924649999999996l29.661944999999996 8.357999999999999c0.389841 0.1328325 0.8050545 0.1746225 1.2134025 0.11939999999999999 0.408945 -0.05372999999999999 0.7984875 -0.2014875 1.14027 -0.43133249999999995l20.402475 -15.738412499999999 0.0044775 -25.82025Z" stroke-width="1.5"></path>
      <path id="Vector_46" stroke="#fcfcfc" stroke-linecap="round" stroke-linejoin="round" d="m170.5882725 179.23730999999998 -34.4394375 -7.825177500000001" stroke-width="1.5"></path>
      <path id="Vector_47" stroke="#fcfcfc" stroke-linecap="round" stroke-linejoin="round" d="M166.60478999999998 174.8418975c0.510435 0.1149225 1.0074375 -0.14178749999999998 1.0074375 -0.597v-19.451752499999998c-0.016417499999999998 -0.235815 -0.1149225 -0.45969 -0.277605 -0.6298349999999999 -0.164175 -0.1716375 -0.38208 -0.2790975 -0.617895 -0.30596249999999997l-26.769479999999998 -4.2536249999999995c-0.09954974999999999 -0.029849999999999998 -0.2044725 -0.03582 -0.30670875 -0.01791 -0.10238549999999999 0.016417499999999998 -0.199398 0.056714999999999995 -0.28402275 0.11641499999999999s-0.15447375 0.1388025 -0.2044725 0.229845c-0.04999875 0.0910425 -0.07865475 0.1925325 -0.0838785 0.295515l0.170145 17.6398575c0.02582025 0.22238249999999998 0.122385 0.43133249999999995 0.27566475 0.594015 0.15313049999999997 0.164175 0.35476725 0.27312749999999997 0.5750602499999999 0.31342499999999995l26.515754999999995 6.067012500000001Z" stroke-width="1.5"></path>
      <path id="Vector_48" stroke="#fcfcfc" stroke-linecap="round" stroke-linejoin="round" d="M96.78862499999998 167.270445H31.5947325V119.62999425H96.78862499999998v47.64045074999999Z" stroke-width="1.5"></path>
      <path id="Vector_49" stroke="#fcfcfc" stroke-linecap="round" stroke-linejoin="round" d="M136.09212 167.270445H120.2402775V119.62999425h65.16553499999999v47.64045074999999h-14.774257499999997" stroke-width="1.5"></path>
      <path id="Vector_50" stroke="#fcfcfc" stroke-linecap="round" stroke-linejoin="round" d="M274.02299999999997 167.270445h-65.16553499999999V119.62999425H274.02299999999997v47.64045074999999Z" stroke-width="1.5"></path>
      <path id="Vector_51" stroke="#fcfcfc" stroke-linecap="round" stroke-linejoin="round" d="M185.4058125 97.3990575H120.2402775V63.141704999999995h65.16553499999999v34.257352499999996Z" stroke-width="1.5"></path>
      <path id="Vector_52" stroke="#fcfcfc" stroke-linecap="round" stroke-linejoin="round" d="M152.823045 97.3990575v22.230787499999998" stroke-width="1.5"></path>
      <path id="Vector_53" stroke="#fcfcfc" stroke-linecap="round" stroke-linejoin="round" d="M170.0927625 97.3990575v11.1146475h71.34747v11.11614" stroke-width="1.5"></path>
      <path id="Vector_54" stroke="#fcfcfc" stroke-linecap="round" stroke-linejoin="round" d="M136.6876275 97.3990575v11.1146475H64.2058575v11.11614" stroke-width="1.5"></path>
      <path id="Vector_55" stroke="#fcfcfc" stroke-linecap="round" stroke-linejoin="round" d="m146.92468499999998 86.67842999999999 -13.4698125 -6.719234999999999 13.299667499999998 -6.353572499999999" stroke-width="1.5"></path>
      <path id="Vector_56" stroke="#fcfcfc" stroke-linecap="round" stroke-linejoin="round" d="m158.89155 86.73514499999999 13.299667499999998 -6.834157499999999 -13.4698125 -6.238649999999999" stroke-width="1.5"></path>
      <path id="Vector_57" stroke="#fcfcfc" stroke-linecap="round" stroke-linejoin="round" d="m157.41696 68.04904499999999 -9.357975 24.442672499999997" stroke-width="1.5"></path>
      <path id="Vector_58" stroke="#fcfcfc" stroke-linecap="round" stroke-linejoin="round" d="M83.2620975 136.6159875c0.52401675 0.01029825 1.0447499999999998 -0.08417699999999999 1.5317527499999999 -0.277605 0.48715200000000003 -0.193428 0.9307230000000001 -0.4820775 1.3048927499999998 -0.84908325 0.37416974999999997 -0.36700575 0.67147575 -0.80490525 0.8743065 -1.2880274999999999 0.20298 -0.48327149999999996 0.307455 -1.0020645 0.307455 -1.5262304999999998 0 -0.52401675 -0.10447500000000001 -1.04280975 -0.307455 -1.5260812499999998 -0.20283074999999998 -0.48312225 -0.50013675 -0.92102175 -0.8743065 -1.2880274999999999s-0.81774075 -0.65565525 -1.3048927499999998 -0.84908325c-0.48700274999999993 -0.193428 -1.007736 -0.28790324999999994 -1.5317527499999999 -0.27775425h-38.566199999999995c-0.52401675 -0.010148999999999998 -1.0447499999999998 0.08432625 -1.5317527499999999 0.27775425 -0.48715200000000003 0.193428 -0.9307230000000001 0.4820775 -1.3048927499999998 0.84908325 -0.37416974999999997 0.36700575 -0.67147575 0.80490525 -0.8743065 1.2880274999999999 -0.20298 0.48327149999999996 -0.307455 1.0020645 -0.307455 1.5260812499999998 0 0.524166 0.10447500000000001 1.042959 0.307455 1.5262304999999998 0.20283074999999998 0.48312225 0.50013675 0.92102175 0.8743065 1.2880274999999999s0.81774075 0.65565525 1.3048927499999998 0.84908325c0.48700274999999993 0.193428 1.007736 0.28790324999999994 1.5317527499999999 0.277605h38.566199999999995Z" stroke-width="1.5"></path>
      <path id="Vector_59" stroke="#fcfcfc" stroke-linecap="round" stroke-linejoin="round" d="M172.0210725 128.73275175c1.0447499999999998 0 2.04771 0.4152135 2.7864975 1.1544487499999998 0.7402799999999999 0.73923525 1.155195 1.7417475 1.155195 2.7872437499999996 0 1.045347 -0.41491500000000003 2.04785925 -1.155195 2.7870945 -0.7387874999999999 0.73923525 -1.7417475 1.1545979999999998 -2.7864975 1.1545979999999998H133.4295c-1.045347 0 -2.0480085 -0.41536274999999995 -2.7872437499999996 -1.1545979999999998 -0.73923525 -0.73923525 -1.1544487499999998 -1.7417475 -1.1544487499999998 -2.7870945 0 -1.04549625 0.4152135 -2.0480085 1.1544487499999998 -2.7872437499999996 0.73923525 -0.73923525 1.74189675 -1.1544487499999998 2.7872437499999996 -1.1544487499999998h38.5915725Z" stroke-width="1.5"></path>
      <path id="Vector_60" stroke="#fcfcfc" stroke-linecap="round" stroke-linejoin="round" d="M67.92069000000001 142.80254925c1.04877975 0.0034327499999999996 2.053083 0.42342225 2.792169 1.16728425 0.73923525 0.74401125 1.15265775 1.751001 1.1495235 2.7997807499999996 0.00044774999999999996 0.5164049999999999 -0.10149 1.028034 -0.299694 1.505037s-0.48894299999999996 0.90997725 -0.8555010000000001 1.27384875c-0.36640875 0.36417 -0.80132325 0.6522224999999999 -1.2795202499999998 0.8477399999999999 -0.478197 0.1955175 -0.9904229999999999 0.2940225 -1.50697725 0.289545H44.695897499999994c-1.045347 0 -2.0480085 -0.41491500000000003 -2.7872437499999996 -1.1537025 -0.73923525 -0.7399815 -1.1544487499999998 -1.74249375 -1.1544487499999998 -2.7878407499999995 0 -1.04549625 0.4152135 -2.0480085 1.1544487499999998 -2.7872437499999996 0.73923525 -0.73923525 1.74189675 -1.1544487499999998 2.7872437499999996 -1.1544487499999998h23.2247925Z" stroke-width="1.5"></path>
      <path id="Vector_61" stroke="#fcfcfc" stroke-linecap="round" stroke-linejoin="round" d="M245.92071749999997 126.06849c0.5238674999999999 -0.010148999999999998 1.0447499999999998 0.08417699999999999 1.531305 0.27775425 0.4880475 0.193428 0.9313199999999999 0.4820775 1.3059375 0.84908325 0.373125 0.36700575 0.6701325 0.804756 0.8731125 1.2880274999999999 0.20298 0.48327149999999996 0.307455 1.0020645 0.307455 1.5260812499999998 0 0.524166 -0.10447500000000001 1.042959 -0.307455 1.5262304999999998 -0.20298 0.48312225 -0.49998750000000003 0.92102175 -0.8731125 1.2880274999999999 -0.3746175 0.3668565 -0.81789 0.65565525 -1.3059375 0.84908325 -0.486555 0.193428 -1.0074375 0.28790324999999994 -1.531305 0.277605h-22.6009275c-0.5238674999999999 0.01029825 -1.0447499999999998 -0.08417699999999999 -1.531305 -0.277605 -0.4880475 -0.193428 -0.9313199999999999 -0.48222675 -1.3059375 -0.84908325 -0.373125 -0.36700575 -0.6701325 -0.80490525 -0.8731125 -1.2880274999999999 -0.20298 -0.48327149999999996 -0.307455 -1.0020645 -0.307455 -1.5262304999999998 0 -0.52401675 0.10447500000000001 -1.04280975 0.307455 -1.5260812499999998 0.20298 -0.48327149999999996 0.49998750000000003 -0.92102175 0.8731125 -1.2880274999999999 0.3746175 -0.36700575 0.81789 -0.65565525 1.3059375 -0.84908325 0.486555 -0.19357725 1.0074375 -0.28790324999999994 1.531305 -0.27775425h22.6009275Z" stroke-width="1.5"></path>
      <path id="Vector_62" stroke="#fcfcfc" stroke-linecap="round" stroke-linejoin="round" d="M256.58313749999996 140.1323175c1.0328099999999998 0.0199995 2.014875 0.44431725 2.7387375 1.181463 0.72237 0.7371457499999999 1.12833 1.7284642499999998 1.12833 2.76097575 0 1.0325114999999998 -0.40596 2.0238300000000002 -1.12833 2.76097575 -0.7238625 0.7371457499999999 -1.7059275 1.16131425 -2.7387375 1.181463h-33.263347499999995c-1.0328099999999998 -0.02014875 -2.014875 -0.44431725 -2.7387375 -1.181463 -0.72237 -0.7371457499999999 -1.12833 -1.7284642499999998 -1.12833 -2.76097575 0 -1.0325114999999998 0.40596 -2.0238300000000002 1.12833 -2.76097575 0.7238625 -0.7371457499999999 1.7059275 -1.1614635 2.7387375 -1.181463h33.263347499999995Z" stroke-width="1.5"></path>
      <path id="Vector_63" stroke="#fcfcfc" stroke-linecap="round" stroke-linejoin="round" d="m133.7384475 102.33176999999999 3.0058949999999998 -4.9327125 2.8073924999999997 5.0745" stroke-width="1.5"></path>
      <path id="Vector_64" stroke="#fcfcfc" stroke-linecap="round" stroke-linejoin="round" d="m149.8455075 102.33176999999999 3.0058949999999998 -4.9327125 2.779035 5.0745" stroke-width="1.5"></path>
      <path id="Vector_65" stroke="#fcfcfc" stroke-linecap="round" stroke-linejoin="round" d="m167.2002975 102.33176999999999 3.0058949999999998 -4.9327125 2.779035 5.0745" stroke-width="1.5"></path>
      <path id="Vector_66" stroke="#fcfcfc" stroke-linecap="round" stroke-linejoin="round" d="m269.429085 97.7094975 -10.180342499999998 10.09527" stroke-width="1.5"></path>
      <path id="Vector_67" stroke="#fcfcfc" stroke-linecap="round" stroke-linejoin="round" d="m269.40072749999996 107.83327425 -10.1236275 -10.1504925" stroke-width="1.5"></path>
      <path id="Vector_68" stroke="#fcfcfc" stroke-linecap="round" stroke-linejoin="round" d="m36.982657499999995 101.02732499999999 4.480485 6.3237225 5.2461375 -9.1594725" stroke-width="1.5"></path>
      <path id="Vector_69" stroke="#fcfcfc" stroke-linecap="round" stroke-linejoin="round" d="M62.64619499999999 204.5904075c-3.4211084999999994 -0.8955 -6.7311749999999995 -2.170095 -9.868409999999999 -3.8013975" stroke-width="1.5"></path>
      <path id="Vector_70" stroke="#fcfcfc" stroke-linecap="round" stroke-linejoin="round" d="m153.36183749999998 26.730674999999998 -5.870002499999999 1.92831 3.4028999999999994 3.06261 -4.480485 5.019277499999999 2.4103874999999997 2.15517 4.480485 -5.019277499999999 3.4028999999999994 3.0342524999999996 2.5238175 -12.108652499999998 -5.870002499999999 1.92831Z" stroke-width="1.5"></path>
      <path id="Vector_71" stroke="#fcfcfc" stroke-linecap="round" stroke-linejoin="round" d="M181.861125 218.03037c0 0.408945 -0.1208925 0.8089350000000001 -0.349245 1.1507175 -0.22685999999999998 0.34029 -0.5507325 0.6044625 -0.9283349999999999 0.7611749999999999 -0.379095 0.15671249999999998 -0.7955025 0.1985025 -1.196985 0.1179075 -0.4014825 -0.07910249999999999 -0.77013 -0.2761125 -1.059675 -0.5656575 -0.289545 -0.289545 -0.486555 -0.6581925 -0.5656575 -1.059675 -0.080595 -0.4014825 -0.038805 -0.81789 0.1179075 -1.196985 0.15671249999999998 -0.3776025 0.42088499999999995 -0.701475 0.7611749999999999 -0.9283349999999999 0.3417825 -0.22835249999999999 0.7417725 -0.349245 1.1507175 -0.349245 0.5477474999999999 0.002985 1.0731074999999999 0.22238249999999998 1.459665 0.6104324999999999 0.38805 0.3865575 0.6074474999999999 0.9119174999999999 0.6104324999999999 1.459665Z" stroke-width="1.5"></path>
      <path id="Vector_72" stroke="#fcfcfc" stroke-linecap="round" stroke-linejoin="round" d="M7.4624999999999995 273.667785h283.575" stroke-width="1.5"></path>
      <path id="Vector_73" stroke="#fcfcfc" stroke-linecap="round" stroke-linejoin="round" d="m120.9208575 251.238495 -10.492275 7.0893749999999995" stroke-width="1.5"></path>
      <path id="Vector_74" stroke="#fcfcfc" stroke-linecap="round" stroke-linejoin="round" d="M116.3836575 250.981785c8.0580075 0.373125 16.087359 1.2163875 24.047159999999998 2.5253099999999997" stroke-width="1.5"></path>
      <path id="Vector_75" stroke="#fcfcfc" stroke-linecap="round" stroke-linejoin="round" d="m123.104385 241.1715825 -1.8999524999999997 -2.75217" stroke-width="1.5"></path>
    </g>
  </g>
</svg>