<svg width="393" height="470" viewBox="0 0 393 470" fill="none" xmlns="http://www.w3.org/2000/svg">
<path d="M390.218 46.821L391.867 165.304L206.676 135.564L205.027 17.0845L390.218 46.821Z" fill="white" stroke="black" style="fill:white;fill-opacity:1;stroke:black;stroke-opacity:1;" stroke-width="0.757397" stroke-linecap="round" stroke-linejoin="round"/>
<path d="M390.214 46.5109L390.016 32.3111L204.825 2.5708L205.023 16.7744L390.214 46.5109Z" fill="white" stroke="black" style="fill:white;fill-opacity:1;stroke:black;stroke-opacity:1;" stroke-width="0.757397" stroke-linecap="round" stroke-linejoin="round"/>
<path d="M219.641 12.034C219.658 13.2572 218.654 14.0817 217.402 13.8832C216.149 13.6847 215.118 12.5287 215.101 11.3056C215.084 10.0824 216.088 9.25795 217.34 9.45641C218.593 9.65866 219.624 10.8109 219.641 12.034Z" fill="#5EFFBE" stroke="black" style="fill:#5EFFBE;fill:color(display-p3 0.3692 1.0000 0.7462);fill-opacity:1;stroke:black;stroke-opacity:1;" stroke-width="0.757397" stroke-miterlimit="10"/>
<path d="M229.754 13.6575C229.771 14.8807 228.768 15.7052 227.515 15.5067C226.262 15.3045 225.231 14.1523 225.214 12.9291C225.197 11.706 226.201 10.8815 227.453 11.0799C228.706 11.2822 229.737 12.4344 229.754 13.6575Z" fill="#5EFFBE" stroke="black" style="fill:#5EFFBE;fill:color(display-p3 0.3692 1.0000 0.7462);fill-opacity:1;stroke:black;stroke-opacity:1;" stroke-width="0.757397" stroke-miterlimit="10"/>
<path d="M239.869 15.2825C239.886 16.5057 238.882 17.3302 237.629 17.1317C236.377 16.9295 235.346 15.7773 235.329 14.5541C235.311 13.331 236.315 12.5065 237.568 12.7049C238.82 12.9072 239.852 14.0594 239.869 15.2825Z" fill="#5EFFBE" stroke="black" style="fill:#5EFFBE;fill:color(display-p3 0.3692 1.0000 0.7462);fill-opacity:1;stroke:black;stroke-opacity:1;" stroke-width="0.757397" stroke-miterlimit="10"/>
<path d="M332.124 96.6001C332.382 115.154 317.515 127.776 298.915 124.789C280.315 121.802 265.029 104.34 264.771 85.7852C264.513 67.2308 279.38 54.609 297.98 57.5959C316.58 60.5828 331.866 78.0457 332.124 96.6001Z" fill="#5EFFBE" stroke="black" style="fill:#5EFFBE;fill:color(display-p3 0.3692 1.0000 0.7462);fill-opacity:1;stroke:black;stroke-opacity:1;" stroke-width="0.757397" stroke-linecap="round" stroke-linejoin="round"/>
<path d="M332.124 96.6009C332.382 115.155 317.515 127.777 298.915 124.79L298.448 91.1953L321.928 71.2691L321.936 71.2689C328.113 78.3297 331.995 87.3312 332.124 96.6047L332.124 96.6009Z" fill="white" stroke="black" style="fill:white;fill-opacity:1;stroke:black;stroke-opacity:1;" stroke-width="0.757397" stroke-linecap="round" stroke-linejoin="round"/>
<path d="M326.125 115.124C320.132 122.657 310.211 126.602 298.915 124.789C280.315 121.802 265.029 104.34 264.771 85.7852L298.447 91.1945L326.125 115.128L326.125 115.124Z" fill="#000DFF" stroke="black" style="fill:#000DFF;fill:color(display-p3 0.0000 0.0500 1.0000);fill-opacity:1;stroke:black;stroke-opacity:1;" stroke-width="0.757397" stroke-linecap="round" stroke-linejoin="round"/>
<path d="M294.228 76.5061L269.493 48.2482L237.476 43.1074" stroke="black" style="stroke:black;stroke-opacity:1;" stroke-width="0.757397" stroke-linecap="round" stroke-linejoin="round"/>
<path d="M294.618 104.588L265.238 129.527L233.221 124.386" stroke="black" style="stroke:black;stroke-opacity:1;" stroke-width="0.757397" stroke-linecap="round" stroke-linejoin="round"/>
<path d="M280.586 116.501L294.62 104.587" stroke="white" style="stroke:white;stroke-opacity:1;" stroke-width="0.757397" stroke-linecap="round" stroke-linejoin="round"/>
<path d="M317.628 94.272L364.04 101.727" stroke="black" style="stroke:black;stroke-opacity:1;" stroke-width="0.757397" stroke-linecap="round" stroke-linejoin="round"/>
<path d="M178.422 280.762L3.04124 251.377L1 104.695L176.381 134.08L178.422 280.762Z" stroke="white" style="stroke:white;stroke-opacity:1;" stroke-width="0.757397" stroke-linecap="round" stroke-linejoin="round"/>
<path d="M249.216 182.238C250.22 182.224 251.022 181.399 251.008 180.395C250.994 179.391 250.169 178.589 249.165 178.603C248.161 178.617 247.359 179.442 247.373 180.446C247.387 181.449 248.212 182.252 249.216 182.238Z" fill="white" stroke="#717AFF" style="fill:white;fill-opacity:1;stroke:#717AFF;stroke:color(display-p3 0.4423 0.4795 1.0000);stroke-opacity:1;" stroke-width="0.757397" stroke-linecap="round" stroke-linejoin="round"/>
<path d="M248.255 178.862C249.701 178.027 251.219 177.358 251.879 178.308C252.471 179.159 251.65 180.295 250.506 181.679" fill="white" style="fill:white;fill-opacity:1;"/>
<path d="M248.255 178.862C249.701 178.027 251.219 177.358 251.879 178.308C252.471 179.159 251.65 180.295 250.506 181.679" stroke="#717AFF" style="stroke:#717AFF;stroke:color(display-p3 0.4423 0.4795 1.0000);stroke-opacity:1;" stroke-width="0.757397" stroke-linecap="round" stroke-linejoin="round"/>
<path d="M249.401 184.727C249.828 184.721 250.169 184.371 250.163 183.944C250.157 183.517 249.807 183.176 249.38 183.182C248.953 183.188 248.612 183.539 248.618 183.965C248.624 184.392 248.975 184.733 249.401 184.727Z" fill="white" style="fill:white;fill-opacity:1;"/>
<path d="M249.42 186.098C250.604 186.082 251.55 185.109 251.533 183.925C251.517 182.741 250.544 181.795 249.36 181.811C248.176 181.828 247.23 182.801 247.247 183.985C247.263 185.168 248.236 186.115 249.42 186.098Z" fill="white" stroke="#717AFF" style="fill:white;fill-opacity:1;stroke:#717AFF;stroke:color(display-p3 0.4423 0.4795 1.0000);stroke-opacity:1;" stroke-width="0.757397" stroke-linecap="round" stroke-linejoin="round"/>
<path d="M250.948 179.965C251.09 180.652 251.248 181.654 251.336 182.266C251.458 183.12 251.524 183.756 251.524 183.756L247.248 184.058C247.248 184.058 247.403 183.249 247.424 182.317C247.442 181.654 247.378 180.92 247.377 180.253C247.812 180.232 250.614 179.882 250.948 179.961L250.948 179.965Z" fill="white" style="fill:white;fill-opacity:1;"/>
<path d="M247.248 184.06C247.248 184.06 247.379 183.365 247.4 182.433C247.417 181.77 247.382 181.127 247.377 180.256" fill="white" style="fill:white;fill-opacity:1;"/>
<path d="M247.248 184.06C247.248 184.06 247.379 183.365 247.4 182.433C247.417 181.77 247.382 181.127 247.377 180.256" stroke="#717AFF" style="stroke:#717AFF;stroke:color(display-p3 0.4423 0.4795 1.0000);stroke-opacity:1;" stroke-width="0.757397" stroke-linecap="round" stroke-linejoin="round"/>
<path d="M250.947 179.964C251.202 180.873 251.338 181.629 251.422 182.241C251.544 183.095 251.519 183.755 251.519 183.755" fill="white" style="fill:white;fill-opacity:1;"/>
<path d="M250.947 179.964C251.202 180.873 251.338 181.629 251.422 182.241C251.544 183.095 251.519 183.755 251.519 183.755" stroke="#717AFF" style="stroke:#717AFF;stroke:color(display-p3 0.4423 0.4795 1.0000);stroke-opacity:1;" stroke-width="0.757397" stroke-linecap="round" stroke-linejoin="round"/>
<path d="M259.899 180.832C259.899 180.832 259.846 181.654 259.053 182.942C258.398 184.012 257.564 184.822 257.564 184.822C257.564 184.822 256.357 184.919 256.181 184.239C256.001 183.564 256.17 182.365 256.17 182.365" fill="white" style="fill:white;fill-opacity:1;"/>
<path d="M259.899 180.832C259.899 180.832 259.846 181.654 259.053 182.942C258.398 184.012 257.564 184.822 257.564 184.822C257.564 184.822 256.357 184.919 256.181 184.239C256.001 183.564 256.17 182.365 256.17 182.365" stroke="#717AFF" style="stroke:#717AFF;stroke:color(display-p3 0.4423 0.4795 1.0000);stroke-opacity:1;" stroke-width="0.757397" stroke-linecap="round" stroke-linejoin="round"/>
<path d="M262.492 183.636C262.492 183.636 261.977 184.715 261.038 185.838C260.095 186.96 259.563 187.4 259.563 187.4C259.563 187.4 259.318 188.017 258.201 187.244C257.085 186.472 257.566 184.822 257.566 184.822" fill="white" style="fill:white;fill-opacity:1;"/>
<path d="M262.492 183.636C262.492 183.636 261.977 184.715 261.038 185.838C260.095 186.96 259.563 187.4 259.563 187.4C259.563 187.4 259.318 188.017 258.201 187.244C257.085 186.472 257.566 184.822 257.566 184.822" stroke="#717AFF" style="stroke:#717AFF;stroke:color(display-p3 0.4423 0.4795 1.0000);stroke-opacity:1;" stroke-width="0.757397" stroke-linecap="round" stroke-linejoin="round"/>
<path d="M263.655 186.714C263.655 186.714 262.967 187.648 262.048 188.551C261.443 189.143 261.143 189.363 261.143 189.363C261.143 189.363 260.157 190.066 259.589 189.259C259.021 188.453 259.563 187.4 259.563 187.4" fill="white" style="fill:white;fill-opacity:1;"/>
<path d="M263.655 186.714C263.655 186.714 262.967 187.648 262.048 188.551C261.443 189.143 261.143 189.363 261.143 189.363C261.143 189.363 260.157 190.066 259.589 189.259C259.021 188.453 259.563 187.4 259.563 187.4" stroke="#717AFF" style="stroke:#717AFF;stroke:color(display-p3 0.4423 0.4795 1.0000);stroke-opacity:1;" stroke-width="0.757397" stroke-linecap="round" stroke-linejoin="round"/>
<path d="M250.772 199.157C254.865 199.1 258.137 195.736 258.08 191.643C258.023 187.55 254.659 184.278 250.566 184.335C246.473 184.392 243.201 187.756 243.258 191.849C243.315 195.942 246.679 199.214 250.772 199.157Z" fill="white" stroke="#717AFF" style="fill:white;fill-opacity:1;stroke:#717AFF;stroke:color(display-p3 0.4423 0.4795 1.0000);stroke-opacity:1;" stroke-width="0.757397" stroke-linecap="round" stroke-linejoin="round"/>
<path d="M244.833 187.177L246.188 185.473L247.248 184.057L250.704 182.596L252.245 182.279L253.046 182.112L256.245 179.549C256.245 179.549 257.863 178.265 258.68 178.746C259.776 179.39 259.899 180.828 259.899 180.828C259.899 180.828 260.969 180.73 261.775 181.483C262.581 182.237 262.427 183.675 262.427 183.675C262.427 183.675 263.162 184.002 263.696 184.778C264.229 185.555 263.654 186.711 263.654 186.711C263.654 186.711 264.795 187.047 264.993 188.165C265.19 189.284 264.062 190.712 262.278 192.35C260.495 193.989 254.86 197.855 254.86 197.855L244.833 187.173L244.833 187.177Z" fill="white" style="fill:white;fill-opacity:1;"/>
<path d="M251.445 182.491L252.269 182.335L253.05 182.116" fill="white" style="fill:white;fill-opacity:1;"/>
<path d="M251.445 182.491L252.269 182.335L253.05 182.116" stroke="#717AFF" style="stroke:#717AFF;stroke:color(display-p3 0.4423 0.4795 1.0000);stroke-opacity:1;" stroke-width="0.757397" stroke-linecap="round" stroke-linejoin="round"/>
<path d="M244.834 187.177L246.215 185.442L247.249 184.061" fill="white" style="fill:white;fill-opacity:1;"/>
<path d="M244.834 187.177L246.215 185.442L247.249 184.061" stroke="#717AFF" style="stroke:#717AFF;stroke:color(display-p3 0.4423 0.4795 1.0000);stroke-opacity:1;" stroke-width="0.757397" stroke-linecap="round" stroke-linejoin="round"/>
<path d="M253.049 182.117L256.248 179.554C256.248 179.554 257.697 178.356 258.683 178.751C260.1 179.318 264.908 189.228 264.527 189.843C264.056 190.603 263.269 191.447 262.278 192.355C260.494 193.993 254.859 197.859 254.859 197.859" fill="white" style="fill:white;fill-opacity:1;"/>
<path d="M253.049 182.117L256.248 179.554C256.248 179.554 257.697 178.356 258.683 178.751C260.1 179.318 264.908 189.228 264.527 189.843C264.056 190.603 263.269 191.447 262.278 192.355C260.494 193.993 254.859 197.859 254.859 197.859" stroke="#717AFF" style="stroke:#717AFF;stroke:color(display-p3 0.4423 0.4795 1.0000);stroke-opacity:1;" stroke-width="0.757397" stroke-linecap="round" stroke-linejoin="round"/>
<path d="M251.445 182.491C251.445 182.491 252.716 185.591 252.657 187.084C252.59 188.812 251.651 189.938 251.651 189.938" fill="white" style="fill:white;fill-opacity:1;"/>
<path d="M251.445 182.491C251.445 182.491 252.716 185.591 252.657 187.084C252.59 188.812 251.651 189.938 251.651 189.938" stroke="#717AFF" style="stroke:#717AFF;stroke:color(display-p3 0.4423 0.4795 1.0000);stroke-opacity:1;" stroke-width="0.757397" stroke-linecap="round" stroke-linejoin="round"/>
<path d="M209.68 232.554C216.142 232.464 221.307 227.153 221.217 220.69C221.128 214.228 215.816 209.063 209.354 209.153C202.892 209.243 197.726 214.554 197.816 221.016C197.906 227.478 203.218 232.644 209.68 232.554Z" fill="#5EFFBE" stroke="#717AFF" style="fill:#5EFFBE;fill:color(display-p3 0.3692 1.0000 0.7462);fill-opacity:1;stroke:#717AFF;stroke:color(display-p3 0.4423 0.4795 1.0000);stroke-opacity:1;" stroke-width="0.757397" stroke-linecap="round" stroke-linejoin="round"/>
<path d="M225.8 221.324L253.731 201.676C254.946 200.822 255.218 199.084 254.343 197.759L246.884 186.49C245.971 185.109 244.167 184.717 242.911 185.628L214.902 205.943" fill="#5EFFBE" style="fill:#5EFFBE;fill:color(display-p3 0.3692 1.0000 0.7462);fill-opacity:1;"/>
<path d="M225.8 221.324L253.731 201.676C254.946 200.822 255.218 199.084 254.343 197.759L246.884 186.49C245.971 185.109 244.167 184.717 242.911 185.628L214.902 205.943" stroke="#717AFF" style="stroke:#717AFF;stroke:color(display-p3 0.4423 0.4795 1.0000);stroke-opacity:1;" stroke-width="0.757397" stroke-linecap="round" stroke-linejoin="round"/>
<path d="M215.679 230.8L250.286 206.458C251.794 205.4 252.127 203.244 251.044 201.604L241.802 187.64C240.668 185.928 238.435 185.444 236.878 186.572L202.177 211.741" fill="#5EFFBE" style="fill:#5EFFBE;fill:color(display-p3 0.3692 1.0000 0.7462);fill-opacity:1;"/>
<path d="M215.679 230.8L250.286 206.458C251.794 205.4 252.127 203.244 251.044 201.604L241.802 187.64C240.668 185.928 238.435 185.444 236.878 186.572L202.177 211.741" stroke="#717AFF" style="stroke:#717AFF;stroke:color(display-p3 0.4423 0.4795 1.0000);stroke-opacity:1;" stroke-width="0.757397" stroke-linecap="round" stroke-linejoin="round"/>
<path d="M163.98 389.066C170.746 388.972 176.154 383.411 176.06 376.646C175.965 369.88 170.405 364.472 163.639 364.566C156.874 364.66 151.466 370.221 151.56 376.987C151.654 383.752 157.215 389.16 163.98 389.066Z" fill="#717AFF" stroke="#717AFF" style="fill:#717AFF;fill:color(display-p3 0.4423 0.4795 1.0000);fill-opacity:1;stroke:#717AFF;stroke:color(display-p3 0.4423 0.4795 1.0000);stroke-opacity:1;" stroke-width="0.757397" stroke-linecap="round" stroke-linejoin="round"/>
<path d="M163.453 384.555C163.269 382.209 163.232 379.85 163.184 377.499C163.102 373.198 163.095 368.895 163.058 364.594C161.029 364.716 159.004 365.343 157.176 366.524C151.49 370.189 149.853 377.772 153.519 383.459C155.884 387.13 159.884 389.112 163.951 389.07C163.745 387.569 163.569 386.068 163.453 384.559L163.453 384.555Z" fill="#5EFFBE" stroke="#717AFF" style="fill:#5EFFBE;fill:color(display-p3 0.3692 1.0000 0.7462);fill-opacity:1;stroke:#717AFF;stroke:color(display-p3 0.4423 0.4795 1.0000);stroke-opacity:1;" stroke-width="0.757397" stroke-linecap="round" stroke-linejoin="round"/>
<path d="M163.864 380.664C165.989 380.634 167.687 378.888 167.658 376.763C167.628 374.638 165.881 372.939 163.757 372.969C161.632 372.998 159.933 374.745 159.963 376.87C159.992 378.995 161.739 380.693 163.864 380.664Z" fill="#717AFF" stroke="#717AFF" style="fill:#717AFF;fill:color(display-p3 0.4423 0.4795 1.0000);fill-opacity:1;stroke:#717AFF;stroke:color(display-p3 0.4423 0.4795 1.0000);stroke-opacity:1;" stroke-width="0.757397" stroke-linecap="round" stroke-linejoin="round"/>
<path d="M177.191 389.117C177.515 384.871 176.579 378.839 175.8 374.321C174.102 374.78 160.564 378.718 153.517 383.455L166.674 403.572C166.674 403.572 176.222 401.913 177.195 389.117L177.191 389.117Z" fill="#717AFF" stroke="#717AFF" style="fill:#717AFF;fill:color(display-p3 0.4423 0.4795 1.0000);fill-opacity:1;stroke:#717AFF;stroke:color(display-p3 0.4423 0.4795 1.0000);stroke-opacity:1;" stroke-width="0.757397" stroke-linecap="round" stroke-linejoin="round"/>
<path d="M153.103 382.771L166.602 403.463C165.68 398.719 162.825 389.01 160.165 378.044" fill="#5EFFBE" style="fill:#5EFFBE;fill:color(display-p3 0.3692 1.0000 0.7462);fill-opacity:1;"/>
<path d="M153.103 382.771L166.602 403.463C165.68 398.719 162.825 389.01 160.165 378.044" stroke="#717AFF" style="stroke:#717AFF;stroke:color(display-p3 0.4423 0.4795 1.0000);stroke-opacity:1;" stroke-width="0.757397" stroke-linecap="round" stroke-linejoin="round"/>
<path d="M172.56 355.265C180.448 355.156 186.754 348.672 186.644 340.784C186.534 332.895 180.05 326.589 172.162 326.699C164.274 326.809 157.968 333.293 158.078 341.181C158.187 349.069 164.671 355.375 172.56 355.265Z" fill="white" stroke="#717AFF" style="fill:white;fill-opacity:1;stroke:#717AFF;stroke:color(display-p3 0.4423 0.4795 1.0000);stroke-opacity:1;" stroke-width="0.757397" stroke-miterlimit="10"/>
<path d="M167.862 327.422L151.598 333.079L161.054 352.619L175.645 355.196L180.316 352.059" fill="white" style="fill:white;fill-opacity:1;"/>
<path d="M167.862 327.422L151.598 333.079L161.054 352.619L175.645 355.196L180.316 352.059" stroke="#717AFF" style="stroke:#717AFF;stroke:color(display-p3 0.4423 0.4795 1.0000);stroke-opacity:1;" stroke-width="0.757397" stroke-linecap="round" stroke-linejoin="round"/>
<path d="M175.907 375.223C175.473 372.608 175.013 369.778 174.665 366.545C173.726 357.847 181.384 353.002 181.384 353.002C181.384 353.002 177.819 349.075 171.619 349.328C167.054 349.513 163.668 351.976 163.668 351.976C163.668 351.976 162.771 345.724 157.395 338.255C155.452 335.559 152.758 332.737 152.758 332.737L141.442 336.038L139.25 336.674C133.279 338.412 130.118 346.948 133.501 352.21L148.553 375.649C153.683 375.775 160.072 380.674 175.907 375.219L175.907 375.223Z" fill="#717AFF" stroke="#717AFF" style="fill:#717AFF;fill:color(display-p3 0.4423 0.4795 1.0000);fill-opacity:1;stroke:#717AFF;stroke:color(display-p3 0.4423 0.4795 1.0000);stroke-opacity:1;" stroke-width="0.757397" stroke-linecap="round" stroke-linejoin="round"/>
<path d="M160.165 378.044C158.089 369.34 156.11 358.316 153.71 352.111C150.068 342.701 144.964 337.64 141.439 336.042L139.247 336.679C133.323 338.533 126.136 340.838 129.235 345.517L153.467 383.383" fill="#5EFFBE" style="fill:#5EFFBE;fill:color(display-p3 0.3692 1.0000 0.7462);fill-opacity:1;"/>
<path d="M160.165 378.044C158.089 369.34 156.11 358.316 153.71 352.111C150.068 342.701 144.964 337.64 141.439 336.042L139.247 336.679C133.323 338.533 126.136 340.838 129.235 345.517L153.467 383.383" stroke="#717AFF" style="stroke:#717AFF;stroke:color(display-p3 0.4423 0.4795 1.0000);stroke-opacity:1;" stroke-width="0.757397" stroke-linecap="round" stroke-linejoin="round"/>
<path d="M175.791 373.851C170.019 366.25 158.05 367.333 158.05 367.333L175.791 373.851Z" fill="#717AFF" style="fill:#717AFF;fill:color(display-p3 0.4423 0.4795 1.0000);fill-opacity:1;"/>
<path d="M175.791 373.851C170.019 366.25 158.05 367.333 158.05 367.333" stroke="white" style="stroke:white;stroke-opacity:1;" stroke-width="0.757397" stroke-linecap="round" stroke-linejoin="round"/>
<path d="M251.478 314.873C261.727 314.73 269.921 306.306 269.778 296.056C269.635 285.807 261.211 277.614 250.962 277.756C240.712 277.899 232.519 286.323 232.662 296.573C232.804 306.822 241.229 315.015 251.478 314.873Z" fill="#1B2194" stroke="#717AFF" style="fill:#1B2194;fill:color(display-p3 0.1060 0.1298 0.5804);fill-opacity:1;stroke:#717AFF;stroke:color(display-p3 0.4423 0.4795 1.0000);stroke-opacity:1;" stroke-width="0.757397" stroke-linecap="round" stroke-linejoin="round"/>
<path d="M243.494 279.485L161.249 320.662C159.079 321.734 158.126 324.319 159.085 326.544L173.413 359.756C174.512 362.305 177.613 363.285 179.975 361.828C196.52 351.629 258.804 313.355 260.112 312.609" fill="#1B2194" style="fill:#1B2194;fill:color(display-p3 0.1060 0.1298 0.5804);fill-opacity:1;"/>
<path d="M243.494 279.485L161.249 320.662C159.079 321.734 158.126 324.319 159.085 326.544L173.413 359.756C174.512 362.305 177.613 363.285 179.975 361.828C196.52 351.629 258.804 313.355 260.112 312.609" stroke="#717AFF" style="stroke:#717AFF;stroke:color(display-p3 0.4423 0.4795 1.0000);stroke-opacity:1;" stroke-width="0.757397" stroke-linecap="round" stroke-linejoin="round"/>
<path d="M170.687 316.001L161.253 320.658C159.083 321.734 158.13 324.319 159.089 326.54L167.914 347.005L169.742 351.248L170.611 353.255L172.438 357.49L173.417 359.756C174.516 362.305 177.62 363.284 179.979 361.828C181.177 361.091 186.874 357.649 188.459 356.676L185.431 349.746L183.581 345.515L182.708 343.519L180.858 339.288L170.683 316.005L170.687 316.001Z" fill="#5EFFBE" stroke="#717AFF" style="fill:#5EFFBE;fill:color(display-p3 0.3692 1.0000 0.7462);fill-opacity:1;stroke:#717AFF;stroke:color(display-p3 0.4423 0.4795 1.0000);stroke-opacity:1;" stroke-width="0.757397" stroke-linecap="round" stroke-linejoin="round"/>
<path d="M183.58 345.511L170.613 353.252L172.437 357.487L185.43 349.743L183.58 345.511Z" fill="white" stroke="#717AFF" style="fill:white;fill-opacity:1;stroke:#717AFF;stroke:color(display-p3 0.4423 0.4795 1.0000);stroke-opacity:1;" stroke-width="0.757397" stroke-linecap="round" stroke-linejoin="round"/>
<path d="M180.862 339.288L167.917 347.005L167.917 347.009L169.745 351.249L182.708 343.52L180.862 339.288Z" fill="white" stroke="#717AFF" style="fill:white;fill-opacity:1;stroke:#717AFF;stroke:color(display-p3 0.4423 0.4795 1.0000);stroke-opacity:1;" stroke-width="0.757397" stroke-linecap="round" stroke-linejoin="round"/>
<path d="M190.159 259.636C199.156 259.511 206.348 252.116 206.223 243.119C206.098 234.123 198.703 226.931 189.706 227.056C180.709 227.181 173.518 234.576 173.643 243.573C173.768 252.569 181.163 259.761 190.159 259.636Z" fill="white" stroke="#717AFF" style="fill:white;fill-opacity:1;stroke:#717AFF;stroke:color(display-p3 0.4423 0.4795 1.0000);stroke-opacity:1;" stroke-width="0.757397" stroke-linecap="round" stroke-linejoin="round"/>
<path d="M263.417 282.325C263.417 282.325 201.828 232.061 200.64 231.066L178.833 255.271L238.104 309.393L263.417 282.325Z" fill="#1B2194" style="fill:#1B2194;fill:color(display-p3 0.1060 0.1298 0.5804);fill-opacity:1;"/>
<path d="M263.416 282.325C263.416 282.325 201.828 232.06 200.64 231.065L263.416 282.325Z" fill="white" style="fill:white;fill-opacity:1;"/>
<path d="M263.416 282.325C263.416 282.325 201.828 232.06 200.64 231.065" stroke="#717AFF" style="stroke:#717AFF;stroke:color(display-p3 0.4423 0.4795 1.0000);stroke-opacity:1;" stroke-width="0.757397" stroke-linecap="round" stroke-linejoin="round"/>
<path d="M178.662 255.065L238.107 309.393" stroke="#717AFF" style="stroke:#717AFF;stroke:color(display-p3 0.4423 0.4795 1.0000);stroke-opacity:1;" stroke-width="0.757397" stroke-linecap="round" stroke-linejoin="round"/>
<path d="M186.248 463.844C193.013 463.749 198.421 458.189 198.327 451.423C198.233 444.658 192.672 439.25 185.907 439.344C179.142 439.438 173.734 444.999 173.828 451.764C173.922 458.53 179.483 463.938 186.248 463.844Z" fill="#717AFF" stroke="#717AFF" style="fill:#717AFF;fill:color(display-p3 0.4423 0.4795 1.0000);fill-opacity:1;stroke:#717AFF;stroke:color(display-p3 0.4423 0.4795 1.0000);stroke-opacity:1;" stroke-width="0.757397" stroke-linecap="round" stroke-linejoin="round"/>
<path d="M190.976 457.598C189.272 455.974 187.672 454.243 186.065 452.523C183.131 449.374 180.257 446.172 177.354 442.997C175.927 444.441 174.835 446.263 174.262 448.362C172.474 454.886 176.314 461.627 182.842 463.415C187.055 464.568 191.356 463.372 194.355 460.626C193.201 459.646 192.066 458.647 190.972 457.602L190.976 457.598Z" fill="#5EFFBE" stroke="#717AFF" style="fill:#5EFFBE;fill:color(display-p3 0.3692 1.0000 0.7462);fill-opacity:1;stroke:#717AFF;stroke:color(display-p3 0.4423 0.4795 1.0000);stroke-opacity:1;" stroke-width="0.757397" stroke-linecap="round" stroke-linejoin="round"/>
<path d="M186.131 455.442C188.256 455.412 189.955 453.665 189.925 451.541C189.896 449.416 188.149 447.717 186.024 447.747C183.899 447.776 182.201 449.523 182.23 451.648C182.26 453.773 184.006 455.471 186.131 455.442Z" fill="#717AFF" stroke="#717AFF" style="fill:#717AFF;fill:color(display-p3 0.4423 0.4795 1.0000);fill-opacity:1;stroke:#717AFF;stroke:color(display-p3 0.4423 0.4795 1.0000);stroke-opacity:1;" stroke-width="0.757397" stroke-linecap="round" stroke-linejoin="round"/>
<path d="M204.253 451.822C201.657 448.446 196.934 444.58 193.338 441.733C192.377 443.208 184.927 455.178 182.842 463.41L206.065 469.605C206.065 469.605 212.068 461.996 204.249 451.822L204.253 451.822Z" fill="#717AFF" stroke="#717AFF" style="fill:#717AFF;fill:color(display-p3 0.4423 0.4795 1.0000);fill-opacity:1;stroke:#717AFF;stroke:color(display-p3 0.4423 0.4795 1.0000);stroke-opacity:1;" stroke-width="0.757397" stroke-linecap="round" stroke-linejoin="round"/>
<path d="M182.078 463.175L205.94 469.569C202.086 466.65 193.479 461.327 184.183 454.938" fill="#5EFFBE" style="fill:#5EFFBE;fill:color(display-p3 0.3692 1.0000 0.7462);fill-opacity:1;"/>
<path d="M182.078 463.175L205.94 469.569C202.086 466.65 193.479 461.327 184.183 454.938" stroke="#717AFF" style="stroke:#717AFF;stroke:color(display-p3 0.4423 0.4795 1.0000);stroke-opacity:1;" stroke-width="0.757397" stroke-linecap="round" stroke-linejoin="round"/>
<path d="M208.27 462.134C208.223 459.267 207.261 455.732 204.256 451.82C201.66 448.443 196.936 444.577 193.34 441.73" fill="#717AFF" style="fill:#717AFF;fill:color(display-p3 0.4423 0.4795 1.0000);fill-opacity:1;"/>
<path d="M208.27 462.134C208.223 459.267 207.261 455.732 204.256 451.82C201.66 448.443 196.936 444.577 193.34 441.73" stroke="white" style="stroke:white;stroke-opacity:1;" stroke-width="0.757397" stroke-linecap="round" stroke-linejoin="round"/>
<path d="M168.291 433.742C176.179 433.632 182.485 427.148 182.375 419.26C182.266 411.372 175.782 405.066 167.893 405.176C160.005 405.286 153.699 411.769 153.809 419.658C153.919 427.546 160.403 433.852 168.291 433.742Z" fill="white" stroke="#717AFF" style="fill:white;fill-opacity:1;stroke:#717AFF;stroke:color(display-p3 0.4423 0.4795 1.0000);stroke-opacity:1;" stroke-width="0.757397" stroke-miterlimit="10"/>
<path d="M155.601 412.527L147.468 427.707L167.66 435.675L180.138 427.688L181.452 422.216" fill="white" style="fill:white;fill-opacity:1;"/>
<path d="M155.601 412.527L147.468 427.707L167.66 435.675L180.138 427.688L181.452 422.216" stroke="#717AFF" style="stroke:#717AFF;stroke:color(display-p3 0.4423 0.4795 1.0000);stroke-opacity:1;" stroke-width="0.757397" stroke-linecap="round" stroke-linejoin="round"/>
<path d="M193.899 442.244C191.808 440.614 189.553 438.842 187.103 436.699C180.52 430.939 182.871 422.184 182.871 422.184C182.871 422.184 177.589 421.712 173.196 426.098C169.961 429.329 169.143 433.434 169.143 433.434C169.143 433.434 164.251 429.442 155.234 427.591C151.979 426.924 148.086 426.671 148.086 426.671L142 436.762L140.823 438.714C137.61 444.038 141.063 452.459 147.119 454.037L174.069 461.081C177.927 457.699 185.946 456.973 193.902 442.236L193.899 442.244Z" fill="#717AFF" stroke="#717AFF" style="fill:#717AFF;fill:color(display-p3 0.4423 0.4795 1.0000);fill-opacity:1;stroke:#717AFF;stroke:color(display-p3 0.4423 0.4795 1.0000);stroke-opacity:1;" stroke-width="0.757397" stroke-linecap="round" stroke-linejoin="round"/>
<path d="M184.228 454.979C176.803 449.981 167.88 443.212 161.912 440.273C152.859 435.816 145.678 435.552 141.999 436.766L140.822 438.718C137.719 444.098 133.993 450.66 139.446 452L182.921 463.443" fill="#5EFFBE" style="fill:#5EFFBE;fill:color(display-p3 0.3692 1.0000 0.7462);fill-opacity:1;"/>
<path d="M184.228 454.979C176.803 449.981 167.88 443.212 161.912 440.273C152.859 435.816 145.678 435.552 141.999 436.766L140.822 438.718C137.719 444.098 133.993 450.66 139.446 452L182.921 463.443" stroke="#717AFF" style="stroke:#717AFF;stroke:color(display-p3 0.4423 0.4795 1.0000);stroke-opacity:1;" stroke-width="0.757397" stroke-linecap="round" stroke-linejoin="round"/>
<path d="M192.883 441.312C183.485 439.628 175.417 448.535 175.417 448.535L192.883 441.312Z" fill="#717AFF" style="fill:#717AFF;fill:color(display-p3 0.4423 0.4795 1.0000);fill-opacity:1;"/>
<path d="M192.883 441.312C183.485 439.628 175.417 448.535 175.417 448.535" stroke="white" style="stroke:white;stroke-opacity:1;" stroke-width="0.757397" stroke-linecap="round" stroke-linejoin="round"/>
<path d="M196.108 351.738C206.357 351.595 214.551 343.171 214.408 332.921C214.265 322.672 205.841 314.479 195.591 314.621C185.342 314.764 177.149 323.188 177.291 333.438C177.434 343.687 185.859 351.88 196.108 351.738Z" fill="#1B2194" stroke="#717AFF" style="fill:#1B2194;fill:color(display-p3 0.1060 0.1298 0.5804);fill-opacity:1;stroke:#717AFF;stroke:color(display-p3 0.4423 0.4795 1.0000);stroke-opacity:1;" stroke-width="0.757397" stroke-linecap="round" stroke-linejoin="round"/>
<path d="M178.769 326.032L146.16 412.034C145.29 414.292 146.341 416.838 148.551 417.826L181.588 432.554C184.123 433.681 187.065 432.303 187.82 429.634C193.081 410.927 212.974 340.58 213.432 339.142" fill="#1B2194" style="fill:#1B2194;fill:color(display-p3 0.1060 0.1298 0.5804);fill-opacity:1;"/>
<path d="M178.769 326.032L146.16 412.034C145.29 414.292 146.341 416.838 148.551 417.826L181.588 432.554C184.123 433.681 187.065 432.303 187.82 429.634C193.081 410.927 212.974 340.58 213.432 339.142" stroke="#717AFF" style="stroke:#717AFF;stroke:color(display-p3 0.4423 0.4795 1.0000);stroke-opacity:1;" stroke-width="0.757397" stroke-linecap="round" stroke-linejoin="round"/>
<path d="M149.942 402.214L146.158 412.03C145.288 414.292 146.339 416.838 148.549 417.822L168.904 426.897L173.119 428.778L175.116 429.666L179.327 431.543L181.583 432.55C184.121 433.677 187.064 432.299 187.814 429.63C188.193 428.276 190.058 421.884 190.564 420.097L183.64 417.05L179.414 415.192L177.421 414.315L173.195 412.457L149.938 402.221L149.942 402.214Z" fill="#5EFFBE" stroke="#717AFF" style="fill:#5EFFBE;fill:color(display-p3 0.3692 1.0000 0.7462);fill-opacity:1;stroke:#717AFF;stroke:color(display-p3 0.4423 0.4795 1.0000);stroke-opacity:1;" stroke-width="0.757397" stroke-linecap="round" stroke-linejoin="round"/>
<path d="M179.419 415.187L175.121 429.666L179.332 431.543L183.645 417.045L179.419 415.187Z" fill="white" stroke="#717AFF" style="fill:white;fill-opacity:1;stroke:#717AFF;stroke:color(display-p3 0.4423 0.4795 1.0000);stroke-opacity:1;" stroke-width="0.757397" stroke-linecap="round" stroke-linejoin="round"/>
<path d="M173.199 412.453L168.904 426.898L168.908 426.898L173.123 428.778L177.425 414.311L173.199 412.453Z" fill="white" stroke="#717AFF" style="fill:white;fill-opacity:1;stroke:#717AFF;stroke:color(display-p3 0.4423 0.4795 1.0000);stroke-opacity:1;" stroke-width="0.757397" stroke-linecap="round" stroke-linejoin="round"/>
<path d="M163.316 275.386C172.312 275.26 179.504 267.866 179.379 258.869C179.254 249.872 171.859 242.68 162.862 242.806C153.866 242.931 146.674 250.326 146.799 259.322C146.924 268.319 154.319 275.511 163.316 275.386Z" fill="white" stroke="#717AFF" style="fill:white;fill-opacity:1;stroke:#717AFF;stroke:color(display-p3 0.4423 0.4795 1.0000);stroke-opacity:1;" stroke-width="0.757397" stroke-linecap="round" stroke-linejoin="round"/>
<path d="M212.859 325.747C212.859 325.747 178.664 253.979 178.02 252.572L147.96 265.132L178.41 339.395L212.863 325.747L212.859 325.747Z" fill="#1B2194" style="fill:#1B2194;fill:color(display-p3 0.1060 0.1298 0.5804);fill-opacity:1;"/>
<path d="M212.857 325.747C212.857 325.747 178.662 253.979 178.018 252.572L212.857 325.747Z" fill="white" style="fill:white;fill-opacity:1;"/>
<path d="M212.857 325.747C212.857 325.747 178.662 253.979 178.018 252.572" stroke="#717AFF" style="stroke:#717AFF;stroke:color(display-p3 0.4423 0.4795 1.0000);stroke-opacity:1;" stroke-width="0.757397" stroke-linecap="round" stroke-linejoin="round"/>
<path d="M147.888 264.875L178.406 339.399" stroke="#717AFF" style="stroke:#717AFF;stroke:color(display-p3 0.4423 0.4795 1.0000);stroke-opacity:1;" stroke-width="0.757397" stroke-linecap="round" stroke-linejoin="round"/>
<path d="M176.875 196.345C183.295 196.256 188.428 190.978 188.338 184.558C188.249 178.138 182.972 173.006 176.552 173.095C170.131 173.184 164.999 178.461 165.089 184.882C165.178 191.302 170.455 196.434 176.875 196.345Z" fill="#5EFFBE" stroke="#717AFF" style="fill:#5EFFBE;fill:color(display-p3 0.3692 1.0000 0.7462);fill-opacity:1;stroke:#717AFF;stroke:color(display-p3 0.4423 0.4795 1.0000);stroke-opacity:1;" stroke-width="0.757397" stroke-linecap="round" stroke-linejoin="round"/>
<path d="M177.011 190.17C179.951 190.129 182.302 187.712 182.261 184.772C182.22 181.831 179.803 179.481 176.862 179.522C173.922 179.563 171.571 181.979 171.612 184.92C171.653 187.86 174.07 190.211 177.011 190.17Z" fill="#5EFFBE" style="fill:#5EFFBE;fill:color(display-p3 0.3692 1.0000 0.7462);fill-opacity:1;"/>
<path d="M218.009 212.801L185.117 176.684L168.319 192.654L200.757 228.599" fill="#5EFFBE" style="fill:#5EFFBE;fill:color(display-p3 0.3692 1.0000 0.7462);fill-opacity:1;"/>
<path d="M200.758 228.599L172.156 196.778" stroke="#717AFF" style="stroke:#717AFF;stroke:color(display-p3 0.4423 0.4795 1.0000);stroke-opacity:1;" stroke-width="0.757397" stroke-linecap="round" stroke-linejoin="round"/>
<path d="M218.101 212.966L185.116 176.684" stroke="#717AFF" style="stroke:#717AFF;stroke:color(display-p3 0.4423 0.4795 1.0000);stroke-opacity:1;" stroke-width="0.757397" stroke-linecap="round" stroke-linejoin="round"/>
<path d="M161.85 253.387C176.677 253.18 188.53 240.993 188.324 226.166C188.117 211.339 175.93 199.486 161.103 199.692C146.276 199.899 134.423 212.086 134.629 226.913C134.836 241.74 147.023 253.593 161.85 253.387Z" fill="#5EFFBE" stroke="#717AFF" style="fill:#5EFFBE;fill:color(display-p3 0.3692 1.0000 0.7462);fill-opacity:1;stroke:#717AFF;stroke:color(display-p3 0.4423 0.4795 1.0000);stroke-opacity:1;" stroke-width="0.757397" stroke-linecap="round" stroke-linejoin="round"/>
<path d="M148.446 266.144C148.446 266.144 157.559 265.4 177.314 253.445C198.35 240.714 202.561 233.047 202.561 233.047L193.844 223.325L184.272 212.331C184.272 212.331 167.188 224.931 162.89 227.464C155.622 231.746 138.002 239.589 138.002 239.589L144.245 255.469L148.442 266.144L148.446 266.144Z" fill="#1B2194" style="fill:#1B2194;fill:color(display-p3 0.1060 0.1298 0.5804);fill-opacity:1;"/>
<path d="M138.003 239.588L143.766 254.222L148.148 265.636" fill="white" style="fill:white;fill-opacity:1;"/>
<path d="M138.003 239.588L143.766 254.222L148.148 265.636" stroke="#717AFF" style="stroke:#717AFF;stroke:color(display-p3 0.4423 0.4795 1.0000);stroke-opacity:1;" stroke-width="0.757397" stroke-linecap="round" stroke-linejoin="round"/>
<path d="M202.632 233.134L193.787 223.265L184.269 212.331" fill="white" style="fill:white;fill-opacity:1;"/>
<path d="M202.632 233.134L193.787 223.265L184.269 212.331" stroke="#717AFF" style="stroke:#717AFF;stroke:color(display-p3 0.4423 0.4795 1.0000);stroke-opacity:1;" stroke-width="0.757397" stroke-linecap="round" stroke-linejoin="round"/>
<path d="M184.268 212.331L189.18 218.016L140.735 246.553L138.002 239.589" fill="#5EFFBE" style="fill:#5EFFBE;fill:color(display-p3 0.3692 1.0000 0.7462);fill-opacity:1;"/>
<path d="M184.268 212.331L189.18 218.016L140.735 246.553L138.002 239.589" stroke="#717AFF" style="stroke:#717AFF;stroke:color(display-p3 0.4423 0.4795 1.0000);stroke-opacity:1;" stroke-width="0.757397" stroke-linecap="round" stroke-linejoin="round"/>
<path d="M183.813 249.817L178.264 253.087" stroke="#717AFF" style="stroke:#717AFF;stroke:color(display-p3 0.4423 0.4795 1.0000);stroke-opacity:1;" stroke-width="0.757397" stroke-linecap="round" stroke-linejoin="round"/>
<path d="M155.563 192.894C164.278 190.325 169.867 183.238 168.047 177.065C166.227 170.892 157.687 167.971 148.972 170.54C140.258 173.11 134.669 180.196 136.489 186.369C138.309 192.542 146.849 195.463 155.563 192.894Z" fill="#5EFFBE" stroke="#717AFF" style="fill:#5EFFBE;fill:color(display-p3 0.3692 1.0000 0.7462);fill-opacity:1;stroke:#717AFF;stroke:color(display-p3 0.4423 0.4795 1.0000);stroke-opacity:1;" stroke-width="0.757397" stroke-linecap="round" stroke-linejoin="round"/>
<path d="M125.27 207.796C131.69 207.707 136.822 202.43 136.733 196.009C136.644 189.589 131.366 184.457 124.946 184.546C118.526 184.636 113.394 189.913 113.483 196.333C113.572 202.753 118.849 207.885 125.27 207.796Z" fill="#5EFFBE" stroke="#717AFF" style="fill:#5EFFBE;fill:color(display-p3 0.3692 1.0000 0.7462);fill-opacity:1;stroke:#717AFF;stroke:color(display-p3 0.4423 0.4795 1.0000);stroke-opacity:1;" stroke-width="0.757397" stroke-linecap="round" stroke-linejoin="round"/>
<path d="M161.532 230.532C163.736 230.501 165.499 228.689 165.468 226.485C165.437 224.28 163.625 222.518 161.421 222.549C159.217 222.58 157.455 224.391 157.485 226.596C157.516 228.8 159.328 230.562 161.532 230.532Z" fill="#5EFFBE" style="fill:#5EFFBE;fill:color(display-p3 0.3692 1.0000 0.7462);fill-opacity:1;"/>
<path d="M146.152 180.017L157.85 177.472L173.92 173.374L183.988 191.417L190.009 216.155C190.385 217.82 189.347 219.475 187.682 219.854L137.788 231.331C134.235 232.069 131.465 231.998 130.991 228.399L126.199 204.39L122.477 184.842L146.145 180.017L146.152 180.017Z" fill="#5EFFBE" style="fill:#5EFFBE;fill:color(display-p3 0.3692 1.0000 0.7462);fill-opacity:1;"/>
<path d="M183.992 191.417L190.014 216.156C190.389 217.821 189.352 219.475 187.687 219.854L137.793 231.331C134.239 232.07 131.655 232.235 130.862 228.106L126.203 204.386" stroke="#717AFF" style="stroke:#717AFF;stroke:color(display-p3 0.4423 0.4795 1.0000);stroke-opacity:1;" stroke-width="0.757397" stroke-linecap="round" stroke-linejoin="round"/>
<path d="M136.051 182.082L122.485 184.843" stroke="#717AFF" style="stroke:#717AFF;stroke:color(display-p3 0.4423 0.4795 1.0000);stroke-opacity:1;" stroke-width="0.757397" stroke-linecap="round" stroke-linejoin="round"/>
<path d="M173.924 173.374L167.321 174.947" stroke="#717AFF" style="stroke:#717AFF;stroke:color(display-p3 0.4423 0.4795 1.0000);stroke-opacity:1;" stroke-width="0.757397" stroke-linecap="round" stroke-linejoin="round"/>
<path d="M166.443 174.043C166.682 174.373 166.887 174.684 167.062 174.974C167.821 176.22 168.049 177.054 168.049 177.054C169.869 183.229 157.059 183.699 148.346 186.267C139.633 188.834 137.244 187.796 136.493 186.36C136.493 186.36 135.86 184.925 136.102 183.04C136.366 181.002 136.653 180.949 136.653 180.949" stroke="#717AFF" style="stroke:#717AFF;stroke:color(display-p3 0.4423 0.4795 1.0000);stroke-opacity:1;" stroke-width="0.757397" stroke-linecap="round" stroke-linejoin="round"/>
<path d="M161.7 180.717C165.54 188.28 167.178 201.203 167.178 201.203" stroke="#717AFF" style="stroke:#717AFF;stroke:color(display-p3 0.4423 0.4795 1.0000);stroke-opacity:1;" stroke-width="0.757397" stroke-linecap="round" stroke-linejoin="round"/>
<path d="M165.56 199.49L167.877 198.954L168.36 201.042C168.508 201.68 168.108 202.321 167.469 202.469C166.831 202.616 166.19 202.216 166.043 201.578L165.56 199.49Z" fill="#717AFF" stroke="#717AFF" style="fill:#717AFF;fill:color(display-p3 0.4423 0.4795 1.0000);fill-opacity:1;stroke:#717AFF;stroke:color(display-p3 0.4423 0.4795 1.0000);stroke-opacity:1;" stroke-width="0.757397" stroke-linecap="round" stroke-linejoin="round"/>
<path d="M153.72 183.32C156.169 190.562 159.774 196.807 159.774 196.807" stroke="#717AFF" style="stroke:#717AFF;stroke:color(display-p3 0.4423 0.4795 1.0000);stroke-opacity:1;" stroke-width="0.757397" stroke-linecap="round" stroke-linejoin="round"/>
<path d="M160.302 198.01C159.703 198.276 158.998 198.004 158.732 197.405L157.863 195.446L160.037 194.482L160.906 196.441C161.172 197.04 160.901 197.744 160.302 198.01Z" fill="#717AFF" stroke="#717AFF" style="fill:#717AFF;fill:color(display-p3 0.4423 0.4795 1.0000);fill-opacity:1;stroke:#717AFF;stroke:color(display-p3 0.4423 0.4795 1.0000);stroke-opacity:1;" stroke-width="0.757397" stroke-linecap="round" stroke-linejoin="round"/>
<path d="M152.711 181.483C155.526 181.443 157.776 179.13 157.737 176.315C157.698 173.5 155.384 171.249 152.569 171.288C149.754 171.328 147.503 173.641 147.543 176.456C147.582 179.271 149.896 181.522 152.711 181.483Z" fill="white" stroke="#717AFF" style="fill:white;fill-opacity:1;stroke:#717AFF;stroke:color(display-p3 0.4423 0.4795 1.0000);stroke-opacity:1;" stroke-width="0.757397" stroke-linecap="round" stroke-linejoin="round"/>
<path d="M157.015 162.839C159.83 162.799 162.081 160.486 162.041 157.671C162.002 154.856 159.688 152.605 156.873 152.644C154.058 152.684 151.808 154.997 151.847 157.812C151.886 160.627 154.2 162.878 157.015 162.839Z" fill="white" stroke="#717AFF" style="fill:white;fill-opacity:1;stroke:#717AFF;stroke:color(display-p3 0.4423 0.4795 1.0000);stroke-opacity:1;" stroke-width="0.757397" stroke-linecap="round" stroke-linejoin="round"/>
<path d="M161.918 158.882L151.98 156.589L147.676 175.243L157.614 177.536L161.918 158.882Z" fill="white" style="fill:white;fill-opacity:1;"/>
<path d="M159.369 169.847L157.345 164.546L159.306 161.492L161.286 161.949L159.369 169.847Z" fill="#717AFF" stroke="#717AFF" style="fill:#717AFF;fill:color(display-p3 0.4423 0.4795 1.0000);fill-opacity:1;stroke:#717AFF;stroke:color(display-p3 0.4423 0.4795 1.0000);stroke-opacity:1;" stroke-width="0.757397" stroke-linecap="round" stroke-linejoin="round"/>
<path d="M147.67 175.247L151.974 156.594" stroke="#717AFF" style="stroke:#717AFF;stroke:color(display-p3 0.4423 0.4795 1.0000);stroke-opacity:1;" stroke-width="0.757397" stroke-linecap="round" stroke-linejoin="round"/>
<path d="M161.911 158.888L157.606 177.541" stroke="#717AFF" style="stroke:#717AFF;stroke:color(display-p3 0.4423 0.4795 1.0000);stroke-opacity:1;" stroke-width="0.757397" stroke-linecap="round" stroke-linejoin="round"/>
<path d="M157.72 175.944C157.72 175.944 159.202 180.673 157.916 181.626C155.18 183.66 150.167 180.844 150.167 180.844" fill="white" style="fill:white;fill-opacity:1;"/>
<path d="M157.72 175.944C157.72 175.944 159.202 180.673 157.916 181.626C155.18 183.66 150.167 180.844 150.167 180.844" stroke="#717AFF" style="stroke:#717AFF;stroke:color(display-p3 0.4423 0.4795 1.0000);stroke-opacity:1;" stroke-width="0.757397" stroke-linecap="round" stroke-linejoin="round"/>
<path d="M150.605 151.834C150.605 151.834 152.092 148.704 154.686 146.558C154.96 146.331 155.245 146.115 155.545 145.917C157.181 144.819 159.179 144.193 161.465 144.839C161.598 144.875 161.735 144.918 161.872 144.97C162.009 145.017 162.146 145.068 162.287 145.127C162.355 145.152 162.424 145.185 162.496 145.215C162.53 145.229 162.568 145.244 162.603 145.266C164.048 145.928 165.233 147.006 166.062 148.324C166.697 149.337 167.122 150.494 167.298 151.708L168.94 163.27C169.326 165.988 166.82 168.227 164.159 167.537L155.844 165.255" fill="white" style="fill:white;fill-opacity:1;"/>
<path d="M150.605 151.834C150.605 151.834 152.092 148.704 154.686 146.558C154.96 146.331 155.245 146.115 155.545 145.917C157.181 144.819 159.179 144.193 161.465 144.839C161.598 144.875 161.735 144.918 161.872 144.97C162.009 145.017 162.146 145.068 162.287 145.127C162.355 145.152 162.424 145.185 162.496 145.215C162.53 145.229 162.568 145.244 162.603 145.266C164.048 145.928 165.233 147.006 166.062 148.324C166.697 149.337 167.122 150.494 167.298 151.708L168.94 163.27C169.326 165.988 166.82 168.227 164.159 167.537L155.844 165.255" stroke="#717AFF" style="stroke:#717AFF;stroke:color(display-p3 0.4423 0.4795 1.0000);stroke-opacity:1;" stroke-width="0.757397" stroke-linecap="round" stroke-linejoin="round"/>
<path d="M166.2 145.406C166.2 145.406 168.771 145.404 168.552 147.331C168.285 149.664 165.121 148.989 161.724 147.907C158.327 146.826 155.802 149.683 156.965 152.424C158.128 155.165 155.183 154.407 154.064 153.468C153.152 152.7 153.557 155.471 153.557 155.471C153.557 155.471 152.152 157.6 149.942 158.324C147.503 159.123 144.744 154.654 145.493 148.3C145.649 146.987 146.428 146.613 146.428 146.613C146.428 146.613 145.029 144.879 146.887 143.414C148.745 141.949 150.268 143.367 150.268 143.367C150.268 143.367 150.297 140.799 155.934 140.913C161.571 141.024 162.059 144.774 166.2 145.41L166.2 145.406Z" fill="#9D8610" stroke="#717AFF" style="fill:#9D8610;fill:color(display-p3 0.6173 0.5251 0.0641);fill-opacity:1;stroke:#717AFF;stroke:color(display-p3 0.4423 0.4795 1.0000);stroke-opacity:1;" stroke-width="0.757397" stroke-linecap="round" stroke-linejoin="round"/>
<path d="M161.053 158.528C161.053 158.528 162.949 156.748 165.389 157.097C167.829 157.446 168.149 160.539 168.149 160.539L161.057 158.532L161.053 158.528Z" fill="#9D8610" stroke="#717AFF" style="fill:#9D8610;fill:color(display-p3 0.6173 0.5251 0.0641);fill-opacity:1;stroke:#717AFF;stroke:color(display-p3 0.4423 0.4795 1.0000);stroke-opacity:1;" stroke-width="0.757397" stroke-linecap="round" stroke-linejoin="round"/>
<path d="M151.327 157.748C152.948 157.725 154.244 156.393 154.221 154.772C154.198 153.151 152.866 151.856 151.245 151.878C149.624 151.901 148.329 153.233 148.351 154.854C148.374 156.475 149.706 157.77 151.327 157.748Z" fill="white" style="fill:white;fill-opacity:1;"/>
<path d="M152.015 157.655C151.528 157.78 151.005 157.783 150.488 157.635C148.929 157.195 148.024 155.571 148.464 154.012C148.905 152.453 150.528 151.548 152.087 151.988C152.673 152.154 153.505 152.635 153.974 153.625" fill="white" style="fill:white;fill-opacity:1;"/>
<path d="M152.015 157.655C151.528 157.78 151.005 157.783 150.488 157.635C148.929 157.195 148.024 155.571 148.464 154.012C148.905 152.453 150.528 151.548 152.087 151.988C152.673 152.154 153.505 152.635 153.974 153.625" stroke="#717AFF" style="stroke:#717AFF;stroke:color(display-p3 0.4423 0.4795 1.0000);stroke-opacity:1;" stroke-width="0.757397" stroke-linecap="round" stroke-linejoin="round"/>
<path d="M123.881 305.314C124.833 305.301 125.594 304.519 125.58 303.567C125.567 302.616 124.785 301.855 123.833 301.868C122.882 301.881 122.121 302.663 122.134 303.615C122.148 304.567 122.93 305.327 123.881 305.314Z" fill="white" stroke="#717AFF" style="fill:white;fill-opacity:1;stroke:#717AFF;stroke:color(display-p3 0.4423 0.4795 1.0000);stroke-opacity:1;" stroke-width="0.757397" stroke-linecap="round" stroke-linejoin="round"/>
<path d="M122.139 303.482C122.116 303.725 122.051 304.483 122.012 304.741C121.734 306.798 122.514 309.226 123.656 309.32C124.687 309.404 125.074 308.346 125.493 304.746C125.524 304.476 125.572 304.173 125.577 303.688" fill="white" style="fill:white;fill-opacity:1;"/>
<path d="M122.139 303.482C122.116 303.725 122.051 304.483 122.012 304.741C121.734 306.798 122.514 309.226 123.656 309.32C124.687 309.404 125.074 308.346 125.493 304.746C125.524 304.476 125.572 304.173 125.577 303.688" stroke="#717AFF" style="stroke:#717AFF;stroke:color(display-p3 0.4423 0.4795 1.0000);stroke-opacity:1;" stroke-width="0.757397" stroke-linecap="round" stroke-linejoin="round"/>
<path d="M123.791 299.937C124.797 299.923 125.601 299.096 125.587 298.09C125.573 297.084 124.746 296.28 123.74 296.294C122.734 296.308 121.93 297.135 121.944 298.141C121.958 299.147 122.785 299.951 123.791 299.937Z" fill="white" stroke="#717AFF" style="fill:white;fill-opacity:1;stroke:#717AFF;stroke:color(display-p3 0.4423 0.4795 1.0000);stroke-opacity:1;" stroke-width="0.757397" stroke-linecap="round" stroke-linejoin="round"/>
<path d="M125.574 303.706C125.808 302.287 125.814 301.62 125.827 300.673C125.85 298.73 125.56 297.775 125.56 297.775L122.019 298.624C122.019 298.624 122.151 299.16 122.204 300.223C122.25 301.101 122.321 301.828 122.146 303.417C122.579 303.453 124.833 303.804 125.578 303.71L125.574 303.706Z" fill="white" style="fill:white;fill-opacity:1;"/>
<path d="M122.016 298.625C122.016 298.625 122.148 299.16 122.201 300.224C122.247 301.102 122.318 301.828 122.143 303.418" fill="white" style="fill:white;fill-opacity:1;"/>
<path d="M122.016 298.625C122.016 298.625 122.148 299.16 122.201 300.224C122.247 301.102 122.318 301.828 122.143 303.418" stroke="#717AFF" style="stroke:#717AFF;stroke:color(display-p3 0.4423 0.4795 1.0000);stroke-opacity:1;" stroke-width="0.757397" stroke-linecap="round" stroke-linejoin="round"/>
<path d="M125.575 303.707C125.809 302.287 125.815 301.62 125.828 300.673C125.85 298.73 125.56 297.775 125.56 297.775" fill="white" style="fill:white;fill-opacity:1;"/>
<path d="M125.575 303.707C125.809 302.287 125.815 301.62 125.828 300.673C125.85 298.73 125.56 297.775 125.56 297.775" stroke="#717AFF" style="stroke:#717AFF;stroke:color(display-p3 0.4423 0.4795 1.0000);stroke-opacity:1;" stroke-width="0.757397" stroke-linecap="round" stroke-linejoin="round"/>
<path d="M118.913 305.591C119.969 305.576 120.813 304.708 120.799 303.652C120.784 302.596 119.916 301.752 118.86 301.766C117.803 301.781 116.959 302.649 116.974 303.705C116.989 304.761 117.857 305.606 118.913 305.591Z" fill="white" stroke="#717AFF" style="fill:white;fill-opacity:1;stroke:#717AFF;stroke:color(display-p3 0.4423 0.4795 1.0000);stroke-opacity:1;" stroke-width="0.757397" stroke-linecap="round" stroke-linejoin="round"/>
<path d="M117.373 302.507C117.202 302.714 116.666 303.369 116.472 303.588C114.932 305.306 113.61 307.525 114.602 308.325C115.499 309.048 116.945 309.039 119.737 305.75C119.934 305.52 120.227 305.073 120.406 304.851" fill="white" style="fill:white;fill-opacity:1;"/>
<path d="M117.373 302.507C117.202 302.714 116.666 303.369 116.472 303.588C114.932 305.306 113.61 307.525 114.602 308.325C115.499 309.048 116.945 309.039 119.737 305.75C119.934 305.52 120.227 305.073 120.406 304.851" stroke="#717AFF" style="stroke:#717AFF;stroke:color(display-p3 0.4423 0.4795 1.0000);stroke-opacity:1;" stroke-width="0.757397" stroke-linecap="round" stroke-linejoin="round"/>
<path d="M120.21 299.763C121.329 299.747 122.224 298.828 122.208 297.709C122.192 296.59 121.273 295.695 120.154 295.711C119.035 295.727 118.141 296.646 118.156 297.765C118.172 298.884 119.091 299.779 120.21 299.763Z" fill="white" stroke="#717AFF" style="fill:white;fill-opacity:1;stroke:#717AFF;stroke:color(display-p3 0.4423 0.4795 1.0000);stroke-opacity:1;" stroke-width="0.757397" stroke-linecap="round" stroke-linejoin="round"/>
<path d="M120.711 304.244C121.327 302.77 121.502 302.048 121.757 301.025C122.277 298.931 122.205 297.826 122.205 297.826L118.16 297.841C118.16 297.841 118.168 298.454 117.954 299.616C117.778 300.577 117.675 301.381 117.077 303.052C117.534 303.201 119.884 304.157 120.711 304.244Z" fill="white" style="fill:white;fill-opacity:1;"/>
<path d="M118.16 297.841C118.16 297.841 118.168 298.454 117.954 299.616C117.778 300.577 117.675 301.381 117.077 303.052" fill="white" style="fill:white;fill-opacity:1;"/>
<path d="M118.16 297.841C118.16 297.841 118.168 298.454 117.954 299.616C117.778 300.577 117.675 301.381 117.077 303.052" stroke="#717AFF" style="stroke:#717AFF;stroke:color(display-p3 0.4423 0.4795 1.0000);stroke-opacity:1;" stroke-width="0.757397" stroke-linecap="round" stroke-linejoin="round"/>
<path d="M120.712 304.244C121.328 302.77 121.503 302.048 121.758 301.025C122.278 298.931 122.206 297.826 122.206 297.826" fill="white" style="fill:white;fill-opacity:1;"/>
<path d="M120.712 304.244C121.328 302.77 121.503 302.048 121.758 301.025C122.278 298.931 122.206 297.826 122.206 297.826" stroke="#717AFF" style="stroke:#717AFF;stroke:color(display-p3 0.4423 0.4795 1.0000);stroke-opacity:1;" stroke-width="0.757397" stroke-linecap="round" stroke-linejoin="round"/>
<path d="M115.738 305.234C116.769 305.22 117.593 304.372 117.579 303.341C117.565 302.31 116.717 301.486 115.686 301.5C114.655 301.515 113.831 302.362 113.845 303.393C113.86 304.424 114.707 305.249 115.738 305.234Z" fill="white" stroke="#717AFF" style="fill:white;fill-opacity:1;stroke:#717AFF;stroke:color(display-p3 0.4423 0.4795 1.0000);stroke-opacity:1;" stroke-width="0.757397" stroke-linecap="round" stroke-linejoin="round"/>
<path d="M113.927 302.824C113.844 303.075 113.582 303.855 113.48 304.121C112.668 306.22 112.233 308.703 113.416 309.092C114.485 309.44 115.774 308.665 117.184 304.699C117.283 304.421 117.404 304.169 117.507 303.914" fill="white" style="fill:white;fill-opacity:1;"/>
<path d="M113.927 302.824C113.844 303.075 113.582 303.855 113.48 304.121C112.668 306.22 112.233 308.703 113.416 309.092C114.485 309.44 115.774 308.665 117.184 304.699C117.283 304.421 117.404 304.169 117.507 303.914" stroke="#717AFF" style="stroke:#717AFF;stroke:color(display-p3 0.4423 0.4795 1.0000);stroke-opacity:1;" stroke-width="0.757397" stroke-linecap="round" stroke-linejoin="round"/>
<path d="M116.839 299.51C117.931 299.495 118.804 298.598 118.789 297.506C118.773 296.414 117.876 295.542 116.784 295.557C115.693 295.572 114.82 296.469 114.835 297.561C114.85 298.653 115.748 299.526 116.839 299.51Z" fill="white" stroke="#717AFF" style="fill:white;fill-opacity:1;stroke:#717AFF;stroke:color(display-p3 0.4423 0.4795 1.0000);stroke-opacity:1;" stroke-width="0.757397" stroke-linecap="round" stroke-linejoin="round"/>
<path d="M117.51 303.868C118.069 302.41 118.222 301.703 118.439 300.701C118.888 298.645 118.79 297.567 118.79 297.567L114.841 297.694C114.841 297.694 114.865 298.292 114.691 299.431C114.549 300.372 114.465 301.157 113.931 302.809C114.38 302.942 116.699 303.808 117.51 303.868Z" fill="white" style="fill:white;fill-opacity:1;"/>
<path d="M114.844 297.694C114.844 297.694 114.868 298.292 114.694 299.431C114.552 300.372 114.468 301.158 113.934 302.809" fill="white" style="fill:white;fill-opacity:1;"/>
<path d="M114.844 297.694C114.844 297.694 114.868 298.292 114.694 299.431C114.552 300.372 114.468 301.158 113.934 302.809" stroke="#717AFF" style="stroke:#717AFF;stroke:color(display-p3 0.4423 0.4795 1.0000);stroke-opacity:1;" stroke-width="0.757397" stroke-linecap="round" stroke-linejoin="round"/>
<path d="M117.51 303.869C118.069 302.41 118.223 301.704 118.44 300.701C118.888 298.645 118.79 297.567 118.79 297.567" fill="white" style="fill:white;fill-opacity:1;"/>
<path d="M117.51 303.869C118.069 302.41 118.223 301.704 118.44 300.701C118.888 298.645 118.79 297.567 118.79 297.567" stroke="#717AFF" style="stroke:#717AFF;stroke:color(display-p3 0.4423 0.4795 1.0000);stroke-opacity:1;" stroke-width="0.757397" stroke-linecap="round" stroke-linejoin="round"/>
<path d="M112.744 302.76C113.633 302.748 114.343 302.017 114.331 301.129C114.319 300.24 113.588 299.529 112.699 299.542C111.81 299.554 111.1 300.285 111.112 301.173C111.125 302.062 111.855 302.773 112.744 302.76Z" fill="white" stroke="#717AFF" style="fill:white;fill-opacity:1;stroke:#717AFF;stroke:color(display-p3 0.4423 0.4795 1.0000);stroke-opacity:1;" stroke-width="0.757397" stroke-linecap="round" stroke-linejoin="round"/>
<path d="M111.189 300.665C111.113 300.878 110.872 301.548 110.792 301.78C110.253 303.31 110.16 304.838 111.176 305.184C112.093 305.497 113.026 304.461 113.977 302.312C114.08 302.079 114.171 301.858 114.263 301.637" fill="white" style="fill:white;fill-opacity:1;"/>
<path d="M111.189 300.665C111.113 300.878 110.872 301.548 110.792 301.78C110.253 303.31 110.16 304.838 111.176 305.184C112.093 305.497 113.026 304.461 113.977 302.312C114.08 302.079 114.171 301.858 114.263 301.637" stroke="#717AFF" style="stroke:#717AFF;stroke:color(display-p3 0.4423 0.4795 1.0000);stroke-opacity:1;" stroke-width="0.757397" stroke-linecap="round" stroke-linejoin="round"/>
<path d="M113.499 299.001C114.44 298.988 115.192 298.214 115.179 297.273C115.166 296.332 114.392 295.579 113.451 295.592C112.51 295.606 111.758 296.379 111.771 297.32C111.784 298.261 112.557 299.014 113.499 299.001Z" fill="white" stroke="#717AFF" style="fill:white;fill-opacity:1;stroke:#717AFF;stroke:color(display-p3 0.4423 0.4795 1.0000);stroke-opacity:1;" stroke-width="0.757397" stroke-linecap="round" stroke-linejoin="round"/>
<path d="M114.267 301.599C114.761 300.35 114.652 300.901 114.852 300.038C115.259 298.272 115.182 297.341 115.182 297.341L111.781 297.415C111.781 297.415 111.796 297.93 111.635 298.909C111.503 299.721 111.674 299.234 111.198 300.65C111.582 300.769 113.573 301.537 114.271 301.596L114.267 301.599Z" fill="white" style="fill:white;fill-opacity:1;"/>
<path d="M111.777 297.416C111.777 297.416 111.67 299.239 111.193 300.654L111.777 297.416Z" fill="white" style="fill:white;fill-opacity:1;"/>
<path d="M111.777 297.416C111.777 297.416 111.67 299.239 111.193 300.654" stroke="#717AFF" style="stroke:#717AFF;stroke:color(display-p3 0.4423 0.4795 1.0000);stroke-opacity:1;" stroke-width="0.757397" stroke-linecap="round" stroke-linejoin="round"/>
<path d="M114.267 301.6C114.391 301.283 114.733 300.51 114.851 300.038C115.289 298.279 115.181 297.341 115.181 297.341" fill="white" style="fill:white;fill-opacity:1;"/>
<path d="M114.267 301.6C114.391 301.283 114.733 300.51 114.851 300.038C115.289 298.279 115.181 297.341 115.181 297.341" stroke="#717AFF" style="stroke:#717AFF;stroke:color(display-p3 0.4423 0.4795 1.0000);stroke-opacity:1;" stroke-width="0.757397" stroke-linecap="round" stroke-linejoin="round"/>
<path d="M116.107 293.966C120.2 293.909 123.472 290.544 123.415 286.452C123.358 282.359 119.994 279.087 115.901 279.144C111.808 279.201 108.536 282.565 108.593 286.658C108.65 290.751 112.014 294.022 116.107 293.966Z" fill="white" stroke="#717AFF" style="fill:white;fill-opacity:1;stroke:#717AFF;stroke:color(display-p3 0.4423 0.4795 1.0000);stroke-opacity:1;" stroke-width="0.757397" stroke-linecap="round" stroke-linejoin="round"/>
<path d="M122.986 283.958C122.986 283.958 124.298 288.367 124.823 291.311C125.407 294.59 125.514 297.645 125.514 297.645C125.514 297.645 123.998 298.409 119.998 297.835C115.121 297.134 111.781 297.416 111.781 297.416L109.06 289.132L122.986 283.954L122.986 283.958Z" fill="white" style="fill:white;fill-opacity:1;"/>
<path d="M122.985 283.958C122.985 283.958 124.297 288.367 124.822 291.31C125.406 294.59 125.513 297.645 125.513 297.645" fill="white" style="fill:white;fill-opacity:1;"/>
<path d="M122.985 283.958C122.985 283.958 124.297 288.367 124.822 291.31C125.406 294.59 125.513 297.645 125.513 297.645" stroke="#717AFF" style="stroke:#717AFF;stroke:color(display-p3 0.4423 0.4795 1.0000);stroke-opacity:1;" stroke-width="0.757397" stroke-linecap="round" stroke-linejoin="round"/>
<path d="M111.777 297.415L109.06 289.135" stroke="#717AFF" style="stroke:#717AFF;stroke:color(display-p3 0.4423 0.4795 1.0000);stroke-opacity:1;" stroke-width="0.757397" stroke-linecap="round" stroke-linejoin="round"/>
<path d="M103.564 251.588C110.026 251.498 115.192 246.187 115.102 239.725C115.012 233.263 109.701 228.097 103.239 228.187C96.7767 228.277 91.611 233.588 91.7009 240.05C91.7908 246.512 97.1023 251.678 103.564 251.588Z" fill="#5EFFBE" stroke="#717AFF" style="fill:#5EFFBE;fill:color(display-p3 0.3692 1.0000 0.7462);fill-opacity:1;stroke:#717AFF;stroke:color(display-p3 0.4423 0.4795 1.0000);stroke-opacity:1;" stroke-width="0.757397" stroke-linecap="round" stroke-linejoin="round"/>
<path d="M116.206 249.966L125.054 282.948C125.438 284.382 124.535 285.891 123.011 286.347L110.063 290.22C108.475 290.693 106.838 289.837 106.461 288.335L97.9806 254.791" fill="#5EFFBE" style="fill:#5EFFBE;fill:color(display-p3 0.3692 1.0000 0.7462);fill-opacity:1;"/>
<path d="M116.206 249.966L125.054 282.948C125.438 284.382 124.535 285.891 123.011 286.347L110.063 290.22C108.475 290.693 106.838 289.837 106.461 288.335L97.9806 254.791" stroke="#717AFF" style="stroke:#717AFF;stroke:color(display-p3 0.4423 0.4795 1.0000);stroke-opacity:1;" stroke-width="0.757397" stroke-linecap="round" stroke-linejoin="round"/>
<path d="M114.512 236.204L125.473 277.069C125.948 278.846 124.827 280.717 122.945 281.281L106.9 286.076C104.931 286.664 102.905 285.605 102.436 283.741L91.9274 242.181" fill="#5EFFBE" style="fill:#5EFFBE;fill:color(display-p3 0.3692 1.0000 0.7462);fill-opacity:1;"/>
<path d="M114.512 236.204L125.473 277.069C125.948 278.846 124.827 280.717 122.945 281.281L106.9 286.076C104.931 286.664 102.905 285.605 102.436 283.741L91.9274 242.181" stroke="#717AFF" style="stroke:#717AFF;stroke:color(display-p3 0.4423 0.4795 1.0000);stroke-opacity:1;" stroke-width="0.757397" stroke-linecap="round" stroke-linejoin="round"/>
<path d="M125.103 201.736C128.044 201.695 130.394 199.278 130.353 196.337C130.313 193.397 127.896 191.046 124.955 191.087C122.015 191.128 119.664 193.545 119.705 196.485C119.746 199.426 122.163 201.776 125.103 201.736Z" fill="#5EFFBE" style="fill:#5EFFBE;fill:color(display-p3 0.3692 1.0000 0.7462);fill-opacity:1;"/>
<path d="M93.0501 234.431L114.62 191.228L135.436 201.596L113.929 244.976" fill="#5EFFBE" style="fill:#5EFFBE;fill:color(display-p3 0.3692 1.0000 0.7462);fill-opacity:1;"/>
<path d="M113.929 244.975L132.858 206.604" stroke="#717AFF" style="stroke:#717AFF;stroke:color(display-p3 0.4423 0.4795 1.0000);stroke-opacity:1;" stroke-width="0.757397" stroke-linecap="round" stroke-linejoin="round"/>
<path d="M93.0028 234.617L114.619 191.228" stroke="#717AFF" style="stroke:#717AFF;stroke:color(display-p3 0.4423 0.4795 1.0000);stroke-opacity:1;" stroke-width="0.757397" stroke-linecap="round" stroke-linejoin="round"/>
<path d="M237.997 153.3L213.734 164.886C209.919 166.709 208.114 170.886 209.705 174.216L231.545 219.949C233.136 223.279 237.518 224.502 241.334 222.679L265.597 211.093C269.413 209.27 271.217 205.093 269.626 201.763L247.786 156.03C246.196 152.7 241.813 151.477 237.997 153.3Z" fill="black" stroke="white" style="fill:black;fill-opacity:1;stroke:white;stroke-opacity:1;" stroke-width="1.4488" stroke-linecap="round" stroke-linejoin="round"/>
<path d="M264.771 189.307C265.359 188.775 265.4 187.863 264.863 187.272C264.326 186.68 263.415 186.631 262.828 187.164C262.241 187.696 262.2 188.608 262.736 189.2C263.273 189.792 264.184 189.84 264.771 189.307Z" fill="white" stroke="#717AFF" style="fill:white;fill-opacity:1;stroke:#717AFF;stroke:color(display-p3 0.4423 0.4795 1.0000);stroke-opacity:1;" stroke-width="0.757397" stroke-linecap="round" stroke-linejoin="round"/>
<path d="M262.578 187.502C262.467 187.67 262.118 188.201 261.992 188.381C260.978 189.785 260.169 191.55 260.979 192.077C261.709 192.551 262.826 192.233 264.648 189.552C264.774 189.365 264.916 189.2 265.042 189.032" fill="white" style="fill:white;fill-opacity:1;"/>
<path d="M262.578 187.502C262.467 187.67 262.118 188.201 261.992 188.381C260.978 189.785 260.169 191.55 260.979 192.077C261.709 192.551 262.826 192.233 264.648 189.552C264.774 189.365 264.916 189.2 265.042 189.032" stroke="#717AFF" style="stroke:#717AFF;stroke:color(display-p3 0.4423 0.4795 1.0000);stroke-opacity:1;" stroke-width="0.757397" stroke-linecap="round" stroke-linejoin="round"/>
<path d="M263.841 186.843C264.492 186.253 264.538 185.243 263.944 184.588C263.349 183.932 262.34 183.879 261.689 184.469C261.038 185.059 260.992 186.069 261.587 186.724C262.181 187.38 263.19 187.433 263.841 186.843Z" fill="white" stroke="#717AFF" style="fill:white;fill-opacity:1;stroke:#717AFF;stroke:color(display-p3 0.4423 0.4795 1.0000);stroke-opacity:1;" stroke-width="0.757397" stroke-linecap="round" stroke-linejoin="round"/>
<path d="M261.413 184.844C261.29 185.032 260.904 185.62 260.763 185.819C259.641 187.376 258.744 189.328 259.639 189.914C260.449 190.441 261.682 190.086 263.702 187.119C263.843 186.913 263.999 186.729 264.14 186.541" fill="white" style="fill:white;fill-opacity:1;"/>
<path d="M261.413 184.844C261.29 185.032 260.904 185.62 260.763 185.819C259.641 187.376 258.744 189.328 259.639 189.914C260.449 190.441 261.682 190.086 263.702 187.119C263.843 186.913 263.999 186.729 264.14 186.541" stroke="#717AFF" style="stroke:#717AFF;stroke:color(display-p3 0.4423 0.4795 1.0000);stroke-opacity:1;" stroke-width="0.757397" stroke-linecap="round" stroke-linejoin="round"/>
<path d="M262.251 184.136C262.969 183.486 263.018 182.372 262.362 181.648C261.706 180.924 260.593 180.865 259.875 181.516C259.158 182.166 259.108 183.28 259.764 184.004C260.42 184.727 261.534 184.787 262.251 184.136Z" fill="white" stroke="#717AFF" style="fill:white;fill-opacity:1;stroke:#717AFF;stroke:color(display-p3 0.4423 0.4795 1.0000);stroke-opacity:1;" stroke-width="0.757397" stroke-linecap="round" stroke-linejoin="round"/>
<path d="M259.569 181.931C259.432 182.137 259.009 182.787 258.853 183.001C257.616 184.715 256.627 186.869 257.617 187.51C258.507 188.089 259.869 187.702 262.093 184.433C262.248 184.204 262.42 184.004 262.576 183.798" fill="white" style="fill:white;fill-opacity:1;"/>
<path d="M259.569 181.931C259.432 182.137 259.009 182.787 258.853 183.001C257.616 184.715 256.627 186.869 257.617 187.51C258.507 188.089 259.869 187.702 262.093 184.433C262.248 184.204 262.42 184.004 262.576 183.798" stroke="#717AFF" style="stroke:#717AFF;stroke:color(display-p3 0.4423 0.4795 1.0000);stroke-opacity:1;" stroke-width="0.757397" stroke-linecap="round" stroke-linejoin="round"/>
<path d="M260.215 181.493C260.942 180.834 260.993 179.706 260.328 178.973C259.664 178.24 258.536 178.18 257.809 178.839C257.082 179.498 257.032 180.626 257.696 181.359C258.361 182.092 259.489 182.152 260.215 181.493Z" fill="white" stroke="#717AFF" style="fill:white;fill-opacity:1;stroke:#717AFF;stroke:color(display-p3 0.4423 0.4795 1.0000);stroke-opacity:1;" stroke-width="0.757397" stroke-linecap="round" stroke-linejoin="round"/>
<path d="M257.499 179.255C257.361 179.465 256.931 180.123 256.771 180.341C255.515 182.078 254.516 184.266 255.517 184.915C256.419 185.504 257.804 185.106 260.06 181.791C260.22 181.558 260.391 181.358 260.551 181.144" fill="white" style="fill:white;fill-opacity:1;"/>
<path d="M257.499 179.255C257.361 179.465 256.931 180.123 256.771 180.341C255.515 182.078 254.516 184.266 255.517 184.915C256.419 185.504 257.804 185.106 260.06 181.791C260.22 181.558 260.391 181.358 260.551 181.144" stroke="#717AFF" style="stroke:#717AFF;stroke:color(display-p3 0.4423 0.4795 1.0000);stroke-opacity:1;" stroke-width="0.757397" stroke-linecap="round" stroke-linejoin="round"/>
<path d="M38.3853 150.848L22.3467 148.25L22.124 132.247L38.1626 134.845L38.3853 150.848Z" fill="#5EFFBE" stroke="#00DCB7" style="fill:#5EFFBE;fill:color(display-p3 0.3692 1.0000 0.7462);fill-opacity:1;stroke:#00DCB7;stroke:color(display-p3 0.0000 0.8627 0.7176);stroke-opacity:1;" stroke-width="0.757397" stroke-linecap="round" stroke-linejoin="round"/>
<path d="M50.0605 141.181L100.842 149.409" stroke="white" style="stroke:white;stroke-opacity:1;" stroke-width="0.757397" stroke-linecap="round" stroke-linejoin="round"/>
<path d="M50.1611 148.342L70.6222 151.66" stroke="white" style="stroke:white;stroke-opacity:1;" stroke-width="0.757397" stroke-linecap="round" stroke-linejoin="round"/>
<path d="M38.7602 177.805L22.7217 175.206L22.499 159.207L38.5376 161.806L38.7602 177.805Z" fill="#5EFFBE" stroke="#00DCB7" style="fill:#5EFFBE;fill:color(display-p3 0.3692 1.0000 0.7462);fill-opacity:1;stroke:#00DCB7;stroke:color(display-p3 0.0000 0.8627 0.7176);stroke-opacity:1;" stroke-width="0.757397" stroke-linecap="round" stroke-linejoin="round"/>
<path d="M50.4375 168.143L101.219 176.371" stroke="white" style="stroke:white;stroke-opacity:1;" stroke-width="0.757397" stroke-linecap="round" stroke-linejoin="round"/>
<path d="M50.5361 175.304L70.9971 178.618" stroke="white" style="stroke:white;stroke-opacity:1;" stroke-width="0.757397" stroke-linecap="round" stroke-linejoin="round"/>
<path d="M39.1353 204.765L23.0967 202.167L22.874 186.164L38.9126 188.762L39.1353 204.765Z" fill="#5EFFBE" stroke="#00DCB7" style="fill:#5EFFBE;fill:color(display-p3 0.3692 1.0000 0.7462);fill-opacity:1;stroke:#00DCB7;stroke:color(display-p3 0.0000 0.8627 0.7176);stroke-opacity:1;" stroke-width="0.757397" stroke-linecap="round" stroke-linejoin="round"/>
<path d="M50.8125 195.1L101.594 203.327" stroke="white" style="stroke:white;stroke-opacity:1;" stroke-width="0.757397" stroke-linecap="round" stroke-linejoin="round"/>
<path d="M50.9121 202.265L71.3731 205.578" stroke="white" style="stroke:white;stroke-opacity:1;" stroke-width="0.757397" stroke-linecap="round" stroke-linejoin="round"/>
<path d="M39.5092 231.722L23.4707 229.124L23.248 213.125L39.2866 215.723L39.5092 231.722Z" fill="#5EFFBE" stroke="#00DCB7" style="fill:#5EFFBE;fill:color(display-p3 0.3692 1.0000 0.7462);fill-opacity:1;stroke:#00DCB7;stroke:color(display-p3 0.0000 0.8627 0.7176);stroke-opacity:1;" stroke-width="0.757397" stroke-linecap="round" stroke-linejoin="round"/>
<path d="M51.1875 222.06L101.969 230.288" stroke="white" style="stroke:white;stroke-opacity:1;" stroke-width="0.757397" stroke-linecap="round" stroke-linejoin="round"/>
<path d="M51.2861 229.221L71.7472 232.538" stroke="white" style="stroke:white;stroke-opacity:1;" stroke-width="0.757397" stroke-linecap="round" stroke-linejoin="round"/>
<ellipse cx="236.029" cy="179.445" rx="2.8131" ry="2.81305" transform="rotate(-25.3826 236.029 179.445)" fill="#00DCB7" style="fill:#00DCB7;fill:color(display-p3 0.0000 0.8627 0.7176);fill-opacity:1;"/>
<ellipse cx="242.701" cy="193.508" rx="2.8131" ry="2.81305" transform="rotate(-25.3826 242.701 193.508)" fill="#00DCB7" style="fill:#00DCB7;fill:color(display-p3 0.0000 0.8627 0.7176);fill-opacity:1;"/>
<ellipse cx="247.359" cy="183.203" rx="2.8131" ry="2.81305" transform="rotate(-25.3826 247.359 183.203)" fill="#00DCB7" style="fill:#00DCB7;fill:color(display-p3 0.0000 0.8627 0.7176);fill-opacity:1;"/>
<ellipse cx="232.11" cy="190.438" rx="2.8131" ry="2.81305" transform="rotate(-25.3826 232.11 190.438)" fill="#00DCB7" style="fill:#00DCB7;fill:color(display-p3 0.0000 0.8627 0.7176);fill-opacity:1;"/>
<line y1="-0.937692" x2="8.9803" y2="-0.937692" transform="matrix(-0.333869 0.942619 -0.942626 -0.33385 234.298 180.266)" stroke="#00DCB7" style="stroke:#00DCB7;stroke:color(display-p3 0.0000 0.8627 0.7176);stroke-opacity:1;" stroke-width="1.87538"/>
<line y1="-0.937692" x2="8.98031" y2="-0.937692" transform="matrix(-0.960721 -0.277516 0.277535 -0.960715 241.415 192.608)" stroke="#00DCB7" style="stroke:#00DCB7;stroke:color(display-p3 0.0000 0.8627 0.7176);stroke-opacity:1;" stroke-width="1.87538"/>
<line y1="-0.937692" x2="8.98031" y2="-0.937692" transform="matrix(-0.958819 -0.284019 0.284038 -0.958813 247.242 181.798)" stroke="#00DCB7" style="stroke:#00DCB7;stroke:color(display-p3 0.0000 0.8627 0.7176);stroke-opacity:1;" stroke-width="1.87538"/>
</svg>
