<svg xmlns="http://www.w3.org/2000/svg" xmlns:v="https://svgstorm.com"
viewBox = "0 0 717 672"
width="717"
height="672">
<g fill="None" fill-opacity="0.0" stroke="#08141E" stroke-opacity="1.00" stroke-width="0.3"><path d="
M 0.00 672.00 
L 717.00 672.00
L 717.00 0.00
L 0.00 0.00
L 0.00 672.00
M 519.00 221.00 
C 519.00 223.67 519.00 226.33 519.00 229.00
C 519.46 233.72 519.45 239.35 519.00 244.00
C 519.00 246.96 519.28 250.06 519.00 253.00
C 518.76 255.52 518.06 258.17 518.00 261.00
C 518.44 266.66 519.00 273.64 519.00 280.00
C 519.00 296.48 526.58 315.25 508.00 326.00
C 520.99 298.11 503.29 266.53 505.00 238.00 C 506.71 209.47 495.74 183.62 478.23 162.77 C 460.72 141.92 441.08 132.34 415.98 124.02 C 390.87 115.70 351.39 118.08 326.78 126.78 C 302.16 135.47 282.25 146.89 266.00 168.00
C 249.82 193.00 233.76 223.58 238.00 257.00
C 243.74 255.25 253.72 252.70 257.00 259.00
C 260.10 261.38 261.73 262.82 264.00 266.00
C 272.54 277.96 269.43 296.88 270.00 311.00 C 270.57 325.12 262.58 338.42 249.99 341.99 C 237.40 345.56 223.04 335.12 218.23 323.77 C 213.42 312.42 208.17 292.29 214.98 279.98 C 221.78 267.66 220.73 252.61 220.00 238.00 C 219.27 223.39 222.67 206.27 227.98 193.98 C 233.28 181.68 239.23 171.46 245.77 160.77 C 252.31 150.08 261.50 142.99 270.25 134.25 C 279.00 125.51 291.71 118.56 302.00 116.00
C 344.90 97.48 405.64 92.03 446.70 115.31 C 487.75 138.58 519.00 173.09 519.00 221.00
M 388.00 131.00 
C 382.25 133.28 374.51 131.37 368.00 132.00
C 373.75 129.72 381.49 131.63 388.00 131.00
M 478.00 251.00 
C 477.91 250.52 478.01 249.50 478.00 249.00
C 477.47 228.59 475.05 204.87 463.00 188.00
C 460.59 185.12 456.73 181.53 454.00 179.00
C 440.73 168.52 434.33 156.07 417.31 150.69 C 400.28 145.32 377.78 142.24 359.00 145.00
C 356.84 145.32 355.10 145.62 353.00 146.00
C 329.11 150.30 307.24 159.50 290.75 178.75 C 274.25 197.99 269.22 225.91 268.00 251.00
C 256.39 250.29 257.67 240.40 258.93 231.93 C 260.18 223.45 261.01 214.50 263.93 206.93 C 266.84 199.35 268.87 192.63 272.92 185.92 C 276.98 179.22 280.81 173.87 286.25 168.25 C 291.68 162.63 296.37 158.99 302.70 154.70 C 309.02 150.40 314.77 147.10 322.03 144.02 C 329.28 140.95 336.51 138.50 344.67 136.67 C 352.83 134.84 363.15 133.24 372.00 133.00 C 380.85 132.76 391.97 132.98 400.02 134.98 C 408.07 136.97 415.86 138.86 423.07 141.93 C 430.28 145.00 436.67 147.43 442.25 152.75 C 447.83 158.07 452.33 162.94 457.75 168.25 C 463.17 173.56 467.83 177.52 472.30 183.70 C 476.78 189.87 479.44 197.25 481.33 204.67 C 483.22 212.10 485.29 223.25 485.00 231.00 C 484.71 238.75 487.53 256.38 478.00 251.00
M 465.00 340.00 
C 465.00 376.16 445.71 416.60 409.77 430.77 C 373.84 444.95 327.48 426.78 307.00 396.00
C 304.43 393.24 302.56 391.43 299.00 390.00
C 280.80 382.68 262.24 370.71 255.00 351.00
C 258.37 349.70 261.20 346.93 265.00 347.00
C 267.20 352.07 270.78 357.29 275.00 361.00
C 280.33 365.88 285.18 368.49 290.75 373.25 C 296.31 378.02 303.87 379.02 311.02 380.98 C 318.17 382.94 323.51 385.15 329.75 390.25 C 335.99 395.35 340.83 397.57 350.00 398.00 C 359.17 398.43 360.60 389.44 364.00 384.00
C 361.19 376.20 351.50 370.07 344.00 369.00
C 338.90 369.00 334.81 370.19 330.00 371.00
C 328.52 371.80 327.24 374.91 326.00 376.00
C 306.82 372.84 283.50 362.66 278.00 342.00
C 277.98 341.50 277.99 340.50 278.00 340.00
C 278.34 326.80 286.00 315.03 286.00 301.00
C 286.00 287.46 294.30 287.33 300.00 277.00
C 311.80 255.59 314.34 230.02 309.00 206.00
C 339.06 213.57 371.20 219.23 403.00 214.00
C 405.22 213.57 408.37 212.53 411.00 212.00
C 419.05 208.99 428.32 202.38 435.00 197.00
C 449.22 185.55 462.08 204.96 463.99 221.01 C 465.90 237.06 466.94 261.72 467.00 280.00 C 467.06 298.28 466.72 322.19 465.00 340.00
M 487.00 337.00 
C 473.47 343.33 480.73 320.80 480.00 313.00
C 478.69 299.01 480.96 290.74 479.00 276.00 C 477.04 261.26 492.50 262.60 496.92 274.08 C 501.35 285.55 502.36 297.72 500.67 309.67 C 498.98 321.62 498.53 331.61 487.00 337.00
M 299.00 411.00 
C 299.68 411.96 300.31 413.12 301.00 414.00
C 303.52 417.25 306.39 420.70 309.00 424.00
C 313.25 428.60 318.45 433.79 323.00 438.00
C 335.17 447.61 348.13 457.80 362.00 464.00
C 364.27 464.67 366.83 464.92 369.00 466.00
C 370.36 466.68 371.62 467.37 373.00 468.00
C 367.67 473.14 362.89 479.69 357.75 484.75 C 352.61 489.82 347.32 496.59 342.25 501.25 C 337.18 505.91 330.95 515.59 326.00 514.00
C 319.52 509.25 315.78 501.00 311.00 495.00
C 299.76 480.90 294.26 469.92 285.08 453.92 C 275.89 437.93 286.21 421.10 295.00 407.00
C 297.12 406.79 297.78 409.66 299.00 411.00
M 415.00 491.00 
C 409.81 485.81 404.32 479.92 399.00 475.00
C 395.30 472.08 391.48 469.22 388.00 466.00
C 393.46 457.73 403.75 452.57 412.00 447.00
C 413.13 445.97 414.70 444.98 416.00 444.00
C 417.90 442.56 419.87 440.34 422.00 439.00
C 414.28 446.84 417.85 464.16 427.75 455.75 C 437.65 447.34 431.63 438.98 442.00 433.00
C 449.35 458.38 444.11 486.46 432.00 509.00
C 425.33 503.91 420.58 497.01 415.00 491.00
M 271.00 451.00 
C 278.42 456.42 278.05 468.35 284.25 475.75 C 290.45 483.14 292.24 492.06 299.25 499.75 C 306.26 507.44 308.74 511.74 316.25 520.75 C 323.75 529.77 331.38 527.37 340.00 520.00
C 342.37 517.63 346.12 512.58 348.75 510.75 C 351.39 508.93 355.86 501.58 358.00 503.00
C 362.50 506.00 361.45 517.72 368.00 520.00
C 361.39 546.14 352.95 571.83 350.00 599.00
C 289.03 590.98 224.53 587.96 172.00 554.00
C 167.80 551.40 161.60 548.76 162.00 543.00
C 162.45 541.76 158.48 543.72 159.00 545.00
C 159.16 543.01 159.04 537.04 162.00 539.00
C 163.06 523.94 175.39 509.53 185.25 498.25 C 195.11 486.97 209.27 477.06 222.69 470.69 C 236.12 464.33 251.56 451.04 267.00 450.00
C 269.89 449.81 268.63 449.26 271.00 451.00
M 431.00 526.00 
C 438.96 528.36 443.86 516.27 446.00 510.00
C 450.97 495.48 458.00 483.14 458.00 467.00
C 458.00 463.69 457.80 460.31 458.00 457.00
C 458.12 455.01 457.91 452.99 458.00 451.00
C 466.40 453.12 473.99 458.58 481.75 462.25 C 489.50 465.93 497.56 469.46 504.70 474.30 C 511.83 479.14 517.76 483.83 524.25 489.75 C 530.74 495.68 534.97 502.14 539.31 509.70 C 543.64 517.25 547.55 524.65 550.93 533.07 C 554.30 541.49 549.62 552.29 541.25 556.25 C 532.88 560.22 527.52 565.13 519.30 569.30 C 511.09 573.47 503.50 576.01 494.78 579.78 C 486.06 583.54 476.86 584.45 467.33 587.33 C 457.80 590.21 448.33 590.48 438.00 593.00 C 427.67 595.52 415.59 596.44 416.01 583.99 C 416.42 571.55 411.25 565.95 409.68 555.32 C 408.10 544.69 403.16 538.95 401.07 528.93 C 398.99 518.90 400.16 508.34 406.00 500.00
C 412.77 509.74 422.97 517.29 431.00 526.00 Z"/>
</g>
<g fill="None" fill-opacity="0.0" stroke="#DDD9D0" stroke-opacity="1.00" stroke-width="0.3"><path d="
M 302.00 116.00 
C 280.61 125.23 259.89 143.01 247.00 163.00
C 273.18 132.96 300.70 112.68 340.01 105.01 C 379.31 97.34 429.35 101.76 462.08 125.92 C 494.81 150.08 513.53 182.72 519.00 221.00
C 519.00 173.09 487.75 138.58 446.70 115.31 C 405.64 92.03 344.90 97.48 302.00 116.00 Z"/>
</g>
<g fill="None" fill-opacity="0.0" stroke="#F7E4C1" stroke-opacity="1.00" stroke-width="0.3"><path d="
M 247.00 163.00 
C 242.08 170.63 236.77 178.35 234.00 187.00
C 232.01 193.22 228.93 200.53 228.01 207.01 C 227.08 213.49 222.88 223.01 222.00 226.00
C 221.40 237.02 221.13 249.39 223.00 260.00 C 224.86 270.62 216.73 276.28 216.00 287.00
C 214.74 305.46 216.57 323.01 232.25 334.75 C 247.92 346.50 267.81 330.49 266.00 313.00 C 264.19 295.51 272.99 271.50 257.00 259.00
C 249.99 253.52 242.81 261.66 237.00 258.00
C 234.62 256.50 235.18 253.81 235.00 249.00 C 234.82 244.19 235.35 239.99 236.00 236.00
C 236.30 230.54 237.37 225.46 238.00 220.00
C 240.75 196.01 256.62 176.08 272.75 157.75 C 288.88 139.43 311.69 129.45 335.02 122.02 C 358.36 114.60 398.10 114.95 421.07 123.93 C 444.04 132.90 464.04 141.73 479.75 162.25 C 495.47 182.77 508.73 205.19 507.00 233.00 C 505.27 260.81 520.17 292.33 512.00 320.00
C 527.55 300.17 510.22 274.09 517.00 251.00
C 518.26 251.08 517.56 253.06 519.00 253.00
C 519.28 250.06 519.00 246.96 519.00 244.00
C 519.00 239.00 519.00 234.00 519.00 229.00
C 519.00 226.33 519.00 223.67 519.00 221.00
C 513.53 182.72 494.81 150.08 462.08 125.92 C 429.35 101.76 379.31 97.34 340.01 105.01 C 300.70 112.68 273.18 132.96 247.00 163.00 Z"/>
</g>
<g fill="None" fill-opacity="0.0" stroke="#191A1A" stroke-opacity="1.00" stroke-width="0.3"><path d="
M 264.00 266.00 
C 271.65 282.73 269.26 303.85 266.67 321.67 C 264.08 339.49 242.80 346.56 229.25 334.75 C 215.71 322.93 212.97 303.89 216.00 287.00
C 216.73 276.28 224.86 270.62 223.00 260.00 C 221.13 249.39 221.40 237.02 222.00 226.00
C 222.74 212.44 228.59 198.83 234.00 187.00
C 236.77 178.35 242.08 170.63 247.00 163.00
C 259.89 143.01 280.61 125.23 302.00 116.00
C 291.71 118.56 279.00 125.51 270.25 134.25 C 261.50 142.99 252.31 150.08 245.77 160.77 C 239.23 171.46 233.28 181.68 227.98 193.98 C 222.67 206.27 219.27 223.39 220.00 238.00 C 220.73 252.61 221.78 267.66 214.98 279.98 C 208.17 292.29 213.42 312.42 218.23 323.77 C 223.04 335.12 237.40 345.56 249.99 341.99 C 262.58 338.42 270.57 325.12 270.00 311.00 C 269.43 296.88 272.54 277.96 264.00 266.00 Z"/>
</g>
<g fill="None" fill-opacity="0.0" stroke="#DEDAD1" stroke-opacity="1.00" stroke-width="0.3"><path d="
M 238.00 220.00 
C 242.61 201.96 253.43 182.14 266.00 168.00
C 282.25 146.89 302.16 135.47 326.78 126.78 C 351.39 118.08 390.87 115.70 415.98 124.02 C 441.08 132.34 460.72 141.92 478.23 162.77 C 495.74 183.62 506.71 209.47 505.00 238.00 C 503.29 266.53 520.99 298.11 508.00 326.00
C 526.58 315.25 519.00 296.48 519.00 280.00
C 518.45 274.31 517.87 267.39 518.00 261.00
C 518.06 258.17 518.76 255.52 519.00 253.00
C 517.56 253.06 518.26 251.08 517.00 251.00
C 510.22 274.09 527.55 300.17 512.00 320.00
C 520.17 292.33 505.27 260.81 507.00 233.00 C 508.73 205.19 495.47 182.77 479.75 162.25 C 464.04 141.73 444.04 132.90 421.07 123.93 C 398.10 114.95 358.36 114.60 335.02 122.02 C 311.69 129.45 288.88 139.43 272.75 157.75 C 256.62 176.08 240.75 196.01 238.00 220.00 Z"/>
</g>
<g fill="None" fill-opacity="0.0" stroke="#2F363B" stroke-opacity="1.00" stroke-width="0.3"><path d="
M 388.00 131.00 
C 381.49 131.63 373.75 129.72 368.00 132.00
C 374.51 131.37 382.25 133.28 388.00 131.00 Z"/>
</g>
<g fill="None" fill-opacity="0.0" stroke="#DDD9CE" stroke-opacity="1.00" stroke-width="0.3"><path d="
M 353.00 146.00 
C 302.31 147.45 262.78 198.15 267.00 249.00
C 264.33 247.94 262.08 245.74 259.00 246.00
C 260.82 222.34 265.40 196.24 280.30 177.30 C 295.21 158.37 311.79 148.41 334.07 141.07 C 356.35 133.73 390.27 132.24 413.02 139.98 C 435.78 147.71 448.17 159.91 465.75 177.25 C 483.33 194.59 484.00 226.68 483.00 251.00
C 481.33 251.00 479.67 251.00 478.00 251.00
C 487.53 256.38 484.71 238.75 485.00 231.00 C 485.29 223.25 483.22 212.10 481.33 204.67 C 479.44 197.25 476.78 189.87 472.30 183.70 C 467.83 177.52 463.17 173.56 457.75 168.25 C 452.33 162.94 447.83 158.07 442.25 152.75 C 436.67 147.43 430.28 145.00 423.07 141.93 C 415.86 138.86 408.07 136.97 400.02 134.98 C 391.97 132.98 380.85 132.76 372.00 133.00 C 363.15 133.24 352.83 134.84 344.67 136.67 C 336.51 138.50 329.28 140.95 322.03 144.02 C 314.77 147.10 309.02 150.40 302.70 154.70 C 296.37 158.99 291.68 162.63 286.25 168.25 C 280.81 173.87 276.98 179.22 272.92 185.92 C 268.87 192.63 266.84 199.35 263.93 206.93 C 261.01 214.50 260.18 223.45 258.93 231.93 C 257.67 240.40 256.39 250.29 268.00 251.00
C 269.22 225.91 274.25 197.99 290.75 178.75 C 307.24 159.50 329.11 150.30 353.00 146.00 Z"/>
</g>
<g fill="None" fill-opacity="0.0" stroke="#F6E3C0" stroke-opacity="1.00" stroke-width="0.3"><path d="
M 353.00 146.00 
C 355.10 145.62 356.84 145.32 359.00 145.00
C 370.31 141.90 388.47 140.56 400.00 144.00 C 411.53 147.44 424.75 149.78 433.70 157.30 C 442.65 164.82 448.67 173.15 457.23 179.77 C 465.80 186.39 473.44 198.86 474.98 209.02 C 476.51 219.19 484.11 240.00 478.00 249.00
C 478.01 249.50 477.91 250.52 478.00 251.00
C 479.67 251.00 481.33 251.00 483.00 251.00
C 484.00 226.68 483.33 194.59 465.75 177.25 C 448.17 159.91 435.78 147.71 413.02 139.98 C 390.27 132.24 356.35 133.73 334.07 141.07 C 311.79 148.41 295.21 158.37 280.30 177.30 C 265.40 196.24 260.82 222.34 259.00 246.00
C 262.08 245.74 264.33 247.94 267.00 249.00
C 262.78 198.15 302.31 147.45 353.00 146.00 Z"/>
</g>
<g fill="None" fill-opacity="0.0" stroke="#DCD7CC" stroke-opacity="1.00" stroke-width="0.3"><path d="
M 359.00 145.00 
C 377.78 142.24 400.28 145.32 417.31 150.69 C 434.33 156.07 440.73 168.52 454.00 179.00
C 457.26 181.58 460.61 184.65 463.00 188.00
C 475.05 204.87 477.47 228.59 478.00 249.00
C 484.11 240.00 476.51 219.19 474.98 209.02 C 473.44 198.86 465.80 186.39 457.23 179.77 C 448.67 173.15 442.65 164.82 433.70 157.30 C 424.75 149.78 411.53 147.44 400.00 144.00 C 388.47 140.56 370.31 141.90 359.00 145.00 Z"/>
</g>
<g fill="None" fill-opacity="0.0" stroke="#141415" stroke-opacity="1.00" stroke-width="0.3"><path d="
M 238.00 220.00 
C 237.37 225.46 236.30 230.54 236.00 236.00
C 235.70 241.45 234.24 253.37 237.00 258.00
C 242.81 261.66 249.99 253.52 257.00 259.00
C 253.72 252.70 243.74 255.25 238.00 257.00
C 233.76 223.58 249.82 193.00 266.00 168.00
C 253.43 182.14 242.61 201.96 238.00 220.00 Z"/>
</g>
<g fill="None" fill-opacity="0.0" stroke="#A9A7A2" stroke-opacity="1.00" stroke-width="0.3"><path d="
M 463.00 188.00 
C 460.61 184.65 457.26 181.58 454.00 179.00
C 456.73 181.53 460.59 185.12 463.00 188.00 Z"/>
</g>
<g fill="None" fill-opacity="0.0" stroke="#D9D6CC" stroke-opacity="1.00" stroke-width="0.3"><path d="
M 222.00 226.00 
C 222.88 223.01 227.08 213.49 228.01 207.01 C 228.93 200.53 232.01 193.22 234.00 187.00
C 228.59 198.83 222.74 212.44 222.00 226.00 Z"/>
</g>
<g fill="None" fill-opacity="0.0" stroke="#0E0E10" stroke-opacity="1.00" stroke-width="0.3"><path d="
M 435.00 197.00 
C 451.64 187.72 459.54 207.49 462.00 223.00 C 464.45 238.51 465.54 261.96 465.00 280.00 C 464.46 298.04 465.00 321.47 465.00 340.00
C 466.72 322.19 467.06 298.28 467.00 280.00 C 466.94 261.72 465.90 237.06 463.99 221.01 C 462.08 204.96 449.22 185.55 435.00 197.00 Z"/>
</g>
<g fill="None" fill-opacity="0.0" stroke="#DFDBD2" stroke-opacity="1.00" stroke-width="0.3"><path d="
M 435.00 197.00 
C 428.32 202.38 419.05 208.99 411.00 212.00
C 424.96 209.21 446.25 185.11 455.77 206.23 C 465.29 227.35 463.02 247.46 464.00 270.00 C 464.98 292.54 463.77 319.85 463.22 341.22 C 462.67 362.59 457.99 379.39 447.23 396.23 C 436.47 413.07 426.10 420.84 408.31 429.31 C 390.52 437.77 366.33 432.65 348.32 426.68 C 330.32 420.70 319.91 409.83 307.75 396.25
C 327.48 426.78 373.84 444.95 409.77 430.77 C 445.71 416.60 465.00 376.16 465.00 340.00
C 465.00 321.47 464.46 298.04 465.00 280.00 C 465.54 261.96 464.45 238.51 462.00 223.00 C 459.54 207.49 451.64 187.72 435.00 197.00 Z"/>
</g>
<g fill="None" fill-opacity="0.0" stroke="#F7E4C2" stroke-opacity="1.00" stroke-width="0.3"><path d="
M 411.00 212.00 
C 408.37 212.53 405.22 213.57 403.00 214.00
C 396.08 216.97 383.37 217.65 373.00 218.00 C 362.63 218.35 350.02 216.72 340.00 215.00 C 329.97 213.28 320.83 210.19 311.00 208.00
C 314.46 230.92 315.63 258.88 300.00 277.00
C 294.30 287.33 286.00 287.46 286.00 301.00
C 287.36 315.09 284.37 327.50 278.00 340.00
C 277.99 340.50 277.98 341.50 278.00 342.00
C 287.43 361.23 308.71 374.60 330.00 371.00
C 334.81 370.19 338.90 369.00 344.00 369.00
C 354.33 369.00 365.12 374.40 364.00 385.00
C 364.96 393.86 356.04 400.06 347.98 399.98 C 339.91 399.89 333.00 394.02 326.00 391.00
C 317.36 387.27 308.34 383.72 300.00 380.00
C 295.36 378.90 290.91 376.94 287.00 374.00
C 277.91 369.81 269.18 358.65 264.00 349.00
C 261.70 350.15 259.20 350.57 257.00 352.00
C 264.35 370.67 283.32 380.44 299.00 390.00
C 302.56 391.43 304.43 393.24 307.00 396.00
C 319.91 409.83 330.32 420.70 348.32 426.68 C 366.33 432.65 390.52 437.77 408.31 429.31 C 426.10 420.84 436.47 413.07 447.23 396.23 C 457.99 379.39 462.67 362.59 463.22 341.22 C 463.77 319.85 464.98 292.54 464.00 270.00 C 463.02 247.46 465.29 227.35 455.77 206.23 C 446.25 185.11 424.96 209.21 411.00 212.00
M 364.00 244.00 
C 372.46 245.97 377.29 260.44 365.99 259.99 C 354.69 259.54 351.50 257.13 341.31 263.31 C 331.11 269.48 327.88 252.28 337.08 249.08 C 346.28 245.89 353.53 241.56 364.00 244.00
M 443.00 247.00 
C 447.09 247.78 450.49 247.64 452.32 253.68 C 454.15 259.72 449.43 263.25 443.93 261.07 C 438.43 258.90 434.09 257.67 428.00 258.00
C 423.97 258.22 414.10 259.64 415.01 252.99 C 415.92 246.34 421.88 246.07 426.67 244.67 C 431.46 243.27 438.45 244.82 443.00 247.00
M 436.00 272.00 
C 450.05 276.87 439.86 307.99 424.78 300.22 C 409.70 292.46 420.79 266.73 436.00 272.00
M 358.00 273.00 
C 373.71 274.93 369.07 306.21 353.00 303.00 C 336.93 299.79 341.16 270.93 358.00 273.00
M 388.00 348.00 
C 384.25 347.59 376.11 344.04 379.78 337.78 C 383.45 331.52 392.57 336.09 398.22 336.78 C 403.88 337.47 413.44 335.41 412.00 328.00 C 410.56 320.59 406.66 319.03 405.00 312.00
C 402.86 302.93 401.58 300.94 400.01 290.99 C 398.44 281.05 411.32 284.86 410.78 293.22 C 410.24 301.58 415.27 306.08 418.77 312.23 C 422.27 318.38 426.52 325.72 425.00 333.00 C 423.48 340.28 418.45 344.21 411.78 346.78 C 405.11 349.34 395.09 348.77 388.00 348.00
M 406.00 367.00 
C 406.50 367.00 407.00 367.00 407.00 367.00
C 411.36 364.88 425.12 351.29 429.30 360.70 C 433.49 370.10 421.91 373.80 414.75 378.75 C 407.60 383.71 393.84 382.67 384.99 382.01 C 376.14 381.35 368.23 374.80 360.92 372.08 C 353.60 369.37 343.28 357.33 353.23 353.23 C 363.18 349.13 366.49 362.81 375.67 364.33 C 384.86 365.84 396.21 367.00 406.00 367.00 Z"/>
</g>
<g fill="None" fill-opacity="0.0" stroke="#DBD7CE" stroke-opacity="1.00" stroke-width="0.3"><path d="
M 300.00 277.00 
C 315.63 258.88 314.46 230.92 311.00 208.00
C 320.83 210.19 329.97 213.28 340.00 215.00 C 350.02 216.72 362.63 218.35 373.00 218.00 C 383.37 217.65 396.08 216.97 403.00 214.00
C 371.20 219.23 339.06 213.57 309.00 206.00
C 314.34 230.02 311.80 255.59 300.00 277.00 Z"/>
</g>
<g fill="None" fill-opacity="0.0" stroke="#928B7E" stroke-opacity="1.00" stroke-width="0.3"><path d="
M 519.00 244.00 
C 519.45 239.35 519.46 233.72 519.00 229.00
C 519.00 234.00 519.00 239.00 519.00 244.00 Z"/>
</g>
<g fill="None" fill-opacity="0.0" stroke="#D2D0C9" stroke-opacity="1.00" stroke-width="0.3"><path d="
M 237.00 258.00 
C 234.24 253.37 235.70 241.45 236.00 236.00
C 235.35 239.99 234.82 244.19 235.00 249.00 C 235.18 253.81 234.62 256.50 237.00 258.00 Z"/>
</g>
<g fill="None" fill-opacity="0.0" stroke="#DDDAD1" stroke-opacity="1.00" stroke-width="0.3"><path d="
M 364.00 244.00 
C 353.53 241.56 346.28 245.89 337.08 249.08 C 327.88 252.28 331.11 269.48 341.31 263.31 C 351.50 257.13 354.69 259.54 365.99 259.99 C 377.29 260.44 372.46 245.97 364.00 244.00
M 362.00 245.00 
C 369.90 246.64 376.05 257.96 365.97 258.97 C 355.90 259.99 352.55 252.01 343.77 260.77 C 335.00 269.53 328.86 254.08 337.25 250.25 C 345.64 246.41 352.67 243.07 362.00 245.00 Z"/>
</g>
<g fill="None" fill-opacity="0.0" stroke="#141D24" stroke-opacity="1.00" stroke-width="0.3"><path d="
M 428.00 258.00 
C 431.80 257.10 437.04 254.91 440.69 258.31 C 444.35 261.70 450.99 262.31 450.99 256.99 C 450.99 251.67 447.31 249.06 443.00 247.00
C 438.45 244.82 431.46 243.27 426.67 244.67 C 421.88 246.07 415.92 246.34 415.01 252.99 C 414.10 259.64 423.97 258.22 428.00 258.00 Z"/>
</g>
<g fill="None" fill-opacity="0.0" stroke="#191919" stroke-opacity="1.00" stroke-width="0.3"><path d="
M 362.00 245.00 
C 352.67 243.07 345.64 246.41 337.25 250.25 C 328.86 254.08 335.00 269.53 343.77 260.77 C 352.55 252.01 355.90 259.99 365.97 258.97 C 376.05 257.96 369.90 246.64 362.00 245.00
M 360.00 246.00 
C 366.84 246.84 373.59 255.81 364.97 256.97 C 356.36 258.14 351.74 251.07 344.31 258.31 C 336.87 265.54 331.68 254.23 339.08 251.08 C 346.48 247.93 351.84 244.99 360.00 246.00 Z"/>
</g>
<g fill="None" fill-opacity="0.0" stroke="#101B25" stroke-opacity="1.00" stroke-width="0.3"><path d="
M 360.00 246.00 
C 351.84 244.99 346.48 247.93 339.08 251.08 C 331.68 254.23 336.87 265.54 344.31 258.31 C 351.74 251.07 356.36 258.14 364.97 256.97 C 373.59 255.81 366.84 246.84 360.00 246.00 Z"/>
</g>
<g fill="None" fill-opacity="0.0" stroke="#DEDAD0" stroke-opacity="1.00" stroke-width="0.3"><path d="
M 443.00 247.00 
C 447.31 249.06 450.99 251.67 450.99 256.99 C 450.99 262.31 444.35 261.70 440.69 258.31 C 437.04 254.91 431.80 257.10 428.00 258.00
C 434.09 257.67 438.43 258.90 443.93 261.07 C 449.43 263.25 454.15 259.72 452.32 253.68 C 450.49 247.64 447.09 247.78 443.00 247.00 Z"/>
</g>
<g fill="None" fill-opacity="0.0" stroke="#E0DDD3" stroke-opacity="1.00" stroke-width="0.3"><path d="
M 216.00 287.00 
C 212.97 303.89 215.71 322.93 229.25 334.75 C 242.80 346.56 264.08 339.49 266.67 321.67 C 269.26 303.85 271.65 282.73 264.00 266.00
C 261.73 262.82 260.10 261.38 257.00 259.00
C 272.99 271.50 264.19 295.51 266.00 313.00 C 267.81 330.49 247.92 346.50 232.25 334.75 C 216.57 323.01 214.74 305.46 216.00 287.00 Z"/>
</g>
<g fill="None" fill-opacity="0.0" stroke="#61605E" stroke-opacity="1.00" stroke-width="0.3"><path d="
M 519.00 280.00 
C 519.00 273.64 518.44 266.66 518.00 261.00
C 517.87 267.39 518.45 274.31 519.00 280.00 Z"/>
</g>
<g fill="None" fill-opacity="0.0" stroke="#E2DFD5" stroke-opacity="1.00" stroke-width="0.3"><path d="
M 480.00 313.00 
C 481.45 298.00 482.44 281.82 482.00 266.00
C 497.67 266.67 501.08 285.94 500.00 299.00 C 498.92 312.06 498.45 328.02 487.00 337.00
C 498.53 331.61 498.98 321.62 500.67 309.67 C 502.36 297.72 501.35 285.55 496.92 274.08 C 492.50 262.60 477.04 261.26 479.00 276.00 C 480.96 290.74 478.69 299.01 480.00 313.00 Z"/>
</g>
<g fill="None" fill-opacity="0.0" stroke="#F7E3C2" stroke-opacity="1.00" stroke-width="0.3"><path d="
M 480.00 313.00 
C 480.73 320.80 473.47 343.33 487.00 337.00
C 498.45 328.02 498.92 312.06 500.00 299.00 C 501.08 285.94 497.67 266.67 482.00 266.00
C 482.44 281.82 481.45 298.00 480.00 313.00 Z"/>
</g>
<g fill="None" fill-opacity="0.0" stroke="#DEDAD1" stroke-opacity="1.00" stroke-width="0.3"><path d="
M 436.00 272.00 
C 420.79 266.73 409.70 292.46 424.78 300.22 C 439.86 307.99 450.05 276.87 436.00 272.00
M 434.00 273.00 
C 446.91 276.68 439.43 304.92 425.93 299.07 C 412.42 293.22 420.62 269.18 434.00 273.00 Z"/>
</g>
<g fill="None" fill-opacity="0.0" stroke="#E0DCD2" stroke-opacity="1.00" stroke-width="0.3"><path d="
M 358.00 273.00 
C 341.16 270.93 336.93 299.79 353.00 303.00 C 369.07 306.21 373.71 274.93 358.00 273.00
M 360.00 275.00 
C 373.00 278.95 364.34 306.59 350.78 300.22 C 337.22 293.86 345.62 270.64 360.00 275.00 Z"/>
</g>
<g fill="None" fill-opacity="0.0" stroke="#111B22" stroke-opacity="1.00" stroke-width="0.3"><path d="
M 434.00 273.00 
C 420.62 269.18 412.42 293.22 425.93 299.07 C 439.43 304.92 446.91 276.68 434.00 273.00 Z"/>
</g>
<g fill="None" fill-opacity="0.0" stroke="#0E1820" stroke-opacity="1.00" stroke-width="0.3"><path d="
M 360.00 275.00 
C 345.62 270.64 337.22 293.86 350.78 300.22 C 364.34 306.59 373.00 278.95 360.00 275.00 Z"/>
</g>
<g fill="None" fill-opacity="0.0" stroke="#131C22" stroke-opacity="1.00" stroke-width="0.3"><path d="
M 405.00 312.00 
C 407.18 317.23 418.58 325.54 414.22 332.22 C 409.86 338.90 400.45 342.27 392.77 338.23 C 385.09 334.19 375.55 343.35 388.00 348.00
C 395.09 348.77 405.11 349.34 411.78 346.78 C 418.45 344.21 423.48 340.28 425.00 333.00 C 426.52 325.72 422.27 318.38 418.77 312.23 C 415.27 306.08 410.24 301.58 410.78 293.22 C 411.32 284.86 398.44 281.05 400.01 290.99 C 401.58 300.94 402.86 302.93 405.00 312.00 Z"/>
</g>
<g fill="None" fill-opacity="0.0" stroke="#DDD9CF" stroke-opacity="1.00" stroke-width="0.3"><path d="
M 278.00 340.00 
C 284.37 327.50 287.36 315.09 286.00 301.00
C 286.00 315.03 278.34 326.80 278.00 340.00 Z"/>
</g>
<g fill="None" fill-opacity="0.0" stroke="#E6E3D8" stroke-opacity="1.00" stroke-width="0.3"><path d="
M 388.00 348.00 
C 375.55 343.35 385.09 334.19 392.77 338.23 C 400.45 342.27 409.86 338.90 414.22 332.22 C 418.58 325.54 407.18 317.23 405.00 312.00
C 406.66 319.03 410.56 320.59 412.00 328.00 C 413.44 335.41 403.88 337.47 398.22 336.78 C 392.57 336.09 383.45 331.52 379.78 337.78 C 376.11 344.04 384.25 347.59 388.00 348.00 Z"/>
</g>
<g fill="None" fill-opacity="0.0" stroke="#DFDBD1" stroke-opacity="1.00" stroke-width="0.3"><path d="
M 330.00 371.00 
C 308.71 374.60 287.43 361.23 278.00 342.00
C 283.50 362.66 306.82 372.84 326.00 376.00
C 327.24 374.91 328.52 371.80 330.00 371.00 Z"/>
</g>
<g fill="None" fill-opacity="0.0" stroke="#E0DCD2" stroke-opacity="1.00" stroke-width="0.3"><path d="
M 299.00 390.00 
C 283.32 380.44 264.35 370.67 257.00 352.00
C 259.20 350.57 261.70 350.15 264.00 349.00
C 269.18 358.65 277.91 369.81 287.00 374.00
C 282.24 370.42 278.69 365.54 275.00 361.00
C 270.78 357.29 267.20 352.07 265.00 347.00
C 261.20 346.93 258.37 349.70 255.00 351.00
C 262.24 370.71 280.80 382.68 299.00 390.00 Z"/>
</g>
<g fill="None" fill-opacity="0.0" stroke="#DBD8CE" stroke-opacity="1.00" stroke-width="0.3"><path d="
M 407.00 367.00 
C 412.14 366.80 426.08 354.62 427.97 363.03 C 429.86 371.43 418.27 374.75 411.31 378.31 C 404.34 381.86 391.55 380.93 382.98 380.02 C 374.40 379.12 368.89 372.48 360.32 370.68 C 351.76 368.87 348.02 352.99 358.00 355.00 C 367.99 357.01 368.52 365.94 378.67 366.33 C 388.82 366.72 396.41 372.24 406.00 367.00
C 396.21 367.00 384.86 365.84 375.67 364.33 C 366.49 362.81 363.18 349.13 353.23 353.23 C 343.28 357.33 353.60 369.37 360.92 372.08 C 368.23 374.80 376.14 381.35 384.99 382.01 C 393.84 382.67 407.60 383.71 414.75 378.75 C 421.91 373.80 433.49 370.10 429.30 360.70 C 425.12 351.29 411.36 364.88 407.00 367.00 Z"/>
</g>
<g fill="None" fill-opacity="0.0" stroke="#111A22" stroke-opacity="1.00" stroke-width="0.3"><path d="
M 407.00 367.00 
C 407.00 367.00 406.50 367.00 406.00 367.00
C 396.41 372.24 388.82 366.72 378.67 366.33 C 368.52 365.94 367.99 357.01 358.00 355.00 C 348.02 352.99 351.76 368.87 360.32 370.68 C 368.89 372.48 374.40 379.12 382.98 380.02 C 391.55 380.93 404.34 381.86 411.31 378.31 C 418.27 374.75 429.86 371.43 427.97 363.03 C 426.08 354.62 412.14 366.80 407.00 367.00 Z"/>
</g>
<g fill="None" fill-opacity="0.0" stroke="#0F0F10" stroke-opacity="1.00" stroke-width="0.3"><path d="
M 287.00 374.00 
C 290.91 376.94 295.36 378.90 300.00 380.00
C 310.33 382.44 317.22 385.51 326.00 391.00
C 333.00 394.02 339.91 399.89 347.98 399.98 C 356.04 400.06 364.96 393.86 364.00 385.00
C 363.95 384.51 364.00 384.00 364.00 384.00
C 360.60 389.44 359.17 398.43 350.00 398.00 C 340.83 397.57 335.99 395.35 329.75 390.25 C 323.51 385.15 318.17 382.94 311.02 380.98 C 303.87 379.02 296.31 378.02 290.75 373.25 C 285.18 368.49 280.33 365.88 275.00 361.00
C 278.69 365.54 282.24 370.42 287.00 374.00 Z"/>
</g>
<g fill="None" fill-opacity="0.0" stroke="#DEDAD1" stroke-opacity="1.00" stroke-width="0.3"><path d="
M 364.00 384.00 
C 364.00 384.00 363.95 384.51 364.00 385.00
C 365.12 374.40 354.33 369.00 344.00 369.00
C 351.50 370.07 361.19 376.20 364.00 384.00 Z"/>
</g>
<g fill="None" fill-opacity="0.0" stroke="#D8D4CB" stroke-opacity="1.00" stroke-width="0.3"><path d="
M 326.00 391.00 
C 317.22 385.51 310.33 382.44 300.00 380.00
C 308.34 383.72 317.36 387.27 326.00 391.00 Z"/>
</g>
<g fill="None" fill-opacity="0.0" stroke="#DBD6CD" stroke-opacity="1.00" stroke-width="0.3"><path d="
M 311.00 495.00 
C 308.07 489.51 303.78 481.95 299.08 475.92 C 294.38 469.89 292.43 460.30 287.70 454.31 C 282.96 448.31 281.96 433.27 284.98 427.98 C 287.99 422.68 294.37 407.88 299.00 411.00
C 297.78 409.66 297.12 406.79 295.00 407.00
C 286.21 421.10 275.89 437.93 285.08 453.92 C 294.26 469.92 299.76 480.90 311.00 495.00 Z"/>
</g>
<g fill="None" fill-opacity="0.0" stroke="#F7E4C2" stroke-opacity="1.00" stroke-width="0.3"><path d="
M 311.00 495.00 
C 315.78 501.00 319.52 509.25 326.00 514.00
C 330.75 516.00 336.40 504.27 340.75 500.75 C 345.10 497.24 350.54 488.76 355.75 484.75 C 360.97 480.74 365.00 472.49 371.00 469.00
C 370.70 467.75 369.17 467.29 369.00 466.00
C 366.83 464.92 364.27 464.67 362.00 464.00
C 339.02 457.22 313.29 434.85 301.00 414.00
C 300.31 413.12 299.68 411.96 299.00 411.00
C 294.37 407.88 287.99 422.68 284.98 427.98 C 281.96 433.27 282.96 448.31 287.70 454.31 C 292.43 460.30 294.38 469.89 299.08 475.92 C 303.78 481.95 308.07 489.51 311.00 495.00 Z"/>
</g>
<g fill="None" fill-opacity="0.0" stroke="#DCD9D1" stroke-opacity="1.00" stroke-width="0.3"><path d="
M 362.00 464.00 
C 348.13 457.80 335.17 447.61 323.00 438.00
C 317.98 434.04 312.92 428.97 309.00 424.00
C 306.39 420.70 303.52 417.25 301.00 414.00
C 313.29 434.85 339.02 457.22 362.00 464.00 Z"/>
</g>
<g fill="None" fill-opacity="0.0" stroke="#ABA9A4" stroke-opacity="1.00" stroke-width="0.3"><path d="
M 323.00 438.00 
C 318.45 433.79 313.25 428.60 309.00 424.00
C 312.92 428.97 317.98 434.04 323.00 438.00 Z"/>
</g>
<g fill="None" fill-opacity="0.0" stroke="#DFDBD1" stroke-opacity="1.00" stroke-width="0.3"><path d="
M 416.00 444.00 
C 415.55 444.89 412.66 457.53 418.25 460.75 C 423.84 463.97 428.92 456.68 432.30 452.30 C 435.69 447.93 436.44 438.83 441.00 436.00
C 448.10 459.51 441.44 484.54 432.00 506.00
C 417.89 492.07 402.08 478.23 390.00 463.00
C 399.25 461.74 405.26 452.55 412.00 447.00
C 403.75 452.57 393.46 457.73 388.00 466.00
C 391.48 469.22 395.30 472.08 399.00 475.00
C 404.79 479.57 410.26 485.45 415.00 491.00
C 420.58 497.01 425.33 503.91 432.00 509.00
C 444.11 486.46 449.35 458.38 442.00 433.00
C 431.63 438.98 437.65 447.34 427.75 455.75 C 417.85 464.16 414.28 446.84 422.00 439.00
C 419.87 440.34 417.90 442.56 416.00 444.00 Z"/>
</g>
<g fill="None" fill-opacity="0.0" stroke="#F7E4C1" stroke-opacity="1.00" stroke-width="0.3"><path d="
M 416.00 444.00 
C 414.70 444.98 413.13 445.97 412.00 447.00
C 405.26 452.55 399.25 461.74 390.00 463.00
C 402.08 478.23 417.89 492.07 432.00 506.00
C 441.44 484.54 448.10 459.51 441.00 436.00
C 436.44 438.83 435.69 447.93 432.30 452.30 C 428.92 456.68 423.84 463.97 418.25 460.75 C 412.66 457.53 415.55 444.89 416.00 444.00 Z"/>
</g>
<g fill="None" fill-opacity="0.0" stroke="#F7E5C2" stroke-opacity="1.00" stroke-width="0.3"><path d="
M 267.00 450.00 
C 252.54 453.78 236.44 465.39 222.92 471.92 C 209.40 478.44 195.31 488.92 185.25 500.25 C 175.19 511.58 163.03 528.11 162.00 543.00
C 161.60 548.76 167.80 551.40 172.00 554.00
C 198.51 564.92 221.75 577.85 252.01 582.99 C 282.27 588.13 317.48 594.83 349.00 597.00
C 350.75 580.85 353.96 563.40 358.00 548.00 C 362.04 532.60 369.66 518.85 357.00 505.00
C 348.30 511.15 333.69 537.52 320.92 528.08 C 308.16 518.63 302.22 505.22 292.75 493.25 C 283.27 481.29 277.21 464.76 271.00 451.00
C 268.63 449.26 269.89 449.81 267.00 450.00 Z"/>
</g>
<g fill="None" fill-opacity="0.0" stroke="#E0DCD2" stroke-opacity="1.00" stroke-width="0.3"><path d="
M 162.00 539.00 
C 161.92 540.15 162.39 541.93 162.00 543.00
C 163.03 528.11 175.19 511.58 185.25 500.25 C 195.31 488.92 209.40 478.44 222.92 471.92 C 236.44 465.39 252.54 453.78 267.00 450.00
C 251.56 451.04 236.12 464.33 222.69 470.69 C 209.27 477.06 195.11 486.97 185.25 498.25 C 175.39 509.53 163.06 523.94 162.00 539.00 Z"/>
</g>
<g fill="None" fill-opacity="0.0" stroke="#E1DCD2" stroke-opacity="1.00" stroke-width="0.3"><path d="
M 172.00 554.00 
C 224.53 587.96 289.03 590.98 350.00 599.00
C 352.95 571.83 361.39 546.14 368.00 520.00
C 361.45 517.72 362.50 506.00 358.00 503.00
C 351.71 508.25 346.18 514.72 340.00 520.00
C 331.38 527.37 323.75 529.77 316.25 520.75 C 308.74 511.74 306.26 507.44 299.25 499.75 C 292.24 492.06 290.45 483.14 284.25 475.75 C 278.05 468.35 278.42 456.42 271.00 451.00
C 277.21 464.76 283.27 481.29 292.75 493.25 C 302.22 505.22 308.16 518.63 320.92 528.08 C 333.69 537.52 348.30 511.15 357.00 505.00
C 369.66 518.85 362.04 532.60 358.00 548.00 C 353.96 563.40 350.75 580.85 349.00 597.00
C 317.48 594.83 282.27 588.13 252.01 582.99 C 221.75 577.85 198.51 564.92 172.00 554.00 Z"/>
</g>
<g fill="None" fill-opacity="0.0" stroke="#DEDBD1" stroke-opacity="1.00" stroke-width="0.3"><path d="
M 458.00 457.00 
C 458.11 459.88 458.28 464.10 458.00 467.00
C 458.00 483.14 450.97 495.48 446.00 510.00
C 455.36 493.20 461.99 474.65 460.00 454.00
C 472.20 460.32 489.05 466.35 500.23 473.77 C 511.41 481.19 525.54 490.09 532.25 501.75 C 538.96 513.41 553.16 529.34 549.22 543.22 C 545.28 557.10 526.96 561.77 514.92 568.92 C 502.89 576.07 485.51 580.99 470.78 584.78 C 456.04 588.57 434.65 591.56 419.00 594.00
C 420.41 562.90 394.42 534.21 406.00 504.00
C 414.72 510.85 421.23 520.97 431.00 526.00
C 422.97 517.29 412.77 509.74 406.00 500.00
C 400.16 508.34 398.99 518.90 401.07 528.93 C 403.16 538.95 408.10 544.69 409.68 555.32 C 411.25 565.95 416.42 571.55 416.01 583.99 C 415.59 596.44 427.67 595.52 438.00 593.00 C 448.33 590.48 457.80 590.21 467.33 587.33 C 476.86 584.45 486.06 583.54 494.78 579.78 C 503.50 576.01 511.09 573.47 519.30 569.30 C 527.52 565.13 532.88 560.22 541.25 556.25 C 549.62 552.29 554.30 541.49 550.93 533.07 C 547.55 524.65 543.64 517.25 539.31 509.70 C 534.97 502.14 530.74 495.68 524.25 489.75 C 517.76 483.83 511.83 479.14 504.70 474.30 C 497.56 469.46 489.50 465.93 481.75 462.25 C 473.99 458.58 466.40 453.12 458.00 451.00
C 457.91 452.99 458.12 455.01 458.00 457.00 Z"/>
</g>
<g fill="None" fill-opacity="0.0" stroke="#F7E5C2" stroke-opacity="1.00" stroke-width="0.3"><path d="
M 446.00 510.00 
C 443.86 516.27 438.96 528.36 431.00 526.00
C 421.23 520.97 414.72 510.85 406.00 504.00
C 394.42 534.21 420.41 562.90 419.00 594.00
C 434.65 591.56 456.04 588.57 470.78 584.78 C 485.51 580.99 502.89 576.07 514.92 568.92 C 526.96 561.77 545.28 557.10 549.22 543.22 C 553.16 529.34 538.96 513.41 532.25 501.75 C 525.54 490.09 511.41 481.19 500.23 473.77 C 489.05 466.35 472.20 460.32 460.00 454.00
C 461.99 474.65 455.36 493.20 446.00 510.00 Z"/>
</g>
<g fill="None" fill-opacity="0.0" stroke="#7C7B78" stroke-opacity="1.00" stroke-width="0.3"><path d="
M 458.00 467.00 
C 458.28 464.10 458.11 459.88 458.00 457.00
C 457.80 460.31 458.00 463.69 458.00 467.00 Z"/>
</g>
<g fill="None" fill-opacity="0.0" stroke="#E2DED5" stroke-opacity="1.00" stroke-width="0.3"><path d="
M 326.00 514.00 
C 330.95 515.59 337.18 505.91 342.25 501.25 C 347.32 496.59 352.61 489.82 357.75 484.75 C 362.89 479.69 367.67 473.14 373.00 468.00
C 371.62 467.37 370.36 466.68 369.00 466.00
C 369.17 467.29 370.70 467.75 371.00 469.00
C 365.00 472.49 360.97 480.74 355.75 484.75 C 350.54 488.76 345.10 497.24 340.75 500.75 C 336.40 504.27 330.75 516.00 326.00 514.00 Z"/>
</g>
<g fill="None" fill-opacity="0.0" stroke="#69635A" stroke-opacity="1.00" stroke-width="0.3"><path d="
M 415.00 491.00 
C 410.26 485.45 404.79 479.57 399.00 475.00
C 404.32 479.92 409.81 485.81 415.00 491.00 Z"/>
</g>
<g fill="None" fill-opacity="0.0" stroke="#6D6C69" stroke-opacity="1.00" stroke-width="0.3"><path d="
M 340.00 520.00 
C 346.18 514.72 351.71 508.25 358.00 503.00
C 355.86 501.58 351.39 508.93 348.75 510.75 C 346.12 512.58 342.37 517.63 340.00 520.00 Z"/>
</g>
<g fill="None" fill-opacity="0.0" stroke="#37393A" stroke-opacity="1.00" stroke-width="0.3"><path d="
M 162.00 543.00 
C 162.39 541.93 161.92 540.15 162.00 539.00
C 159.04 537.04 159.16 543.01 159.00 545.00
C 158.48 543.72 162.45 541.76 162.00 543.00 Z"/>
</g>
<g fill="#08141E" fill-opacity="1.00" stroke="None">
<path d="
M 0.00 672.00 
L 717.00 672.00
L 717.00 0.00
L 0.00 0.00
L 0.00 672.00
M 519.00 221.00 
C 519.00 223.67 519.00 226.33 519.00 229.00
C 519.46 233.72 519.45 239.35 519.00 244.00
C 519.00 246.96 519.28 250.06 519.00 253.00
C 518.76 255.52 518.06 258.17 518.00 261.00
C 518.44 266.66 519.00 273.64 519.00 280.00
C 519.00 296.48 526.58 315.25 508.00 326.00
C 520.99 298.11 503.29 266.53 505.00 238.00 C 506.71 209.47 495.74 183.62 478.23 162.77 C 460.72 141.92 441.08 132.34 415.98 124.02 C 390.87 115.70 351.39 118.08 326.78 126.78 C 302.16 135.47 282.25 146.89 266.00 168.00
C 249.82 193.00 233.76 223.58 238.00 257.00
C 243.74 255.25 253.72 252.70 257.00 259.00
C 260.10 261.38 261.73 262.82 264.00 266.00
C 272.54 277.96 269.43 296.88 270.00 311.00 C 270.57 325.12 262.58 338.42 249.99 341.99 C 237.40 345.56 223.04 335.12 218.23 323.77 C 213.42 312.42 208.17 292.29 214.98 279.98 C 221.78 267.66 220.73 252.61 220.00 238.00 C 219.27 223.39 222.67 206.27 227.98 193.98 C 233.28 181.68 239.23 171.46 245.77 160.77 C 252.31 150.08 261.50 142.99 270.25 134.25 C 279.00 125.51 291.71 118.56 302.00 116.00
C 344.90 97.48 405.64 92.03 446.70 115.31 C 487.75 138.58 519.00 173.09 519.00 221.00
M 388.00 131.00 
C 382.25 133.28 374.51 131.37 368.00 132.00
C 373.75 129.72 381.49 131.63 388.00 131.00
M 478.00 251.00 
C 477.91 250.52 478.01 249.50 478.00 249.00
C 477.47 228.59 475.05 204.87 463.00 188.00
C 460.59 185.12 456.73 181.53 454.00 179.00
C 440.73 168.52 434.33 156.07 417.31 150.69 C 400.28 145.32 377.78 142.24 359.00 145.00
C 356.84 145.32 355.10 145.62 353.00 146.00
C 329.11 150.30 307.24 159.50 290.75 178.75 C 274.25 197.99 269.22 225.91 268.00 251.00
C 256.39 250.29 257.67 240.40 258.93 231.93 C 260.18 223.45 261.01 214.50 263.93 206.93 C 266.84 199.35 268.87 192.63 272.92 185.92 C 276.98 179.22 280.81 173.87 286.25 168.25 C 291.68 162.63 296.37 158.99 302.70 154.70 C 309.02 150.40 314.77 147.10 322.03 144.02 C 329.28 140.95 336.51 138.50 344.67 136.67 C 352.83 134.84 363.15 133.24 372.00 133.00 C 380.85 132.76 391.97 132.98 400.02 134.98 C 408.07 136.97 415.86 138.86 423.07 141.93 C 430.28 145.00 436.67 147.43 442.25 152.75 C 447.83 158.07 452.33 162.94 457.75 168.25 C 463.17 173.56 467.83 177.52 472.30 183.70 C 476.78 189.87 479.44 197.25 481.33 204.67 C 483.22 212.10 485.29 223.25 485.00 231.00 C 484.71 238.75 487.53 256.38 478.00 251.00
M 465.00 340.00 
C 465.00 376.16 445.71 416.60 409.77 430.77 C 373.84 444.95 327.48 426.78 307.00 396.00
C 304.43 393.24 302.56 391.43 299.00 390.00
C 280.80 382.68 262.24 370.71 255.00 351.00
C 258.37 349.70 261.20 346.93 265.00 347.00
C 267.20 352.07 270.78 357.29 275.00 361.00
C 280.33 365.88 285.18 368.49 290.75 373.25 C 296.31 378.02 303.87 379.02 311.02 380.98 C 318.17 382.94 323.51 385.15 329.75 390.25 C 335.99 395.35 340.83 397.57 350.00 398.00 C 359.17 398.43 360.60 389.44 364.00 384.00
C 361.19 376.20 351.50 370.07 344.00 369.00
C 338.90 369.00 334.81 370.19 330.00 371.00
C 328.52 371.80 327.24 374.91 326.00 376.00
C 306.82 372.84 283.50 362.66 278.00 342.00
C 277.98 341.50 277.99 340.50 278.00 340.00
C 278.34 326.80 286.00 315.03 286.00 301.00
C 286.00 287.46 294.30 287.33 300.00 277.00
C 311.80 255.59 314.34 230.02 309.00 206.00
C 339.06 213.57 371.20 219.23 403.00 214.00
C 405.22 213.57 408.37 212.53 411.00 212.00
C 419.05 208.99 428.32 202.38 435.00 197.00
C 449.22 185.55 462.08 204.96 463.99 221.01 C 465.90 237.06 466.94 261.72 467.00 280.00 C 467.06 298.28 466.72 322.19 465.00 340.00
M 487.00 337.00 
C 473.47 343.33 480.73 320.80 480.00 313.00
C 478.69 299.01 480.96 290.74 479.00 276.00 C 477.04 261.26 492.50 262.60 496.92 274.08 C 501.35 285.55 502.36 297.72 500.67 309.67 C 498.98 321.62 498.53 331.61 487.00 337.00
M 299.00 411.00 
C 299.68 411.96 300.31 413.12 301.00 414.00
C 303.52 417.25 306.39 420.70 309.00 424.00
C 313.25 428.60 318.45 433.79 323.00 438.00
C 335.17 447.61 348.13 457.80 362.00 464.00
C 364.27 464.67 366.83 464.92 369.00 466.00
C 370.36 466.68 371.62 467.37 373.00 468.00
C 367.67 473.14 362.89 479.69 357.75 484.75 C 352.61 489.82 347.32 496.59 342.25 501.25 C 337.18 505.91 330.95 515.59 326.00 514.00
C 319.52 509.25 315.78 501.00 311.00 495.00
C 299.76 480.90 294.26 469.92 285.08 453.92 C 275.89 437.93 286.21 421.10 295.00 407.00
C 297.12 406.79 297.78 409.66 299.00 411.00
M 415.00 491.00 
C 409.81 485.81 404.32 479.92 399.00 475.00
C 395.30 472.08 391.48 469.22 388.00 466.00
C 393.46 457.73 403.75 452.57 412.00 447.00
C 413.13 445.97 414.70 444.98 416.00 444.00
C 417.90 442.56 419.87 440.34 422.00 439.00
C 414.28 446.84 417.85 464.16 427.75 455.75 C 437.65 447.34 431.63 438.98 442.00 433.00
C 449.35 458.38 444.11 486.46 432.00 509.00
C 425.33 503.91 420.58 497.01 415.00 491.00
M 271.00 451.00 
C 278.42 456.42 278.05 468.35 284.25 475.75 C 290.45 483.14 292.24 492.06 299.25 499.75 C 306.26 507.44 308.74 511.74 316.25 520.75 C 323.75 529.77 331.38 527.37 340.00 520.00
C 342.37 517.63 346.12 512.58 348.75 510.75 C 351.39 508.93 355.86 501.58 358.00 503.00
C 362.50 506.00 361.45 517.72 368.00 520.00
C 361.39 546.14 352.95 571.83 350.00 599.00
C 289.03 590.98 224.53 587.96 172.00 554.00
C 167.80 551.40 161.60 548.76 162.00 543.00
C 162.45 541.76 158.48 543.72 159.00 545.00
C 159.16 543.01 159.04 537.04 162.00 539.00
C 163.06 523.94 175.39 509.53 185.25 498.25 C 195.11 486.97 209.27 477.06 222.69 470.69 C 236.12 464.33 251.56 451.04 267.00 450.00
C 269.89 449.81 268.63 449.26 271.00 451.00
M 431.00 526.00 
C 438.96 528.36 443.86 516.27 446.00 510.00
C 450.97 495.48 458.00 483.14 458.00 467.00
C 458.00 463.69 457.80 460.31 458.00 457.00
C 458.12 455.01 457.91 452.99 458.00 451.00
C 466.40 453.12 473.99 458.58 481.75 462.25 C 489.50 465.93 497.56 469.46 504.70 474.30 C 511.83 479.14 517.76 483.83 524.25 489.75 C 530.74 495.68 534.97 502.14 539.31 509.70 C 543.64 517.25 547.55 524.65 550.93 533.07 C 554.30 541.49 549.62 552.29 541.25 556.25 C 532.88 560.22 527.52 565.13 519.30 569.30 C 511.09 573.47 503.50 576.01 494.78 579.78 C 486.06 583.54 476.86 584.45 467.33 587.33 C 457.80 590.21 448.33 590.48 438.00 593.00 C 427.67 595.52 415.59 596.44 416.01 583.99 C 416.42 571.55 411.25 565.95 409.68 555.32 C 408.10 544.69 403.16 538.95 401.07 528.93 C 398.99 518.90 400.16 508.34 406.00 500.00
C 412.77 509.74 422.97 517.29 431.00 526.00 Z"/>
</g>
<g fill="#DDD9D0" fill-opacity="1.00" stroke="None">
<path d="
M 302.00 116.00 
C 280.61 125.23 259.89 143.01 247.00 163.00
C 273.18 132.96 300.70 112.68 340.01 105.01 C 379.31 97.34 429.35 101.76 462.08 125.92 C 494.81 150.08 513.53 182.72 519.00 221.00
C 519.00 173.09 487.75 138.58 446.70 115.31 C 405.64 92.03 344.90 97.48 302.00 116.00 Z"/>
</g>
<g fill="#F7E4C1" fill-opacity="1.00" stroke="None">
<path d="
M 247.00 163.00 
C 242.08 170.63 236.77 178.35 234.00 187.00
C 232.01 193.22 228.93 200.53 228.01 207.01 C 227.08 213.49 222.88 223.01 222.00 226.00
C 221.40 237.02 221.13 249.39 223.00 260.00 C 224.86 270.62 216.73 276.28 216.00 287.00
C 214.74 305.46 216.57 323.01 232.25 334.75 C 247.92 346.50 267.81 330.49 266.00 313.00 C 264.19 295.51 272.99 271.50 257.00 259.00
C 249.99 253.52 242.81 261.66 237.00 258.00
C 234.62 256.50 235.18 253.81 235.00 249.00 C 234.82 244.19 235.35 239.99 236.00 236.00
C 236.30 230.54 237.37 225.46 238.00 220.00
C 240.75 196.01 256.62 176.08 272.75 157.75 C 288.88 139.43 311.69 129.45 335.02 122.02 C 358.36 114.60 398.10 114.95 421.07 123.93 C 444.04 132.90 464.04 141.73 479.75 162.25 C 495.47 182.77 508.73 205.19 507.00 233.00 C 505.27 260.81 520.17 292.33 512.00 320.00
C 527.55 300.17 510.22 274.09 517.00 251.00
C 518.26 251.08 517.56 253.06 519.00 253.00
C 519.28 250.06 519.00 246.96 519.00 244.00
C 519.00 239.00 519.00 234.00 519.00 229.00
C 519.00 226.33 519.00 223.67 519.00 221.00
C 513.53 182.72 494.81 150.08 462.08 125.92 C 429.35 101.76 379.31 97.34 340.01 105.01 C 300.70 112.68 273.18 132.96 247.00 163.00 Z"/>
</g>
<g fill="#191A1A" fill-opacity="1.00" stroke="None">
<path d="
M 264.00 266.00 
C 271.65 282.73 269.26 303.85 266.67 321.67 C 264.08 339.49 242.80 346.56 229.25 334.75 C 215.71 322.93 212.97 303.89 216.00 287.00
C 216.73 276.28 224.86 270.62 223.00 260.00 C 221.13 249.39 221.40 237.02 222.00 226.00
C 222.74 212.44 228.59 198.83 234.00 187.00
C 236.77 178.35 242.08 170.63 247.00 163.00
C 259.89 143.01 280.61 125.23 302.00 116.00
C 291.71 118.56 279.00 125.51 270.25 134.25 C 261.50 142.99 252.31 150.08 245.77 160.77 C 239.23 171.46 233.28 181.68 227.98 193.98 C 222.67 206.27 219.27 223.39 220.00 238.00 C 220.73 252.61 221.78 267.66 214.98 279.98 C 208.17 292.29 213.42 312.42 218.23 323.77 C 223.04 335.12 237.40 345.56 249.99 341.99 C 262.58 338.42 270.57 325.12 270.00 311.00 C 269.43 296.88 272.54 277.96 264.00 266.00 Z"/>
</g>
<g fill="#DEDAD1" fill-opacity="1.00" stroke="None">
<path d="
M 238.00 220.00 
C 242.61 201.96 253.43 182.14 266.00 168.00
C 282.25 146.89 302.16 135.47 326.78 126.78 C 351.39 118.08 390.87 115.70 415.98 124.02 C 441.08 132.34 460.72 141.92 478.23 162.77 C 495.74 183.62 506.71 209.47 505.00 238.00 C 503.29 266.53 520.99 298.11 508.00 326.00
C 526.58 315.25 519.00 296.48 519.00 280.00
C 518.45 274.31 517.87 267.39 518.00 261.00
C 518.06 258.17 518.76 255.52 519.00 253.00
C 517.56 253.06 518.26 251.08 517.00 251.00
C 510.22 274.09 527.55 300.17 512.00 320.00
C 520.17 292.33 505.27 260.81 507.00 233.00 C 508.73 205.19 495.47 182.77 479.75 162.25 C 464.04 141.73 444.04 132.90 421.07 123.93 C 398.10 114.95 358.36 114.60 335.02 122.02 C 311.69 129.45 288.88 139.43 272.75 157.75 C 256.62 176.08 240.75 196.01 238.00 220.00 Z"/>
</g>
<g fill="#2F363B" fill-opacity="1.00" stroke="None">
<path d="
M 388.00 131.00 
C 381.49 131.63 373.75 129.72 368.00 132.00
C 374.51 131.37 382.25 133.28 388.00 131.00 Z"/>
</g>
<g fill="#DDD9CE" fill-opacity="1.00" stroke="None">
<path d="
M 353.00 146.00 
C 302.31 147.45 262.78 198.15 267.00 249.00
C 264.33 247.94 262.08 245.74 259.00 246.00
C 260.82 222.34 265.40 196.24 280.30 177.30 C 295.21 158.37 311.79 148.41 334.07 141.07 C 356.35 133.73 390.27 132.24 413.02 139.98 C 435.78 147.71 448.17 159.91 465.75 177.25 C 483.33 194.59 484.00 226.68 483.00 251.00
C 481.33 251.00 479.67 251.00 478.00 251.00
C 487.53 256.38 484.71 238.75 485.00 231.00 C 485.29 223.25 483.22 212.10 481.33 204.67 C 479.44 197.25 476.78 189.87 472.30 183.70 C 467.83 177.52 463.17 173.56 457.75 168.25 C 452.33 162.94 447.83 158.07 442.25 152.75 C 436.67 147.43 430.28 145.00 423.07 141.93 C 415.86 138.86 408.07 136.97 400.02 134.98 C 391.97 132.98 380.85 132.76 372.00 133.00 C 363.15 133.24 352.83 134.84 344.67 136.67 C 336.51 138.50 329.28 140.95 322.03 144.02 C 314.77 147.10 309.02 150.40 302.70 154.70 C 296.37 158.99 291.68 162.63 286.25 168.25 C 280.81 173.87 276.98 179.22 272.92 185.92 C 268.87 192.63 266.84 199.35 263.93 206.93 C 261.01 214.50 260.18 223.45 258.93 231.93 C 257.67 240.40 256.39 250.29 268.00 251.00
C 269.22 225.91 274.25 197.99 290.75 178.75 C 307.24 159.50 329.11 150.30 353.00 146.00 Z"/>
</g>
<g fill="#F6E3C0" fill-opacity="1.00" stroke="None">
<path d="
M 353.00 146.00 
C 355.10 145.62 356.84 145.32 359.00 145.00
C 370.31 141.90 388.47 140.56 400.00 144.00 C 411.53 147.44 424.75 149.78 433.70 157.30 C 442.65 164.82 448.67 173.15 457.23 179.77 C 465.80 186.39 473.44 198.86 474.98 209.02 C 476.51 219.19 484.11 240.00 478.00 249.00
C 478.01 249.50 477.91 250.52 478.00 251.00
C 479.67 251.00 481.33 251.00 483.00 251.00
C 484.00 226.68 483.33 194.59 465.75 177.25 C 448.17 159.91 435.78 147.71 413.02 139.98 C 390.27 132.24 356.35 133.73 334.07 141.07 C 311.79 148.41 295.21 158.37 280.30 177.30 C 265.40 196.24 260.82 222.34 259.00 246.00
C 262.08 245.74 264.33 247.94 267.00 249.00
C 262.78 198.15 302.31 147.45 353.00 146.00 Z"/>
</g>
<g fill="#DCD7CC" fill-opacity="1.00" stroke="None">
<path d="
M 359.00 145.00 
C 377.78 142.24 400.28 145.32 417.31 150.69 C 434.33 156.07 440.73 168.52 454.00 179.00
C 457.26 181.58 460.61 184.65 463.00 188.00
C 475.05 204.87 477.47 228.59 478.00 249.00
C 484.11 240.00 476.51 219.19 474.98 209.02 C 473.44 198.86 465.80 186.39 457.23 179.77 C 448.67 173.15 442.65 164.82 433.70 157.30 C 424.75 149.78 411.53 147.44 400.00 144.00 C 388.47 140.56 370.31 141.90 359.00 145.00 Z"/>
</g>
<g fill="#141415" fill-opacity="1.00" stroke="None">
<path d="
M 238.00 220.00 
C 237.37 225.46 236.30 230.54 236.00 236.00
C 235.70 241.45 234.24 253.37 237.00 258.00
C 242.81 261.66 249.99 253.52 257.00 259.00
C 253.72 252.70 243.74 255.25 238.00 257.00
C 233.76 223.58 249.82 193.00 266.00 168.00
C 253.43 182.14 242.61 201.96 238.00 220.00 Z"/>
</g>
<g fill="#A9A7A2" fill-opacity="1.00" stroke="None">
<path d="
M 463.00 188.00 
C 460.61 184.65 457.26 181.58 454.00 179.00
C 456.73 181.53 460.59 185.12 463.00 188.00 Z"/>
</g>
<g fill="#D9D6CC" fill-opacity="1.00" stroke="None">
<path d="
M 222.00 226.00 
C 222.88 223.01 227.08 213.49 228.01 207.01 C 228.93 200.53 232.01 193.22 234.00 187.00
C 228.59 198.83 222.74 212.44 222.00 226.00 Z"/>
</g>
<g fill="#0E0E10" fill-opacity="1.00" stroke="None">
<path d="
M 435.00 197.00 
C 451.64 187.72 459.54 207.49 462.00 223.00 C 464.45 238.51 465.54 261.96 465.00 280.00 C 464.46 298.04 465.00 321.47 465.00 340.00
C 466.72 322.19 467.06 298.28 467.00 280.00 C 466.94 261.72 465.90 237.06 463.99 221.01 C 462.08 204.96 449.22 185.55 435.00 197.00 Z"/>
</g>
<g fill="#DFDBD2" fill-opacity="1.00" stroke="None">
<path d="
M 435.00 197.00 
C 428.32 202.38 419.05 208.99 411.00 212.00
C 424.96 209.21 446.25 185.11 455.77 206.23 C 465.29 227.35 463.02 247.46 464.00 270.00 C 464.98 292.54 463.77 319.85 463.22 341.22 C 462.67 362.59 457.99 379.39 447.23 396.23 C 436.47 413.07 426.10 420.84 408.31 429.31 C 390.52 437.77 366.33 432.65 348.32 426.68 C 330.32 420.70 319.91 409.83 307.75 396.25
C 327.48 426.78 373.84 444.95 409.77 430.77 C 445.71 416.60 465.00 376.16 465.00 340.00
C 465.00 321.47 464.46 298.04 465.00 280.00 C 465.54 261.96 464.45 238.51 462.00 223.00 C 459.54 207.49 451.64 187.72 435.00 197.00 Z"/>
</g>
<g fill="#F7E4C2" fill-opacity="1.00" stroke="None">
<path d="
M 411.00 212.00 
C 408.37 212.53 405.22 213.57 403.00 214.00
C 396.08 216.97 383.37 217.65 373.00 218.00 C 362.63 218.35 350.02 216.72 340.00 215.00 C 329.97 213.28 320.83 210.19 311.00 208.00
C 314.46 230.92 315.63 258.88 300.00 277.00
C 294.30 287.33 286.00 287.46 286.00 301.00
C 287.36 315.09 284.37 327.50 278.00 340.00
C 277.99 340.50 277.98 341.50 278.00 342.00
C 287.43 361.23 308.71 374.60 330.00 371.00
C 334.81 370.19 338.90 369.00 344.00 369.00
C 354.33 369.00 365.12 374.40 364.00 385.00
C 364.96 393.86 356.04 400.06 347.98 399.98 C 339.91 399.89 333.00 394.02 326.00 391.00
C 317.36 387.27 308.34 383.72 300.00 380.00
C 295.36 378.90 290.91 376.94 287.00 374.00
C 277.91 369.81 269.18 358.65 264.00 349.00
C 261.70 350.15 259.20 350.57 257.00 352.00
C 264.35 370.67 283.32 380.44 299.00 390.00
C 302.56 391.43 304.43 393.24 307.00 396.00
C 319.91 409.83 330.32 420.70 348.32 426.68 C 366.33 432.65 390.52 437.77 408.31 429.31 C 426.10 420.84 436.47 413.07 447.23 396.23 C 457.99 379.39 462.67 362.59 463.22 341.22 C 463.77 319.85 464.98 292.54 464.00 270.00 C 463.02 247.46 465.29 227.35 455.77 206.23 C 446.25 185.11 424.96 209.21 411.00 212.00
M 364.00 244.00 
C 372.46 245.97 377.29 260.44 365.99 259.99 C 354.69 259.54 351.50 257.13 341.31 263.31 C 331.11 269.48 327.88 252.28 337.08 249.08 C 346.28 245.89 353.53 241.56 364.00 244.00
M 443.00 247.00 
C 447.09 247.78 450.49 247.64 452.32 253.68 C 454.15 259.72 449.43 263.25 443.93 261.07 C 438.43 258.90 434.09 257.67 428.00 258.00
C 423.97 258.22 414.10 259.64 415.01 252.99 C 415.92 246.34 421.88 246.07 426.67 244.67 C 431.46 243.27 438.45 244.82 443.00 247.00
M 436.00 272.00 
C 450.05 276.87 439.86 307.99 424.78 300.22 C 409.70 292.46 420.79 266.73 436.00 272.00
M 358.00 273.00 
C 373.71 274.93 369.07 306.21 353.00 303.00 C 336.93 299.79 341.16 270.93 358.00 273.00
M 388.00 348.00 
C 384.25 347.59 376.11 344.04 379.78 337.78 C 383.45 331.52 392.57 336.09 398.22 336.78 C 403.88 337.47 413.44 335.41 412.00 328.00 C 410.56 320.59 406.66 319.03 405.00 312.00
C 402.86 302.93 401.58 300.94 400.01 290.99 C 398.44 281.05 411.32 284.86 410.78 293.22 C 410.24 301.58 415.27 306.08 418.77 312.23 C 422.27 318.38 426.52 325.72 425.00 333.00 C 423.48 340.28 418.45 344.21 411.78 346.78 C 405.11 349.34 395.09 348.77 388.00 348.00
M 406.00 367.00 
C 406.50 367.00 407.00 367.00 407.00 367.00
C 411.36 364.88 425.12 351.29 429.30 360.70 C 433.49 370.10 421.91 373.80 414.75 378.75 C 407.60 383.71 393.84 382.67 384.99 382.01 C 376.14 381.35 368.23 374.80 360.92 372.08 C 353.60 369.37 343.28 357.33 353.23 353.23 C 363.18 349.13 366.49 362.81 375.67 364.33 C 384.86 365.84 396.21 367.00 406.00 367.00 Z"/>
</g>
<g fill="#DBD7CE" fill-opacity="1.00" stroke="None">
<path d="
M 300.00 277.00 
C 315.63 258.88 314.46 230.92 311.00 208.00
C 320.83 210.19 329.97 213.28 340.00 215.00 C 350.02 216.72 362.63 218.35 373.00 218.00 C 383.37 217.65 396.08 216.97 403.00 214.00
C 371.20 219.23 339.06 213.57 309.00 206.00
C 314.34 230.02 311.80 255.59 300.00 277.00 Z"/>
</g>
<g fill="#928B7E" fill-opacity="1.00" stroke="None">
<path d="
M 519.00 244.00 
C 519.45 239.35 519.46 233.72 519.00 229.00
C 519.00 234.00 519.00 239.00 519.00 244.00 Z"/>
</g>
<g fill="#D2D0C9" fill-opacity="1.00" stroke="None">
<path d="
M 237.00 258.00 
C 234.24 253.37 235.70 241.45 236.00 236.00
C 235.35 239.99 234.82 244.19 235.00 249.00 C 235.18 253.81 234.62 256.50 237.00 258.00 Z"/>
</g>
<g fill="#DDDAD1" fill-opacity="1.00" stroke="None">
<path d="
M 364.00 244.00 
C 353.53 241.56 346.28 245.89 337.08 249.08 C 327.88 252.28 331.11 269.48 341.31 263.31 C 351.50 257.13 354.69 259.54 365.99 259.99 C 377.29 260.44 372.46 245.97 364.00 244.00
M 362.00 245.00 
C 369.90 246.64 376.05 257.96 365.97 258.97 C 355.90 259.99 352.55 252.01 343.77 260.77 C 335.00 269.53 328.86 254.08 337.25 250.25 C 345.64 246.41 352.67 243.07 362.00 245.00 Z"/>
</g>
<g fill="#141D24" fill-opacity="1.00" stroke="None">
<path d="
M 428.00 258.00 
C 431.80 257.10 437.04 254.91 440.69 258.31 C 444.35 261.70 450.99 262.31 450.99 256.99 C 450.99 251.67 447.31 249.06 443.00 247.00
C 438.45 244.82 431.46 243.27 426.67 244.67 C 421.88 246.07 415.92 246.34 415.01 252.99 C 414.10 259.64 423.97 258.22 428.00 258.00 Z"/>
</g>
<g fill="#191919" fill-opacity="1.00" stroke="None">
<path d="
M 362.00 245.00 
C 352.67 243.07 345.64 246.41 337.25 250.25 C 328.86 254.08 335.00 269.53 343.77 260.77 C 352.55 252.01 355.90 259.99 365.97 258.97 C 376.05 257.96 369.90 246.64 362.00 245.00
M 360.00 246.00 
C 366.84 246.84 373.59 255.81 364.97 256.97 C 356.36 258.14 351.74 251.07 344.31 258.31 C 336.87 265.54 331.68 254.23 339.08 251.08 C 346.48 247.93 351.84 244.99 360.00 246.00 Z"/>
</g>
<g fill="#101B25" fill-opacity="1.00" stroke="None">
<path d="
M 360.00 246.00 
C 351.84 244.99 346.48 247.93 339.08 251.08 C 331.68 254.23 336.87 265.54 344.31 258.31 C 351.74 251.07 356.36 258.14 364.97 256.97 C 373.59 255.81 366.84 246.84 360.00 246.00 Z"/>
</g>
<g fill="#DEDAD0" fill-opacity="1.00" stroke="None">
<path d="
M 443.00 247.00 
C 447.31 249.06 450.99 251.67 450.99 256.99 C 450.99 262.31 444.35 261.70 440.69 258.31 C 437.04 254.91 431.80 257.10 428.00 258.00
C 434.09 257.67 438.43 258.90 443.93 261.07 C 449.43 263.25 454.15 259.72 452.32 253.68 C 450.49 247.64 447.09 247.78 443.00 247.00 Z"/>
</g>
<g fill="#E0DDD3" fill-opacity="1.00" stroke="None">
<path d="
M 216.00 287.00 
C 212.97 303.89 215.71 322.93 229.25 334.75 C 242.80 346.56 264.08 339.49 266.67 321.67 C 269.26 303.85 271.65 282.73 264.00 266.00
C 261.73 262.82 260.10 261.38 257.00 259.00
C 272.99 271.50 264.19 295.51 266.00 313.00 C 267.81 330.49 247.92 346.50 232.25 334.75 C 216.57 323.01 214.74 305.46 216.00 287.00 Z"/>
</g>
<g fill="#61605E" fill-opacity="1.00" stroke="None">
<path d="
M 519.00 280.00 
C 519.00 273.64 518.44 266.66 518.00 261.00
C 517.87 267.39 518.45 274.31 519.00 280.00 Z"/>
</g>
<g fill="#E2DFD5" fill-opacity="1.00" stroke="None">
<path d="
M 480.00 313.00 
C 481.45 298.00 482.44 281.82 482.00 266.00
C 497.67 266.67 501.08 285.94 500.00 299.00 C 498.92 312.06 498.45 328.02 487.00 337.00
C 498.53 331.61 498.98 321.62 500.67 309.67 C 502.36 297.72 501.35 285.55 496.92 274.08 C 492.50 262.60 477.04 261.26 479.00 276.00 C 480.96 290.74 478.69 299.01 480.00 313.00 Z"/>
</g>
<g fill="#F7E3C2" fill-opacity="1.00" stroke="None">
<path d="
M 480.00 313.00 
C 480.73 320.80 473.47 343.33 487.00 337.00
C 498.45 328.02 498.92 312.06 500.00 299.00 C 501.08 285.94 497.67 266.67 482.00 266.00
C 482.44 281.82 481.45 298.00 480.00 313.00 Z"/>
</g>
<g fill="#DEDAD1" fill-opacity="1.00" stroke="None">
<path d="
M 436.00 272.00 
C 420.79 266.73 409.70 292.46 424.78 300.22 C 439.86 307.99 450.05 276.87 436.00 272.00
M 434.00 273.00 
C 446.91 276.68 439.43 304.92 425.93 299.07 C 412.42 293.22 420.62 269.18 434.00 273.00 Z"/>
</g>
<g fill="#E0DCD2" fill-opacity="1.00" stroke="None">
<path d="
M 358.00 273.00 
C 341.16 270.93 336.93 299.79 353.00 303.00 C 369.07 306.21 373.71 274.93 358.00 273.00
M 360.00 275.00 
C 373.00 278.95 364.34 306.59 350.78 300.22 C 337.22 293.86 345.62 270.64 360.00 275.00 Z"/>
</g>
<g fill="#111B22" fill-opacity="1.00" stroke="None">
<path d="
M 434.00 273.00 
C 420.62 269.18 412.42 293.22 425.93 299.07 C 439.43 304.92 446.91 276.68 434.00 273.00 Z"/>
</g>
<g fill="#0E1820" fill-opacity="1.00" stroke="None">
<path d="
M 360.00 275.00 
C 345.62 270.64 337.22 293.86 350.78 300.22 C 364.34 306.59 373.00 278.95 360.00 275.00 Z"/>
</g>
<g fill="#131C22" fill-opacity="1.00" stroke="None">
<path d="
M 405.00 312.00 
C 407.18 317.23 418.58 325.54 414.22 332.22 C 409.86 338.90 400.45 342.27 392.77 338.23 C 385.09 334.19 375.55 343.35 388.00 348.00
C 395.09 348.77 405.11 349.34 411.78 346.78 C 418.45 344.21 423.48 340.28 425.00 333.00 C 426.52 325.72 422.27 318.38 418.77 312.23 C 415.27 306.08 410.24 301.58 410.78 293.22 C 411.32 284.86 398.44 281.05 400.01 290.99 C 401.58 300.94 402.86 302.93 405.00 312.00 Z"/>
</g>
<g fill="#DDD9CF" fill-opacity="1.00" stroke="None">
<path d="
M 278.00 340.00 
C 284.37 327.50 287.36 315.09 286.00 301.00
C 286.00 315.03 278.34 326.80 278.00 340.00 Z"/>
</g>
<g fill="#E6E3D8" fill-opacity="1.00" stroke="None">
<path d="
M 388.00 348.00 
C 375.55 343.35 385.09 334.19 392.77 338.23 C 400.45 342.27 409.86 338.90 414.22 332.22 C 418.58 325.54 407.18 317.23 405.00 312.00
C 406.66 319.03 410.56 320.59 412.00 328.00 C 413.44 335.41 403.88 337.47 398.22 336.78 C 392.57 336.09 383.45 331.52 379.78 337.78 C 376.11 344.04 384.25 347.59 388.00 348.00 Z"/>
</g>
<g fill="#DFDBD1" fill-opacity="1.00" stroke="None">
<path d="
M 330.00 371.00 
C 308.71 374.60 287.43 361.23 278.00 342.00
C 283.50 362.66 306.82 372.84 326.00 376.00
C 327.24 374.91 328.52 371.80 330.00 371.00 Z"/>
</g>
<g fill="#E0DCD2" fill-opacity="1.00" stroke="None">
<path d="
M 299.00 390.00 
C 283.32 380.44 264.35 370.67 257.00 352.00
C 259.20 350.57 261.70 350.15 264.00 349.00
C 269.18 358.65 277.91 369.81 287.00 374.00
C 282.24 370.42 278.69 365.54 275.00 361.00
C 270.78 357.29 267.20 352.07 265.00 347.00
C 261.20 346.93 258.37 349.70 255.00 351.00
C 262.24 370.71 280.80 382.68 299.00 390.00 Z"/>
</g>
<g fill="#DBD8CE" fill-opacity="1.00" stroke="None">
<path d="
M 407.00 367.00 
C 412.14 366.80 426.08 354.62 427.97 363.03 C 429.86 371.43 418.27 374.75 411.31 378.31 C 404.34 381.86 391.55 380.93 382.98 380.02 C 374.40 379.12 368.89 372.48 360.32 370.68 C 351.76 368.87 348.02 352.99 358.00 355.00 C 367.99 357.01 368.52 365.94 378.67 366.33 C 388.82 366.72 396.41 372.24 406.00 367.00
C 396.21 367.00 384.86 365.84 375.67 364.33 C 366.49 362.81 363.18 349.13 353.23 353.23 C 343.28 357.33 353.60 369.37 360.92 372.08 C 368.23 374.80 376.14 381.35 384.99 382.01 C 393.84 382.67 407.60 383.71 414.75 378.75 C 421.91 373.80 433.49 370.10 429.30 360.70 C 425.12 351.29 411.36 364.88 407.00 367.00 Z"/>
</g>
<g fill="#111A22" fill-opacity="1.00" stroke="None">
<path d="
M 407.00 367.00 
C 407.00 367.00 406.50 367.00 406.00 367.00
C 396.41 372.24 388.82 366.72 378.67 366.33 C 368.52 365.94 367.99 357.01 358.00 355.00 C 348.02 352.99 351.76 368.87 360.32 370.68 C 368.89 372.48 374.40 379.12 382.98 380.02 C 391.55 380.93 404.34 381.86 411.31 378.31 C 418.27 374.75 429.86 371.43 427.97 363.03 C 426.08 354.62 412.14 366.80 407.00 367.00 Z"/>
</g>
<g fill="#0F0F10" fill-opacity="1.00" stroke="None">
<path d="
M 287.00 374.00 
C 290.91 376.94 295.36 378.90 300.00 380.00
C 310.33 382.44 317.22 385.51 326.00 391.00
C 333.00 394.02 339.91 399.89 347.98 399.98 C 356.04 400.06 364.96 393.86 364.00 385.00
C 363.95 384.51 364.00 384.00 364.00 384.00
C 360.60 389.44 359.17 398.43 350.00 398.00 C 340.83 397.57 335.99 395.35 329.75 390.25 C 323.51 385.15 318.17 382.94 311.02 380.98 C 303.87 379.02 296.31 378.02 290.75 373.25 C 285.18 368.49 280.33 365.88 275.00 361.00
C 278.69 365.54 282.24 370.42 287.00 374.00 Z"/>
</g>
<g fill="#DEDAD1" fill-opacity="1.00" stroke="None">
<path d="
M 364.00 384.00 
C 364.00 384.00 363.95 384.51 364.00 385.00
C 365.12 374.40 354.33 369.00 344.00 369.00
C 351.50 370.07 361.19 376.20 364.00 384.00 Z"/>
</g>
<g fill="#D8D4CB" fill-opacity="1.00" stroke="None">
<path d="
M 326.00 391.00 
C 317.22 385.51 310.33 382.44 300.00 380.00
C 308.34 383.72 317.36 387.27 326.00 391.00 Z"/>
</g>
<g fill="#DBD6CD" fill-opacity="1.00" stroke="None">
<path d="
M 311.00 495.00 
C 308.07 489.51 303.78 481.95 299.08 475.92 C 294.38 469.89 292.43 460.30 287.70 454.31 C 282.96 448.31 281.96 433.27 284.98 427.98 C 287.99 422.68 294.37 407.88 299.00 411.00
C 297.78 409.66 297.12 406.79 295.00 407.00
C 286.21 421.10 275.89 437.93 285.08 453.92 C 294.26 469.92 299.76 480.90 311.00 495.00 Z"/>
</g>
<g fill="#F7E4C2" fill-opacity="1.00" stroke="None">
<path d="
M 311.00 495.00 
C 315.78 501.00 319.52 509.25 326.00 514.00
C 330.75 516.00 336.40 504.27 340.75 500.75 C 345.10 497.24 350.54 488.76 355.75 484.75 C 360.97 480.74 365.00 472.49 371.00 469.00
C 370.70 467.75 369.17 467.29 369.00 466.00
C 366.83 464.92 364.27 464.67 362.00 464.00
C 339.02 457.22 313.29 434.85 301.00 414.00
C 300.31 413.12 299.68 411.96 299.00 411.00
C 294.37 407.88 287.99 422.68 284.98 427.98 C 281.96 433.27 282.96 448.31 287.70 454.31 C 292.43 460.30 294.38 469.89 299.08 475.92 C 303.78 481.95 308.07 489.51 311.00 495.00 Z"/>
</g>
<g fill="#DCD9D1" fill-opacity="1.00" stroke="None">
<path d="
M 362.00 464.00 
C 348.13 457.80 335.17 447.61 323.00 438.00
C 317.98 434.04 312.92 428.97 309.00 424.00
C 306.39 420.70 303.52 417.25 301.00 414.00
C 313.29 434.85 339.02 457.22 362.00 464.00 Z"/>
</g>
<g fill="#ABA9A4" fill-opacity="1.00" stroke="None">
<path d="
M 323.00 438.00 
C 318.45 433.79 313.25 428.60 309.00 424.00
C 312.92 428.97 317.98 434.04 323.00 438.00 Z"/>
</g>
<g fill="#DFDBD1" fill-opacity="1.00" stroke="None">
<path d="
M 416.00 444.00 
C 415.55 444.89 412.66 457.53 418.25 460.75 C 423.84 463.97 428.92 456.68 432.30 452.30 C 435.69 447.93 436.44 438.83 441.00 436.00
C 448.10 459.51 441.44 484.54 432.00 506.00
C 417.89 492.07 402.08 478.23 390.00 463.00
C 399.25 461.74 405.26 452.55 412.00 447.00
C 403.75 452.57 393.46 457.73 388.00 466.00
C 391.48 469.22 395.30 472.08 399.00 475.00
C 404.79 479.57 410.26 485.45 415.00 491.00
C 420.58 497.01 425.33 503.91 432.00 509.00
C 444.11 486.46 449.35 458.38 442.00 433.00
C 431.63 438.98 437.65 447.34 427.75 455.75 C 417.85 464.16 414.28 446.84 422.00 439.00
C 419.87 440.34 417.90 442.56 416.00 444.00 Z"/>
</g>
<g fill="#F7E4C1" fill-opacity="1.00" stroke="None">
<path d="
M 416.00 444.00 
C 414.70 444.98 413.13 445.97 412.00 447.00
C 405.26 452.55 399.25 461.74 390.00 463.00
C 402.08 478.23 417.89 492.07 432.00 506.00
C 441.44 484.54 448.10 459.51 441.00 436.00
C 436.44 438.83 435.69 447.93 432.30 452.30 C 428.92 456.68 423.84 463.97 418.25 460.75 C 412.66 457.53 415.55 444.89 416.00 444.00 Z"/>
</g>
<g fill="#F7E5C2" fill-opacity="1.00" stroke="None">
<path d="
M 267.00 450.00 
C 252.54 453.78 236.44 465.39 222.92 471.92 C 209.40 478.44 195.31 488.92 185.25 500.25 C 175.19 511.58 163.03 528.11 162.00 543.00
C 161.60 548.76 167.80 551.40 172.00 554.00
C 198.51 564.92 221.75 577.85 252.01 582.99 C 282.27 588.13 317.48 594.83 349.00 597.00
C 350.75 580.85 353.96 563.40 358.00 548.00 C 362.04 532.60 369.66 518.85 357.00 505.00
C 348.30 511.15 333.69 537.52 320.92 528.08 C 308.16 518.63 302.22 505.22 292.75 493.25 C 283.27 481.29 277.21 464.76 271.00 451.00
C 268.63 449.26 269.89 449.81 267.00 450.00 Z"/>
</g>
<g fill="#E0DCD2" fill-opacity="1.00" stroke="None">
<path d="
M 162.00 539.00 
C 161.92 540.15 162.39 541.93 162.00 543.00
C 163.03 528.11 175.19 511.58 185.25 500.25 C 195.31 488.92 209.40 478.44 222.92 471.92 C 236.44 465.39 252.54 453.78 267.00 450.00
C 251.56 451.04 236.12 464.33 222.69 470.69 C 209.27 477.06 195.11 486.97 185.25 498.25 C 175.39 509.53 163.06 523.94 162.00 539.00 Z"/>
</g>
<g fill="#E1DCD2" fill-opacity="1.00" stroke="None">
<path d="
M 172.00 554.00 
C 224.53 587.96 289.03 590.98 350.00 599.00
C 352.95 571.83 361.39 546.14 368.00 520.00
C 361.45 517.72 362.50 506.00 358.00 503.00
C 351.71 508.25 346.18 514.72 340.00 520.00
C 331.38 527.37 323.75 529.77 316.25 520.75 C 308.74 511.74 306.26 507.44 299.25 499.75 C 292.24 492.06 290.45 483.14 284.25 475.75 C 278.05 468.35 278.42 456.42 271.00 451.00
C 277.21 464.76 283.27 481.29 292.75 493.25 C 302.22 505.22 308.16 518.63 320.92 528.08 C 333.69 537.52 348.30 511.15 357.00 505.00
C 369.66 518.85 362.04 532.60 358.00 548.00 C 353.96 563.40 350.75 580.85 349.00 597.00
C 317.48 594.83 282.27 588.13 252.01 582.99 C 221.75 577.85 198.51 564.92 172.00 554.00 Z"/>
</g>
<g fill="#DEDBD1" fill-opacity="1.00" stroke="None">
<path d="
M 458.00 457.00 
C 458.11 459.88 458.28 464.10 458.00 467.00
C 458.00 483.14 450.97 495.48 446.00 510.00
C 455.36 493.20 461.99 474.65 460.00 454.00
C 472.20 460.32 489.05 466.35 500.23 473.77 C 511.41 481.19 525.54 490.09 532.25 501.75 C 538.96 513.41 553.16 529.34 549.22 543.22 C 545.28 557.10 526.96 561.77 514.92 568.92 C 502.89 576.07 485.51 580.99 470.78 584.78 C 456.04 588.57 434.65 591.56 419.00 594.00
C 420.41 562.90 394.42 534.21 406.00 504.00
C 414.72 510.85 421.23 520.97 431.00 526.00
C 422.97 517.29 412.77 509.74 406.00 500.00
C 400.16 508.34 398.99 518.90 401.07 528.93 C 403.16 538.95 408.10 544.69 409.68 555.32 C 411.25 565.95 416.42 571.55 416.01 583.99 C 415.59 596.44 427.67 595.52 438.00 593.00 C 448.33 590.48 457.80 590.21 467.33 587.33 C 476.86 584.45 486.06 583.54 494.78 579.78 C 503.50 576.01 511.09 573.47 519.30 569.30 C 527.52 565.13 532.88 560.22 541.25 556.25 C 549.62 552.29 554.30 541.49 550.93 533.07 C 547.55 524.65 543.64 517.25 539.31 509.70 C 534.97 502.14 530.74 495.68 524.25 489.75 C 517.76 483.83 511.83 479.14 504.70 474.30 C 497.56 469.46 489.50 465.93 481.75 462.25 C 473.99 458.58 466.40 453.12 458.00 451.00
C 457.91 452.99 458.12 455.01 458.00 457.00 Z"/>
</g>
<g fill="#F7E5C2" fill-opacity="1.00" stroke="None">
<path d="
M 446.00 510.00 
C 443.86 516.27 438.96 528.36 431.00 526.00
C 421.23 520.97 414.72 510.85 406.00 504.00
C 394.42 534.21 420.41 562.90 419.00 594.00
C 434.65 591.56 456.04 588.57 470.78 584.78 C 485.51 580.99 502.89 576.07 514.92 568.92 C 526.96 561.77 545.28 557.10 549.22 543.22 C 553.16 529.34 538.96 513.41 532.25 501.75 C 525.54 490.09 511.41 481.19 500.23 473.77 C 489.05 466.35 472.20 460.32 460.00 454.00
C 461.99 474.65 455.36 493.20 446.00 510.00 Z"/>
</g>
<g fill="#7C7B78" fill-opacity="1.00" stroke="None">
<path d="
M 458.00 467.00 
C 458.28 464.10 458.11 459.88 458.00 457.00
C 457.80 460.31 458.00 463.69 458.00 467.00 Z"/>
</g>
<g fill="#E2DED5" fill-opacity="1.00" stroke="None">
<path d="
M 326.00 514.00 
C 330.95 515.59 337.18 505.91 342.25 501.25 C 347.32 496.59 352.61 489.82 357.75 484.75 C 362.89 479.69 367.67 473.14 373.00 468.00
C 371.62 467.37 370.36 466.68 369.00 466.00
C 369.17 467.29 370.70 467.75 371.00 469.00
C 365.00 472.49 360.97 480.74 355.75 484.75 C 350.54 488.76 345.10 497.24 340.75 500.75 C 336.40 504.27 330.75 516.00 326.00 514.00 Z"/>
</g>
<g fill="#69635A" fill-opacity="1.00" stroke="None">
<path d="
M 415.00 491.00 
C 410.26 485.45 404.79 479.57 399.00 475.00
C 404.32 479.92 409.81 485.81 415.00 491.00 Z"/>
</g>
<g fill="#6D6C69" fill-opacity="1.00" stroke="None">
<path d="
M 340.00 520.00 
C 346.18 514.72 351.71 508.25 358.00 503.00
C 355.86 501.58 351.39 508.93 348.75 510.75 C 346.12 512.58 342.37 517.63 340.00 520.00 Z"/>
</g>
<g fill="#37393A" fill-opacity="1.00" stroke="None">
<path d="
M 162.00 543.00 
C 162.39 541.93 161.92 540.15 162.00 539.00
C 159.04 537.04 159.16 543.01 159.00 545.00
C 158.48 543.72 162.45 541.76 162.00 543.00 Z"/>
</g>
</svg>