<svg xmlns="http://www.w3.org/2000/svg" fill="none" viewBox="-0.75 -0.75 300 300" id="Listening-Feedback--Streamline-Bangalore" height="300" width="300">
  <desc>
    Listening Feedback Streamline Illustration: https://streamlinehq.com
  </desc>
  <g id="Customer-service-Support-Listening-to-feedback">
    <g id="color 2">
      <path id="Vector" fill="#1b2194" d="m223.24815 134.901105 -29.830597499999996 29.181359999999998c-7.7714475 -23.2546425 -16.647344999999998 -29.6335875 -20.560679999999998 -31.3648875 -3.9387074999999996 2.9939549999999997 -23.356132499999998 7.2490725 -33.375285 8.537099999999999l-22.345709999999997 44.037704999999995c-1.174896 2.3283 -1.8408495 4.880475 -1.9532347499999998 7.48638 -0.11253449999999998 2.6073975000000003 0.33103649999999996 5.2073325 1.30101225 7.628167499999999 7.02669 17.0159925 15.5981175 33.3528975 25.6068225 48.804750000000006 12.2489475 -1.7014499999999997 22.599435 -6.6923699999999995 28.724655 -17.3264325 -10.6907775 -14.887687499999998 -19.6517475 -29.009722500000002 -25.888904999999998 -41.855669999999996l10.0937775 -16.587645000000002 -0.42386999999999997 -16.2786975c6.1804425 12.7623675 16.957784999999998 25.691894999999995 25.321755 34.59615 2.6312775 2.7894825 6.21477 4.486454999999999 10.0400475 4.7536125 3.8237849999999995 0.26865 7.6102575 -0.9119174999999999 10.604212500000001 -3.30738 14.547397499999999 -11.598217499999999 28.47093 -23.70687 42.30938999999999 -35.82 -1.131315 -5.089425 -3.5208074999999996 -9.813486 -6.9475875 -13.741298249999998 -3.4282725000000003 -3.9278122499999997 -7.786372499999999 -6.933707249999999 -12.6758025 -8.74321425Z" stroke-width="1.5"></path>
      <path id="Subtract" fill="#1b2194" fill-rule="evenodd" d="m100.23794175 56.0687475 -11.2847925 -4.462575c-2.873958 1.9063702500000002 -6.075370499999999 3.26544075 -9.443047499999999 4.008855 -16.4757075 3.686475 -32.9439525 -7.4819024999999995 -33.0932025 -23.451652499999998 -0.1328325 -13.49817 11.7355275 -24.551639924999996 26.538142499999996 -24.700889925 14.774257499999997 -0.140295 26.872462499999997 10.663927424999999 27.0276825 24.197917425 0.039252749999999996 4.725553499999999 -1.3983232499999998 9.345438 -4.1118375 13.214594999999997l4.367055 11.19375ZM77.66417775 26.727391500000003c0.39163200000000004 0.16238399999999997 0.74759325 0.4002885 1.047138 0.7002809999999999 0.2999925 0.299694 0.53804625 0.6555059999999999 0.7002809999999999 1.04728725 0.16238399999999997 0.39163200000000004 0.245964 0.8114722499999999 0.245964 1.2354915s-0.08358 0.8438595 -0.245964 1.2354915c-0.16223475 0.39178125 -0.4002885 0.74759325 -0.7002809999999999 1.04728725l-5.387924999999999 5.3595675 -5.387924999999999 -5.3595675c-0.605358 -0.6055072499999999 -0.9454987499999999 -1.4265314999999998 -0.9454987499999999 -2.28277875 0 -0.8562472499999999 0.34014075 -1.6774207499999998 0.9454987499999999 -2.28277875 0.6055072499999999 -0.605358 1.4266807499999998 -0.9454987499999999 2.28277875 -0.9454987499999999 0.8562472499999999 0 1.6774207499999998 0.34014075 2.28277875 0.9454987499999999l0.8223675 0.8223675 0.8223675 -0.8223675c0.299694 -0.2999925 0.65565525 -0.537897 1.04728725 -0.7002809999999999 0.39163200000000004 -0.16238399999999997 0.8114722499999999 -0.245964 1.2354915 -0.245964s0.8438595 0.08358 1.23564075 0.245964Z" clip-rule="evenodd" stroke-width="1.5"></path>
      <path id="Vector_2" fill="#1b2194" d="m37.6214475 132.15192 1.24773 2.5238175 2.779035 0.397005 -2.0133825 1.9566674999999998 0.4820775 2.7775425 -2.49546 -1.3044449999999999 -2.4671024999999998 1.3044449999999999 0.45371999999999996 -2.7775425 -1.985025 -1.9566674999999998 2.779035 -0.397005 1.2193725 -2.5238175Z" stroke-width="1.5"></path>
      <path id="Vector_3" fill="#1b2194" d="m48.454012500000005 132.15192 1.24773 2.5238175 2.779035 0.397005 -2.0133825 1.9566674999999998 0.4820775 2.7775425 -2.49546 -1.3044449999999999 -2.4671024999999998 1.3044449999999999 0.45371999999999996 -2.7775425 -2.0133825 -1.9566674999999998 2.779035 -0.397005 1.24773 -2.5238175Z" stroke-width="1.5"></path>
      <path id="Vector_4" fill="#1b2194" d="m59.28642825 132.15192 1.24773 2.5238175 2.779035 0.397005 -2.0133825 1.9566674999999998 0.4820775 2.7775425 -2.49546 -1.3044449999999999 -2.49546 1.3044449999999999 0.4820775 -2.7775425 -2.0133825 -1.9566674999999998 2.779035 -0.397005 1.24773 -2.5238175Z" stroke-width="1.5"></path>
      <path id="Vector_5" fill="#1b2194" d="m70.1191425 132.15192 1.24773 2.5238175 2.779035 0.397005 -2.0133825 1.9566674999999998 0.45371999999999996 2.7775425 -2.4671024999999998 -1.3044449999999999 -2.49546 1.3044449999999999 0.4820775 -2.7775425 -2.0133825 -1.9566674999999998 2.779035 -0.397005 1.24773 -2.5238175Z" stroke-width="1.5"></path>
      <path id="Vector_6" fill="#1b2194" d="m80.9517075 132.15192 1.2193725 2.5238175 2.779035 0.397005 -2.0133825 1.9566674999999998 0.4820775 2.7775425 -2.4671024999999998 -1.3044449999999999 -2.49546 1.3044449999999999 0.4820775 -2.7775425 -2.0133825 -1.9566674999999998 2.779035 -0.397005 1.24773 -2.5238175Z" stroke-width="1.5"></path>
      <path id="Vector_7" fill="#1b2194" d="m252.116085 237.782115 -10.435559999999999 -1.5029474999999999 -4.65063 -9.443047499999999 -4.65063 9.443047499999999 -10.435559999999999 1.5029474999999999 7.543095 7.37295 -1.7865225 10.378844999999998 9.3296175 -4.905847499999999 9.3296175 4.905847499999999 -1.7865225 -10.378844999999998 7.543095 -7.37295Z" stroke-width="1.5"></path>
    </g>
    <g id="color 1">
      <path id="Vector_8" fill="#00dcb7" d="M143.139705 75.380205c0.13417574999999998 0.653118 0.20074125 1.31832525 0.1985025 1.985025l1.55817 -3.0058949999999998c-0.55535925 0.389841 -1.1429565 0.73147425 -1.7566725 1.02087Z" stroke-width="1.5"></path>
      <path id="Vector_9" fill="#00dcb7" d="M139.08473174999997 139.26816c-0.7656525 3.7999049999999994 -2.8641075 2.3536725 -4.4521275 -1.6730924999999999 1.44787425 0.6492375 2.934852 1.2080294999999999 4.4521275 1.6730924999999999Z" stroke-width="1.5"></path>
      <path id="Vector_10" fill="#00dcb7" d="M136.87284674999998 124.01481c-0.7001317499999999 0.174921 -1.428621 0.2044725 -2.14069275 0.087162 -0.7119224999999999 -0.1173105 -1.3925025 -0.379095 -1.9995022499999997 -0.7692344999999999 0.6522224999999999 -3.6342375 2.5238175 -2.91933 4.140195 0.6820725Z" stroke-width="1.5"></path>
      <path id="Vector_11" fill="#fcfcfc" d="m118.72389749999999 84.39789 -7.968308249999999 13.04445c-0.06701325 0.10149 -0.09089325 0.22551675000000002 -0.06671474999999999 0.34461824999999996 0.024327749999999995 0.11910149999999999 0.09477375 0.223875 0.19596524999999998 0.29118675 0.10134075 0.06731175 0.22506899999999996 0.09178874999999999 0.34431975 0.068058 0.11925074999999999 -0.02388 0.22432275 -0.09387825 0.29208225 -0.1949205l8.9893275 -12.3623775c0.0856695 -0.11701199999999999 0.14671275 -0.25029225 0.17954775 -0.39163200000000004 0.032834999999999996 -0.14133975000000001 0.0367155 -0.287754 0.011342999999999999 -0.43058624999999995 -0.0253725 -0.14298149999999998 -0.07925175 -0.2790975 -0.15865275 -0.400587 -0.079401 -0.1214895 -0.18268199999999998 -0.22551675000000002 -0.30342525 -0.30596249999999997 -0.12059399999999999 -0.080595 -0.2564115 -0.13566825 -0.3990945 -0.16238399999999997 -0.14253375 -0.0265665 -0.28909725000000003 -0.02402925 -0.4307355 0.0076117500000000005 -0.14163825 0.03149175 -0.27536625 0.09149025 -0.39312450000000004 0.176115 -0.1179075 0.08462475 -0.217308 0.192234 -0.29253 0.31640999999999997Z" stroke-width="1.5"></path>
      <path id="Vector_12" fill="#00dcb7" d="M139.33994925 72.5160975c0.01208925 0.37178174999999997 0.16820475 0.7243102499999999 0.43536225 0.9831097499999999 0.26730675 0.25879949999999996 0.6247605 0.40342274999999994 0.9966914999999998 0.40342274999999994 0.37208025 0 0.72938475 -0.14462324999999998 0.9966914999999998 -0.40342274999999994 0.26730675 -0.25879949999999996 0.42342225 -0.611328 0.43536225 -0.9831097499999999 -0.01194 -0.37178174999999997 -0.1680555 -0.7243102499999999 -0.43536225 -0.9831097499999999 -0.26730675 -0.25879949999999996 -0.62461125 -0.40342274999999994 -0.9966914999999998 -0.40342274999999994 -0.371931 0 -0.72938475 0.14462324999999998 -0.9966914999999998 0.40342274999999994 -0.2671575 0.25879949999999996 -0.423273 0.611328 -0.43536225 0.9831097499999999Z" stroke-width="1.5"></path>
      <path id="Vector_13" fill="#00dcb7" d="m159.52884749999998 165.98092499999998 -4.5371999999999995 7.429664999999999 -0.4253624999999999 -16.277205c1.501455 3.03276 3.1566375 5.9864175 4.9625625 8.84754Z" stroke-width="1.5"></path>
      <path id="Vector_14" fill="#00dcb7" d="m228.3525 132.09371249999998 -3.17604 3.6312524999999996c5.959552499999999 2.6169495 10.9206225 7.0801215 14.150392499999999 12.731024999999999 2.1656175 -1.5541402499999997 4.5834675 -2.72426025 7.14609 -3.459615 8.540085 -3.35290125 16.6577925 -7.6926435 24.1889475 -12.931019999999998 -8.28039 -2.749185 -33.7737825 -0.7089374999999999 -42.30938999999999 0.028357499999999997Z" stroke-width="1.5"></path>
      <path id="Vector_15" fill="#00dcb7" d="M163.3018875 240.78800999999999c-5.0968875 3.967065 -11.083305 6.6341625 -17.441354999999998 7.769955l1.0223625 1.6163774999999998c1.8432375 2.8641075 2.0700975 6.0117899999999995 2.35218 9.41469 1.0492275 9.117682499999999 3.15216 18.083129999999997 6.2685 26.715749999999996 4.820774999999999 -7.31325 9.3863325 -32.469337499999995 10.8609225 -40.919872500000004l-3.06261 -4.5969Z" stroke-width="1.5"></path>
      <path id="Vector_16" fill="#00dcb7" d="M164.17499999999998 49.518164999999996c0 -6.0117899999999995 -4.1954175 -13.668314999999998 -10.235565 -13.668314999999998 -6.0132825 0 -11.229569999999999 5.841645 -11.9683575 11.7116475 -0.18984600000000001 1.5292154999999998 0.038655749999999996 3.0812662499999997 0.6611775 4.4909324999999995 -1.792791 0.1925325 -3.4760325 0.9574387499999999 -4.8001785 2.1812887499999998 -1.3242952499999998 1.22399925 -2.2190489999999996 2.84186925 -2.5518764999999997 4.61406375l0.7358024999999999 -0.028357499999999997c-0.2086515 2.00592 -0.3053655 4.021989 -0.289545 6.038655 1.2163875 -10.820625 7.420710000000001 -6.7416225 9.335587499999999 -2.522325 0.44775 -2.211885 1.58802 -3.7715475 2.9223149999999998 -3.7715475h3.9969149999999996c0.43282499999999996 0.015969749999999998 0.8492325 0.1644735 1.194 0.4253624999999999 -0.0402975 -0.1865625 -0.08358 -0.36417 -0.128355 -0.540285 5.9655225 -0.059699999999999996 11.12808 -2.9805225 11.12808 -8.93112Z" stroke-width="1.5"></path>
    </g>
    <g id="outlines">
      <path id="Vector_17" stroke="#fcfcfc" stroke-linejoin="round" d="M164.17499999999998 49.518164999999996c0 -6.0117899999999995 -4.1954175 -13.668314999999998 -10.235565 -13.668314999999998 -6.0132825 0 -11.229569999999999 5.841645 -11.9683575 11.7116475 -0.18984600000000001 1.5292154999999998 0.038655749999999996 3.0812662499999997 0.6611775 4.4909324999999995 -1.792791 0.1925325 -3.4760325 0.9574387499999999 -4.8001785 2.1812887499999998 -1.3242952499999998 1.22399925 -2.2190489999999996 2.84186925 -2.5518764999999997 4.61406375l0.7358024999999999 -0.028357499999999997c-0.2086515 2.00592 -0.3053655 4.021989 -0.289545 6.038655 1.2163875 -10.820625 7.420710000000001 -6.7416225 9.335587499999999 -2.522325 0.44775 -2.211885 1.58802 -3.7715475 2.9223149999999998 -3.7715475h3.9969149999999996c0.43282499999999996 0.015969749999999998 0.8492325 0.1644735 1.194 0.4253624999999999 -0.0402975 -0.1865625 -0.08358 -0.36417 -0.128355 -0.540285 5.9655225 -0.059699999999999996 11.12808 -2.9805225 11.12808 -8.93112Z" stroke-width="1.5"></path>
      <path id="Vector_18" stroke="#fcfcfc" stroke-linecap="round" stroke-linejoin="round" d="M136.333905 239.90892749999998c-19.066986 -2.7178424999999997 -36.72818625 -11.578814999999999 -50.306205000000006 -25.238175" stroke-width="1.5"></path>
      <path id="Vector_19" stroke="#fcfcfc" stroke-linecap="round" stroke-linejoin="round" d="M237.02989499999998 162.464595c-2.241735 18.84132 -10.4579475 36.470729999999996 -23.44419 50.304712499999994 -12.987734999999999 13.8339825 -30.061935 23.14569 -48.725647499999994 26.572469999999996" stroke-width="1.5"></path>
      <path id="Vector_20" stroke="#fcfcfc" stroke-linecap="round" stroke-linejoin="round" d="M227.8704225 111.50766c2.671575 5.18987025 4.8192825 10.63361475 6.408794999999999 16.250339999999998" stroke-width="1.5"></path>
      <path id="Vector_21" stroke="#fcfcfc" stroke-linecap="round" stroke-linejoin="round" d="M62.547689999999996 176.81349V147.6336225h23.02629c1.06877925 0 2.093679 -0.42461625 2.849481 -1.1802689999999998 0.7556527499999999 -0.7558019999999999 1.1802689999999998 -1.78070175 1.1802689999999998 -2.849481V128.3236575c0 -0.52849425 -0.10432575 -1.0516155 -0.30700724999999995 -1.539663 -0.20283074999999998 -0.48789825000000003 -0.49983824999999993 -0.9311707499999999 -0.8743065 -1.3039972499999999 -0.374319 -0.37282649999999995 -0.8187854999999999 -0.6681922499999999 -1.3075792499999999 -0.8689335 -0.48879375 -0.20074125 -1.01236275 -0.30282824999999997 -1.540857 -0.30073875H32.999175c-0.530136 0.00044774999999999996 -1.05504825 0.10537049999999999 -1.5445882499999999 0.30909675 -0.48954 0.20357699999999998 -0.93415575 0.5017785 -1.3081762499999998 0.8775899999999999 -0.37416974999999997 0.37566225 -0.670431 0.821472 -0.8717692499999999 1.3119075 -0.2014875 0.49058474999999996 -0.3041715 1.0159447499999998 -0.30223125 1.54608075v15.251857499999998c0 1.06877925 0.42461625 2.093679 1.1802689999999998 2.849481 0.7558019999999999 0.7556527499999999 1.78070175 1.1802689999999998 2.849481 1.1802689999999998h23.023305V179.24925" stroke-width="1.5"></path>
      <path id="Vector_22" stroke="#fcfcfc" stroke-linecap="round" stroke-linejoin="round" d="M62.547839249999996 194.622v-6.862514999999999" stroke-width="1.5"></path>
      <path id="Vector_23" stroke="#fcfcfc" stroke-linecap="round" stroke-linejoin="round" d="M56.02561425 198.09654v16.630927500000002h6.522225v-18.71595" stroke-width="1.5"></path>
      <path id="Vector_24" stroke="#fcfcfc" stroke-linecap="round" stroke-linejoin="round" d="M62.547839249999996 161.63774999999998h22.57257c2.5870995 0 5.06838075 1.0283324999999999 6.8977379999999995 2.856645 1.82935725 1.829805 2.857242 4.3118324999999995 2.857242 6.898334999999999v33.5469225c0.00074625 2.5894875 -1.026243 5.071515 -2.855451 6.904305 -1.829208 1.8312975 -4.31078775 2.862615 -6.899528999999999 2.8655999999999997h-51.667365000000004c-1.28041575 0.0014925 -2.548593 -0.2492475 -3.7318469999999997 -0.7387874999999999 -1.18340325 -0.4880475 -2.2587495 -1.20594 -3.1648462499999996 -2.1103949999999996 -0.9059474999999999 -0.9044549999999999 -1.6247354999999999 -1.979055 -2.115171 -3.1611149999999997 -0.49043549999999997 -1.1835525 -0.7429665 -2.4506849999999996 -0.74311575 -3.7312499999999997v-33.58125c0 -2.5865025 1.0277355 -5.06853 2.8570927499999996 -6.898334999999999 1.82935725 -1.8283125 4.3106385 -2.856645 6.897887249999999 -2.856645H56.02546499999999" stroke-width="1.5"></path>
      <path id="Vector_25" stroke="#fcfcfc" stroke-linecap="round" stroke-linejoin="round" d="M59.456722500000005 192.98025c3.3730499999999997 -0.265665 3.459615 -4.3715325 0.1985025 -4.338697499999999 -2.438745 0.0253725 -4.140195 0.1149225 -6.068504999999999 0.1985025 -3.2327549999999996 0.14925 -3.202905 4.4521275 -0.5387925 4.5655575 2.14218525 -0.0313425 4.28123625 -0.1746225 6.408794999999999 -0.4253624999999999v0Z" stroke-width="1.5"></path>
      <path id="Vector_26" stroke="#fcfcfc" stroke-linecap="round" stroke-linejoin="round" d="M56.94200924999999 179.28059249999998c-1.167135 -0.028357499999999997 -2.0372624999999998 -0.028357499999999997 -3.13425 -0.028357499999999997 -3.0909675 -0.028357499999999997 -3.2043974999999993 4.2819825 -0.6522224999999999 4.5371999999999995 1.28459475 0.0850725 2.5735177499999997 0.0850725 3.8581125 0" stroke-width="1.5"></path>
      <path id="Vector_27" stroke="#fcfcfc" stroke-linecap="round" stroke-linejoin="round" d="M60.22252424999999 197.607c3.25962 -0.35521499999999995 3.2611125 -4.31034 0.11342999999999999 -4.19691 -2.3536725 0.0850725 -3.9984074999999994 0.229845 -5.870002499999999 0.36864749999999996 -3.1193249999999995 0.2313375 -3.0058949999999998 4.3864575 -0.4253624999999999 4.42377 2.06964975 -0.08954999999999999 4.13318025 -0.2880525 6.181935 -0.5955075v0Z" stroke-width="1.5"></path>
      <path id="Vector_28" stroke="#fcfcfc" stroke-linecap="round" stroke-linejoin="round" d="M57.02409674999999 183.876c-1.226835 0.029849999999999998 -2.2909875 0.14178749999999998 -3.4939425 0.1686525 -3.2835 0.0850725 -3.3446925 4.4580975 -0.623865 4.62675 1.64175 0.0999975 3.3745425 -0.11342999999999999 6.522225 -0.28357499999999997 0.469839 0.013432499999999998 0.9313199999999999 -0.12686250000000002 1.3148925 -0.3984975 0.38372175 -0.27163499999999996 0.6689385 -0.659685 0.8126662499999999 -1.107435 0.143877 -0.44775 0.13865324999999998 -0.9298274999999999 -0.014924999999999999 -1.3745925 -0.15357825 -0.44327249999999996 -0.44700375 -0.826845 -0.8365462499999999 -1.0895249999999999" stroke-width="1.5"></path>
      <path id="Vector_29" stroke="#fcfcfc" stroke-linecap="round" stroke-linejoin="round" d="M94.87538925 182.03126999999998c-1.6163774999999998 0.1985025 -17.411654249999998 0.597 -25.805474249999996 0.4820775 -1.8999524999999997 -0.026864999999999997 -1.7357775 -3.0581324999999997 -2.23875 -3.8282624999999997 -1.34325 -2.0581575 -1.7581649999999998 -2.0462175 -5.784929999999999 -1.791 -4.7357024999999995 0.2985 -4.29974325 0.510435 -3.9415432499999996 8.62068 0.0880575 1.985025 3.5446874999999998 2.211885 4.19691 -4.08348 -0.5387925 4.8491325 1.6730924999999999 8.16696 4.9342049999999995 9.2161875" stroke-width="1.5"></path>
      <path id="Vector_30" stroke="#fcfcfc" stroke-linecap="round" stroke-linejoin="round" d="M94.87538925 198.98905499999998c-4.08348 -0.11342999999999999 -21.665129999999998 -0.22685999999999998 -32.32755 -0.4253624999999999" stroke-width="1.5"></path>
      <path id="Vector_31" stroke="#fcfcfc" stroke-linecap="round" stroke-linejoin="round" d="m37.62159675 132.15192 1.24773 2.5238175 2.779035 0.397005 -2.0133825 1.9566674999999998 0.4820775 2.7775425 -2.49546 -1.3044449999999999 -2.4671024999999998 1.3044449999999999 0.45371999999999996 -2.7775425 -1.985025 -1.9566674999999998 2.779035 -0.397005 1.2193725 -2.5238175Z" stroke-width="1.5"></path>
      <path id="Vector_32" stroke="#fcfcfc" stroke-linecap="round" stroke-linejoin="round" d="m48.45416175 132.15192 1.24773 2.5238175 2.779035 0.397005 -2.0133825 1.9566674999999998 0.4820775 2.7775425 -2.49546 -1.3044449999999999 -2.4671024999999998 1.3044449999999999 0.45371999999999996 -2.7775425 -2.0133825 -1.9566674999999998 2.779035 -0.397005 1.24773 -2.5238175Z" stroke-width="1.5"></path>
      <path id="Vector_33" stroke="#fcfcfc" stroke-linecap="round" stroke-linejoin="round" d="m59.28657749999999 132.15192 1.24773 2.5238175 2.779035 0.397005 -2.0133825 1.9566674999999998 0.4820775 2.7775425 -2.49546 -1.3044449999999999 -2.49546 1.3044449999999999 0.4820775 -2.7775425 -2.0133825 -1.9566674999999998 2.779035 -0.397005 1.24773 -2.5238175Z" stroke-width="1.5"></path>
      <path id="Vector_34" stroke="#fcfcfc" stroke-linecap="round" stroke-linejoin="round" d="m70.11929174999999 132.15192 1.24773 2.5238175 2.779035 0.397005 -2.0133825 1.9566674999999998 0.45371999999999996 2.7775425 -2.4671024999999998 -1.3044449999999999 -2.49546 1.3044449999999999 0.4820775 -2.7775425 -2.0133825 -1.9566674999999998 2.779035 -0.397005 1.24773 -2.5238175Z" stroke-width="1.5"></path>
      <path id="Vector_35" stroke="#fcfcfc" stroke-linecap="round" stroke-linejoin="round" d="m80.9517075 132.15192 1.2193725 2.5238175 2.779035 0.397005 -2.0133825 1.9566674999999998 0.4820775 2.7775425 -2.4671024999999998 -1.3044449999999999 -2.49546 1.3044449999999999 0.4820775 -2.7775425 -2.0133825 -1.9566674999999998 2.779035 -0.397005 1.24773 -2.5238175Z" stroke-width="1.5"></path>
      <path id="Vector_36" stroke="#fcfcfc" stroke-linecap="round" stroke-linejoin="round" d="M235.72545 97.5841275c-3.3745425 -0.1179075 -3.6581175 -4.19691 -0.397005 -4.31034 2.438745 -0.0850725 4.140195 -0.056714999999999995 6.096862499999999 -0.056714999999999995 3.2327549999999996 0 3.4014075 4.32825 0.7372949999999999 4.5371999999999995 -1.6163774999999998 0.12984749999999998 -3.3178274999999995 -0.0611925 -6.437152499999999 -0.170145Z" stroke-width="1.5"></path>
      <path id="Vector_37" stroke="#fcfcfc" stroke-linecap="round" stroke-linejoin="round" d="M236.00902499999998 101.97954c-3.25962 -0.35670749999999996 -3.2611125 -4.31034 -0.11342999999999999 -4.19691 2.3536725 0.0850725 2.6372475 0.059699999999999996 4.4775 0.1985025 3.1193249999999995 0.23282999999999998 3.0058949999999998 4.384965 0.4253624999999999 4.42377 -1.6044375 -0.02582025 -3.20589 -0.1680555 -4.7894325 -0.4253624999999999v0Z" stroke-width="1.5"></path>
      <path id="Vector_38" stroke="#fcfcfc" stroke-linecap="round" stroke-linejoin="round" d="M224.7510975 95.48567249999999c4.707345 0.597 8.0251725 -5.6147849999999995 6.040147499999999 -10.010197499999999 0 0 -0.22685999999999998 -3.7148324999999995 -1.02087 -9.3863325s-3.9133349999999996 -6.068504999999999 -3.8282624999999997 -4.707345c0.0850725 1.36116 -0.964155 8.874405 -2.098455 11.0877825 -1.2193725 2.3805375 -4.9342049999999995 2.4282974999999998 -6.91923 2.438745 -5.728215 0.028357499999999997 -24.160589999999996 -1.1059425 -24.160589999999996 -1.1059425" stroke-width="1.5"></path>
      <path id="Vector_39" stroke="#fcfcfc" stroke-linecap="round" stroke-linejoin="round" d="M192.9339825 103.68099c5.699857499999999 -0.170145 43.301902500000004 -0.8223675 47.470455 -1.24773" stroke-width="1.5"></path>
      <path id="Vector_40" stroke="#fcfcfc" stroke-linecap="round" stroke-linejoin="round" d="M236.0940975 88.6798725c-3.2611125 0.2790975 -4.02975 -3.5954324999999994 -0.9074399999999999 -4.08348 2.3268074999999997 -0.36417 3.97005 -0.5417774999999999 5.841645 -0.7656525 3.1193249999999995 -0.373125 3.7939349999999994 3.7103550000000003 1.24773 4.2536249999999995 -2.0492025 0.30432075 -4.1118375 0.50312175 -6.181935 0.5955075Z" stroke-width="1.5"></path>
      <path id="Vector_41" stroke="#fcfcfc" stroke-linecap="round" stroke-linejoin="round" d="M235.55530499999998 93.2170725c-3.2835 0.029849999999999998 -3.74319 -3.9118424999999997 -0.5671499999999999 -4.140195 2.3536725 -0.170145 5.820749999999999 -0.2790975 7.6848825 -0.34029 3.1193249999999995 -0.10447500000000001 3.489465 4.04169 0.9074399999999999 4.338697499999999 -1.55817 0.17909999999999998 -5.019277499999999 0.11342999999999999 -8.0251725 0.14178749999999998Z" stroke-width="1.5"></path>
      <path id="Vector_42" stroke="#fcfcfc" stroke-linecap="round" stroke-linejoin="round" d="M230.3091675 80.39948249999999c0.36864749999999996 4.338697499999999 0.5671499999999999 4.02975 10.719135 3.4327499999999995" stroke-width="1.5"></path>
      <path id="Vector_43" stroke="#fcfcfc" stroke-linecap="round" stroke-linejoin="round" d="M254.18618249999997 65.90879999999999c2.5865025 0 5.06853 1.0277355 6.898334999999999 2.857242 1.8283125 1.82935725 2.856645 4.31048925 2.856645 6.8977379999999995v26.060542499999997c0.0014925 2.588592 -1.02684 5.0716642499999995 -2.8551525 6.9034094999999995 -1.829805 1.83174525 -4.3118324999999995 2.8623165 -6.8998275 2.8650029999999997h-51.667365000000004c-1.280565 0.00194025 -2.54919 -0.24850125 -3.7342349999999995 -0.7368472500000001 -1.1835525 -0.48849524999999994 -2.259645 -1.2053429999999998 -3.1670849999999997 -2.109798 -0.9074399999999999 -0.9044549999999999 -1.626825 -1.9787565 -2.11935 -3.16156275 -0.492525 -1.1828062499999998 -0.74625 -2.4508342499999998 -0.7477425 -3.7318469999999997V75.66975000000001c-0.0014925 -1.2802665 0.2492475 -2.5482945 0.7372949999999999 -3.73169775 0.48954 -1.18340325 1.20594 -2.2587495 2.1103949999999996 -3.164697 0.9044549999999999 -0.9060967499999999 1.979055 -1.6248847499999999 3.1611149999999997 -2.11532025 1.1835525 -0.49043549999999997 2.4506849999999996 -0.74311575 3.7312499999999997 -0.743265l51.695722499999995 -0.00597Z" stroke-width="1.5"></path>
      <path id="Vector_44" stroke="#fcfcfc" stroke-linecap="round" stroke-linejoin="round" d="M143.139705 75.380205c0.617895 -0.28133625 1.20638775 -0.623268 1.7566725 -1.02087l-1.55817 3.0058949999999998" stroke-width="1.5"></path>
      <path id="Vector_45" stroke="#fcfcfc" stroke-linecap="round" stroke-linejoin="round" d="M148.38434999999998 70.1907825c0.129549 2.4259095 0.6964005 4.808387249999999 1.6730924999999999 7.032659999999999 0.9343049999999999 2.1889005 2.5059075 4.046466 4.5088425 5.33121 2.3506875 1.4223525 10.692269999999999 1.3029525 14.008604999999998 7.37295 3.0073875 5.4998625 6.378945 23.423295 7.91025 33.915569999999995 0.31044 2.1315885 -0.1238775 4.3046685 -1.22982 6.1532789999999995 -1.1059425 1.8487597499999997 -2.8148549999999997 3.2599185 -4.838685 3.995721 -10.581824999999998 3.7255784999999997 -21.554087999999997 6.236262 -32.70366 7.483395" stroke-width="1.5"></path>
      <path id="Vector_46" stroke="#fcfcfc" stroke-linecap="round" stroke-linejoin="round" d="M145.071 62.33575499999999c-1.955175 -4.31034 -8.07144 -8.99082 -9.0729075 2.72232 -0.309843 2.48874375 -0.19477125 5.01226275 0.34029 7.4624999999999995 1.2462374999999999 4.593915 4.707345 3.85662 6.805799999999999 2.8641075 0.13417574999999998 0.653118 0.200592 1.31832525 0.1985025 1.985025 0.09820649999999999 1.2568342499999998 -0.22850175 2.510385 -0.92788725 3.5593139999999996 -0.6993855 1.04907825 -1.7307029999999999 1.83279 -2.92873275 2.225616 -1.87458 0.6462525 -9.99975 1.3835475 -13.9802475 11.144497499999998 -1.3089225 3.202905 -2.098455 7.061017499999999 -3.573045 10.09527" stroke-width="1.5"></path>
      <path id="Vector_47" stroke="#fcfcfc" stroke-linecap="round" stroke-linejoin="round" d="m153.999135 105.6093 2.325315 11.7116475 -22.20243 3.6297599999999997" stroke-width="1.5"></path>
      <path id="Vector_48" stroke="#fcfcfc" stroke-linecap="round" stroke-linejoin="round" d="M136.8726975 124.01481c-1.2611625 0.26447099999999996 -2.5739655 0.11477325 -3.74319 -0.42685499999999993 -1.985025 -1.2760874999999998 -3.4327499999999995 -4.5118275 -4.99092 -8.790825 -2.23875 -6.1013399999999995 -2.5521749999999996 -3.5163299999999995 -2.8073924999999997 -1.194 -0.2313375 1.155195 0.50148 7.931145 -2.2969575 6.35208 -3.592746 -3.2909625 -7.495932 -6.22596375 -11.6549325 -8.763959999999999 -5.3133 -2.7596325 -5.641649999999999 -1.2507149999999998 -1.58802 2.4671024999999998 1.2456405 1.13564325 2.42904375 2.337852 3.5446874999999998 3.6014024999999994 1.35802575 1.5254842499999999 2.6176957499999998 3.1355932500000003 3.7715475 4.820774999999999 1.7163749999999998 2.75814 4.87749 7.966965 8.73411 10.605704999999999 4.085420249999999 2.8002285000000002 8.54307 5.014202999999999 13.242952499999998 6.5774475" stroke-width="1.5"></path>
      <path id="Vector_49" stroke="#fcfcfc" stroke-linecap="round" stroke-linejoin="round" d="M121.53143924999999 128.578875c-1.7014499999999997 -2.8924649999999996 -6.838634999999999 -5.895375 -9.29529 -8.134125 -1.6760774999999999 -1.52832 -4.8551025 -3.7312499999999997 -6.6923699999999995 -5.33121 -0.45521249999999996 -0.3955125 -0.28357499999999997 -1.4745899999999998 3.2043974999999993 0.056714999999999995 0.7746075 0.343275 3.4402125 1.531305 4.6386899999999995 2.1492" stroke-width="1.5"></path>
      <path id="Vector_50" stroke="#fcfcfc" stroke-linecap="round" stroke-linejoin="round" d="M112.03301999999998 120.262665c-0.6134175 -0.16716 -1.14027 -0.2985 -1.4193675 -0.361185 -3.686475 -0.9357975 -3.6879675 0.1716375 -3.17604 0.4820775 2.0656199999999996 1.2536999999999998 5.5923975 2.9387325 7.48638 4.1685525 2.7805275 1.60458675 5.418073499999999 3.4451377499999998 7.883385 5.501354999999999" stroke-width="1.5"></path>
      <path id="Vector_51" stroke="#fcfcfc" stroke-linecap="round" stroke-linejoin="round" d="M132.73698000000002 123.30438c0.528345 -2.8984349999999997 1.8432375 -2.9984325 3.17604 -1.0447499999999998 2.6268 3.8372175 4.4775 14.235465 2.8357499999999995 18.175665000000002 -0.9343049999999999 2.2491974999999997 -2.72232 0.7029675 -4.116315 -2.8357499999999995" stroke-width="1.5"></path>
      <path id="Vector_52" stroke="#fcfcfc" stroke-linecap="round" stroke-linejoin="round" d="m132.136995 136.405545 1.78667175 5.6132925 -26.032185 -7.1162399999999995 -14.34904425 -41.5437375 27.10977 7.004302499999999 4.622272499999999 14.519039999999999" stroke-width="1.5"></path>
      <path id="Vector_53" stroke="#fcfcfc" stroke-linecap="round" stroke-linejoin="round" d="m105.45258749999999 96.4498275 -1.4462324999999998 -5.2461375 4.1118375 0.9925125 0.9357975 5.189422499999999" stroke-width="1.5"></path>
      <path id="Vector_54" stroke="#fcfcfc" stroke-linecap="round" stroke-linejoin="round" d="M146.28753675 69.28334249999999c-1.19743275 1.144449 -2.60277075 2.0492025 -4.140195 2.665605" stroke-width="1.5"></path>
      <path id="Vector_55" stroke="#fcfcfc" stroke-linecap="round" stroke-linejoin="round" d="M130.71926925 101.49746249999998s-0.5626725 7.8669674999999994 2.6088899999999997 13.58175l3.06261 5.501354999999999" stroke-width="1.5"></path>
      <path id="Vector_56" stroke="#fcfcfc" stroke-linecap="round" stroke-linejoin="round" d="m139.43546924999998 141.2875125 -22.3278 43.9765125c-1.1763885 2.3283 -1.84308825 4.880475 -1.9554734999999999 7.48638 -0.11253449999999998 2.6073975000000003 0.33178274999999996 5.2073325 1.303251 7.628167499999999 7.01698875 17.02047 15.588864000000001 33.358867499999995 25.6068225 48.804750000000006 12.248798249999998 -1.7014499999999997 22.59928575 -6.6923699999999995 28.72450575 -17.3264325 -10.6907775 -14.887687499999998 -19.6517475 -29.009722500000002 -25.888755749999998 -41.855669999999996l14.626350749999999 -24.0188025c5.98194 9.20574 12.808635 17.835375 20.3890425 25.7769675 2.6312775 2.78799 6.21477 4.4849625 10.0400475 4.75212 3.8237849999999995 0.26865 7.6102575 -0.9119174999999999 10.604212500000001 -3.3058875 14.5414275 -11.60568 28.47093 -23.70687 42.30938999999999 -35.82 -1.125345 -5.0909175 -3.5118525000000003 -9.81781425 -6.9386325 -13.746372749999999 -3.4282725000000003 -3.9287077499999996 -7.787865 -6.9332595 -12.68028 -8.73813975l-29.866417499999997 29.158972499999997c-7.761 -23.235239999999997 -16.6398825 -29.6126925 -20.5532175 -31.342499999999998" stroke-width="1.5"></path>
      <path id="Vector_57" stroke="#fcfcfc" stroke-linecap="round" stroke-linejoin="round" d="m154.99164749999997 173.41058999999998 -0.397005 -16.277205c1.4805599999999999 3.0387299999999997 3.1267875000000003 5.9923874999999995 4.9342049999999995 8.84754" stroke-width="1.5"></path>
      <path id="Vector_58" stroke="#fcfcfc" stroke-linecap="round" stroke-linejoin="round" d="M228.3525 132.09371249999998c8.507249999999999 -0.7343099999999999 33.83199 -2.7626174999999997 42.23775 -0.0313425" stroke-width="1.5"></path>
      <path id="Vector_59" stroke="#fcfcfc" stroke-linecap="round" stroke-linejoin="round" d="m225.1481025 135.724965 6.664012499999999 -7.5714525c13.554885 -2.2969575 35.4752325 -2.779035 42.984 0.9357975 -8.226659999999999 6.0132825 -18.8055 12.525059999999998 -28.3291425 15.907065 -2.5626225 0.735504 -4.97898 1.9057732499999998 -7.14609 3.459615" stroke-width="1.5"></path>
      <path id="Vector_60" stroke="#fcfcfc" stroke-linecap="round" stroke-linejoin="round" d="m163.24368 240.75965249999996 6.040147499999999 8.9893275c-1.24773 13.696672499999998 -6.408794999999999 35.0215125 -11.94 41.28852 -4.128255 -10.062434999999999 -6.856545000000001 -20.64426 -8.110244999999999 -31.4484675 -0.2790975 -3.4028999999999994 -0.5089425 -6.5505825 -2.35218 -9.41469l-1.0447499999999998 -1.64175" stroke-width="1.5"></path>
      <path id="Vector_61" stroke="#fcfcfc" stroke-linecap="round" stroke-linejoin="round" d="M108.74205749999999 95.59910249999999s4.5371999999999995 -1.3044449999999999 8.2520325 3.8282624999999997" stroke-width="1.5"></path>
      <path id="Vector_62" stroke="#fcfcfc" stroke-linecap="round" stroke-linejoin="round" d="M135.05796675 84.48296249999999c-0.32133524999999996 0.2050695 -0.5683440000000001 0.50759925 -0.7049077499999999 0.86341125 -0.13656374999999998 0.35581199999999996 -0.1555185 0.74610075 -0.0540285 1.113405 0.10149 0.3674535 0.318201 0.69252 0.61804425 0.9277380000000001 0.2999925 0.23521799999999998 0.667446 0.3680505 1.048332 0.37894575 0.31626075 -0.0014925 0.626253 -0.08954999999999999 0.896097 -0.25447125 0.26999325 -0.16492125 0.48954 -0.400587 0.635208 -0.68132625 -1.02430275 -0.52819575 -1.8718934999999999 -1.3442947499999998 -2.438745 -2.3477025v0Z" stroke-width="1.5"></path>
      <path id="Vector_63" stroke="#fcfcfc" stroke-linecap="round" stroke-linejoin="round" d="M137.41149 87.54557249999999c-0.0013432499999999998 0.40596 0.1405935 0.7995322499999999 0.40073625 1.1111662500000001 0.26014275 0.31178325 0.62192475 0.521778 1.02161625 0.5931194999999999 0.3996915 0.0713415 0.8117707500000001 -0.000597 1.1637022499999998 -0.20312924999999998 0.35178224999999996 -0.20253224999999997 0.62102925 -0.5226735 0.7601302499999999 -0.9041564999999999 -1.0929577499999998 -0.37088625 -2.16308025 -0.8065469999999999 -3.2043974999999993 -1.3044449999999999 -0.10089299999999998 0.2217855 -0.14939924999999998 0.46386900000000003 -0.14178749999999998 0.707445Z" stroke-width="1.5"></path>
      <path id="Vector_64" stroke="#fcfcfc" stroke-linecap="round" stroke-linejoin="round" d="M140.67275175 88.6545c-0.001194 0.42745199999999994 0.15507075 0.8402774999999999 0.4389442499999999 1.1598217499999999 0.2838735 0.31954425000000003 0.6755055 0.5232705 1.0999725 0.57237375 0.42461625 0.049103249999999994 0.852516 -0.05984924999999999 1.201761 -0.30611175 0.34939424999999996 -0.24641174999999998 0.59565675 -0.6126712499999999 0.6920722499999999 -1.02907875 -1.1334045 -0.21939749999999997 -2.251287 -0.5131215 -3.3461849999999997 -0.8790824999999999 -0.05865525 0.15387674999999998 -0.08790825 0.31745475 -0.086565 0.4820775v0Z" stroke-width="1.5"></path>
      <path id="Vector_65" stroke="#fcfcfc" stroke-linecap="round" stroke-linejoin="round" d="M143.99057925 89.3037375c-0.016119 0.45357074999999997 0.14790674999999998 0.89505225 0.45625725 1.2281782499999998 0.30849974999999996 0.33297675 0.736101 0.5304344999999999 1.1895225 0.54909075 0.45357074999999997 0.0188055 0.896097 -0.142683 1.2308647499999998 -0.4492425 0.33476775 -0.30641025 0.53476275 -0.7328175 0.5561054999999999 -1.1862389999999998 -1.1429565 -0.056118 -2.279943 -0.19835324999999998 -3.4014075 -0.4253624999999999 0.0044775 0.0820875 -0.0313425 0.1985025 -0.0313425 0.28357499999999997Z" stroke-width="1.5"></path>
      <path id="Vector_66" stroke="#fcfcfc" stroke-linecap="round" stroke-linejoin="round" d="M147.45019424999998 89.44552499999999c-0.00014925 0.44640674999999996 0.1752195 0.8749035000000001 0.48819674999999996 1.19325375 0.31297725 0.318201 0.738489 0.50073375 1.1848957500000001 0.50819625 0.23268075000000002 0.002388 0.46252575 -0.04402875 0.67744575 -0.13626525 0.21342749999999996 -0.0922365 0.40446750000000004 -0.22835249999999999 0.5626725 -0.399393 0.15671249999999998 -0.17104049999999998 0.277605 -0.37327425 0.35223 -0.59356725 0.074625 -0.22044224999999998 0.10149 -0.45401850000000005 0.080595 -0.6856545 -1.11042 0.12268349999999999 -2.2294964999999998 0.16059299999999999 -3.3460357499999995 0.11342999999999999v0Z" stroke-width="1.5"></path>
      <path id="Vector_67" stroke="#fcfcfc" stroke-linecap="round" stroke-linejoin="round" d="M152.58126 90.74399999999999c0.26865 -0.0008954999999999999 0.5328225 -0.06387899999999999 0.773115 -0.18372675 0.2402925 -0.11999699999999999 0.4492425 -0.29387325 0.6119249999999999 -0.5078977499999999 0.16119 -0.21402449999999998 0.27163499999999996 -0.462675 0.32238 -0.72639975 0.0492525 -0.2635755 0.0373125 -0.53535975 -0.0343275 -0.79386075 -1.0954949999999999 0.3716325 -2.22681 0.6281932499999999 -3.3745425 0.7656525 0.0671625 0.4028257499999999 0.2761125 0.76878675 0.5865525 1.033407 0.3119325 0.26462025 0.7059525 0.410736 1.1148974999999999 0.4128255v0Z" stroke-width="1.5"></path>
      <path id="Vector_68" stroke="#fcfcfc" stroke-linecap="round" stroke-linejoin="round" d="M155.84237249999998 89.64402749999999c0.3029775 0.0002985 0.599985 -0.07865475 0.8611724999999999 -0.22924799999999998 0.26267999999999997 -0.150444 0.480585 -0.36730425 0.6328199999999999 -0.6284917499999999 0.15223499999999998 -0.26118749999999996 0.23282999999999998 -0.5578965 0.2343225 -0.860277 0.0014925 -0.30223125 -0.07611749999999999 -0.5996865 -0.22536749999999997 -0.8625157499999999 -0.98505 0.608343 -2.0298000000000003 1.1120617499999998 -3.1193249999999995 1.5029474999999999 0.13581749999999998 0.31715625 0.361185 0.588045 0.647745 0.7793835 0.28656 0.1913385 0.623865 0.29491799999999996 0.9686325 0.2982015v0Z" stroke-width="1.5"></path>
      <path id="Vector_69" stroke="#fcfcfc" stroke-linecap="round" stroke-linejoin="round" d="M159.443775 84.1993875c0.39999 0.12253425000000001 0.7417725 0.38327399999999995 0.9656475 0.7356532499999999 0.223875 0.35223 0.31491749999999996 0.7728165 0.25671 1.1862389999999998 -0.056714999999999995 0.41357175 -0.26118749999999996 0.792816 -0.57312 1.06967475 -0.31342499999999995 0.27685875 -0.7134149999999999 0.43327275 -1.131315 0.44118299999999994 -0.2940225 0.024327749999999995 -0.5895375 -0.01358175 -0.8686349999999999 -0.1113405 -0.2790975 -0.0976095 -0.5328225 -0.25297875000000003 -0.7477425 -0.4558095 0.946245 -0.74789175 1.6716000000000002 -1.7381655 2.098455 -2.8655999999999997Z" stroke-width="1.5"></path>
      <path id="Vector_70" stroke="#fcfcfc" stroke-linecap="round" stroke-linejoin="round" d="M212.04693749999998 40.16019v15.0011175" stroke-width="1.5"></path>
      <path id="Vector_71" stroke="#fcfcfc" stroke-linecap="round" stroke-linejoin="round" d="M219.561675 47.64657h-15.0011175" stroke-width="1.5"></path>
      <path id="Vector_72" stroke="#fcfcfc" stroke-linecap="round" stroke-linejoin="round" d="M150.029085 68.85798c2.0283075 3.11037 5.104349999999999 0.510435 5.104349999999999 -4.4775 0 -4.9625625 -3.095445 -7.584885 -5.104349999999999 -4.4775 -0.7372949999999999 1.37712975 -1.1232555 2.91530025 -1.1232555 4.4775s0.3859605 3.100221 1.1232555 4.4775v0Z" stroke-width="1.5"></path>
      <path id="Vector_73" stroke="#fcfcfc" stroke-linecap="round" stroke-linejoin="round" d="M152.01411 58.535849999999996h-3.9969149999999996c-1.7357775 0 -3.1238025 2.623815 -3.1193249999999995 5.841645 0.0044775 3.21783 1.3895175 5.820749999999999 3.1193249999999995 5.820749999999999h3.7446824999999997" stroke-width="1.5"></path>
      <path id="Vector_74" stroke="#fcfcfc" stroke-linecap="round" stroke-linejoin="round" d="M135.25632 58.87614c-1.36116 0.056714999999999995 -2.6372475 2.7506774999999997 -2.4685949999999997 5.955075 0.1716375 3.06261 1.5895124999999999 5.52225 3.2043974999999993 5.6431425 -0.45073499999999994 -3.8634855 -0.43207874999999996 -7.76741775 0.055222499999999994 -11.626574999999999l-0.791025 0.028357499999999997Z" stroke-width="1.5"></path>
      <path id="Vector_75" stroke="#fcfcfc" stroke-linecap="round" stroke-linejoin="round" d="M135.7383975 58.677637499999996c0.28059 -1.604736 1.13982225 -3.0508192499999995 2.41501425 -4.0646745 1.27504275 -1.01385525 2.8775399999999998 -1.52488725 4.50421575 -1.4366805 1.6390635 -0.050745 3.2478292499999997 0.4498395 4.568841 1.421457 1.3208625 0.9716175 2.2772565 2.35829925 2.7175439999999997 3.9381104999999996" stroke-width="1.5"></path>
      <path id="Vector_76" stroke="#fcfcfc" stroke-linecap="round" stroke-linejoin="round" d="M78.71161425 27.399315c-0.299694 -0.2999925 -0.65565525 -0.537897 -1.04728725 -0.7002809999999999 -0.39163200000000004 -0.16238399999999997 -0.8114722499999999 -0.245964 -1.2354915 -0.245964s-0.8438595 0.08358 -1.23564075 0.245964c-0.39163200000000004 0.16238399999999997 -0.74759325 0.4002885 -1.047138 0.7002809999999999l-0.8223675 0.8507249999999998 -0.8223675 -0.8507249999999998c-0.6055072499999999 -0.605358 -1.4266807499999998 -0.9454987499999999 -2.28277875 -0.9454987499999999 -0.8562472499999999 0 -1.6774207499999998 0.34014075 -2.28277875 0.9454987499999999 -0.6055072499999999 0.605358 -0.945648 1.4265314999999998 -0.945648 2.28277875 0 0.8562472499999999 0.34014075 1.6774207499999998 0.945648 2.28277875l5.387924999999999 5.387924999999999 5.387924999999999 -5.387924999999999c0.29984325 -0.299694 0.537897 -0.6555059999999999 0.7002809999999999 -1.04728725 0.16223475 -0.39163200000000004 0.24581475 -0.8114722499999999 0.24581475 -1.2354915s-0.08358 -0.8438595 -0.24581475 -1.2354915c-0.16238399999999997 -0.39178125 -0.40043775 -0.74759325 -0.7002809999999999 -1.04728725v0Z" stroke-width="1.5"></path>
      <path id="Vector_77" stroke="#fcfcfc" stroke-linecap="round" stroke-linejoin="round" d="m88.95314925 51.60617249999999 11.2847925 4.462575 -4.367055 -11.19375c2.71351425 -3.8690077499999997 4.151090249999999 -8.4890415 4.1118375 -13.214594999999997 -0.15522 -13.53399 -12.253425 -24.338197499999996 -27.0276825 -24.1979025 -14.802614999999998 0.14925 -26.670975000000002 11.202705 -26.538142499999996 24.700875 0.14925 15.969749999999998 16.617494999999998 27.1381275 33.0932025 23.451652499999998 3.367677 -0.7434142499999999 6.5690895 -2.10248475 9.443047499999999 -4.008855v0Z" stroke-width="1.5"></path>
      <path id="Vector_78" stroke="#fcfcfc" stroke-linecap="round" stroke-linejoin="round" d="m252.116085 237.782115 -10.435559999999999 -1.5029474999999999 -4.65063 -9.443047499999999 -4.65063 9.443047499999999 -10.435559999999999 1.5029474999999999 7.543095 7.37295 -1.7865225 10.378844999999998 9.3296175 -4.905847499999999 9.3296175 4.905847499999999 -1.7865225 -10.378844999999998 7.543095 -7.37295Z" stroke-width="1.5"></path>
      <path id="Vector_79" stroke="#fcfcfc" stroke-linecap="round" stroke-linejoin="round" d="M155.133435 63.4984125c13.2399675 0.9041564999999999 26.105317499999998 4.79167125 37.6304025 11.371357499999998" stroke-width="1.5"></path>
      <path id="Vector_80" stroke="#fcfcfc" stroke-linecap="round" stroke-linejoin="round" d="M64.56122175 124.32525c4.98390525 -15.133353 13.944875249999999 -28.64838825 25.944575249999996 -39.13021575 11.999699999999999 -10.48167825 26.596648499999997 -17.54448675 42.26267475 -20.448891749999998" stroke-width="1.5"></path>
      <path id="Vector_81" stroke="#fcfcfc" stroke-linecap="round" stroke-linejoin="round" d="m232.832985 140.60096249999998 -16.163775 15.1145475" stroke-width="1.5"></path>
      <path id="Vector_82" stroke="#fcfcfc" stroke-linecap="round" stroke-linejoin="round" d="m161.5138725 241.86559499999998 -12.023579999999999 -18.60252" stroke-width="1.5"></path>
      <path id="Vector_83" stroke="#fcfcfc" stroke-linecap="round" stroke-linejoin="round" d="M162.90338999999997 141.253185c2.1835275 1.58757225 4.6670475 2.7130665 7.2998175 3.307977 2.63277 0.59476125 5.3595675 0.64640175 8.013232499999999 0.151638" stroke-width="1.5"></path>
      <path id="Vector_84" stroke="#fcfcfc" stroke-linecap="round" stroke-linejoin="round" d="M70.11929174999999 228.3390675v3.30141" stroke-width="1.5"></path>
      <path id="Vector_85" stroke="#fcfcfc" stroke-linecap="round" stroke-linejoin="round" d="M76.54137 234.76278749999997h-3.30141" stroke-width="1.5"></path>
      <path id="Vector_86" stroke="#fcfcfc" stroke-linecap="round" stroke-linejoin="round" d="M70.11929174999999 241.18501500000002v-3.30141" stroke-width="1.5"></path>
      <path id="Vector_87" stroke="#fcfcfc" stroke-linecap="round" stroke-linejoin="round" d="M63.6954225 234.76278749999997h3.3029025" stroke-width="1.5"></path>
      <path id="Vector_88" stroke="#fcfcfc" stroke-linecap="round" stroke-linejoin="round" d="M73.23996 234.76278749999997c-0.40998975 0 -0.8160989999999999 -0.080595 -1.1950447499999999 -0.2373075 -0.37894575 -0.15671249999999998 -0.7232654999999999 -0.3865575 -1.0131089999999998 -0.6761024999999999 -0.28984350000000003 -0.2910375 -0.5196885 -0.6343125 -0.6762517499999999 -1.0134075 -0.15671249999999998 -0.379095 -0.237009 -0.785055 -0.236412 -1.1954925 0.00074625 0.4104375 -0.079401 0.8163975 -0.23596425 1.1954925 -0.156414 0.379095 -0.38625899999999996 0.7238625 -0.6762517499999999 1.0134075 -0.28984350000000003 0.289545 -0.6343125 0.5208824999999999 -1.0132582499999998 0.677595 -0.37894575 0.15671249999999998 -0.7852042499999999 0.235815 -1.1953432499999999 0.235815 0.40998975 0 0.8160989999999999 0.07910249999999999 1.1950447499999999 0.235815 0.37879650000000004 0.15671249999999998 0.7231162499999999 0.3865575 1.0131089999999998 0.677595 0.28984350000000003 0.289545 0.5196885 0.6328199999999999 0.6764009999999999 1.0119150000000001 0.15656325 0.379095 0.23685975 0.785055 0.23626275 1.1954925 -0.0002985 -0.4104375 0.08014724999999999 -0.8163975 0.2367105 -1.1954925 0.15671249999999998 -0.3776025 0.3865575 -0.72237 0.6765502499999999 -1.0119150000000001 0.28984350000000003 -0.289545 0.634014 -0.5193899999999999 1.0128104999999998 -0.6761024999999999 0.37879650000000004 -0.15671249999999998 0.7847565000000001 -0.2373075 1.19474625 -0.2373075v0Z" stroke-width="1.5"></path>
      <path id="Vector_89" stroke="#fcfcfc" stroke-linecap="round" stroke-linejoin="round" d="M166.363005 245.381925c-1.4686199999999998 8.4191925 -6.00582 33.4155825 -10.8057 40.837785" stroke-width="1.5"></path>
    </g>
  </g>
</svg>