<svg xmlns="http://www.w3.org/2000/svg" fill="none" viewBox="-15.75 -15.75 300 300" id="Modular-Coding-Application--Streamline-Bangalore" height="300" width="300" style="background-color: #091e43">
  <desc>
    Modular Coding Application Streamline Illustration: https://streamlinehq.com
  </desc>
  <g id="Development-Modular-coding-of-application-01">
    <g id="color 2">
      <path id="Vector" fill="#1b2194" d="m96.55281 214.29673200000002 -21.234096 9.77483025c0.5614785 -0.28073925 23.3268795 -14.622619499999999 23.3268795 -14.622619499999999 0 -5.28568875 -3.6052830000000005 -12.876394500000002 -9.5451345 -13.909353750000001l2.98604475 -4.08348c-3.22944165 -4.56839325 -8.009665425000001 -7.8069690000000005 -13.44996225 -9.112608l-12.7098315 16.08004575c-1.6478990999999998 -5.62150125 -4.968278775 -10.606302 -9.51961275 -14.29352325 -3.079131975 -0.8032635 -6.058326150000001 -1.950399 -8.881569 -3.41857125 -1.208925 4.8115215 -2.6529187500000004 8.419491 -2.95515 12.25044 -0.5373 6.6652065 -0.42043725000000004 20.9547 1.8375660000000003 26.59635 -0.510435 2.06726175 -6.278350500000001 26.721272250000002 14.343223500000002 26.746794h36.414164250000006c2.6085915 -10.498842 1.8617445 -21.524238 -0.612522 -32.00830425Z" stroke-width="1.5"></path>
      <path id="Vector_2" fill="#1b2194" d="M166.86523125 87.65915175H108.21624975V56.8275345h58.6489815v30.83161725Z" stroke-width="1.5"></path>
      <path id="Vector_3" fill="#1b2194" d="M154.81896525000002 115.859207925H120.08655000000002c-0.9408123 0 -1.84320765 0.373826475 -2.508519375 1.0391382 -0.665311725 0.6651774 -1.039003875 1.56757275 -1.039003875 2.5083850500000002 0 0.940946625 0.37369215 1.84320765 1.039003875 2.508519375 0.665311725 0.665311725 1.5677070750000002 1.039003875 2.508519375 1.039003875h34.735101750000005c0.940275 0 1.8429390000000003 -0.37369215 2.5078477500000003 -1.039003875 0.6662520000000001 -0.665311725 1.0396755 -1.56757275 1.0396755 -2.508519375 0 -0.9408123 -0.3734235000000001 -1.84320765 -1.0396755 -2.5083850500000002 -0.66490875 -0.665311725 -1.56757275 -1.0391382 -2.5078477500000003 -1.0391382h-0.0026865Z" stroke-width="1.5"></path>
      <path id="Vector_4" fill="#1b2194" d="M61.12862100000001 135.6172065h-20.927835c-0.9408123 0 -1.84320765 -0.3734235000000001 -2.508519375 -1.0396755 -0.665311725 -0.6647744250000001 -1.039003875 -1.56703545 -1.039003875 -2.507982075 0 -0.9408123 0.37369215 -1.84320765 1.039003875 -2.5083850500000002 0.665311725 -0.665311725 1.5677070750000002 -1.0391382 2.508519375 -1.0391382h20.927835c0.9408123 0 1.84320765 0.373826475 2.508519375 1.0391382 0.665311725 0.6651774 1.039003875 1.56757275 1.039003875 2.5083850500000002 0 0.940946625 -0.37369215 1.84320765 -1.039003875 2.507982075 -0.665311725 0.6662520000000001 -1.5677070750000002 1.0396755 -2.508519375 1.0396755Z" stroke-width="1.5"></path>
      <path id="Vector_5" fill="#1b2194" d="M221.32864575 113.46164100000001h-20.340834750000003c-0.47148075 -0.0091341 -0.940275 0.0757593 -1.3781745 0.249978825 -0.43924275 0.1740852 -0.838188 0.43386975000000005 -1.1753437500000001 0.764174925 -0.3358125 0.330305175 -0.60311925 0.7242804 -0.78580125 1.1592247500000001 -0.182682 0.43494435 -0.2767095 0.9018580500000001 -0.2767095 1.373473125 0 0.47174940000000004 0.09402750000000001 0.9386631 0.2767095 1.37360745 0.182682 0.434810025 0.44998875000000005 0.828919575 0.78580125 1.1592247500000001 0.33715575000000003 0.33017085 0.7361010000000001 0.590089725 1.1753437500000001 0.764174925 0.43789950000000005 0.1740852 0.9066937500000001 0.259112925 1.3781745 0.2498445h20.340834750000003c0.47148075 0.009268425 0.940275 -0.0757593 1.3781745 -0.2498445 0.43924275 -0.1740852 0.838188 -0.434004075 1.1753437500000001 -0.764174925 0.3358125 -0.330305175 0.60311925 -0.724414725 0.78580125 -1.1592247500000001 0.182682 -0.43494435 0.2767095 -0.9018580500000001 0.2767095 -1.37360745 0 -0.47161507500000005 -0.09402750000000001 -0.938528775 -0.2767095 -1.373473125 -0.182682 -0.43494435 -0.44998875000000005 -0.828919575 -0.78580125 -1.1592247500000001 -0.33715575000000003 -0.330305175 -0.7361010000000001 -0.590089725 -1.1753437500000001 -0.764174925 -0.43789950000000005 -0.17421952500000001 -0.9066937500000001 -0.259112925 -1.3781745 -0.249978825Z" stroke-width="1.5"></path>
    </g>
    <g id="color 1">
      <path id="Vector_6" fill="#00dcb7" d="m50.07770325 175.401585 3.59856675 2.858436c0 -0.612522 0.0510435 -1.225044 0.07656525 -1.8872662500000001 -1.2682966500000001 -0.128952 -2.508519375 -0.456705 -3.6751320000000005 -0.97116975Z" stroke-width="1.5"></path>
      <path id="Vector_7" fill="#00dcb7" d="M33.565131 165.75705000000002c-0.45939150000000006 1.58100525 -2.6865 10.64256975 4.798089 15.388272 -0.714609 0.306261 -4.2621322500000005 2.8087357500000003 -4.56705 3.0384315 -3.2055318 2.3694930000000003 -6.000700725 5.24807775 -8.274420000000001 8.521578 -4.67048025 7.01848125 -5.23195875 17.53344225 1.939653 23.12404875 4.7470455 3.67378875 13.373397 3.981393 17.89074675 -0.402975 -1.062645075 -7.4281725000000005 -1.31934015 -14.94902925 -0.7656525 -22.432275 0.306261 -3.9316927500000003 1.7354790000000002 -7.2992205000000006 2.6032185 -10.92465225 1.96517475 -8.12263275 0.66490875 -10.243624500000001 -1.14847875 -14.77575 -3.44543625 -0.8408745000000001 -2.22039225 -4.9243545 0.1531305 -3.5475232500000002 0.33285735 0.2176065 0.7060122 0.365364 1.09743525 0.435213 1.30160925 -6.635655000000001 3.8282625 -7.119225 6.12522 -4.9780845000000005 -3.282903 -4.310489250000001 -16.67913525 -4.28631075 -19.85189175 6.5537167499999995Z" stroke-width="1.5"></path>
      <path id="Vector_8" fill="#00dcb7" d="M95.65954875000001 211.28516550000003c-17.8141815 11.338373250000002 -19.246086 12.21417225 -20.39187825 12.786396750000002l21.234096 -9.77483025 -0.84221775 -3.0115665000000003Z" stroke-width="1.5"></path>
      <path id="Vector_9" fill="#00dcb7" d="M171.07632 244.13165775000002c-4.51734975 -3.8282625 -11.148975000000002 -8.473221 -17.07405075 -10.2087 -5.370313500000001 1.5447374999999999 -11.0656935 1.5447374999999999 -16.436007 0 -1.0504215000000001 2.9927610000000002 -1.71936 6.10775775 -1.9906965 9.268425 -0.032238 0.3774532500000001 0.016119 0.7562497499999999 0.13835475 1.1148975 0.12357900000000001 0.3573045 0.3196935 0.68640075 0.57625425 0.9644535 0.25656075 0.27805275 0.56819475 0.499689 0.9160965000000001 0.650133 0.34655850000000005 0.15044400000000002 0.72132525 0.22700925000000002 1.10012175 0.22566600000000003 10.28526525 0.02552175 19.21787775 0.134325 31.978752749999998 0.15447375000000002 0.252531 0.00134325 0.499689 -0.07522200000000001 0.7078927500000001 -0.21894975000000003 0.2068605 -0.145071 0.365364 -0.349245 0.45133200000000007 -0.58700025s0.09805725 -0.49565925 0.032238 -0.7401307500000001c-0.06581925000000001 -0.2444715 -0.20551725 -0.462078 -0.4002885 -0.623268Z" stroke-width="1.5"></path>
      <path id="Vector_10" fill="#00dcb7" d="M201.88107225000002 213.3269055c-0.018805500000000003 -0.24312825 -0.11283300000000002 -0.4755105 -0.26999325 -0.66222225 -0.15716025000000003 -0.18805500000000003 -0.36805050000000006 -0.32238 -0.6044625 -0.3841695 -0.23641199999999998 -0.061789500000000004 -0.4862565 -0.048357 -0.714609 0.03895425 -0.2283525 0.08731125 -0.42446700000000004 0.24312825 -0.56013525 0.44595900000000005 -3.8282625 4.518693 -8.473221 15.237828 -10.2087 21.15753075 1.477575 5.6671717500000005 1.5823485 7.06952475 0.02552175 12.379392h12.223575c1.058481 0.10074375 1.998756 -22.433618250000002 0.10880325 -32.97544425Z" stroke-width="1.5"></path>
      <path id="Vector_11" fill="#00dcb7" d="M68.04501524999999 62.569928250000004c0 0.681430725 -0.2020248 1.3475484000000002 -0.580686975 1.91413125 -0.37852785 0.5665828500000001 -0.9166338 1.0082434500000002 -1.546215075 1.268968275 -0.629581275 0.26085915000000004 -1.3222953000000002 0.32909625000000003 -1.9906965 0.1961145 -0.6684012 -0.13298175 -1.28226645 -0.461137725 -1.764090225 -0.9429615 -0.48182377500000007 -0.48182377500000007 -0.80997975 -1.095689025 -0.9429615 -1.764090225 -0.13298175 -0.6684012 -0.06474465 -1.3611152250000003 0.195980175 -1.9906965 0.26085915000000004 -0.629581275 0.7025197500000001 -1.167687225 1.2691026 -1.546215075 0.5665828500000001 -0.378662175 1.232700525 -0.580686975 1.91413125 -0.580686975 0.91367865 0.00040297499999999997 1.7898806250000001 0.36348345000000004 2.43584955 1.0095867 0.64610325 0.645968925 1.009183725 1.5221709 1.0095867 2.43584955Z" stroke-width="1.5"></path>
      <path id="Vector_12" fill="#00dcb7" d="m108.82877175000002 226.11464550000002 -9.417525750000001 6.35491575c1.93347405 -2.08069425 3.724966575 -4.28899725 5.362254 -6.6101332500000005 -0.028208250000000004 0.0241785 1.5286184999999999 0.07522200000000001 4.05527175 0.2552175Z" stroke-width="1.5"></path>
    </g>
    <g id="outlines">
      <path id="Vector_13" stroke="#fcfcfc" stroke-linecap="round" stroke-linejoin="round" d="M56.943054000000004 175.01875875c3.785950125 2.7173947500000004 8.330702175 4.173477750000001 12.99057075 4.164075h15.850350000000002" stroke-width="1.5"></path>
      <path id="Vector_14" stroke="#fcfcfc" stroke-linecap="round" stroke-linejoin="round" d="M97.98202800000001 179.178804h-5.078828250000001" stroke-width="1.5"></path>
      <path id="Vector_15" stroke="#fcfcfc" stroke-linecap="round" stroke-linejoin="round" d="M98.92633275000001 179.18014725h106.2215235c2.9296282500000004 0.00134325 5.83104825 -0.5749110000000001 8.537697 -1.6951815000000001 2.7066487500000003 -1.12161375 5.1661395 -2.7644085 7.237431 -4.8357 2.0712915 -2.0712915 3.7140862500000003 -4.530782250000001 4.8357 -7.237431 1.1202705 -2.7066487500000003 1.69652475 -5.60806875 1.6951815000000001 -8.537697v-6.33073725" stroke-width="1.5"></path>
      <path id="Vector_16" stroke="#fcfcfc" stroke-linecap="round" stroke-linejoin="round" d="M227.45386575 107.666994825v-37.542494250000004c0.00134325 -2.929493925 -0.5749110000000001 -5.8303766249999995 -1.69652475 -8.537025375 -1.1202705 -2.706514425 -2.76306525 -5.16587085 -4.83435675 -7.237162350000001 -2.07263475 -2.071425825 -4.530782250000001 -3.7143549000000005 -7.237431 -4.8347597250000005 -2.7066487500000003 -1.1205391500000002 -5.60806875 -1.6967934000000002 -8.537697 -1.6957188H69.93362475c-2.929493925 -0.0010746 -5.8303766249999995 0.57517965 -8.537025375 1.6957188 -2.706783075 1.120404825 -5.1661395 2.7633339 -7.237565325 4.8347597250000005 -2.0715601500000003 2.0712915 -3.71462355 4.530647925 -4.835297025 7.237162350000001 -1.120673475 2.7066487500000003 -1.6970620500000002 5.60753145 -1.696121775 8.537025375v37.542494250000004" stroke-width="1.5"></path>
      <path id="Vector_17" stroke="#fcfcfc" stroke-linecap="round" stroke-linejoin="round" d="M47.627615250000005 156.64309875v-6.09969825" stroke-width="1.5"></path>
      <path id="Vector_18" stroke="#fcfcfc" stroke-linecap="round" stroke-linejoin="round" d="M46.40257125 219.55555575c-0.483435675 -1.36071225 -0.8430237 -2.7617220000000002 -1.0746 -4.18691025" stroke-width="1.5"></path>
      <path id="Vector_19" stroke="#fcfcfc" stroke-linecap="round" stroke-linejoin="round" d="M49.16295 183.8237625c1.9122507 0.58968675 3.780039825 1.31504175 5.589263249999999 2.16934875 1.996203825 1.01952675 3.6357747750000002 2.622024 4.7013750000000005 4.593915 3.330319725 6.15880125 6.967437750000001 12.147009749999999 10.89778725 17.94179025l18.707442750000002 -13.0160925c3.5475232500000002 0.61386525 6.1870095 3.4790175 7.6820467500000005 6.6114765 1.144851975 2.2687492500000004 1.7807465250000003 4.75913475 1.86308775 7.29787725 -1.39295025 0.8986342500000001 -19.024449750000002 12.099995999999999 -21.616922250000002 13.681001250000001 -8.76201975 5.343448500000001 -15.589759500000001 3.5058825 -20.5705305 -5.48717625 -0.79117425 -1.429218 -8.24352525 -13.44996225 -8.24352525 -13.44996225" stroke-width="1.5"></path>
      <path id="Vector_20" stroke="#fcfcfc" stroke-linecap="round" stroke-linejoin="round" d="m53.67627 178.260021 -3.59856675 -2.858436c1.175209425 0.51446475 2.423894625 0.84221775 3.70065375 0.9698265" stroke-width="1.5"></path>
      <path id="Vector_21" stroke="#fcfcfc" stroke-linecap="round" stroke-linejoin="round" d="M67.63666725 204.421158c-0.8269047 -3.5018527500000003 -1.9540257750000003 -6.925797 -3.368871 -10.23422175 -3.4252875 -7.399964250000001 -8.3845665 -10.095867 -9.6472215 -11.71448325 -0.817367625 -1.2425062500000001 -1.151836875 -2.74023 -0.940275 -4.212432000000001l0.102087 -1.8886095c0.6016416750000001 0.0510435 1.2067758 -0.0456705 1.762746975 -0.28073925 0.555971175 -0.23641199999999998 1.0459887749999999 -0.6044625 1.427471775 -1.0719135000000002 2.7214245 -3.4575255 -0.12760875 -12.607744499999999 -3.5475232500000002 -15.823485" stroke-width="1.5"></path>
      <path id="Vector_22" stroke="#fcfcfc" stroke-linecap="round" stroke-linejoin="round" d="M53.42105250000001 159.19527375c-2.2969575 -2.1492 -4.82361075 -1.6575705 -6.12522 4.9780845000000005 -0.391557375 -0.069849 -0.76484655 -0.2176065 -1.09743525 -0.435213 -2.374866 -1.375488 -3.59856675 2.7053054999999997 -0.1531305 3.5475232500000002 0.7541005500000001 1.47623175 1.3282056 3.0370882500000005 1.70995725 4.6503315 0.6941916000000001 3.368871 0.5007636000000001 6.8599777500000005 -0.5614785 10.1307915 -0.87176925 3.6267750000000003 -2.283525 6.99430275 -2.6032185 10.92465225 -0.5489862750000001 7.48324575 -0.2922912 15.0041025 0.7656525 22.432275 -4.51734975 4.389741 -13.14907425 4.0915395 -17.89074675 0.402975 -7.18235775 -5.57583075 -6.619536 -16.108254000000002 -1.9436827500000002 -23.12136225 2.262704625 -3.28155975 5.057470575 -6.16148775 8.269047 -8.52292125 0.30491775000000004 -0.23238224999999998 3.8537842500000004 -2.7321705 4.56705 -3.0384315 -7.47787275 -4.7470455 -5.25882375 -13.80726675 -4.798089 -15.388272 2.1357675 -7.32742875 8.88022575 -9.65393775 14.062484249999999 -9.1636515 2.2005121500000002 0.069849 4.284564525 1.004751 5.798810250000001 2.6032185v0Z" stroke-width="1.5"></path>
      <path id="Vector_23" stroke="#fcfcfc" stroke-linecap="round" stroke-linejoin="round" d="M98.81618625 233.03372625000003c3.2372325 -2.8718685 9.63513225 -12.331035 11.977760250000001 -15.984675000000001 4.760478 6.409989 15.0309675 10.643913000000001 26.721272250000002 16.8685335" stroke-width="1.5"></path>
      <path id="Vector_24" stroke="#fcfcfc" stroke-linecap="round" stroke-linejoin="round" d="M154.00226925 233.94847950000002c-8.834555250000001 -3.911544 -28.92957525 -27.335137500000002 -33.918405750000005 -32.92171425 -2.3064945750000003 -2.5776967500000003 -5.436938700000001 -4.2742215 -8.85604725 -4.79943225" stroke-width="1.5"></path>
      <path id="Vector_25" stroke="#fcfcfc" stroke-linecap="round" stroke-linejoin="round" d="m96.47893125 214.30747800000003 -21.21126075 9.76408425" stroke-width="1.5"></path>
      <path id="Vector_26" stroke="#fcfcfc" stroke-linecap="round" stroke-linejoin="round" d="M95.6850705 211.28516550000003c3.2238 11.523741750000001 4.368249 23.4074745 1.477575 35.01718425H60.74579475c-21.540357000000004 0 -14.317701750000001 -26.875746 -14.317701750000001 -26.875746 3.63080475 0.30088800000000004 7.28283285 0.22297950000000002 10.89778725 -0.22969575000000003" stroke-width="1.5"></path>
      <path id="Vector_27" stroke="#fcfcfc" stroke-linecap="round" stroke-linejoin="round" d="M154.00226925 233.92295775c5.9210460000000005 1.7354790000000002 12.535209000000002 6.40595925 17.07405075 10.2087 0.19477125 0.16119 0.33446925 0.3787965 0.40163175 0.623268 0.06581925000000001 0.2444715 0.055073250000000004 0.50371875 -0.032238 0.7414740000000001 -0.085968 0.23775525 -0.2444715 0.44192925000000005 -0.45267525000000003 0.58700025 -0.2068605 0.14372775000000002 -0.45536175000000007 0.22029300000000002 -0.7078927500000001 0.21894975000000003 -12.760875 -0.0134325 -21.6934875 -0.134325 -31.978752749999998 -0.15447375000000002 -0.3774532500000001 0.00134325 -0.7522200000000001 -0.07656525 -1.0987784999999999 -0.2283525 -0.34655850000000005 -0.15044400000000002 -0.6581925000000001 -0.37208025000000006 -0.9147532500000001 -0.650133 -0.25656075 -0.27805275 -0.45267525000000003 -0.60580575 -0.57625425 -0.96311025 -0.12357900000000001 -0.3573045 -0.171936 -0.7361010000000001 -0.14104125 -1.11355425 0.28073925 -3.159324 0.94967775 -6.27163425 1.9906965 -9.268425 5.370313500000001 1.5447374999999999 11.0656935 1.5433942500000002 16.436007 -0.00134325v0Z" stroke-width="1.5"></path>
      <path id="Vector_28" stroke="#fcfcfc" stroke-linecap="round" stroke-linejoin="round" d="M189.532575 233.92295775c1.7354790000000002 -5.9210460000000005 6.40595925 -16.618689 10.2087 -21.15753075 0.13566825000000002 -0.20283075 0.33178275 -0.3573045 0.56013525 -0.4432725 0.2283525 -0.08731125 0.478197 -0.10074375 0.71326575 -0.03895425 0.23641199999999998 0.061789500000000004 0.44730225000000007 0.1961145 0.6044625 0.38282625 0.15716025000000003 0.18671175000000004 0.25118775 0.41775075 0.27133650000000004 0.660879 1.902042 10.539139500000001 0.940275 33.07753125 -0.102087 32.97544425h-12.223575c1.54608075 -5.308524 1.445337 -6.7135635 -0.032238 -12.379392Z" stroke-width="1.5"></path>
      <path id="Vector_29" stroke="#fcfcfc" stroke-linecap="round" stroke-linejoin="round" d="M189.532575 233.92295775c-15.18544125 0.8932612500000001 -29.93701275 -1.19952225 -40.14571275 -2.95515" stroke-width="1.5"></path>
      <path id="Vector_30" stroke="#fcfcfc" stroke-linecap="round" stroke-linejoin="round" d="M104.84737875000002 193.85381025c3.6496102500000003 -0.9174397500000001 6.671922749999999 0.66222225 6.457002750000001 2.06726175 -0.045804825 0.284769 -0.153802125 0.5561055 -0.316335375 0.79386075 -0.16253325 0.2390985 -0.37557270000000004 0.43789950000000005 -0.6239396250000001 0.5843137500000001" stroke-width="1.5"></path>
      <path id="Vector_31" stroke="#fcfcfc" stroke-linecap="round" stroke-linejoin="round" d="M104.4645525 191.63341799999998c3.8282625 -0.9698265 7.707568500000001 0.8932612500000001 6.074176500000001 2.93500125" stroke-width="1.5"></path>
      <path id="Vector_32" stroke="#fcfcfc" stroke-linecap="round" stroke-linejoin="round" d="M98.26276725000001 206.56364175000002c2.400522075 -3.250665 5.686917525 -5.7397072499999995 9.46588275 -7.171611750000001" stroke-width="1.5"></path>
      <path id="Vector_33" stroke="#fcfcfc" stroke-linecap="round" stroke-linejoin="round" d="M104.74529175 196.4825505c3.5475232500000002 -0.7656525 5.9210460000000005 0.5614785 5.79343725 1.96517475 -0.1531305 1.6844355 -3.4924500000000003 4.314519000000001 -6.3804375 2.73082725" stroke-width="1.5"></path>
      <path id="Vector_34" stroke="#fcfcfc" stroke-linecap="round" stroke-linejoin="round" d="M91.3974165 196.22733300000002c1.633392 -1.6844355 10.4961555 -9.218724750000002 11.10196125 -8.6263515 0.671625 0.65684925 -0.84221775 2.783214 -0.84221775 2.783214" stroke-width="1.5"></path>
      <path id="Vector_35" stroke="#fcfcfc" stroke-linecap="round" stroke-linejoin="round" d="M91.3974165 196.22733300000002c2.8237801499999997 -2.3144197500000003 5.9929098750000005 -4.173477750000001 9.392004 -5.507325 4.194298125 -1.638765 8.300344725 -3.4951365 12.3014835 -5.56239825 1.208925 -0.7119225 -0.45939150000000006 3.0370882500000005 -6.7887855 6.200442" stroke-width="1.5"></path>
      <path id="Vector_36" stroke="#fcfcfc" stroke-linecap="round" stroke-linejoin="round" d="M166.86523125 74.922589575h60.588634500000005" stroke-width="1.5"></path>
      <path id="Vector_37" stroke="#fcfcfc" stroke-linecap="round" stroke-linejoin="round" d="M47.627615250000005 74.922589575h60.588634500000005" stroke-width="1.5"></path>
      <path id="Vector_38" stroke="#fcfcfc" stroke-linecap="round" stroke-linejoin="round" d="M68.04501524999999 62.569928250000004c0 0.681430725 -0.2020248 1.3475484000000002 -0.580686975 1.91413125 -0.37852785 0.5665828500000001 -0.9166338 1.0082434500000002 -1.546215075 1.268968275 -0.629581275 0.26085915000000004 -1.3222953000000002 0.32909625000000003 -1.9906965 0.1961145 -0.6684012 -0.13298175 -1.28226645 -0.461137725 -1.764090225 -0.9429615 -0.48182377500000007 -0.48182377500000007 -0.80997975 -1.095689025 -0.9429615 -1.764090225 -0.13298175 -0.6684012 -0.06474465 -1.3611152250000003 0.195980175 -1.9906965 0.26085915000000004 -0.629581275 0.7025197500000001 -1.167687225 1.2691026 -1.546215075 0.5665828500000001 -0.378662175 1.232700525 -0.580686975 1.91413125 -0.580686975 0.91367865 0.00040297499999999997 1.7898806250000001 0.36348345000000004 2.43584955 1.0095867 0.64610325 0.645968925 1.009183725 1.5221709 1.0095867 2.43584955Z" stroke-width="1.5"></path>
      <path id="Vector_39" stroke="#fcfcfc" stroke-linecap="round" stroke-linejoin="round" d="M78.483411 62.569928250000004c0 0.681430725 -0.2020248 1.3475484000000002 -0.580686975 1.91413125 -0.37852785 0.5665828500000001 -0.9166338 1.0082434500000002 -1.546215075 1.268968275 -0.629581275 0.26085915000000004 -1.3222953000000002 0.32909625000000003 -1.9906965 0.1961145 -0.6684012 -0.13298175 -1.28226645 -0.461137725 -1.764090225 -0.9429615 -0.48182377500000007 -0.48182377500000007 -0.80997975 -1.095689025 -0.9429615 -1.764090225 -0.13298175 -0.6684012 -0.06474465 -1.3611152250000003 0.195980175 -1.9906965 0.26085915000000004 -0.629581275 0.7025197500000001 -1.167687225 1.2691026 -1.546215075 0.5665828500000001 -0.378662175 1.232700525 -0.580686975 1.91413125 -0.580686975 0.91367865 0.00040297499999999997 1.7898806250000001 0.36348345000000004 2.43584955 1.0095867 0.64610325 0.645968925 1.009183725 1.5221709 1.0095867 2.43584955Z" stroke-width="1.5"></path>
      <path id="Vector_40" stroke="#fcfcfc" stroke-linecap="round" stroke-linejoin="round" d="M88.97285025 62.569928250000004c0 0.681430725 -0.2020248 1.3475484000000002 -0.580686975 1.91413125 -0.37852785 0.5665828500000001 -0.9166338 1.0082434500000002 -1.546215075 1.268968275 -0.629581275 0.26085915000000004 -1.3222953000000002 0.32909625000000003 -1.9906965 0.1961145 -0.6684012 -0.13298175 -1.28226645 -0.461137725 -1.764090225 -0.9429615 -0.48195810000000006 -0.48182377500000007 -0.80997975 -1.095689025 -0.9429615 -1.764090225 -0.13298175 -0.6684012 -0.06474465 -1.3611152250000003 0.195980175 -1.9906965 0.26085915000000004 -0.629581275 0.7023854250000001 -1.167687225 1.2691026 -1.546215075 0.5665828500000001 -0.378662175 1.232700525 -0.580686975 1.91413125 -0.580686975 0.91367865 0.00040297499999999997 1.7898806250000001 0.36348345000000004 2.43584955 1.0095867 0.64610325 0.645968925 1.009183725 1.5221709 1.0095867 2.43584955Z" stroke-width="1.5"></path>
      <path id="Vector_41" stroke="#fcfcfc" stroke-linecap="round" stroke-linejoin="round" d="m65.87566650000001 198.398025 12.7098315 -16.078702500000002c5.44741605 1.30429575 10.2361023 4.54152825 13.475484 9.11126475l-3.0115665000000003 4.08348" stroke-width="1.5"></path>
      <path id="Vector_42" stroke="#fcfcfc" stroke-linecap="round" stroke-linejoin="round" d="M92.1120255 182.57319675000002c1.6589137500000002 -7.0950465000000005 3.0585802500000003 -12.760875 3.368871 -14.496354 0.8556502500000001 -4.7739105 -0.402975 -4.666450500000001 -2.2969575 -0.63804375 -2.6243075250000003 6.03253575 -6.49461375 11.44314675 -11.357178750000001 15.8745285" stroke-width="1.5"></path>
      <path id="Vector_43" stroke="#fcfcfc" stroke-linecap="round" stroke-linejoin="round" d="M95.17463550000001 169.507404c1.306310625 -1.2384765000000002 2.7744828750000003 -2.294271 4.3642192500000005 -3.1391752500000005 0.4607347500000001 -0.20283075 1.25325225 0.07925175 -0.7401307500000001 2.41785 -1.3244445 1.55817 -3.7516972500000003 4.7013750000000005 -4.87465425 6.227307000000001" stroke-width="1.5"></path>
      <path id="Vector_44" stroke="#fcfcfc" stroke-linecap="round" stroke-linejoin="round" d="M92.46933000000001 180.93577499999998c1.5154546500000001 -0.39894525 3.0067308 -0.8852017500000001 4.466306250000001 -1.4560830000000002 1.80935775 -0.5937165 3.5166285 -1.230417 -0.2552175 2.450088 -2.3066289 2.294271 -4.4155314 4.77794025 -6.3038722499999995 7.42682925" stroke-width="1.5"></path>
      <path id="Vector_45" stroke="#fcfcfc" stroke-linecap="round" stroke-linejoin="round" d="M153.533475 138.06460800000002c-0.061789500000000004 -0.65416275 -0.343872 -1.26937125 -0.800577 -1.74219525 -0.456705 -0.47282399999999997 -1.0611675 -0.77774175 -1.71264375 -0.8623665l-26.342475750000002 -4.05795825c-1.3526527499999998 -0.204174 -2.41785 0.5373 -2.3990445 1.6857787499999999l0.2552175 21.1830525 -17.176137750000002 11.35180575c-1.02087 0.63804375 -0.43386975000000005 2.1948705 0.99534825 2.6032185l26.6957505 7.5222c0.35085689999999997 0.11954925 0.72454905 0.15716025000000003 1.09206225 0.10746 0.36805050000000006 -0.048357 0.7186387500000001 -0.18133875000000002 1.026243 -0.38819925l18.3622275 -14.16457125 0.00402975 -23.238225000000003Z" stroke-width="1.5"></path>
      <path id="Vector_46" stroke="#fcfcfc" stroke-linecap="round" stroke-linejoin="round" d="m153.52944525 161.313579 -30.99549375 -7.04265975" stroke-width="1.5"></path>
      <path id="Vector_47" stroke="#fcfcfc" stroke-linecap="round" stroke-linejoin="round" d="M149.944311 157.35770775c0.45939150000000006 0.10343025 0.9066937500000001 -0.12760875 0.9066937500000001 -0.5373v-17.50657725c-0.014775749999999999 -0.21223350000000002 -0.10343025 -0.413721 -0.2498445 -0.5668515 -0.1477575 -0.15447375000000002 -0.343872 -0.25118775 -0.5561055 -0.27536625l-24.092532000000002 -3.8282625c-0.089594775 -0.026865 -0.18402525000000003 -0.032238 -0.276037875 -0.016119 -0.09214694999999999 0.014775749999999999 -0.1794582 0.0510435 -0.255620475 0.1047735s-0.139026375 0.12492225 -0.18402525000000003 0.2068605c-0.04499887500000001 0.08193825 -0.070789275 0.17327925000000002 -0.07549065 0.2659635l0.1531305 15.875871750000002c0.023238225 0.20014425 0.11014650000000001 0.38819925 0.248098275 0.5346135000000001 0.13781745 0.1477575 0.319290525 0.24581475 0.517554225 0.2820825l23.8641795 5.460311250000001Z" stroke-width="1.5"></path>
      <path id="Vector_48" stroke="#fcfcfc" stroke-linecap="round" stroke-linejoin="round" d="M87.1097625 150.5434005H28.43525925V107.666994825H87.1097625v42.876405675Z" stroke-width="1.5"></path>
      <path id="Vector_49" stroke="#fcfcfc" stroke-linecap="round" stroke-linejoin="round" d="M122.482908 150.5434005H108.21624975V107.666994825h58.6489815v42.876405675h-13.296831749999999" stroke-width="1.5"></path>
      <path id="Vector_50" stroke="#fcfcfc" stroke-linecap="round" stroke-linejoin="round" d="M246.6207 150.5434005h-58.6489815V107.666994825H246.6207v42.876405675Z" stroke-width="1.5"></path>
      <path id="Vector_51" stroke="#fcfcfc" stroke-linecap="round" stroke-linejoin="round" d="M166.86523125 87.65915175H108.21624975V56.8275345h58.6489815v30.83161725Z" stroke-width="1.5"></path>
      <path id="Vector_52" stroke="#fcfcfc" stroke-linecap="round" stroke-linejoin="round" d="M137.54074050000003 87.65915175v20.00770875" stroke-width="1.5"></path>
      <path id="Vector_53" stroke="#fcfcfc" stroke-linecap="round" stroke-linejoin="round" d="M153.08348625000002 87.65915175v10.00318275h64.21272300000001v10.004526" stroke-width="1.5"></path>
      <path id="Vector_54" stroke="#fcfcfc" stroke-linecap="round" stroke-linejoin="round" d="M123.01886475 87.65915175v10.00318275H57.78527175v10.004526" stroke-width="1.5"></path>
      <path id="Vector_55" stroke="#fcfcfc" stroke-linecap="round" stroke-linejoin="round" d="m132.2322165 78.010587 -12.12283125 -6.0473115 11.96970075 -5.71821525" stroke-width="1.5"></path>
      <path id="Vector_56" stroke="#fcfcfc" stroke-linecap="round" stroke-linejoin="round" d="m143.002395 78.06163049999999 11.96970075 -6.15074175 -12.12283125 -5.6147849999999995" stroke-width="1.5"></path>
      <path id="Vector_57" stroke="#fcfcfc" stroke-linecap="round" stroke-linejoin="round" d="m141.675264 61.24414050000001 -8.4221775 21.99840525" stroke-width="1.5"></path>
      <path id="Vector_58" stroke="#fcfcfc" stroke-linecap="round" stroke-linejoin="round" d="M74.93588775 122.95438875c0.47161507500000005 0.009268425 0.940275 -0.0757593 1.378577475 -0.2498445 0.43843680000000007 -0.1740852 0.8376507000000001 -0.43386975000000005 1.174403475 -0.764174925 0.336752775 -0.330305175 0.604328175 -0.724414725 0.78687585 -1.1592247500000001 0.182682 -0.43494435 0.2767095 -0.9018580500000001 0.2767095 -1.37360745 0 -0.47161507500000005 -0.09402750000000001 -0.938528775 -0.2767095 -1.373473125 -0.182547675 -0.434810025 -0.45012307500000004 -0.828919575 -0.78687585 -1.1592247500000001s-0.7359666750000001 -0.590089725 -1.174403475 -0.764174925c-0.43830247499999997 -0.1740852 -0.9069624000000001 -0.259112925 -1.378577475 -0.249978825h-34.70958c-0.47161507500000005 -0.0091341 -0.940275 0.075893625 -1.378577475 0.249978825 -0.43843680000000007 0.1740852 -0.8376507000000001 0.43386975000000005 -1.174403475 0.764174925 -0.336752775 0.330305175 -0.604328175 0.724414725 -0.78687585 1.1592247500000001 -0.182682 0.43494435 -0.2767095 0.9018580500000001 -0.2767095 1.373473125 0 0.47174940000000004 0.09402750000000001 0.9386631 0.2767095 1.37360745 0.182547675 0.434810025 0.45012307500000004 0.828919575 0.78687585 1.1592247500000001s0.7359666750000001 0.590089725 1.174403475 0.764174925c0.43830247499999997 0.1740852 0.9069624000000001 0.259112925 1.378577475 0.2498445h34.70958Z" stroke-width="1.5"></path>
      <path id="Vector_59" stroke="#fcfcfc" stroke-linecap="round" stroke-linejoin="round" d="M154.81896525000002 115.85947657500002c0.940275 0 1.8429390000000003 0.37369215 2.5078477500000003 1.039003875 0.6662520000000001 0.665311725 1.0396755 1.56757275 1.0396755 2.508519375 0 0.9408123 -0.3734235000000001 1.8430733250000002 -1.0396755 2.5083850500000002 -0.66490875 0.665311725 -1.56757275 1.0391382 -2.5078477500000003 1.0391382H120.08655000000002c-0.9408123 0 -1.84320765 -0.373826475 -2.508519375 -1.0391382 -0.665311725 -0.665311725 -1.039003875 -1.56757275 -1.039003875 -2.5083850500000002 0 -0.940946625 0.37369215 -1.84320765 1.039003875 -2.508519375 0.665311725 -0.665311725 1.5677070750000002 -1.039003875 2.508519375 -1.039003875h34.73241525Z" stroke-width="1.5"></path>
      <path id="Vector_60" stroke="#fcfcfc" stroke-linecap="round" stroke-linejoin="round" d="M61.12862100000001 128.522294325c0.943901775 0.003089475 1.8477747 0.38108002500000004 2.5129521 1.050555825 0.665311725 0.6696101250000001 1.037391975 1.5759009000000002 1.03457115 2.5198026749999998 0.00040297499999999997 0.46476449999999997 -0.091341 0.9252306 -0.26972460000000004 1.3545333s-0.4400487 0.818979525 -0.7699509000000001 1.146463875c-0.329767875 0.327753 -0.721190925 0.58700025 -1.151568225 0.7629659999999999 -0.4303773 0.17596575 -0.8913807 0.26462025 -1.3562795250000002 0.2605905H40.226307750000004c-0.9408123 0 -1.84320765 -0.3734235000000001 -2.508519375 -1.03833225 -0.665311725 -0.6659833500000001 -1.039003875 -1.5682443750000001 -1.039003875 -2.509056675 0 -0.940946625 0.37369215 -1.84320765 1.039003875 -2.508519375 0.665311725 -0.665311725 1.5677070750000002 -1.039003875 2.508519375 -1.039003875h20.902313250000002Z" stroke-width="1.5"></path>
      <path id="Vector_61" stroke="#fcfcfc" stroke-linecap="round" stroke-linejoin="round" d="M221.32864575 113.46164100000001c0.47148075 -0.0091341 0.940275 0.0757593 1.3781745 0.249978825 0.43924275 0.1740852 0.838188 0.43386975000000005 1.1753437500000001 0.764174925 0.3358125 0.330305175 0.60311925 0.7242804 0.78580125 1.1592247500000001 0.182682 0.43494435 0.2767095 0.9018580500000001 0.2767095 1.373473125 0 0.47174940000000004 -0.09402750000000001 0.9386631 -0.2767095 1.37360745 -0.182682 0.434810025 -0.44998875000000005 0.828919575 -0.78580125 1.1592247500000001 -0.33715575000000003 0.33017085 -0.7361010000000001 0.590089725 -1.1753437500000001 0.764174925 -0.43789950000000005 0.1740852 -0.9066937500000001 0.259112925 -1.3781745 0.2498445h-20.340834750000003c-0.47148075 0.009268425 -0.940275 -0.0757593 -1.3781745 -0.2498445 -0.43924275 -0.1740852 -0.838188 -0.434004075 -1.1753437500000001 -0.764174925 -0.3358125 -0.330305175 -0.60311925 -0.724414725 -0.78580125 -1.1592247500000001 -0.182682 -0.43494435 -0.2767095 -0.9018580500000001 -0.2767095 -1.37360745 0 -0.47161507500000005 0.09402750000000001 -0.938528775 0.2767095 -1.373473125 0.182682 -0.43494435 0.44998875000000005 -0.828919575 0.78580125 -1.1592247500000001 0.33715575000000003 -0.330305175 0.7361010000000001 -0.590089725 1.1753437500000001 -0.764174925 0.43789950000000005 -0.17421952500000001 0.9066937500000001 -0.259112925 1.3781745 -0.249978825h20.340834750000003Z" stroke-width="1.5"></path>
      <path id="Vector_62" stroke="#fcfcfc" stroke-linecap="round" stroke-linejoin="round" d="M230.92482375 126.11908575000001c0.9295289999999999 0.017999550000000003 1.8133875000000002 0.399885525 2.46486375 1.0633167000000001 0.650133 0.663431175 1.015497 1.555617825 1.015497 2.4848781750000004 0 0.92926035 -0.365364 1.8214470000000003 -1.015497 2.4848781750000004 -0.65147625 0.663431175 -1.53533475 1.0451828250000001 -2.46486375 1.0633167000000001h-29.93701275c-0.9295289999999999 -0.018133875 -1.8133875000000002 -0.399885525 -2.46486375 -1.0633167000000001 -0.650133 -0.663431175 -1.015497 -1.555617825 -1.015497 -2.4848781750000004 0 -0.92926035 0.365364 -1.8214470000000003 1.015497 -2.4848781750000004 0.65147625 -0.663431175 1.53533475 -1.04531715 2.46486375 -1.0633167000000001h29.93701275Z" stroke-width="1.5"></path>
      <path id="Vector_63" stroke="#fcfcfc" stroke-linecap="round" stroke-linejoin="round" d="m120.36460275 92.098593 2.7053054999999997 -4.439441250000001 2.5266532500000003 4.56705" stroke-width="1.5"></path>
      <path id="Vector_64" stroke="#fcfcfc" stroke-linecap="round" stroke-linejoin="round" d="m134.86095675 92.098593 2.7053054999999997 -4.439441250000001 2.5011315 4.56705" stroke-width="1.5"></path>
      <path id="Vector_65" stroke="#fcfcfc" stroke-linecap="round" stroke-linejoin="round" d="m150.48026775 92.098593 2.7053054999999997 -4.439441250000001 2.5011315 4.56705" stroke-width="1.5"></path>
      <path id="Vector_66" stroke="#fcfcfc" stroke-linecap="round" stroke-linejoin="round" d="m242.4861765 87.93854775 -9.16230825 9.085743" stroke-width="1.5"></path>
      <path id="Vector_67" stroke="#fcfcfc" stroke-linecap="round" stroke-linejoin="round" d="m242.46065475 97.049946825 -9.11126475 -9.13544325" stroke-width="1.5"></path>
      <path id="Vector_68" stroke="#fcfcfc" stroke-linecap="round" stroke-linejoin="round" d="m33.284391750000005 90.9245925 4.0324365 5.69135025 4.72152375 -8.24352525" stroke-width="1.5"></path>
      <path id="Vector_69" stroke="#fcfcfc" stroke-linecap="round" stroke-linejoin="round" d="M56.3815755 184.13136675c-3.07899765 -0.80595 -6.0580575 -1.9530855 -8.881569 -3.4212577500000005" stroke-width="1.5"></path>
      <path id="Vector_70" stroke="#fcfcfc" stroke-linecap="round" stroke-linejoin="round" d="m138.02565375 24.0576075 -5.28300225 1.7354790000000002 3.06261 2.756349 -4.0324365 4.51734975 2.16934875 1.939653 4.0324365 -4.51734975 3.06261 2.73082725 2.27143575 -10.89778725 -5.28300225 1.7354790000000002Z" stroke-width="1.5"></path>
      <path id="Vector_71" stroke="#fcfcfc" stroke-linecap="round" stroke-linejoin="round" d="M163.6750125 196.22733300000002c0 0.36805050000000006 -0.10880325 0.7280415000000001 -0.31432050000000006 1.03564575 -0.204174 0.306261 -0.49565925 0.5440162500000001 -0.8355015 0.6850575 -0.34118550000000003 0.14104125 -0.7159522500000001 0.17865225 -1.0772865 0.10611675000000001 -0.36133425 -0.07119225 -0.6931170000000001 -0.24850125 -0.9537075 -0.5090917500000001 -0.2605905 -0.2605905 -0.43789950000000005 -0.5923732500000001 -0.5090917500000001 -0.9537075 -0.0725355 -0.36133425 -0.0349245 -0.7361010000000001 0.10611675000000001 -1.0772865 0.14104125 -0.33984225 0.3787965 -0.6313275 0.6850575 -0.8355015 0.30760425 -0.20551725 0.66759525 -0.31432050000000006 1.03564575 -0.31432050000000006 0.49297275 0.0026865 0.96579675 0.20014425 1.3136985 0.5493892499999999 0.349245 0.34790175 0.54670275 0.82072575 0.5493892499999999 1.3136985Z" stroke-width="1.5"></path>
      <path id="Vector_72" stroke="#fcfcfc" stroke-linecap="round" stroke-linejoin="round" d="M6.7162500000000005 246.3010065h255.2175" stroke-width="1.5"></path>
      <path id="Vector_73" stroke="#fcfcfc" stroke-linecap="round" stroke-linejoin="round" d="m108.82877175000002 226.11464550000002 -9.4430475 6.3804375" stroke-width="1.5"></path>
      <path id="Vector_74" stroke="#fcfcfc" stroke-linecap="round" stroke-linejoin="round" d="M104.74529175 225.8836065c7.25220675 0.3358125 14.478623100000002 1.09474875 21.642443999999998 2.272779" stroke-width="1.5"></path>
      <path id="Vector_75" stroke="#fcfcfc" stroke-linecap="round" stroke-linejoin="round" d="m110.7939465 217.05442425 -1.70995725 -2.4769530000000004" stroke-width="1.5"></path>
    </g>
  </g>
</svg>