<svg width="242" height="42" viewBox="0 0 242 42" fill="none" xmlns="http://www.w3.org/2000/svg">
<path d="M47.1382 31.8064V3.02869H52.6539L65.1642 22.2138V3.02869H70.6799V31.8064H65.1642L52.6539 12.6213V31.8064H47.1382ZM86.2885 32.4059C84.0768 32.4059 82.125 31.933 80.433 30.987C78.7543 30.0278 77.4353 28.7155 76.4761 27.0501C75.5301 25.3714 75.0572 23.4529 75.0572 21.2945C75.0572 18.9364 75.5235 16.8846 76.4561 15.1393C77.3887 13.394 78.6744 12.0417 80.3131 11.0825C81.9518 10.1099 83.837 9.62358 85.9687 9.62358C88.2336 9.62358 90.1588 10.1565 91.7442 11.2223C93.3297 12.2882 94.5021 13.787 95.2615 15.7189C96.0209 17.6507 96.2874 19.9223 96.0609 22.5336H90.6851V20.5351C90.6851 18.3368 90.332 16.7581 89.6259 15.7988C88.9331 14.8262 87.794 14.3399 86.2085 14.3399C84.3566 14.3399 82.991 14.9062 82.1117 16.0386C81.2457 17.1577 80.8127 18.8165 80.8127 21.0148C80.8127 23.0265 81.2457 24.5853 82.1117 25.6911C82.991 26.7836 84.2767 27.3299 85.9687 27.3299C87.0345 27.3299 87.9472 27.0967 88.7066 26.6304C89.466 26.1641 90.0455 25.4913 90.4452 24.612L95.881 26.1708C95.0683 28.1426 93.7827 29.6747 92.024 30.7672C90.2787 31.8597 88.3668 32.4059 86.2885 32.4059ZM79.134 22.5336V18.4967H93.4429V22.5336H79.134ZM97.3945 31.8064L105.109 20.8949L97.5544 10.2231H103.949L108.266 16.6182L112.503 10.2231H118.898L111.344 20.8949L119.098 31.8064H112.703L108.266 25.1715L103.79 31.8064H97.3945ZM135.264 31.8064C133.772 32.0862 132.307 32.2061 130.868 32.1661C129.442 32.1395 128.163 31.893 127.031 31.4267C125.912 30.9471 125.059 30.181 124.473 29.1285C123.94 28.1426 123.66 27.1433 123.633 26.1308C123.607 25.1049 123.593 23.9458 123.593 22.6535V4.22776H129.029V22.3337C129.029 23.1731 129.036 23.9325 129.049 24.612C129.076 25.2781 129.216 25.811 129.469 26.2107C129.948 26.9701 130.714 27.3832 131.767 27.4498C132.819 27.5164 133.985 27.4631 135.264 27.2899V31.8064ZM119.916 14.4199V10.2231H135.264V14.4199H119.916Z" fill="#52CBFF" style="fill:#52CBFF;fill:color(display-p3 0.3216 0.7961 1.0000);fill-opacity:1;"/>
<path d="M140.074 31.8064V10.2231H144.87V15.499L144.351 14.8196C144.63 14.0735 145.003 13.394 145.47 12.7811C145.936 12.1683 146.509 11.662 147.188 11.2623C147.708 10.9426 148.274 10.6961 148.887 10.5229C149.5 10.3364 150.133 10.2231 150.786 10.1831C151.438 10.1299 152.091 10.1432 152.744 10.2231V15.2992C152.145 15.1127 151.445 15.0527 150.646 15.1193C149.86 15.1726 149.147 15.3525 148.507 15.6589C147.868 15.952 147.328 16.345 146.889 16.838C146.449 17.3176 146.116 17.8905 145.889 18.5567C145.663 19.2095 145.55 19.9489 145.55 20.7749V31.8064H140.074ZM162.112 32.4059C160.566 32.4059 159.254 32.1128 158.175 31.5266C157.109 30.9271 156.296 30.1344 155.737 29.1485C155.19 28.1492 154.917 27.0501 154.917 25.851C154.917 24.8518 155.07 23.9392 155.377 23.1131C155.683 22.2871 156.176 21.561 156.856 20.9348C157.548 20.2953 158.474 19.7624 159.634 19.3361C160.433 19.043 161.385 18.7832 162.491 18.5567C163.597 18.3302 164.849 18.117 166.248 17.9172C167.647 17.704 169.186 17.4708 170.865 17.2177L168.906 18.2969C168.906 17.0179 168.6 16.0786 167.987 15.479C167.374 14.8795 166.348 14.5797 164.909 14.5797C164.11 14.5797 163.277 14.7729 162.411 15.1593C161.545 15.5457 160.939 16.2318 160.593 17.2177L155.677 15.6589C156.223 13.8736 157.249 12.4214 158.754 11.3023C160.26 10.1831 162.311 9.62358 164.909 9.62358C166.815 9.62358 168.507 9.91669 169.985 10.5029C171.464 11.0891 172.583 12.1017 173.343 13.5405C173.769 14.3399 174.022 15.1393 174.102 15.9387C174.182 16.7381 174.222 17.6307 174.222 18.6166V31.8064H169.466V27.3698L170.145 28.2891C169.093 29.7413 167.954 30.7938 166.728 31.4467C165.516 32.0862 163.977 32.4059 162.112 32.4059ZM163.271 28.1292C164.27 28.1292 165.109 27.956 165.789 27.6096C166.482 27.2499 167.028 26.8436 167.427 26.3906C167.84 25.9376 168.12 25.5579 168.267 25.2515C168.547 24.6653 168.706 23.9858 168.746 23.2131C168.8 22.427 168.826 21.7742 168.826 21.2546L170.425 21.6543C168.813 21.9207 167.507 22.1472 166.508 22.3337C165.509 22.5069 164.703 22.6668 164.09 22.8134C163.477 22.9599 162.938 23.1198 162.471 23.293C161.938 23.5062 161.505 23.7393 161.172 23.9925C160.853 24.2323 160.613 24.4987 160.453 24.7918C160.306 25.0849 160.233 25.4114 160.233 25.7711C160.233 26.264 160.353 26.6904 160.593 27.0501C160.846 27.3965 161.199 27.6629 161.652 27.8495C162.105 28.036 162.645 28.1292 163.271 28.1292ZM188.931 32.4059C186.693 32.4059 184.774 31.9063 183.176 30.9071C181.577 29.9079 180.351 28.5489 179.498 26.8303C178.646 25.1116 178.219 23.1731 178.219 21.0148C178.219 18.8298 178.659 16.878 179.538 15.1593C180.431 13.4406 181.683 12.0883 183.295 11.1024C184.908 10.1165 186.813 9.62358 189.011 9.62358C191.556 9.62358 193.687 10.2697 195.406 11.5621C197.138 12.8411 198.244 14.5931 198.724 16.818L193.288 18.2569C192.968 17.1378 192.408 16.2651 191.609 15.6389C190.823 15.0127 189.93 14.6996 188.931 14.6996C187.785 14.6996 186.846 14.9794 186.113 15.539C185.381 16.0852 184.841 16.838 184.495 17.7972C184.148 18.7432 183.975 19.8157 183.975 21.0148C183.975 22.8933 184.388 24.4188 185.214 25.5912C186.053 26.7503 187.292 27.3299 188.931 27.3299C190.157 27.3299 191.089 27.0501 191.729 26.4905C192.368 25.9309 192.848 25.1316 193.168 24.0924L198.724 25.2515C198.111 27.543 196.952 29.3083 195.246 30.5474C193.541 31.7864 191.436 32.4059 188.931 32.4059ZM215.671 31.8064C214.179 32.0862 212.713 32.2061 211.274 32.1661C209.849 32.1395 208.57 31.893 207.437 31.4267C206.318 30.9471 205.465 30.181 204.879 29.1285C204.346 28.1426 204.066 27.1433 204.04 26.1308C204.013 25.1049 204 23.9458 204 22.6535V4.22776H209.436V22.3337C209.436 23.1731 209.442 23.9325 209.456 24.612C209.482 25.2781 209.622 25.811 209.875 26.2107C210.355 26.9701 211.121 27.3832 212.173 27.4498C213.226 27.5164 214.392 27.4631 215.671 27.2899V31.8064ZM200.323 14.4199V10.2231H215.671V14.4199H200.323Z" fill="#00DCB7" style="fill:#00DCB7;fill:color(display-p3 0.0000 0.8627 0.7176);fill-opacity:1;"/>
<circle cx="18.4236" cy="4.68387" r="4.68387" fill="#00DCB7" style="fill:#00DCB7;fill:color(display-p3 0.0000 0.8627 0.7176);fill-opacity:1;"/>
<circle cx="18.4236" cy="30.6014" r="4.68387" fill="#00DCB7" style="fill:#00DCB7;fill:color(display-p3 0.0000 0.8627 0.7176);fill-opacity:1;"/>
<circle cx="32.7869" cy="18.4231" r="4.68387" fill="#00DCB7" style="fill:#00DCB7;fill:color(display-p3 0.0000 0.8627 0.7176);fill-opacity:1;"/>
<circle cx="4.68387" cy="18.4231" r="4.68387" fill="#00DCB7" style="fill:#00DCB7;fill:color(display-p3 0.0000 0.8627 0.7176);fill-opacity:1;"/>
<line x1="16.3415" y1="5.78563" x2="5.78962" y2="16.3797" stroke="#00DCB7" style="stroke:#00DCB7;stroke:color(display-p3 0.0000 0.8627 0.7176);stroke-opacity:1;" stroke-width="3.12258"/>
<line x1="16.0979" y1="29.4995" x2="4.89827" y2="19.5926" stroke="#00DCB7" style="stroke:#00DCB7;stroke:color(display-p3 0.0000 0.8627 0.7176);stroke-opacity:1;" stroke-width="3.12258"/>
<line x1="32.5724" y1="17.3902" x2="21.4402" y2="7.40763" stroke="#00DCB7" style="stroke:#00DCB7;stroke:color(display-p3 0.0000 0.8627 0.7176);stroke-opacity:1;" stroke-width="3.12258"/>
</svg>
