<svg width="406" height="407" viewBox="0 0 406 407" fill="none" xmlns="http://www.w3.org/2000/svg">
<path d="M307.62 318.828L91.0147 271.121L97.5273 87.2158L314.132 134.923L307.62 318.828Z" stroke="white" style="stroke:white;stroke-opacity:1;" stroke-width="0.944417" stroke-linecap="round" stroke-linejoin="round"/>
<path d="M141.236 147.361L121.422 143.11L122.133 123.045L141.947 127.297L141.236 147.361Z" fill="#5EFFBE" stroke="#00DCB7" style="fill:#5EFFBE;fill:color(display-p3 0.3692 1.0000 0.7462);fill-opacity:1;stroke:#00DCB7;stroke:color(display-p3 0.0000 0.8627 0.7176);stroke-opacity:1;" stroke-width="0.944417" stroke-linecap="round" stroke-linejoin="round"/>
<path d="M156.372 135.976L219.107 149.438" stroke="white" style="stroke:white;stroke-opacity:1;" stroke-width="0.944417" stroke-linecap="round" stroke-linejoin="round"/>
<path d="M156.056 144.954L181.333 150.38" stroke="white" style="stroke:white;stroke-opacity:1;" stroke-width="0.944417" stroke-linecap="round" stroke-linejoin="round"/>
<path d="M140.04 181.16L120.226 176.908L120.937 156.849L140.75 161.1L140.04 181.16Z" fill="#5EFFBE" stroke="#00DCB7" style="fill:#5EFFBE;fill:color(display-p3 0.3692 1.0000 0.7462);fill-opacity:1;stroke:#00DCB7;stroke:color(display-p3 0.0000 0.8627 0.7176);stroke-opacity:1;" stroke-width="0.944417" stroke-linecap="round" stroke-linejoin="round"/>
<path d="M155.175 169.778L217.91 183.24" stroke="white" style="stroke:white;stroke-opacity:1;" stroke-width="0.944417" stroke-linecap="round" stroke-linejoin="round"/>
<path d="M154.858 178.757L180.136 184.179" stroke="white" style="stroke:white;stroke-opacity:1;" stroke-width="0.944417" stroke-linecap="round" stroke-linejoin="round"/>
<path d="M138.842 214.961L119.028 210.71L119.738 190.646L139.552 194.897L138.842 214.961Z" fill="#5EFFBE" stroke="#00DCB7" style="fill:#5EFFBE;fill:color(display-p3 0.3692 1.0000 0.7462);fill-opacity:1;stroke:#00DCB7;stroke:color(display-p3 0.0000 0.8627 0.7176);stroke-opacity:1;" stroke-width="0.944417" stroke-linecap="round" stroke-linejoin="round"/>
<path d="M153.981 203.576L216.717 217.038" stroke="white" style="stroke:white;stroke-opacity:1;" stroke-width="0.944417" stroke-linecap="round" stroke-linejoin="round"/>
<path d="M153.663 212.56L178.941 217.982" stroke="white" style="stroke:white;stroke-opacity:1;" stroke-width="0.944417" stroke-linecap="round" stroke-linejoin="round"/>
<path d="M137.642 248.759L117.828 244.508L118.538 224.448L138.352 228.7L137.642 248.759Z" fill="#5EFFBE" stroke="#00DCB7" style="fill:#5EFFBE;fill:color(display-p3 0.3692 1.0000 0.7462);fill-opacity:1;stroke:#00DCB7;stroke:color(display-p3 0.0000 0.8627 0.7176);stroke-opacity:1;" stroke-width="0.944417" stroke-linecap="round" stroke-linejoin="round"/>
<path d="M152.783 237.379L215.519 250.841" stroke="white" style="stroke:white;stroke-opacity:1;" stroke-width="0.944417" stroke-linecap="round" stroke-linejoin="round"/>
<path d="M152.465 246.356L177.742 251.783" stroke="white" style="stroke:white;stroke-opacity:1;" stroke-width="0.944417" stroke-linecap="round" stroke-linejoin="round"/>
<ellipse cx="297.319" cy="273.76" rx="31.2544" ry="32.2111" fill="white" style="fill:white;fill-opacity:1;"/>
<path d="M294.797 233.476C268.869 233.476 247.741 254.731 247.741 280.815C247.741 306.899 268.869 328.154 294.797 328.154C320.724 328.154 341.852 306.899 341.852 280.815C341.852 254.731 320.724 233.476 294.797 233.476ZM317.289 269.927L290.609 296.768C289.95 297.431 289.056 297.81 288.115 297.81C287.174 297.81 286.28 297.431 285.621 296.768L272.304 283.371C270.94 281.999 270.94 279.726 272.304 278.353C273.669 276.981 275.927 276.981 277.292 278.353L288.115 289.241L312.301 264.909C313.666 263.536 315.925 263.536 317.289 264.909C318.654 266.282 318.654 268.507 317.289 269.927Z" fill="#00DCB7" style="fill:#00DCB7;fill:color(display-p3 0.0000 0.8627 0.7176);fill-opacity:1;"/>
</svg>
