<svg width="38" height="38" viewBox="0 0 38 38" fill="none" xmlns="http://www.w3.org/2000/svg">
<path d="M19.0001 3.1665C10.2759 3.1665 3.16675 10.2757 3.16675 18.9998C3.16675 27.724 10.2759 34.8332 19.0001 34.8332C27.7242 34.8332 34.8334 27.724 34.8334 18.9998C34.8334 10.2757 27.7242 3.1665 19.0001 3.1665ZM26.5684 15.3582L17.5909 24.3357C17.3692 24.5573 17.0684 24.684 16.7517 24.684C16.4351 24.684 16.1342 24.5573 15.9126 24.3357L11.4317 19.8548C10.9726 19.3957 10.9726 18.6357 11.4317 18.1765C11.8909 17.7173 12.6509 17.7173 13.1101 18.1765L16.7517 21.8182L24.8901 13.6798C25.3492 13.2207 26.1092 13.2207 26.5684 13.6798C27.0276 14.139 27.0276 14.8832 26.5684 15.3582Z" fill="#00DCB7" style="fill:#00DCB7;fill:color(display-p3 0.0000 0.8627 0.7176);fill-opacity:1;"/>
</svg>
