<svg width="1440" height="406" viewBox="0 0 1440 406" fill="none" xmlns="http://www.w3.org/2000/svg">
<path d="M-63.3598 198.913C-29.6217 204.638 2.31376 208.628 36.1655 201.819C53.2433 198.383 69.3362 192.211 85.7113 186.489C101.333 181.031 117.453 177.91 133.443 173.802C156.111 167.98 178.398 160.687 201.873 158.952C233.854 156.587 265.612 157.372 297.675 157.807C340.338 158.385 378.858 166.958 418.912 182.12C444.553 191.826 465.25 205.17 488.871 218.406C514.817 232.944 542.265 243.411 571.108 250.635C599.557 257.761 632.35 254.546 661.505 254.751C700.172 255.023 736.595 241.35 766.694 216.952C798.306 191.328 831.741 168.017 871.41 156.7C910.112 145.66 947.304 151.942 985.82 160.031C1023.2 167.881 1057.41 182.274 1091.4 199.578C1124.44 216.392 1156.05 237.622 1192.91 244.737C1218.88 249.748 1242.79 250.636 1269.17 250.994C1283.24 251.185 1297.72 252.544 1311.53 249.235C1327.23 245.473 1340.24 237.996 1354.67 231.263C1370.78 223.74 1387.14 216.616 1403.3 209.143C1411.21 205.486 1420.38 200.143 1429.22 199.16C1448.93 196.967 1469.27 196.148 1488.77 199.968" stroke="#00DCB7" stroke-opacity="0.2" style="stroke:#00DCB7;stroke:color(display-p3 0.0000 0.8627 0.7176);stroke-opacity:0.2;" stroke-width="300" stroke-linecap="round"/>
</svg>
