<svg xmlns="http://www.w3.org/2000/svg" fill="none" viewBox="-15.75 -15.75 300 300" id="We-Got-A-Problem--Streamline-Bangalore" height="300" width="300" style="background-color: #091e43">
  <desc>
    We Got A Problem Streamline Illustration: https://streamlinehq.com
  </desc>
  <g id="Product-We-got-a-problem-01">
    <g id="color 2">
      <path id="Subtract" fill="#1b2194" fill-rule="evenodd" d="M67.431015675 9.1086185475 95.42434567500001 57.625425c0.4185567 0.726295275 0.638715375 1.54984185 0.63858105 2.38802985 -0.000134325 0.838188 -0.22069597500000002 1.6616002500000002 -0.639521325 2.387626875 -0.41882535000000004 0.72616095 -1.021272975 1.3292802000000001 -1.7467623 1.7491801500000002 -0.7254893250000001 0.41976562500000003 -1.5486329250000002 0.641401875 -2.386820925 0.642745125l-56.0162115 0.00402975c-0.8387253 -0.0009402750000000001 -1.662540525 -0.2224422 -2.38856715 -0.642476475s-1.328877225 -1.023690825 -1.7478369 -1.750389075c-0.41895967500000003 -0.7266982500000001 -0.639252675 -1.5507821250000002 -0.6389840250000001 -2.38964175 0.00040297499999999997 -0.8387253 0.22136760000000003 -1.6626748500000001 0.640864575 -2.38910445l27.998703000000003 -48.5168064525c0.42070589999999997 -0.72739674 1.025302725 -1.3313353725 1.753075575 -1.75122189 0.7279071750000001 -0.41987308500000003 1.5533343000000002 -0.6409048725000001 2.393537175 -0.6409048725000001 0.8403372000000001 0 1.665764325 0.22103178750000002 2.3936715 0.6409048725000001 0.7277728499999999 0.4198865175 1.332369675 1.02382515 1.75294125 1.75122189ZM63.2805075 52.422346125c0.9790949250000001 0 1.7728213500000003 -0.793726425 1.7728213500000003 -1.7728213500000003 0 -0.9790949250000001 -0.793726425 -1.7726870250000002 -1.7728213500000003 -1.7726870250000002 -0.9789606000000001 0 -1.7726870250000002 0.7935921 -1.7726870250000002 1.7726870250000002 0 0.9790949250000001 0.793726425 1.7728213500000003 1.7726870250000002 1.7728213500000003Z" clip-rule="evenodd" stroke-width="1.5"></path>
      <path id="Vector" fill="#1b2194" d="M213.88704075 51.752870325c-10.10526975 -1.91413125 -19.745775 4.02975 -21.492 13.26996675 -0.5937165 3.2372325 -0.1746225 6.579104175 1.2008655000000001 9.569313l-4.3642192500000005 7.146090000000001 8.269047 -1.6844355c2.7764977500000003 2.6623215 6.27163425 4.454351325 10.054226250000001 5.155393500000001 10.10526975 1.91413125 19.745775 -4.02975 21.492 -13.26996675 1.7596575 -9.2388735 -5.02778475 -18.27222975 -15.1599195 -20.186361Z" stroke-width="1.5"></path>
      <path id="Vector_2" fill="#1b2194" d="M86.87482807500001 113.3568675c0.93033495 0 1.6844355 -0.7541005500000001 1.6844355 -1.6844355 0 -0.930200625 -0.7541005500000001 -1.6844355 -1.6844355 -1.6844355 -0.930200625 0 -1.6844355 0.7542348750000001 -1.6844355 1.6844355 0 0.93033495 0.7542348750000001 1.6844355 1.6844355 1.6844355Z" stroke-width="1.5"></path>
      <path id="Vector_3" fill="#1b2194" d="M102.03474757500001 126.2198295c0 0.333260325 -0.098728875 0.658864125 -0.283828725 0.9358422750000001 -0.18509985 0.27697815 -0.448242525 0.49297275 -0.7559811 0.620447175 -0.307738575 0.127474425 -0.646506225 0.160787025 -0.9731846250000001 0.095773725 -0.32681272499999997 -0.064878975 -0.626894775 -0.22539735000000002 -0.862500825 -0.460869075 -0.23560605 -0.23560605 -0.3959901 -0.535822425 -0.4610034 -0.862500825 -0.0650133 -0.32681272499999997 -0.031566375 -0.66544605 0.09590805000000001 -0.9731846250000001 0.127474425 -0.3078729 0.3433347 -0.57088125 0.62031285 -0.7559811 0.277112475 -0.18509985 0.602716275 -0.28396305 0.9358422750000001 -0.28396305 0.44569035 0.0036267750000000005 0.8720379 0.1821447 1.18716435 0.49727115 0.315260775 0.31512645 0.4937787 0.7416083250000001 0.49727115 1.18716435Z" stroke-width="1.5"></path>
      <path id="Vector_4" fill="#1b2194" d="M117.78018975000002 113.9693895c0 0.333260325 -0.098728875 0.658864125 -0.283828725 0.9358422750000001 -0.18509985 0.27697815 -0.4481082 0.49297275 -0.7559811 0.620447175 -0.307738575 0.127474425 -0.6463719 0.160787025 -0.9731846250000001 0.095773725 -0.32667840000000004 -0.064878975 -0.626894775 -0.22539735000000002 -0.862500825 -0.4610034 -0.23547172500000002 -0.23547172500000002 -0.3959901 -0.5356881 -0.4610034 -0.8623665 -0.064878975 -0.32681272499999997 -0.031566375 -0.66544605 0.09590805000000001 -0.97331895 0.127474425 -0.307738575 0.3433347 -0.570746925 0.620447175 -0.755846775 0.27697815 -0.18509985 0.60258195 -0.28396305 0.9357079500000001 -0.28396305 0.445556025 0.003895425 0.87176925 0.182682 1.1868957000000002 0.497674125 0.314992125 0.31512645 0.4937787 0.74120535 0.49753980000000003 1.186761375Z" stroke-width="1.5"></path>
      <path id="Vector_5" fill="#1b2194" d="M135.082593 128.36231325000003c0 0.333260325 -0.09805725 0.6591327750000001 -0.28342575 0.93624525 -0.18402525000000003 0.2772468 -0.44730225000000007 0.49324140000000005 -0.755309475 0.620984475 -0.307738575 0.127743075 -0.646506225 0.16119 -0.97331895 0.09644535000000001 -0.32681272499999997 -0.064878975 -0.6270291 -0.225263025 -0.862769475 -0.4607347500000001 -0.235740375 -0.23547172500000002 -0.39625875 -0.5356881 -0.46140637500000004 -0.8623665 -0.0650133 -0.32681272499999997 -0.031835025 -0.665580375 0.0956394 -0.973453275 0.127474425 -0.3078729 0.3433347 -0.571015575 0.620447175 -0.756115425 0.27697815 -0.185234175 0.602716275 -0.284097375 0.9358422750000001 -0.284097375 0.44542170000000003 0.003895425 0.8713662750000001 0.18241335 1.1859554250000002 0.49727115 0.31566375 0.31472347500000003 0.49431600000000003 0.740533725 0.49834575000000003 1.1858211Z" stroke-width="1.5"></path>
      <path id="Vector_6" fill="#1b2194" d="M149.78177775 113.9693895c0 0.333260325 -0.0994005 0.658864125 -0.28342575 0.9358422750000001 -0.18536850000000002 0.27697815 -0.44864550000000003 0.49297275 -0.7562497499999999 0.620447175 -0.30760425 0.127474425 -0.64610325 0.160787025 -0.97385625 0.095773725 -0.32640975 -0.064878975 -0.6259545000000001 -0.22539735000000002 -0.8623665 -0.4610034 -0.23506875 -0.23547172500000002 -0.3949155 -0.5356881 -0.4607347500000001 -0.8623665 -0.064476 -0.32681272499999997 -0.030894750000000002 -0.66544605 0.09537074999999999 -0.97331895 0.12760875 -0.307738575 0.343872 -0.570746925 0.6205815 -0.755846775 0.27805275 -0.18509985 0.60311925 -0.28396305 0.93624525 -0.28396305 0.44595900000000005 0.003895425 0.87176925 0.182682 1.187433 0.497674125 0.31432050000000006 0.31512645 0.49297275 0.74120535 0.4970025 1.186761375Z" stroke-width="1.5"></path>
      <path id="Vector_7" fill="#1b2194" d="M168.15609450000002 114.939216c0 0.33312600000000003 -0.0994005 0.658864125 -0.28342575 0.9358422750000001 -0.18536850000000002 0.27697815 -0.44864550000000003 0.49297275 -0.7562497499999999 0.620447175 -0.30760425 0.127474425 -0.64610325 0.160787025 -0.97385625 0.095773725 -0.32640975 -0.0650133 -0.6259545000000001 -0.22539735000000002 -0.8623665 -0.4610034 -0.23506875 -0.23547172500000002 -0.39625875 -0.5356881 -0.4607347500000001 -0.8623665 -0.064476 -0.32681272499999997 -0.030894750000000002 -0.66544605 0.09537074999999999 -0.97331895 0.12760875 -0.307738575 0.343872 -0.570746925 0.6205815 -0.755846775 0.27805275 -0.18509985 0.60311925 -0.28396305 0.93624525 -0.28396305 0.44595900000000005 0.003895425 0.87176925 0.182547675 1.187433 0.497674125 0.31432050000000006 0.314992125 0.49297275 0.74120535 0.4970025 1.186761375Z" stroke-width="1.5"></path>
      <path id="Vector_8" fill="#1b2194" d="M186.81115050000002 113.9693895c0.93087225 0 1.6844355 -0.7541005500000001 1.6844355 -1.6844355 0 -0.930200625 -0.7535632500000001 -1.6844355 -1.6844355 -1.6844355 -0.9295289999999999 0 -1.6844355 0.7542348750000001 -1.6844355 1.6844355 0 0.93033495 0.7549065000000001 1.6844355 1.6844355 1.6844355Z" stroke-width="1.5"></path>
      <path id="Vector_9" fill="#1b2194" d="M179.48640825 130.429575c0 0.33312600000000003 -0.0994005 0.658864125 -0.28342575 0.9358422750000001 -0.18536850000000002 0.27697815 -0.44864550000000003 0.492838425 -0.7562497499999999 0.620447175 -0.30760425 0.127474425 -0.64610325 0.160787025 -0.97385625 0.095773725 -0.32640975 -0.0650133 -0.6259545000000001 -0.22539735000000002 -0.8623665 -0.4610034 -0.23506875 -0.23547172500000002 -0.3949155 -0.5356881 -0.4607347500000001 -0.8623665 -0.064476 -0.32681272499999997 -0.030894750000000002 -0.66544605 0.09537074999999999 -0.97331895 0.12760875 -0.307738575 0.343872 -0.57088125 0.6205815 -0.755846775 0.27805275 -0.18509985 0.60311925 -0.28396305 0.93624525 -0.28396305 0.22163625 -0.002283525 0.44192925000000005 0.039625875 0.6474465 0.123444675 0.20551725 0.0838188 0.392229 0.20780077500000002 0.5493892499999999 0.364692375 0.155817 0.15689160000000002 0.28073925 0.34360335000000003 0.36402075000000006 0.5489862750000001 0.08462475 0.20538292500000002 0.1262655 0.4255416000000001 0.12357900000000001 0.647312175Z" stroke-width="1.5"></path>
    </g>
    <g id="color 1">
      <path id="Vector_10" fill="#00dcb7" d="M61.406808075 105.880338v8.26770375c1.1740005 -0.48491325 2.41785 -0.99534825 3.7261755 -1.531305v-4.223178000000001c-1.38918915 -0.5958657 -2.653321725 -1.4484264750000002 -3.7261755 -2.51322075Z" stroke-width="1.5"></path>
      <path id="Vector_11" fill="#00dcb7" d="M61.406808075 123.8718285v138.03639975000002h3.7261755V121.54934925c-1.1740005 0.7401307500000001 -2.5266532500000003 1.6078702500000002 -3.7261755 2.32247925Z" stroke-width="1.5"></path>
      <path id="Vector_12" fill="#00dcb7" d="m138.9860775 95.5185075 -2.0403967499999998 2.9094795 0.0510435 -2.4756097500000003 1.9893532500000002 -0.43386975000000005Z" stroke-width="1.5"></path>
      <path id="Vector_13" fill="#00dcb7" d="m190.53732600000004 103.833225 0.612522 -0.38282625c0.134325 -0.069849 5.420013750000001 -1.907415 5.507325 -1.939653 -3.46692825 -1.7301060000000001 -6.502673250000001 -0.9644535 -6.119847 2.32247925Z" stroke-width="1.5"></path>
      <path id="Vector_14" fill="#00dcb7" d="m201.61242224999998 111.36617100000001 -3.4924500000000003 1.225044c2.348001 0.9698265 4.7013750000000005 0.838188 5.335389 -1.12698675l-1.8429390000000003 -0.09805725Z" stroke-width="1.5"></path>
      <path id="Vector_15" fill="#00dcb7" d="M127.630376325 258.10548750000004c-0.295515 -2.97798525 -0.9467226 -5.908956750000001 -1.939653 -8.731125 -5.445669825 1.5568267500000001 -11.218689675000002 1.5568267500000001 -16.6643595 0 -7.221312000000001 2.0927835000000004 -15.46483725 8.4973995 -19.778013 12.529836 14.49501075 0 24.09118875 -0.12760875 35.1152415 -0.1531305 0.46221232500000003 0.00134325 0.9191859750000001 -0.09537074999999999 1.3413694500000002 -0.284769 0.42204915 -0.18805500000000003 0.799636725 -0.462078 1.108046925 -0.80729325 0.3084102 -0.343872 0.5406581250000001 -0.7495335000000001 0.68156505 -1.18877625 0.1407726 -0.44058600000000003 0.187114725 -0.9053505000000001 0.135802575 -1.3647420000000001Z" stroke-width="1.5"></path>
      <path id="Vector_16" fill="#00dcb7" d="m208.5288165 236.31125625 -4.7470455 -2.552175c-1.8886095 6.20178525 -4.1345235 8.039351250000001 -9.979004250000001 11.867613750000002 2.93500125 4.389741 2.245914 6.55908975 1.91413125 7.833834 -3.0894749999999997 2.9094795 -4.64361525 2.89739025 -6.78744225 8.462475h10.746c1.4426505 0.032238 2.86515225 -0.349245 4.099599 -1.09743525 1.23444675 -0.7481902500000001 2.22845175 -1.83353625 2.8678387499999998 -3.127086 1.6119 -3.4924500000000003 2.95515 -10.56466125 4.464963 -14.7247065 0.4701375 -1.2331035000000001 0.46610775 -2.5965022500000003 -0.009402750000000001 -3.8269192500000004 -0.47685375 -1.230417 -1.391607 -2.240541 -2.56963725 -2.8356007500000002Z" stroke-width="1.5"></path>
      <path id="Vector_17" fill="#00dcb7" d="M211.819779 74.43888525c-0.010746 0.233591175 -0.11283300000000002 0.45348120000000003 -0.284769 0.6114474 -0.171936 0.1579662 -0.4002885 0.24097905000000003 -0.634014 0.23077035 -0.2337255 -0.010074375 -0.45401850000000005 -0.11256435000000001 -0.61117875 -0.28490332500000004 -0.1585035 -0.172338975 -0.241785 -0.4002885 -0.231039 -0.633879675 0.005373 -0.1155195 0.032238 -0.22902412500000002 0.08193825 -0.33393195 0.048357 -0.10490782500000001 0.11820599999999999 -0.19920397499999998 0.20283075 -0.277381125 0.085968 -0.07817715 0.18536850000000002 -0.13889205000000002 0.29417175 -0.178517925 0.10880325 -0.039625875 0.22432275000000002 -0.057356775000000006 0.33984225 -0.05238675 0.1155195 0.0051043500000000006 0.22969575000000003 0.0327753 0.33446925 0.08166960000000001 0.1047735 0.0488943 0.198801 0.11807167500000001 0.2767095 0.20336805000000002 0.0779085 0.08529637500000001 0.139698 0.185234175 0.17865225 0.29390310000000003 0.03895425 0.10880325 0.05775975 0.22432275000000002 0.05238675 0.33984225Z" stroke-width="1.5"></path>
      <path id="Vector_18" fill="#00dcb7" d="M61.432329825 105.29333775V64.79703675l3.7261755 -0.00402975v40.7300265c-2.27143575 -0.408348 -3.368871 -0.43386975000000005 -3.7261755 -0.22969575000000003Z" stroke-width="1.5"></path>
      <path id="Vector_19" fill="#00dcb7" d="M163.94500575 77.505525c0.79923375 -0.22969575000000003 1.4896642500000001 -0.7359666750000001 1.94905575 -1.4282777249999998 0.4607347500000001 -0.69231105 0.6581925000000001 -1.5256633499999999 0.56013525 -2.350821825 -0.09805725 -0.8252927999999999 -0.4862565 -1.5886617750000003 -1.096092 -2.153901375 -0.6084922500000001 -0.5651052750000001 -1.3996665000000001 -0.8951418 -2.229795 -0.9310065750000001 0.5843137500000001 -0.52628535 0.9751995 -1.23390945 1.1095245 -2.0089647 0.134325 -0.775189575 0.0026865 -1.572811425 -0.37073700000000004 -2.264853825 -0.3734235000000001 -0.6920424000000001 -0.9698265 -1.23820785 -1.69115175 -1.5507821250000002 -0.7226685 -0.3127086 -1.5286184999999999 -0.373557825 -2.288898 -0.17301060000000001 0.32909625000000003 -0.6994302750000001 0.41775075 -1.487649375 0.252531 -2.242824525 -0.1638765 -0.7550408250000001 -0.5722245 -1.434993975 -1.16191125 -1.9346829749999999 -0.58968675 -0.49955467500000006 -1.327131 -0.79117425 -2.09949975 -0.8294568750000001 -0.7710254999999999 -0.038416950000000005 -1.5339915 0.178517925 -2.1706920000000003 0.617223375 0.08999775000000002 -0.8016516 -0.0994005 -1.609616475 -0.5359567500000001 -2.2882263750000003 -0.435213 -0.6786099 -1.09206225 -1.186492725 -1.8577147500000002 -1.43862075 -0.76699575 -0.2519937 -1.595781 -0.232785225 -2.34934425 0.05453595 -0.7549065000000001 0.28718685 -1.3862340000000002 0.82502415 -1.79055225 1.523111175 -0.15447375000000002 -0.83577015 -0.59774625 -1.591079625 -1.25056575 -2.1357675 -0.65147625 -0.54455355 -1.4748885000000003 -0.844232625 -2.3238225 -0.8471877750000001 -0.8502772500000001 -0.003089475 -1.6750327500000002 0.29067930000000003 -2.3318820000000002 0.8306658 -0.65684925 0.5399865 -1.1041515 1.2922065 -1.2653415 2.126767725 -0.39894525 -0.7010421750000001 -1.026243 -1.24358085 -1.7784630000000001 -1.5369466500000002 -0.7508767500000001 -0.2933658 -1.579662 -0.3196935 -2.348001 -0.07441605 -0.768339 0.24527745000000004 -1.429218 0.746981325 -1.8724905 1.4214271500000002 -0.44192925000000005 0.6743115000000001 -0.639387 1.4802615000000001 -0.558792 2.2827190500000003 -0.6321334500000001 -0.44461575000000003 -1.3932189 -0.668804175 -2.16558765 -0.63804375 -0.7723687499999999 0.030760425 -1.5131711250000002 0.31472347500000003 -2.10809655 0.8080992 -0.59505975 0.49351005000000003 -1.0111986000000002 1.16889615 -1.184343525 1.922325075 -0.17314492499999998 0.7532946 -0.093624525 1.5427226250000001 0.2262033 2.246316975 -0.75786165 -0.20121885 -1.5612594750000002 -0.143862075 -2.2829877 0.16307055 -0.7215939 0.3067983 -1.320280425 0.8457102000000001 -1.7010918 1.531170675 -0.380811375 0.6855948 -0.522121275 1.4785152750000001 -0.40136310000000003 2.2534362 0.12062385 0.7747866 0.496330875 1.4872464 1.0676151 2.0244120750000003 -0.8301285 0.029551499999999998 -1.622780325 0.352603125 -2.23704855 0.9117981 -0.614268225 0.559194975 -1.0102583250000001 1.318131225 -1.117449675 2.141812125 -0.10719135 0.8236808999999999 0.081266625 1.6587794250000003 0.532061325 2.356463475 0.45066037500000006 0.69768405 1.1342403 1.2129547500000002 1.92917565 1.4539338000000002 -0.7961442750000001 0.234934425 -1.4832166500000001 0.7446978000000001 -1.9388470500000001 1.43862075 -0.45563040000000005 0.6939229499999999 -0.650133 1.5270066000000002 -0.5491206000000001 2.35095615 0.101146725 0.8239495499999999 0.49136085 1.58530365 1.101062025 2.148528375 0.6098355000000001 0.563224725 1.399800825 0.8917836750000001 2.229123375 0.9272454750000001 -0.57732885 0.5324643 -0.9596178000000001 1.24304355 -1.0856146500000001 2.01836745 -0.125862525 0.7753239000000001 0.011686275 1.5703935750000002 0.39088575 2.258137575 0.379199475 0.687878325 0.978020325 1.228670775 1.70082315 1.5361407 0.722802825 0.30733560000000004 1.52781255 0.36348345000000004 2.2862115 0.159443775 -0.259918875 0.5522100750000001 -0.37046835 1.16298585 -0.320902425 1.77120945 0.049565925000000004 0.6083579250000001 0.257769675 1.19307465 0.6037908750000001 1.695853125 0.34602120000000003 0.5027784750000001 0.817636275 0.90615645 1.368100125 1.169836425 0.55046385 0.263679975 1.16029935 0.37852785 1.768925925 0.33312600000000003 -1.5568267500000001 -1.25056575 -2.11830525 -4.02975 0.43386975000000005 -9.9266175 4.542737175 -10.488096 8.701439175 -3.164697 8.650395675 1.09743525 0.07656525 0.7656525 0.510435 0.9187830000000001 1.6589137500000002 -0.02552175 2.3990445 -1.9906965 4.491828 2.1948705 -0.07656525 4.59257175 -0.8677395000000001 0.4607347500000001 -1.45473975 1.477575 -0.714609 7.119225 0.0456705 0.4035123 0.11283300000000002 0.8039351250000001 0.204174 1.19952225 0.49834575000000003 0.254814525 1.04907825 0.388602225 1.6078702500000002 0.3906171 0.558792 0.002014875 1.11086775 -0.127743075 1.6105567500000002 -0.3787965 0.499689 -0.25105342500000005 0.93355875 -0.616417425 1.2653415 -1.06627185 0.33178275 -0.44998875000000005 0.553419 -0.9717070500000001 0.64610325 -1.5232455 0.39357225 0.7049376 1.0181835000000001 1.25325225 1.7677170000000002 1.5529313249999999 0.7495335000000001 0.299679075 1.579662 0.332723025 2.3506875000000003 0.0934902 0.7710254999999999 -0.239232825 1.4372775000000002 -0.7361010000000001 1.885923 -1.4075916750000002 0.44730225000000007 -0.67135635 0.65147625 -1.4765004 0.5775975 -2.28056985 0.6272977500000001 0.45052605 1.3848907499999998 0.6818337000000001 2.1572595000000003 0.6581925000000001 0.7710254999999999 -0.0236412 1.51384275 -0.30088800000000004 2.1115890000000004 -0.7887564000000001 0.5990895 -0.488002725 1.01952675 -1.1594934 1.198179 -1.9106388000000003 0.17865225 -0.7511454000000001 0.1047735 -1.5401704500000002 -0.21089025 -2.2451080500000002 0.7562497499999999 0.20377102500000002 1.55817 0.1499067 2.27949525 -0.1531305 0.72132525 -0.302902875 1.321758 -0.8377850250000001 1.70458425 -1.5200217 0.3841695 -0.6821023500000001 0.5292405 -1.472604975 0.41237775 -2.2465856250000003 -0.1155195 -0.77398065 -0.4862565 -1.487112075 -1.0531080000000002 -2.026829925 0.822069 -0.037745325 1.6051837500000001 -0.36294615 2.2123327500000003 -0.9189173250000001 0.607149 -0.55583685 0.999378 -1.3072508999999999 1.1095245 -2.123006625 0.10880325 -0.8157557249999999 -0.07119225 -1.644272325 -0.5090917500000001 -2.34074745 -0.43924275 -0.696475125 -1.10818125 -1.2169845000000001 -1.8912959999999999 -1.4705901000000001Z" stroke-width="1.5"></path>
    </g>
    <g id="outlines">
      <path id="Vector_20" stroke="#fcfcfc" d="M86.87482807500001 113.3568675c0.93033495 0 1.6844355 -0.7541005500000001 1.6844355 -1.6844355 0 -0.930200625 -0.7541005500000001 -1.6844355 -1.6844355 -1.6844355 -0.930200625 0 -1.6844355 0.7542348750000001 -1.6844355 1.6844355 0 0.93033495 0.7542348750000001 1.6844355 1.6844355 1.6844355Z" stroke-width="1.5"></path>
      <path id="Vector_21" stroke="#fcfcfc" d="M102.03474757500001 126.2198295c0 0.333260325 -0.098728875 0.658864125 -0.283828725 0.9358422750000001 -0.18509985 0.27697815 -0.448242525 0.49297275 -0.7559811 0.620447175 -0.307738575 0.127474425 -0.646506225 0.160787025 -0.9731846250000001 0.095773725 -0.32681272499999997 -0.064878975 -0.626894775 -0.22539735000000002 -0.862500825 -0.460869075 -0.23560605 -0.23560605 -0.3959901 -0.535822425 -0.4610034 -0.862500825 -0.0650133 -0.32681272499999997 -0.031566375 -0.66544605 0.09590805000000001 -0.9731846250000001 0.127474425 -0.3078729 0.3433347 -0.57088125 0.62031285 -0.7559811 0.277112475 -0.18509985 0.602716275 -0.28396305 0.9358422750000001 -0.28396305 0.44569035 0.0036267750000000005 0.8720379 0.1821447 1.18716435 0.49727115 0.315260775 0.31512645 0.4937787 0.7416083250000001 0.49727115 1.18716435Z" stroke-width="1.5"></path>
      <path id="Vector_22" stroke="#fcfcfc" d="M117.78018975000002 113.9693895c0 0.333260325 -0.098728875 0.658864125 -0.283828725 0.9358422750000001 -0.18509985 0.27697815 -0.4481082 0.49297275 -0.7559811 0.620447175 -0.307738575 0.127474425 -0.6463719 0.160787025 -0.9731846250000001 0.095773725 -0.32667840000000004 -0.064878975 -0.626894775 -0.22539735000000002 -0.862500825 -0.4610034 -0.23547172500000002 -0.23547172500000002 -0.3959901 -0.5356881 -0.4610034 -0.8623665 -0.064878975 -0.32681272499999997 -0.031566375 -0.66544605 0.09590805000000001 -0.97331895 0.127474425 -0.307738575 0.3433347 -0.570746925 0.620447175 -0.755846775 0.27697815 -0.18509985 0.60258195 -0.28396305 0.9357079500000001 -0.28396305 0.445556025 0.003895425 0.87176925 0.182682 1.1868957000000002 0.497674125 0.314992125 0.31512645 0.4937787 0.74120535 0.49753980000000003 1.186761375Z" stroke-width="1.5"></path>
      <path id="Vector_23" stroke="#fcfcfc" d="M135.082593 128.36231325000003c0 0.333260325 -0.09805725 0.6591327750000001 -0.28342575 0.93624525 -0.18402525000000003 0.2772468 -0.44730225000000007 0.49324140000000005 -0.755309475 0.620984475 -0.307738575 0.127743075 -0.646506225 0.16119 -0.97331895 0.09644535000000001 -0.32681272499999997 -0.064878975 -0.6270291 -0.225263025 -0.862769475 -0.4607347500000001 -0.235740375 -0.23547172500000002 -0.39625875 -0.5356881 -0.46140637500000004 -0.8623665 -0.0650133 -0.32681272499999997 -0.031835025 -0.665580375 0.0956394 -0.973453275 0.127474425 -0.3078729 0.3433347 -0.571015575 0.620447175 -0.756115425 0.27697815 -0.185234175 0.602716275 -0.284097375 0.9358422750000001 -0.284097375 0.44542170000000003 0.003895425 0.8713662750000001 0.18241335 1.1859554250000002 0.49727115 0.31566375 0.31472347500000003 0.49431600000000003 0.740533725 0.49834575000000003 1.1858211Z" stroke-width="1.5"></path>
      <path id="Vector_24" stroke="#fcfcfc" d="M149.78177775 113.9693895c0 0.333260325 -0.0994005 0.658864125 -0.28342575 0.9358422750000001 -0.18536850000000002 0.27697815 -0.44864550000000003 0.49297275 -0.7562497499999999 0.620447175 -0.30760425 0.127474425 -0.64610325 0.160787025 -0.97385625 0.095773725 -0.32640975 -0.064878975 -0.6259545000000001 -0.22539735000000002 -0.8623665 -0.4610034 -0.23506875 -0.23547172500000002 -0.3949155 -0.5356881 -0.4607347500000001 -0.8623665 -0.064476 -0.32681272499999997 -0.030894750000000002 -0.66544605 0.09537074999999999 -0.97331895 0.12760875 -0.307738575 0.343872 -0.570746925 0.6205815 -0.755846775 0.27805275 -0.18509985 0.60311925 -0.28396305 0.93624525 -0.28396305 0.44595900000000005 0.003895425 0.87176925 0.182682 1.187433 0.497674125 0.31432050000000006 0.31512645 0.49297275 0.74120535 0.4970025 1.186761375Z" stroke-width="1.5"></path>
      <path id="Vector_25" stroke="#fcfcfc" d="M168.15609450000002 114.939216c0 0.33312600000000003 -0.0994005 0.658864125 -0.28342575 0.9358422750000001 -0.18536850000000002 0.27697815 -0.44864550000000003 0.49297275 -0.7562497499999999 0.620447175 -0.30760425 0.127474425 -0.64610325 0.160787025 -0.97385625 0.095773725 -0.32640975 -0.0650133 -0.6259545000000001 -0.22539735000000002 -0.8623665 -0.4610034 -0.23506875 -0.23547172500000002 -0.39625875 -0.5356881 -0.4607347500000001 -0.8623665 -0.064476 -0.32681272499999997 -0.030894750000000002 -0.66544605 0.09537074999999999 -0.97331895 0.12760875 -0.307738575 0.343872 -0.570746925 0.6205815 -0.755846775 0.27805275 -0.18509985 0.60311925 -0.28396305 0.93624525 -0.28396305 0.44595900000000005 0.003895425 0.87176925 0.182547675 1.187433 0.497674125 0.31432050000000006 0.314992125 0.49297275 0.74120535 0.4970025 1.186761375Z" stroke-width="1.5"></path>
      <path id="Vector_26" stroke="#fcfcfc" d="M186.81115050000002 113.9693895c0.93087225 0 1.6844355 -0.7541005500000001 1.6844355 -1.6844355 0 -0.930200625 -0.7535632500000001 -1.6844355 -1.6844355 -1.6844355 -0.9295289999999999 0 -1.6844355 0.7542348750000001 -1.6844355 1.6844355 0 0.93033495 0.7549065000000001 1.6844355 1.6844355 1.6844355Z" stroke-width="1.5"></path>
      <path id="Vector_27" stroke="#fcfcfc" d="M179.48640825 130.429575c0 0.33312600000000003 -0.0994005 0.658864125 -0.28342575 0.9358422750000001 -0.18536850000000002 0.27697815 -0.44864550000000003 0.492838425 -0.7562497499999999 0.620447175 -0.30760425 0.127474425 -0.64610325 0.160787025 -0.97385625 0.095773725 -0.32640975 -0.0650133 -0.6259545000000001 -0.22539735000000002 -0.8623665 -0.4610034 -0.23506875 -0.23547172500000002 -0.3949155 -0.5356881 -0.4607347500000001 -0.8623665 -0.064476 -0.32681272499999997 -0.030894750000000002 -0.66544605 0.09537074999999999 -0.97331895 0.12760875 -0.307738575 0.343872 -0.57088125 0.6205815 -0.755846775 0.27805275 -0.18509985 0.60311925 -0.28396305 0.93624525 -0.28396305 0.22163625 -0.002283525 0.44192925000000005 0.039625875 0.6474465 0.123444675 0.20551725 0.0838188 0.392229 0.20780077500000002 0.5493892499999999 0.364692375 0.155817 0.15689160000000002 0.28073925 0.34360335000000003 0.36402075000000006 0.5489862750000001 0.08462475 0.20538292500000002 0.1262655 0.4255416000000001 0.12357900000000001 0.647312175Z" stroke-width="1.5"></path>
      <path id="Vector_28" stroke="#fcfcfc" d="M211.819779 74.43888525c-0.010746 0.233591175 -0.11283300000000002 0.45348120000000003 -0.284769 0.6114474 -0.171936 0.1579662 -0.4002885 0.24097905000000003 -0.634014 0.23077035 -0.2337255 -0.010074375 -0.45401850000000005 -0.11256435000000001 -0.61117875 -0.28490332500000004 -0.1585035 -0.172338975 -0.241785 -0.4002885 -0.231039 -0.633879675 0.005373 -0.1155195 0.032238 -0.22902412500000002 0.08193825 -0.33393195 0.048357 -0.10490782500000001 0.11820599999999999 -0.19920397499999998 0.20283075 -0.277381125 0.085968 -0.07817715 0.18536850000000002 -0.13889205000000002 0.29417175 -0.178517925 0.10880325 -0.039625875 0.22432275000000002 -0.057356775000000006 0.33984225 -0.05238675 0.1155195 0.0051043500000000006 0.22969575000000003 0.0327753 0.33446925 0.08166960000000001 0.1047735 0.0488943 0.198801 0.11807167500000001 0.2767095 0.20336805000000002 0.0779085 0.08529637500000001 0.139698 0.185234175 0.17865225 0.29390310000000003 0.03895425 0.10880325 0.05775975 0.22432275000000002 0.05238675 0.33984225Z" stroke-width="1.5"></path>
      <path id="Vector_29" stroke="#fcfcfc" stroke-linecap="round" stroke-linejoin="round" d="M61.4064051 105.29333775V64.793007" stroke-width="1.5"></path>
      <path id="Vector_30" stroke="#fcfcfc" stroke-linecap="round" stroke-linejoin="round" d="M61.4064051 114.14804175v-8.242182" stroke-width="1.5"></path>
      <path id="Vector_31" stroke="#fcfcfc" stroke-linecap="round" stroke-linejoin="round" d="M61.4064051 261.93375000000003V123.94839375000001" stroke-width="1.5"></path>
      <path id="Vector_32" stroke="#fcfcfc" stroke-linecap="round" stroke-linejoin="round" d="M65.15810235000001 121.65143625V261.93375000000003" stroke-width="1.5"></path>
      <path id="Vector_33" stroke="#fcfcfc" stroke-linecap="round" stroke-linejoin="round" d="M65.15810235000001 108.40699125v4.235267250000001" stroke-width="1.5"></path>
      <path id="Vector_34" stroke="#fcfcfc" stroke-linecap="round" stroke-linejoin="round" d="M65.15810235000001 64.793007v40.7300265" stroke-width="1.5"></path>
      <path id="Vector_35" stroke="#fcfcfc" stroke-linecap="round" stroke-linejoin="round" d="M200.6681175 114.684132825c6.38715375 14.495413725 7.172955 30.844915425000003 2.20427325 45.885285675000006 -4.9673385 15.041713500000002 -15.3372285 27.705874500000004 -29.10151125 35.5450815" stroke-width="1.5"></path>
      <path id="Vector_36" stroke="#fcfcfc" stroke-linecap="round" stroke-linejoin="round" d="M87.61455585000002 107.07986025c5.379984900000001 -8.76846735 12.79499355 -16.110268875 21.616250625000003 -21.402942525 4.203700875 -2.5220862 8.667589275000001 -4.5434088 13.3003242 -6.0356252249999995m69.722868825 21.11723325c-6.3965565 -8.05708215 -14.641425000000002 -14.452832700000002 -24.036115499999998 -18.64511595 -0.6178950000000001 -0.27590355 -1.23981975 -0.541732725 -1.86577425 -0.7974875250000001" stroke-width="1.5"></path>
      <path id="Vector_37" stroke="#fcfcfc" stroke-linecap="round" stroke-linejoin="round" d="M117.42288525000001 199.51157925c-11.6266347 -4.87465425 -21.554192475 -13.075195500000001 -28.536405975 -23.571351 -6.982213500000001 -10.49749875 -10.707851699999999 -22.82316075 -10.709329275 -35.429562000000004 -0.00026865 -6.292454625 0.918380025 -12.551328 2.726663175 -18.57849075" stroke-width="1.5"></path>
      <path id="Vector_38" stroke="#fcfcfc" stroke-linecap="round" stroke-linejoin="round" d="M152.89543125 203.56953750000002c-3.53140425 0.7441605000000001 -7.140717 1.0437052500000001 -10.746 0.8932612500000001 -1.7462250000000001 0 -3.5018527500000003 -0.069849 -5.230615500000001 -0.20820375000000002" stroke-width="1.5"></path>
      <path id="Vector_39" stroke="#fcfcfc" stroke-linecap="round" stroke-linejoin="round" d="M202.93955325 112.38704100000001c-5.002263 5.002263 -11.617769249999998 12.245067 -18.450882 20.492622 -1.70458425 2.06457525 -4.131837 3.4011090000000004 -6.786099 3.7369215000000002 -2.6556052500000003 0.33715575000000003 -5.33941875 -0.3519315 -7.50473775 -1.9248772500000002 -5.99761125 -4.362876000000001 -10.0555695 -7.50205125 -16.63883775 -12.325662000000001" stroke-width="1.5"></path>
      <path id="Vector_40" stroke="#fcfcfc" stroke-linecap="round" stroke-linejoin="round" d="m136.914786 98.47097100000002 2.0712915 -2.9524635" stroke-width="1.5"></path>
      <path id="Vector_41" stroke="#fcfcfc" stroke-linecap="round" stroke-linejoin="round" d="M191.10417750000002 101.47313475000001c-5.62150125 4.878012375 -10.65868875 10.390173075 -15.012162 16.42660425 0 0 -12.735353250000001 -10.66406175 -21.461105250000003 -15.975272250000002 -9.010521 -5.484489750000001 -11.1301695 3.5730450000000005 -12.12283125 -3.95587125 -0.7428172500000001 -5.64165 -0.1531305 -6.662520000000001 0.714609 -7.119225 4.56705 -2.4071040000000004 2.46755025 -6.5953575 0.07656525 -4.593915 -1.42250175 1.1914627500000001 -1.5823485 0.671625 -1.6427947500000002 -0.44192925000000005 -0.23641199999999998 -4.2984 -4.2621322500000005 -10.746 -8.64112725 -0.62998425 -6.1789499999999995 14.265315 5.97074625 10.334965500000001 5.97074625 10.334965500000001" stroke-width="1.5"></path>
      <path id="Vector_42" stroke="#fcfcfc" stroke-linecap="round" stroke-linejoin="round" d="M136.995381 95.934915c0.15178725 2.186811 -0.20551725 5.710155750000001 -2.3721795 5.1983775 -5.561055 -1.3136985 -7.941294 -0.44058600000000003 -11.10196125 2.014875 -6.28641 4.8867435 -19.063538325 12.121488 -19.063538325 12.121488 -7.578616500000001 -4.56705 -13.065658425 -6.532224750000001 -20.133839925 -9.569313 -3.7443093750000003 4.137612975 -5.919299775 9.456882975000001 -6.146712 15.032310750000002 10.074375 4.31317575 13.934875500000002 6.786099 21.819753000000002 10.6412265 1.7661051 0.8688141000000001 3.7222800750000005 1.2798486 5.688798075 1.1950895250000002 1.966383675 -0.084759075 3.8799776250000004 -0.6624909000000001 5.564816100000001 -1.680002775 4.9552492500000005 -3.0035070000000004 9.6203565 -5.76657225 14.69918475 -8.446356000000002" stroke-width="1.5"></path>
      <path id="Vector_43" stroke="#fcfcfc" stroke-linecap="round" stroke-linejoin="round" d="M196.66120275000003 101.51611875c-3.04246125 -1.5219022500000001 -5.7517965 -1.1202705 -6.11581725 1.2196710000000002 -0.31297725000000004 2.014875 1.05445125 4.3924275 2.3547172499999998 5.95194075 1.81473075 2.282047425 4.3709355 3.8576796750000004 7.22534175 4.454217 0.6635655 0.185502825 1.3728015 0.11632545 1.98801 -0.194099625 0.6152085 -0.310425075 1.09206225 -0.8395312500000001 1.337877 -1.4836196250000002" stroke-width="1.5"></path>
      <path id="Vector_44" stroke="#fcfcfc" stroke-linecap="round" stroke-linejoin="round" d="M124.36345800000001 111.74899725c0.55261305 8.429162400000001 2.7094695750000004 16.675239825 6.35491575 24.29536275 7.79085 2.06726175 14.112184500000001 1.5823485 21.99840525 -0.816696 -0.6205815 -5.9060016 0.1585035 -11.875001625000001 2.27143575 -17.424639" stroke-width="1.5"></path>
      <path id="Vector_45" stroke="#fcfcfc" stroke-linecap="round" stroke-linejoin="round" d="M198.11594250000002 112.591349325c3.6187155 -1.3946964750000002 7.33817475 -2.512011825 11.127483000000002 -3.342006 3.3957360000000003 -0.581224275 6.8478885 -0.7526229750000001 10.283922 -0.510435 5.05464975 0.2982015 5.861943 -0.84490425 0.63804375 -2.6287402500000003 -1.91681775 -0.655506 -11.713140000000001 -2.04308325 -13.882488750000002 -2.348001 -3.4709580000000004 -0.48759975 -8.5968 -0.99534825 -11.9952225 -1.09743525 -0.257904 0.0005373 -0.515808 0.0166563 -0.7710254999999999 0.048357" stroke-width="1.5"></path>
      <path id="Vector_46" stroke="#fcfcfc" stroke-linecap="round" stroke-linejoin="round" d="M190.53732600000004 103.833359325c0.0725355 -0.0456705 11.850151499999999 -4.432725 16.53675075 -6.581925000000001 5.438819250000001 -2.49978825 3.9746767500000004 -0.5668515 2.5776967500000003 1.09743525 -1.026243 1.22101425 -6.09969825 4.593915 -3.368871 5.410610999999999" stroke-width="1.5"></path>
      <path id="Vector_47" stroke="#fcfcfc" stroke-linecap="round" stroke-linejoin="round" d="M201.5869005 111.35542500000001c3.0894749999999997 -0.7401307500000001 9.18783 -0.09805725 11.89179225 0.05641650000000001 2.1948705 0.1262655 5.385089250000001 0.8462475 7.835177250000001 1.0746 0.5614785 0.05238675 1.1740005 -0.7656525 -2.0927835000000004 -2.0927835000000004 -1.2263872500000002 -0.49565925 -3.3876765 -1.391607 -4.4085465 -1.7059275" stroke-width="1.5"></path>
      <path id="Vector_48" stroke="#fcfcfc" stroke-linecap="round" stroke-linejoin="round" d="M201.45660525000002 111.4118415c2.541429 0.009402750000000001 5.07345525 0.28490332500000004 7.5571245000000005 0.822069 2.014875 0.45939150000000006 5.3918055 1.7341357499999999 7.5530947500000005 2.32247925 0.5373 0.14641425 1.2760875 -0.5614785 -1.70995725 -2.42456625 -0.22566600000000003 -0.15044400000000002 -0.64878975 -0.402975 -1.14847875 -0.69849" stroke-width="1.5"></path>
      <path id="Vector_49" stroke="#fcfcfc" stroke-linecap="round" stroke-linejoin="round" d="M78.402816 118.4612175c-4.121493975 -0.6110444250000001 -8.288524125 -0.858739725 -12.453270750000001 -0.7401307500000001 -3.4396602750000005 0.262874025 -6.838620075000001 0.913544325 -10.13213475 1.939653 -4.84778925 1.5071265000000003 -5.9103 0.553419 -1.25056575 -2.41785 7.8682212 -3.7507569750000003 16.00643565 -6.906857175 24.34640625 -9.44170425 1.1831346 -0.32318595 2.4355809 -0.287589825 3.59856675 0.102087" stroke-width="1.5"></path>
      <path id="Vector_50" stroke="#fcfcfc" stroke-linecap="round" stroke-linejoin="round" d="M67.606981425 111.672432c2.450088 -1.45473975 -3.3406627500000003 -3.4924500000000003 -4.6180935000000005 -4.432725 -1.7341357499999999 -1.278774 -3.64692375 -2.79396 2.245914 -1.6844355 4.93590645 1.00501965 9.93225915 1.6861817250000002 14.95708875 2.0390535" stroke-width="1.5"></path>
      <path id="Vector_51" stroke="#fcfcfc" stroke-linecap="round" stroke-linejoin="round" d="M60.36001335 118.512261c-1.0746 0.6635655 -3.213054 2.224422 -3.8282625 2.6865 -2.820825 2.08606725 -2.0659185 2.7348570000000003 -1.531305 2.552175 2.12367825 -0.7253550000000001 5.385089250000001 -2.27143575 7.350264000000001 -2.88395775 3.19021875 -0.99534825 9.3140955 -3.1136535000000003 12.223575 -2.8073924999999997" stroke-width="1.5"></path>
      <path id="Vector_52" stroke="#fcfcfc" stroke-linecap="round" stroke-linejoin="round" d="M62.172057599999995 120.9113055c-0.43386975000000005 0.43386975000000005 -0.7656525 0.79117425 -0.9698265 0.9698265 -2.450088 2.5011315 -1.58637825 3.030372 -1.09743525 2.756349 1.950399 -1.09743525 4.927041 -3.1082805000000002 6.7887855 -4.02975 2.2747938750000003 -1.0740627 4.6401228 -1.94529465 7.0681815 -2.6032185" stroke-width="1.5"></path>
      <path id="Vector_53" stroke="#fcfcfc" stroke-linecap="round" stroke-linejoin="round" d="M127.630107675 258.10548750000004c-0.295515 -2.97798525 -0.9467226 -5.908956750000001 -1.939653 -8.731125 -5.445669825 1.5568267500000001 -11.218689675000002 1.5568267500000001 -16.6643595 0 -7.221312000000001 2.0927835000000004 -15.46483725 8.4973995 -19.778013 12.529836 14.49501075 0 24.09118875 -0.12760875 35.1152415 -0.1531305 0.462078 0.00134325 0.9191859750000001 -0.09537074999999999 1.341235125 -0.284769 0.42218347500000003 -0.18805500000000003 0.79977105 -0.462078 1.10818125 -0.80729325 0.3084102 -0.343872 0.5405238 -0.7495335000000001 0.681430725 -1.18877625 0.140906925 -0.44058600000000003 0.18724905 -0.9053505000000001 0.1359369 -1.3647420000000001v0Z" stroke-width="1.5"></path>
      <path id="Vector_54" stroke="#fcfcfc" stroke-linecap="round" stroke-linejoin="round" d="M134.4190275 209.434167c0.16790625 7.12594125 -5.51565315 21.255588 -8.731393650000001 39.969747000000005" stroke-width="1.5"></path>
      <path id="Vector_55" stroke="#fcfcfc" stroke-linecap="round" stroke-linejoin="round" d="m109.0262295 249.37839225 8.295912000000001 -42.85639125" stroke-width="1.5"></path>
      <path id="Vector_56" stroke="#fcfcfc" stroke-linecap="round" stroke-linejoin="round" d="m145.33965 177.8973435 -10.0287045 31.389066c-6.608387025 1.1632545 -13.415172075000001 -0.048357 -19.216534499999998 -3.4199145l14.62396275 -69.79527" stroke-width="1.5"></path>
      <path id="Vector_57" stroke="#fcfcfc" stroke-linecap="round" stroke-linejoin="round" d="m208.55433825 236.33677799999998 -4.7470455 -2.552175c-1.8886095 6.200442 -4.164075 8.038008 -10.004526 11.8662705 2.93500125 4.389741 2.245914 6.55908975 1.91413125 7.833834 -3.0894749999999997 2.9094795 -4.64361525 2.8718685 -6.78744225 8.43561h10.746c1.4426505 0.032238 2.86515225 -0.349245 4.099599 -1.09743525 1.2331035000000001 -0.7481902500000001 2.22845175 -1.83353625 2.8678387499999998 -3.127086 1.6119 -3.4924500000000003 2.95515 -10.56466125 4.464963 -14.7247065 0.4701375 -1.2263872500000002 0.46879424999999997 -2.5817265 -0.0026865 -3.80811375 -0.47148075 -1.225044 -1.3808610000000001 -2.2311382500000003 -2.55083175 -2.826198v0Z" stroke-width="1.5"></path>
      <path id="Vector_58" stroke="#fcfcfc" stroke-linecap="round" stroke-linejoin="round" d="M193.8282885 245.65221675 163.07726625 212.50215" stroke-width="1.5"></path>
      <path id="Vector_59" stroke="#fcfcfc" stroke-linecap="round" stroke-linejoin="round" d="M176.44932000000003 202.01271075c4.325265000000001 3.5582692500000004 8.236809 7.59070575 11.66343975 12.02074425 4.69197225 6.4328242499999995 15.694533 19.745775 15.694533 19.745775" stroke-width="1.5"></path>
      <path id="Vector_60" stroke="#fcfcfc" stroke-linecap="round" stroke-linejoin="round" d="m138.9860775 153.70406775 11.740005 44.78798475000001c0.8919180000000001 3.3997657500000003 2.7120217500000003 6.482524499999999 5.257480500000001 8.9057475l5.849853750000001 5.5691145c6.23402325 -2.009502 11.568069000000001 -6.13730925 15.075294750000001 -11.668812749999999l-5.281659 -8.731125 -3.34334925 -34.043328c-1.2277305 -12.68028 -8.796944250000001 -21.42349425 -15.566924250000001 -23.3000145" stroke-width="1.5"></path>
      <path id="Vector_61" stroke="#fcfcfc" stroke-linecap="round" stroke-linejoin="round" d="M148.09734225 100.08690075c-4.3010865 5.4088647750000005 -7.721001 11.463698475000001 -10.1307915 17.940447 -3.39439275 -5.589263249999999 -6.716384325 -17.46225 -6.716384325 -17.46225" stroke-width="1.5"></path>
      <path id="Vector_62" stroke="#fcfcfc" stroke-linecap="round" stroke-linejoin="round" d="M35.171389350000005 261.93375000000003H238.15688175000003" stroke-width="1.5"></path>
      <path id="Vector_63" stroke="#fcfcfc" stroke-linecap="round" stroke-linejoin="round" d="M213.88704075 51.752870325c-10.10526975 -1.91413125 -19.745775 4.02975 -21.492 13.26996675 -0.5937165 3.2372325 -0.1746225 6.579104175 1.2008655000000001 9.569313l-4.3642192500000005 7.146090000000001 8.269047 -1.6844355c2.7764977500000003 2.6623215 6.27163425 4.454351325 10.054226250000001 5.155393500000001 10.10526975 1.91413125 19.745775 -4.02975 21.492 -13.26996675 1.7596575 -9.2388735 -5.02778475 -18.27222975 -15.1599195 -20.186361Z" stroke-width="1.5"></path>
      <path id="Vector_64" stroke="#fcfcfc" stroke-linecap="round" stroke-linejoin="round" d="M210.92651775 70.5609225c0.02552175 -1.14847875 0.46610775 -1.9866667500000001 1.8886095 -3.879306 3.0693262500000005 -4.08213675 1.208925 -6.89490225 -1.4036962499999999 -7.01848125 -0.467451 -0.020820375000000002 -0.93355875 0.06152085 -1.3647420000000001 0.241382025 -0.43118325 0.17972685000000002 -0.81803925 0.452540925 -1.13235975 0.798830775 -0.31432050000000006 0.34628984999999995 -0.5493892499999999 0.7577273250000001 -0.68640075 1.204760925 -0.1370115 0.4470336 -0.17327925000000002 0.9189173250000001 -0.10746 1.381801275" stroke-width="1.5"></path>
      <path id="Vector_65" stroke="#fcfcfc" stroke-linecap="round" stroke-linejoin="round" d="M199.85142150000001 194.25544200000002h5.512698" stroke-width="1.5"></path>
      <path id="Vector_66" stroke="#fcfcfc" stroke-linecap="round" stroke-linejoin="round" d="M215.1376065 194.22992025000002h5.512698" stroke-width="1.5"></path>
      <path id="Vector_67" stroke="#fcfcfc" stroke-linecap="round" stroke-linejoin="round" d="M210.250863 183.842568v5.512698" stroke-width="1.5"></path>
      <path id="Vector_68" stroke="#fcfcfc" stroke-linecap="round" stroke-linejoin="round" d="M210.27638475 199.13009625v5.51135475" stroke-width="1.5"></path>
      <path id="Vector_69" stroke="#fcfcfc" stroke-linecap="round" stroke-linejoin="round" d="m202.88850975000003 186.905178 3.9048277500000004 3.879306" stroke-width="1.5"></path>
      <path id="Vector_70" stroke="#fcfcfc" stroke-linecap="round" stroke-linejoin="round" d="m213.73391025 197.70087825000002 3.9048277500000004 3.87796275" stroke-width="1.5"></path>
      <path id="Vector_71" stroke="#fcfcfc" stroke-linecap="round" stroke-linejoin="round" d="m217.61321625 186.87965625 -3.9048277500000004 3.9048277500000004" stroke-width="1.5"></path>
      <path id="Vector_72" stroke="#fcfcfc" stroke-linecap="round" stroke-linejoin="round" d="m206.81885925 197.70087825000002 -3.9048277500000004 3.9034845000000002" stroke-width="1.5"></path>
      <path id="Vector_73" stroke="#fcfcfc" stroke-linecap="round" stroke-linejoin="round" d="M35.273610675 64.793007c-0.838053675 -0.001746225 -1.660928625 -0.22365112500000003 -2.3861493 -0.6435510750000001s-1.32739965 -1.0230192 -1.7462250000000001 -1.749045825c-0.418691025 -0.7258923 -0.639252675 -1.5490359 -0.63965565 -2.387089575 -0.00040297499999999997 -0.838053675 0.21948705 -1.6616002500000002 0.6375064500000001 -2.3878955250000002l27.9960165 -48.5168064525c0.42070589999999997 -0.72739674 1.025302725 -1.3313353725 1.753075575 -1.75122189 0.7277728499999999 -0.41987308500000003 1.5533343000000002 -0.6409048725000001 2.393537175 -0.6409048725000001 0.8403372000000001 0 1.665764325 0.22103178750000002 2.393537175 0.6409048725000001 0.7279071750000001 0.4198865175 1.3325040000000001 1.02382515 1.753075575 1.75122189L95.42434567500001 57.625425c0.41949697500000005 0.7264296 0.6405959250000001 1.55037915 0.640864575 2.38910445 0.00040297499999999997 0.8388596250000001 -0.22002435 1.6629435000000001 -0.6389840250000001 2.38964175 -0.41895967500000003 0.7266982500000001 -1.02167595 1.3303548 -1.747702575 1.750389075 -0.726026625 0.420034275 -1.54984185 0.6415362000000001 -2.388701475 0.642476475l-56.0162115 -0.00402975Z" stroke-width="1.5"></path>
      <path id="Vector_74" stroke="#fcfcfc" stroke-linecap="round" stroke-linejoin="round" d="M103.1051835 36.74729025c0.045267525 0.504659025 -0.060043275 1.011332925 -0.30276855 1.4559486750000001 -0.24272527500000002 0.444750075 -0.6118503750000001 0.8075618999999999 -1.0606302 1.042362 -0.44891415 0.234934425 -0.957334275 0.3315141 -1.461053025 0.27751545 -0.50371875 -0.05399865 -0.9801695250000001 -0.25615777500000003 -1.368906075 -0.580955625 -0.388870875 -0.32479785 -0.6726996000000001 -0.757593 -0.815487075 -1.24358085 -0.1429218 -0.48612217500000005 -0.138489075 -1.003542075 0.012760875 -1.487112075 0.15124995000000002 -0.48357 0.44246655000000007 -0.911395125 0.83684475 -1.2293424000000002 0.39437820000000007 -0.3180816 0.8741871000000001 -0.511912575 1.3787118 -0.5573144250000001 0.6763263749999999 -0.058968675000000005 1.348488675 0.15232455 1.86953535 0.5875375500000001 0.521046675 0.435078675 0.8486653500000001 1.0590183 0.9109921500000001 1.7349417000000003v0Z" stroke-width="1.5"></path>
      <path id="Vector_75" stroke="#fcfcfc" stroke-linecap="round" stroke-linejoin="round" d="M82.34525475 222.58189800000002v10.310787000000001" stroke-width="1.5"></path>
      <path id="Vector_76" stroke="#fcfcfc" stroke-linecap="round" stroke-linejoin="round" d="M87.51246885 227.7372915h-10.334965500000001" stroke-width="1.5"></path>
      <path id="Vector_77" stroke="#fcfcfc" stroke-linecap="round" stroke-linejoin="round" d="M142.712253 99.16811775000001c0.49297275 0.2648889 1.04101875 0.408348 1.601154 0.41828805 0.558792 0.00994005 1.112211 -0.11377327500000001 1.6145865 -0.360931275 0.5010322500000001 -0.24715800000000002 0.9375884999999999 -0.61064145 1.26937125 -1.0600929000000001 0.33312600000000003 -0.44945145000000003 0.55476225 -0.9718413750000001 0.64476 -1.523917125 0.39357225 0.7049376 1.0181835000000001 1.25325225 1.7677170000000002 1.5529313249999999 0.7495335000000001 0.2998134 1.579662 0.332723025 2.3506875000000003 0.0934902 0.7710254999999999 -0.239232825 1.4372775000000002 -0.7361010000000001 1.88457975 -1.4075916750000002 0.44864550000000003 -0.67135635 0.6528195 -1.4765004 0.57894075 -2.28056985 0.6272977500000001 0.45052605 1.3848907499999998 0.6818337000000001 2.1572595000000003 0.6581925000000001 0.7710254999999999 -0.0236412 1.51384275 -0.300753675 2.1115890000000004 -0.7887564000000001 0.5990895 -0.488002725 1.01952675 -1.1594934 1.198179 -1.9106388000000003 0.17865225 -0.7511454000000001 0.1047735 -1.5401704500000002 -0.21089025 -2.2451080500000002 0.5265540000000001 0.146817225 1.0786297500000002 0.16857787500000002 1.61592975 0.0634014 0.5359567500000001 -0.1053108 1.0396755 -0.33446925 1.47085875 -0.6693414750000001 0.43118325 -0.334872225 0.779085 -0.766055475 1.01415375 -1.259028225 0.23506875 -0.493107075 0.3519315 -1.0343025000000001 0.33984225 -1.5804679500000003 -0.0080595 -0.46879424999999997 -0.11014650000000001 -0.931275225 -0.2982015 -1.3605779249999999 -0.18805500000000003 -0.42943702499999997 -0.45939150000000006 -0.817098975 -0.79923375 -1.140553575 0.9187830000000001 -0.025656075 1.79055225 -0.412512075 2.4259095000000004 -1.076614875 0.63535725 -0.6641028 0.983259 -1.5518567250000002 0.96848325 -2.470908375 -0.0134325 -0.742682925 -0.25924725000000004 -1.4625306 -0.703863 -2.0577246750000002 -0.4432725 -0.5953284 -1.063854 -1.03618305 -1.77174675 -1.2601028250000001 0.7374442500000001 -0.2170692 1.3862340000000002 -0.6678639 1.8456255000000001 -1.284549975 0.4607347500000001 -0.6165517500000001 0.7078927500000001 -1.365950925 0.7065495 -2.135364525 -0.01208925 -0.8967537 -0.36805050000000006 -1.754687475 -0.99534825 -2.395955025 -0.6272977500000001 -0.641133225 -1.477575 -1.0164372750000001 -2.37352275 -1.048137975 0.5292405 -0.47913727500000003 0.8999775000000001 -1.1079126 1.0625107500000002 -1.802775825 0.1638765 -0.694863225 0.11148975000000001 -1.4230390499999999 -0.14910075 -2.08767915 -0.25924725000000004 -0.664505775 -0.7159522500000001 -1.2343124250000002 -1.3083255 -1.633392 -0.59103 -0.39921390000000007 -1.29086325 -0.608895225 -2.0041290000000003 -0.601373025 -0.284769 0.006313275 -0.56819475 0.049162950000000004 -0.84221775 0.12760875 0.327753 -0.6994302750000001 0.41775075 -1.487649375 0.252531 -2.242824525 -0.1638765 -0.7550408250000001 -0.5722245 -1.434993975 -1.16191125 -1.9346829749999999 -0.58968675 -0.49955467500000006 -1.327131 -0.79117425 -2.09949975 -0.8294568750000001 -0.7710254999999999 -0.038416950000000005 -1.5339915 0.178517925 -2.1706920000000003 0.617223375 0.08865450000000001 -0.8016516 -0.0994005 -1.609616475 -0.5359567500000001 -2.2882263750000003 -0.43655625000000003 -0.6786099 -1.09206225 -1.186492725 -1.8590579999999999 -1.43862075 -0.7656525 -0.2519937 -1.595781 -0.232785225 -2.34934425 0.05453595 -0.7535632500000001 0.28718685 -1.3848907499999998 0.82502415 -1.7892090000000003 1.523111175 -0.569538 -3.92363325 -6.5577464999999995 -4.01497425 -7.171611750000001 -0.02552175 -0.39894525 -0.7009078500000001 -1.026243 -1.24358085 -1.7784630000000001 -1.5369466500000002 -0.7508767500000001 -0.2933658 -1.579662 -0.3196935 -2.348001 -0.07441605 -0.76968225 0.24527745000000004 -1.429218 0.746981325 -1.8724905 1.4214271500000002 -0.44192925000000005 0.6743115000000001 -0.639387 1.4802615000000001 -0.558792 2.2827190500000003 -0.6324021 -0.44461575000000003 -1.3934875500000001 -0.668804175 -2.1658563 -0.63804375 -0.7723687499999999 0.030760425 -1.5131711250000002 0.31472347500000003 -2.10809655 0.8080992 -0.59505975 0.49351005000000003 -1.0111986000000002 1.16889615 -1.184343525 1.922325075 -0.17314492499999998 0.7532946 -0.093624525 1.5427226250000001 0.22633762500000001 2.246316975 -0.7592049000000001 -0.206457525 -1.565557875 -0.1525932 -2.290375575 0.152996175 -0.724952025 0.3057237 -1.3264593750000002 0.84544155 -1.7084796750000002 1.53318555 -0.3820203 0.687609675 -0.52252425 1.4834853000000001 -0.39907957499999996 2.2604211000000003 0.123444675 0.7769358000000001 0.50371875 1.490067225 1.0801073250000002 2.0254866750000002 -0.8325463500000001 0.025790399999999998 -1.6285563 0.34696147499999996 -2.245779675 0.90615645s-1.015094025 1.319743125 -1.12268835 2.14570755c-0.10746 0.8258301 0.082609875 1.6629435000000001 0.5360910750000001 2.3614335 0.453615525 0.698624325 1.14095655 1.212820425 1.9391157 1.4507100000000002 -0.7995024 0.231710625 -1.4902015499999999 0.740533725 -1.9486527750000002 1.435262625 -0.458451225 0.6947289 -0.654565725 1.5298274250000001 -0.55315035 2.3560605 0.10128105 0.82609875 0.49351005000000003 1.589199075 1.1061663750000001 2.1524238 0.61279065 0.563224725 1.4061141 0.89003745 2.2378545 0.921603825 -0.577463175 0.5324643 -0.9597521250000001 1.243177875 -1.0856146500000001 2.01836745 -0.12599685 0.7753239000000001 0.011686275 1.5703935750000002 0.39088575 2.258137575 0.37906515 0.687878325 0.978020325 1.228670775 1.70082315 1.5361407 0.7226685 0.30733560000000004 1.527678225 0.36348345000000004 2.2862115 0.159443775 -0.265560525 0.560000925 -0.37731892499999997 1.180582425 -0.32372325 1.79807445 0.053461350000000005 0.617492025 0.27039622500000005 1.209596625 0.62837235 1.715464575 0.35797612500000003 0.506002275 0.844232625 0.9074997 1.408666275 1.16352315 0.56443365 0.255889125 1.186761375 0.35703585 1.803313125 0.292962825" stroke-width="1.5"></path>
      <path id="Vector_78" stroke="#fcfcfc" stroke-linecap="round" stroke-linejoin="round" d="m171.47392200000002 207.60197399999998 -6.66117675 -7.93726425" stroke-width="1.5"></path>
      <path id="Vector_79" stroke="#fcfcfc" stroke-linecap="round" stroke-linejoin="round" d="m127.9875465 209.41401825000003 2.73082725 -9.902439000000001" stroke-width="1.5"></path>
      <path id="Vector_80" stroke="#fcfcfc" stroke-linecap="round" stroke-linejoin="round" d="M148.09734225 144.10923300000002c3.6496102500000003 4.4139195 7.707568500000001 6.2770072500000005 12.0704445 6.22596375" stroke-width="1.5"></path>
      <path id="Ellipse 1" stroke="#fcfcfc" d="M61.5074175 50.64992775a1.77309 1.77309 0 1 0 3.54618 0 1.77309 1.77309 0 1 0 -3.54618 0" stroke-width="1.5"></path>
      <path id="Vector 1" stroke="#fcfcfc" stroke-linecap="round" d="M63.255120075 25.3793655v17.174660175" stroke-width="1.5"></path>
    </g>
  </g>
</svg>